G04 MADE WITH FRITZING*
G04 WWW.FRITZING.ORG*
G04 DOUBLE SIDED*
G04 HOLES PLATED*
G04 CONTOUR ON CENTER OF CONTOUR VECTOR*
%FSLAX26Y26*%
%MOIN*%
%ADD10R,0.001000X0.001000*%
G04 SILK0*
%FSLAX26Y26*%
%MOIN*%
D10*
X1183500Y1769430D02*
X1196500Y1769430D01*
X1331500Y1769430D02*
X1345500Y1769430D01*
X1480500Y1769430D02*
X1493500Y1769430D01*
X1628500Y1769430D02*
X1642500Y1769430D01*
X1777500Y1769430D02*
X1790500Y1769430D01*
X1181500Y1768430D02*
X1198500Y1768430D01*
X1329500Y1768430D02*
X1346500Y1768430D01*
X1478500Y1768430D02*
X1495500Y1768430D01*
X1626500Y1768430D02*
X1643500Y1768430D01*
X1775500Y1768430D02*
X1792500Y1768430D01*
X1180500Y1767430D02*
X1199500Y1767430D01*
X1328500Y1767430D02*
X1348500Y1767430D01*
X1477500Y1767430D02*
X1496500Y1767430D01*
X1625500Y1767430D02*
X1645500Y1767430D01*
X1774500Y1767430D02*
X1793500Y1767430D01*
X1178500Y1766430D02*
X1200500Y1766430D01*
X1327500Y1766430D02*
X1349500Y1766430D01*
X1476500Y1766430D02*
X1497500Y1766430D01*
X1624500Y1766430D02*
X1646500Y1766430D01*
X1773500Y1766430D02*
X1794500Y1766430D01*
X1178500Y1765430D02*
X1201500Y1765430D01*
X1326500Y1765430D02*
X1349500Y1765430D01*
X1475500Y1765430D02*
X1498500Y1765430D01*
X1623500Y1765430D02*
X1646500Y1765430D01*
X1772500Y1765430D02*
X1795500Y1765430D01*
X1177500Y1764430D02*
X1201500Y1764430D01*
X1326500Y1764430D02*
X1350500Y1764430D01*
X1474500Y1764430D02*
X1498500Y1764430D01*
X1623500Y1764430D02*
X1647500Y1764430D01*
X1771500Y1764430D02*
X1795500Y1764430D01*
X1177500Y1763430D02*
X1202500Y1763430D01*
X1325500Y1763430D02*
X1350500Y1763430D01*
X1474500Y1763430D02*
X1499500Y1763430D01*
X1622500Y1763430D02*
X1647500Y1763430D01*
X1771500Y1763430D02*
X1796500Y1763430D01*
X1176500Y1762430D02*
X1183500Y1762430D01*
X1195500Y1762430D02*
X1202500Y1762430D01*
X1325500Y1762430D02*
X1332500Y1762430D01*
X1344500Y1762430D02*
X1351500Y1762430D01*
X1473500Y1762430D02*
X1480500Y1762430D01*
X1492500Y1762430D02*
X1499500Y1762430D01*
X1622500Y1762430D02*
X1629500Y1762430D01*
X1641500Y1762430D02*
X1648500Y1762430D01*
X1770500Y1762430D02*
X1777500Y1762430D01*
X1789500Y1762430D02*
X1796500Y1762430D01*
X1176500Y1761430D02*
X1182500Y1761430D01*
X1196500Y1761430D02*
X1202500Y1761430D01*
X1325500Y1761430D02*
X1331500Y1761430D01*
X1345500Y1761430D02*
X1351500Y1761430D01*
X1473500Y1761430D02*
X1479500Y1761430D01*
X1493500Y1761430D02*
X1499500Y1761430D01*
X1622500Y1761430D02*
X1628500Y1761430D01*
X1642500Y1761430D02*
X1648500Y1761430D01*
X1770500Y1761430D02*
X1777500Y1761430D01*
X1790500Y1761430D02*
X1796500Y1761430D01*
X1176500Y1760430D02*
X1182500Y1760430D01*
X1197500Y1760430D02*
X1202500Y1760430D01*
X1325500Y1760430D02*
X1330500Y1760430D01*
X1345500Y1760430D02*
X1351500Y1760430D01*
X1473500Y1760430D02*
X1479500Y1760430D01*
X1494500Y1760430D02*
X1499500Y1760430D01*
X1622500Y1760430D02*
X1628500Y1760430D01*
X1642500Y1760430D02*
X1648500Y1760430D01*
X1770500Y1760430D02*
X1776500Y1760430D01*
X1791500Y1760430D02*
X1796500Y1760430D01*
X1177500Y1759430D02*
X1182500Y1759430D01*
X1197500Y1759430D02*
X1202500Y1759430D01*
X1325500Y1759430D02*
X1330500Y1759430D01*
X1345500Y1759430D02*
X1351500Y1759430D01*
X1474500Y1759430D02*
X1479500Y1759430D01*
X1494500Y1759430D02*
X1500500Y1759430D01*
X1622500Y1759430D02*
X1627500Y1759430D01*
X1642500Y1759430D02*
X1648500Y1759430D01*
X1771500Y1759430D02*
X1776500Y1759430D01*
X1791500Y1759430D02*
X1797500Y1759430D01*
X1177500Y1758430D02*
X1181500Y1758430D01*
X1197500Y1758430D02*
X1202500Y1758430D01*
X1326500Y1758430D02*
X1329500Y1758430D01*
X1345500Y1758430D02*
X1351500Y1758430D01*
X1474500Y1758430D02*
X1478500Y1758430D01*
X1494500Y1758430D02*
X1500500Y1758430D01*
X1623500Y1758430D02*
X1626500Y1758430D01*
X1642500Y1758430D02*
X1648500Y1758430D01*
X1771500Y1758430D02*
X1775500Y1758430D01*
X1791500Y1758430D02*
X1797500Y1758430D01*
X1197500Y1757430D02*
X1202500Y1757430D01*
X1345500Y1757430D02*
X1351500Y1757430D01*
X1494500Y1757430D02*
X1500500Y1757430D01*
X1642500Y1757430D02*
X1648500Y1757430D01*
X1791500Y1757430D02*
X1797500Y1757430D01*
X1197500Y1756430D02*
X1202500Y1756430D01*
X1345500Y1756430D02*
X1351500Y1756430D01*
X1494500Y1756430D02*
X1500500Y1756430D01*
X1642500Y1756430D02*
X1648500Y1756430D01*
X1791500Y1756430D02*
X1797500Y1756430D01*
X1197500Y1755430D02*
X1202500Y1755430D01*
X1228500Y1755430D02*
X1250500Y1755430D01*
X1286500Y1755430D02*
X1302500Y1755430D01*
X1345500Y1755430D02*
X1351500Y1755430D01*
X1377500Y1755430D02*
X1398500Y1755430D01*
X1434500Y1755430D02*
X1451500Y1755430D01*
X1494500Y1755430D02*
X1500500Y1755430D01*
X1525500Y1755430D02*
X1547500Y1755430D01*
X1583500Y1755430D02*
X1599500Y1755430D01*
X1642500Y1755430D02*
X1648500Y1755430D01*
X1674500Y1755430D02*
X1695500Y1755430D01*
X1732500Y1755430D02*
X1748500Y1755430D01*
X1791500Y1755430D02*
X1797500Y1755430D01*
X1822500Y1755430D02*
X1844500Y1755430D01*
X1880500Y1755430D02*
X1897500Y1755430D01*
X1197500Y1754430D02*
X1202500Y1754430D01*
X1227500Y1754430D02*
X1251500Y1754430D01*
X1283500Y1754430D02*
X1304500Y1754430D01*
X1345500Y1754430D02*
X1351500Y1754430D01*
X1375500Y1754430D02*
X1400500Y1754430D01*
X1432500Y1754430D02*
X1452500Y1754430D01*
X1494500Y1754430D02*
X1500500Y1754430D01*
X1524500Y1754430D02*
X1548500Y1754430D01*
X1580500Y1754430D02*
X1601500Y1754430D01*
X1642500Y1754430D02*
X1648500Y1754430D01*
X1672500Y1754430D02*
X1697500Y1754430D01*
X1729500Y1754430D02*
X1750500Y1754430D01*
X1791500Y1754430D02*
X1797500Y1754430D01*
X1821500Y1754430D02*
X1845500Y1754430D01*
X1877500Y1754430D02*
X1898500Y1754430D01*
X1197500Y1753430D02*
X1202500Y1753430D01*
X1226500Y1753430D02*
X1252500Y1753430D01*
X1282500Y1753430D02*
X1305500Y1753430D01*
X1345500Y1753430D02*
X1351500Y1753430D01*
X1374500Y1753430D02*
X1400500Y1753430D01*
X1430500Y1753430D02*
X1453500Y1753430D01*
X1494500Y1753430D02*
X1500500Y1753430D01*
X1523500Y1753430D02*
X1549500Y1753430D01*
X1579500Y1753430D02*
X1602500Y1753430D01*
X1642500Y1753430D02*
X1648500Y1753430D01*
X1672500Y1753430D02*
X1697500Y1753430D01*
X1727500Y1753430D02*
X1750500Y1753430D01*
X1791500Y1753430D02*
X1797500Y1753430D01*
X1820500Y1753430D02*
X1846500Y1753430D01*
X1876500Y1753430D02*
X1899500Y1753430D01*
X1197500Y1752430D02*
X1202500Y1752430D01*
X1226500Y1752430D02*
X1252500Y1752430D01*
X1280500Y1752430D02*
X1305500Y1752430D01*
X1345500Y1752430D02*
X1351500Y1752430D01*
X1374500Y1752430D02*
X1400500Y1752430D01*
X1429500Y1752430D02*
X1453500Y1752430D01*
X1494500Y1752430D02*
X1500500Y1752430D01*
X1523500Y1752430D02*
X1549500Y1752430D01*
X1577500Y1752430D02*
X1602500Y1752430D01*
X1642500Y1752430D02*
X1648500Y1752430D01*
X1671500Y1752430D02*
X1697500Y1752430D01*
X1726500Y1752430D02*
X1750500Y1752430D01*
X1791500Y1752430D02*
X1797500Y1752430D01*
X1820500Y1752430D02*
X1846500Y1752430D01*
X1874500Y1752430D02*
X1899500Y1752430D01*
X1197500Y1751430D02*
X1202500Y1751430D01*
X1226500Y1751430D02*
X1252500Y1751430D01*
X1279500Y1751430D02*
X1305500Y1751430D01*
X1345500Y1751430D02*
X1351500Y1751430D01*
X1374500Y1751430D02*
X1400500Y1751430D01*
X1428500Y1751430D02*
X1453500Y1751430D01*
X1494500Y1751430D02*
X1500500Y1751430D01*
X1523500Y1751430D02*
X1549500Y1751430D01*
X1576500Y1751430D02*
X1602500Y1751430D01*
X1642500Y1751430D02*
X1648500Y1751430D01*
X1671500Y1751430D02*
X1697500Y1751430D01*
X1725500Y1751430D02*
X1750500Y1751430D01*
X1791500Y1751430D02*
X1797500Y1751430D01*
X1820500Y1751430D02*
X1846500Y1751430D01*
X1873500Y1751430D02*
X1899500Y1751430D01*
X1197500Y1750430D02*
X1202500Y1750430D01*
X1226500Y1750430D02*
X1251500Y1750430D01*
X1278500Y1750430D02*
X1304500Y1750430D01*
X1345500Y1750430D02*
X1351500Y1750430D01*
X1375500Y1750430D02*
X1400500Y1750430D01*
X1427500Y1750430D02*
X1453500Y1750430D01*
X1494500Y1750430D02*
X1500500Y1750430D01*
X1523500Y1750430D02*
X1548500Y1750430D01*
X1575500Y1750430D02*
X1601500Y1750430D01*
X1642500Y1750430D02*
X1648500Y1750430D01*
X1672500Y1750430D02*
X1697500Y1750430D01*
X1724500Y1750430D02*
X1750500Y1750430D01*
X1791500Y1750430D02*
X1797500Y1750430D01*
X1820500Y1750430D02*
X1845500Y1750430D01*
X1872500Y1750430D02*
X1898500Y1750430D01*
X1197500Y1749430D02*
X1202500Y1749430D01*
X1227500Y1749430D02*
X1250500Y1749430D01*
X1277500Y1749430D02*
X1303500Y1749430D01*
X1345500Y1749430D02*
X1351500Y1749430D01*
X1376500Y1749430D02*
X1399500Y1749430D01*
X1425500Y1749430D02*
X1452500Y1749430D01*
X1494500Y1749430D02*
X1500500Y1749430D01*
X1524500Y1749430D02*
X1547500Y1749430D01*
X1574500Y1749430D02*
X1600500Y1749430D01*
X1642500Y1749430D02*
X1648500Y1749430D01*
X1673500Y1749430D02*
X1696500Y1749430D01*
X1722500Y1749430D02*
X1749500Y1749430D01*
X1791500Y1749430D02*
X1797500Y1749430D01*
X1821500Y1749430D02*
X1845500Y1749430D01*
X1871500Y1749430D02*
X1897500Y1749430D01*
X1197500Y1748430D02*
X1202500Y1748430D01*
X1236500Y1748430D02*
X1242500Y1748430D01*
X1276500Y1748430D02*
X1286500Y1748430D01*
X1345500Y1748430D02*
X1351500Y1748430D01*
X1384500Y1748430D02*
X1390500Y1748430D01*
X1424500Y1748430D02*
X1434500Y1748430D01*
X1494500Y1748430D02*
X1500500Y1748430D01*
X1533500Y1748430D02*
X1539500Y1748430D01*
X1573500Y1748430D02*
X1583500Y1748430D01*
X1642500Y1748430D02*
X1648500Y1748430D01*
X1681500Y1748430D02*
X1687500Y1748430D01*
X1721500Y1748430D02*
X1731500Y1748430D01*
X1791500Y1748430D02*
X1797500Y1748430D01*
X1830500Y1748430D02*
X1836500Y1748430D01*
X1870500Y1748430D02*
X1880500Y1748430D01*
X1197500Y1747430D02*
X1202500Y1747430D01*
X1236500Y1747430D02*
X1242500Y1747430D01*
X1275500Y1747430D02*
X1284500Y1747430D01*
X1345500Y1747430D02*
X1351500Y1747430D01*
X1384500Y1747430D02*
X1390500Y1747430D01*
X1423500Y1747430D02*
X1433500Y1747430D01*
X1494500Y1747430D02*
X1500500Y1747430D01*
X1533500Y1747430D02*
X1539500Y1747430D01*
X1572500Y1747430D02*
X1581500Y1747430D01*
X1642500Y1747430D02*
X1648500Y1747430D01*
X1681500Y1747430D02*
X1687500Y1747430D01*
X1720500Y1747430D02*
X1730500Y1747430D01*
X1791500Y1747430D02*
X1797500Y1747430D01*
X1830500Y1747430D02*
X1836500Y1747430D01*
X1869500Y1747430D02*
X1878500Y1747430D01*
X1197500Y1746430D02*
X1202500Y1746430D01*
X1236500Y1746430D02*
X1242500Y1746430D01*
X1274500Y1746430D02*
X1283500Y1746430D01*
X1345500Y1746430D02*
X1351500Y1746430D01*
X1384500Y1746430D02*
X1390500Y1746430D01*
X1422500Y1746430D02*
X1432500Y1746430D01*
X1494500Y1746430D02*
X1500500Y1746430D01*
X1533500Y1746430D02*
X1539500Y1746430D01*
X1571500Y1746430D02*
X1580500Y1746430D01*
X1642500Y1746430D02*
X1648500Y1746430D01*
X1681500Y1746430D02*
X1687500Y1746430D01*
X1719500Y1746430D02*
X1729500Y1746430D01*
X1791500Y1746430D02*
X1797500Y1746430D01*
X1830500Y1746430D02*
X1836500Y1746430D01*
X1868500Y1746430D02*
X1877500Y1746430D01*
X1197500Y1745430D02*
X1202500Y1745430D01*
X1236500Y1745430D02*
X1242500Y1745430D01*
X1273500Y1745430D02*
X1282500Y1745430D01*
X1345500Y1745430D02*
X1351500Y1745430D01*
X1384500Y1745430D02*
X1390500Y1745430D01*
X1422500Y1745430D02*
X1430500Y1745430D01*
X1494500Y1745430D02*
X1500500Y1745430D01*
X1533500Y1745430D02*
X1539500Y1745430D01*
X1570500Y1745430D02*
X1579500Y1745430D01*
X1642500Y1745430D02*
X1648500Y1745430D01*
X1681500Y1745430D02*
X1687500Y1745430D01*
X1719500Y1745430D02*
X1727500Y1745430D01*
X1791500Y1745430D02*
X1797500Y1745430D01*
X1830500Y1745430D02*
X1836500Y1745430D01*
X1867500Y1745430D02*
X1876500Y1745430D01*
X1197500Y1744430D02*
X1202500Y1744430D01*
X1236500Y1744430D02*
X1242500Y1744430D01*
X1273500Y1744430D02*
X1281500Y1744430D01*
X1345500Y1744430D02*
X1351500Y1744430D01*
X1384500Y1744430D02*
X1390500Y1744430D01*
X1421500Y1744430D02*
X1429500Y1744430D01*
X1494500Y1744430D02*
X1500500Y1744430D01*
X1533500Y1744430D02*
X1539500Y1744430D01*
X1570500Y1744430D02*
X1578500Y1744430D01*
X1642500Y1744430D02*
X1648500Y1744430D01*
X1681500Y1744430D02*
X1687500Y1744430D01*
X1718500Y1744430D02*
X1726500Y1744430D01*
X1791500Y1744430D02*
X1797500Y1744430D01*
X1830500Y1744430D02*
X1836500Y1744430D01*
X1867500Y1744430D02*
X1875500Y1744430D01*
X1197500Y1743430D02*
X1202500Y1743430D01*
X1236500Y1743430D02*
X1242500Y1743430D01*
X1272500Y1743430D02*
X1279500Y1743430D01*
X1345500Y1743430D02*
X1351500Y1743430D01*
X1384500Y1743430D02*
X1390500Y1743430D01*
X1421500Y1743430D02*
X1428500Y1743430D01*
X1494500Y1743430D02*
X1500500Y1743430D01*
X1533500Y1743430D02*
X1539500Y1743430D01*
X1569500Y1743430D02*
X1577500Y1743430D01*
X1642500Y1743430D02*
X1648500Y1743430D01*
X1681500Y1743430D02*
X1687500Y1743430D01*
X1718500Y1743430D02*
X1725500Y1743430D01*
X1791500Y1743430D02*
X1797500Y1743430D01*
X1830500Y1743430D02*
X1836500Y1743430D01*
X1866500Y1743430D02*
X1874500Y1743430D01*
X1197500Y1742430D02*
X1202500Y1742430D01*
X1236500Y1742430D02*
X1242500Y1742430D01*
X1272500Y1742430D02*
X1279500Y1742430D01*
X1345500Y1742430D02*
X1351500Y1742430D01*
X1384500Y1742430D02*
X1390500Y1742430D01*
X1421500Y1742430D02*
X1427500Y1742430D01*
X1494500Y1742430D02*
X1500500Y1742430D01*
X1533500Y1742430D02*
X1539500Y1742430D01*
X1569500Y1742430D02*
X1576500Y1742430D01*
X1642500Y1742430D02*
X1648500Y1742430D01*
X1681500Y1742430D02*
X1687500Y1742430D01*
X1718500Y1742430D02*
X1724500Y1742430D01*
X1791500Y1742430D02*
X1797500Y1742430D01*
X1830500Y1742430D02*
X1836500Y1742430D01*
X1866500Y1742430D02*
X1873500Y1742430D01*
X1197500Y1741430D02*
X1202500Y1741430D01*
X1236500Y1741430D02*
X1242500Y1741430D01*
X1272500Y1741430D02*
X1278500Y1741430D01*
X1345500Y1741430D02*
X1351500Y1741430D01*
X1384500Y1741430D02*
X1390500Y1741430D01*
X1420500Y1741430D02*
X1426500Y1741430D01*
X1494500Y1741430D02*
X1500500Y1741430D01*
X1533500Y1741430D02*
X1539500Y1741430D01*
X1569500Y1741430D02*
X1575500Y1741430D01*
X1642500Y1741430D02*
X1648500Y1741430D01*
X1681500Y1741430D02*
X1687500Y1741430D01*
X1717500Y1741430D02*
X1724500Y1741430D01*
X1791500Y1741430D02*
X1797500Y1741430D01*
X1830500Y1741430D02*
X1836500Y1741430D01*
X1866500Y1741430D02*
X1872500Y1741430D01*
X1197500Y1740430D02*
X1202500Y1740430D01*
X1236500Y1740430D02*
X1242500Y1740430D01*
X1272500Y1740430D02*
X1278500Y1740430D01*
X1345500Y1740430D02*
X1351500Y1740430D01*
X1384500Y1740430D02*
X1390500Y1740430D01*
X1420500Y1740430D02*
X1426500Y1740430D01*
X1494500Y1740430D02*
X1500500Y1740430D01*
X1533500Y1740430D02*
X1539500Y1740430D01*
X1569500Y1740430D02*
X1575500Y1740430D01*
X1642500Y1740430D02*
X1648500Y1740430D01*
X1681500Y1740430D02*
X1687500Y1740430D01*
X1717500Y1740430D02*
X1723500Y1740430D01*
X1791500Y1740430D02*
X1797500Y1740430D01*
X1830500Y1740430D02*
X1836500Y1740430D01*
X1866500Y1740430D02*
X1872500Y1740430D01*
X1197500Y1739430D02*
X1202500Y1739430D01*
X1236500Y1739430D02*
X1242500Y1739430D01*
X1272500Y1739430D02*
X1278500Y1739430D01*
X1345500Y1739430D02*
X1351500Y1739430D01*
X1384500Y1739430D02*
X1390500Y1739430D01*
X1420500Y1739430D02*
X1426500Y1739430D01*
X1494500Y1739430D02*
X1500500Y1739430D01*
X1533500Y1739430D02*
X1539500Y1739430D01*
X1569500Y1739430D02*
X1575500Y1739430D01*
X1642500Y1739430D02*
X1648500Y1739430D01*
X1681500Y1739430D02*
X1687500Y1739430D01*
X1717500Y1739430D02*
X1723500Y1739430D01*
X1791500Y1739430D02*
X1797500Y1739430D01*
X1830500Y1739430D02*
X1836500Y1739430D01*
X1866500Y1739430D02*
X1872500Y1739430D01*
X1197500Y1738430D02*
X1202500Y1738430D01*
X1236500Y1738430D02*
X1242500Y1738430D01*
X1272500Y1738430D02*
X1278500Y1738430D01*
X1345500Y1738430D02*
X1351500Y1738430D01*
X1384500Y1738430D02*
X1390500Y1738430D01*
X1420500Y1738430D02*
X1426500Y1738430D01*
X1494500Y1738430D02*
X1500500Y1738430D01*
X1533500Y1738430D02*
X1539500Y1738430D01*
X1569500Y1738430D02*
X1575500Y1738430D01*
X1642500Y1738430D02*
X1648500Y1738430D01*
X1681500Y1738430D02*
X1687500Y1738430D01*
X1717500Y1738430D02*
X1723500Y1738430D01*
X1791500Y1738430D02*
X1797500Y1738430D01*
X1830500Y1738430D02*
X1836500Y1738430D01*
X1866500Y1738430D02*
X1872500Y1738430D01*
X1197500Y1737430D02*
X1202500Y1737430D01*
X1236500Y1737430D02*
X1242500Y1737430D01*
X1272500Y1737430D02*
X1278500Y1737430D01*
X1345500Y1737430D02*
X1351500Y1737430D01*
X1384500Y1737430D02*
X1390500Y1737430D01*
X1420500Y1737430D02*
X1426500Y1737430D01*
X1494500Y1737430D02*
X1500500Y1737430D01*
X1533500Y1737430D02*
X1539500Y1737430D01*
X1569500Y1737430D02*
X1575500Y1737430D01*
X1642500Y1737430D02*
X1648500Y1737430D01*
X1681500Y1737430D02*
X1687500Y1737430D01*
X1717500Y1737430D02*
X1723500Y1737430D01*
X1791500Y1737430D02*
X1797500Y1737430D01*
X1830500Y1737430D02*
X1836500Y1737430D01*
X1866500Y1737430D02*
X1872500Y1737430D01*
X1197500Y1736430D02*
X1202500Y1736430D01*
X1236500Y1736430D02*
X1242500Y1736430D01*
X1272500Y1736430D02*
X1278500Y1736430D01*
X1345500Y1736430D02*
X1351500Y1736430D01*
X1384500Y1736430D02*
X1390500Y1736430D01*
X1420500Y1736430D02*
X1426500Y1736430D01*
X1494500Y1736430D02*
X1500500Y1736430D01*
X1533500Y1736430D02*
X1539500Y1736430D01*
X1569500Y1736430D02*
X1575500Y1736430D01*
X1642500Y1736430D02*
X1648500Y1736430D01*
X1681500Y1736430D02*
X1687500Y1736430D01*
X1717500Y1736430D02*
X1723500Y1736430D01*
X1791500Y1736430D02*
X1797500Y1736430D01*
X1830500Y1736430D02*
X1836500Y1736430D01*
X1866500Y1736430D02*
X1872500Y1736430D01*
X1197500Y1735430D02*
X1202500Y1735430D01*
X1236500Y1735430D02*
X1242500Y1735430D01*
X1272500Y1735430D02*
X1278500Y1735430D01*
X1345500Y1735430D02*
X1351500Y1735430D01*
X1384500Y1735430D02*
X1390500Y1735430D01*
X1420500Y1735430D02*
X1426500Y1735430D01*
X1494500Y1735430D02*
X1500500Y1735430D01*
X1533500Y1735430D02*
X1539500Y1735430D01*
X1569500Y1735430D02*
X1575500Y1735430D01*
X1642500Y1735430D02*
X1648500Y1735430D01*
X1681500Y1735430D02*
X1687500Y1735430D01*
X1717500Y1735430D02*
X1723500Y1735430D01*
X1791500Y1735430D02*
X1797500Y1735430D01*
X1830500Y1735430D02*
X1836500Y1735430D01*
X1866500Y1735430D02*
X1872500Y1735430D01*
X1197500Y1734430D02*
X1202500Y1734430D01*
X1236500Y1734430D02*
X1242500Y1734430D01*
X1272500Y1734430D02*
X1278500Y1734430D01*
X1345500Y1734430D02*
X1351500Y1734430D01*
X1384500Y1734430D02*
X1390500Y1734430D01*
X1420500Y1734430D02*
X1426500Y1734430D01*
X1494500Y1734430D02*
X1500500Y1734430D01*
X1533500Y1734430D02*
X1539500Y1734430D01*
X1569500Y1734430D02*
X1575500Y1734430D01*
X1642500Y1734430D02*
X1648500Y1734430D01*
X1681500Y1734430D02*
X1687500Y1734430D01*
X1717500Y1734430D02*
X1723500Y1734430D01*
X1791500Y1734430D02*
X1797500Y1734430D01*
X1830500Y1734430D02*
X1836500Y1734430D01*
X1866500Y1734430D02*
X1872500Y1734430D01*
X1197500Y1733430D02*
X1202500Y1733430D01*
X1236500Y1733430D02*
X1242500Y1733430D01*
X1272500Y1733430D02*
X1278500Y1733430D01*
X1345500Y1733430D02*
X1351500Y1733430D01*
X1384500Y1733430D02*
X1390500Y1733430D01*
X1420500Y1733430D02*
X1426500Y1733430D01*
X1494500Y1733430D02*
X1500500Y1733430D01*
X1533500Y1733430D02*
X1539500Y1733430D01*
X1569500Y1733430D02*
X1575500Y1733430D01*
X1642500Y1733430D02*
X1648500Y1733430D01*
X1681500Y1733430D02*
X1687500Y1733430D01*
X1717500Y1733430D02*
X1723500Y1733430D01*
X1791500Y1733430D02*
X1797500Y1733430D01*
X1830500Y1733430D02*
X1836500Y1733430D01*
X1866500Y1733430D02*
X1872500Y1733430D01*
X1197500Y1732430D02*
X1202500Y1732430D01*
X1236500Y1732430D02*
X1242500Y1732430D01*
X1272500Y1732430D02*
X1278500Y1732430D01*
X1345500Y1732430D02*
X1351500Y1732430D01*
X1384500Y1732430D02*
X1390500Y1732430D01*
X1420500Y1732430D02*
X1426500Y1732430D01*
X1494500Y1732430D02*
X1500500Y1732430D01*
X1533500Y1732430D02*
X1539500Y1732430D01*
X1569500Y1732430D02*
X1575500Y1732430D01*
X1642500Y1732430D02*
X1648500Y1732430D01*
X1681500Y1732430D02*
X1687500Y1732430D01*
X1717500Y1732430D02*
X1723500Y1732430D01*
X1791500Y1732430D02*
X1797500Y1732430D01*
X1830500Y1732430D02*
X1836500Y1732430D01*
X1866500Y1732430D02*
X1872500Y1732430D01*
X1197500Y1731430D02*
X1202500Y1731430D01*
X1236500Y1731430D02*
X1242500Y1731430D01*
X1272500Y1731430D02*
X1278500Y1731430D01*
X1345500Y1731430D02*
X1351500Y1731430D01*
X1384500Y1731430D02*
X1390500Y1731430D01*
X1420500Y1731430D02*
X1426500Y1731430D01*
X1494500Y1731430D02*
X1500500Y1731430D01*
X1533500Y1731430D02*
X1539500Y1731430D01*
X1569500Y1731430D02*
X1575500Y1731430D01*
X1642500Y1731430D02*
X1648500Y1731430D01*
X1681500Y1731430D02*
X1687500Y1731430D01*
X1717500Y1731430D02*
X1723500Y1731430D01*
X1791500Y1731430D02*
X1797500Y1731430D01*
X1830500Y1731430D02*
X1836500Y1731430D01*
X1866500Y1731430D02*
X1872500Y1731430D01*
X1197500Y1730430D02*
X1202500Y1730430D01*
X1236500Y1730430D02*
X1242500Y1730430D01*
X1272500Y1730430D02*
X1278500Y1730430D01*
X1345500Y1730430D02*
X1351500Y1730430D01*
X1384500Y1730430D02*
X1390500Y1730430D01*
X1420500Y1730430D02*
X1427500Y1730430D01*
X1494500Y1730430D02*
X1500500Y1730430D01*
X1533500Y1730430D02*
X1539500Y1730430D01*
X1569500Y1730430D02*
X1575500Y1730430D01*
X1642500Y1730430D02*
X1648500Y1730430D01*
X1681500Y1730430D02*
X1687500Y1730430D01*
X1718500Y1730430D02*
X1724500Y1730430D01*
X1791500Y1730430D02*
X1797500Y1730430D01*
X1830500Y1730430D02*
X1836500Y1730430D01*
X1866500Y1730430D02*
X1872500Y1730430D01*
X1197500Y1729430D02*
X1202500Y1729430D01*
X1236500Y1729430D02*
X1242500Y1729430D01*
X1272500Y1729430D02*
X1279500Y1729430D01*
X1345500Y1729430D02*
X1351500Y1729430D01*
X1384500Y1729430D02*
X1390500Y1729430D01*
X1421500Y1729430D02*
X1428500Y1729430D01*
X1494500Y1729430D02*
X1500500Y1729430D01*
X1533500Y1729430D02*
X1539500Y1729430D01*
X1569500Y1729430D02*
X1576500Y1729430D01*
X1642500Y1729430D02*
X1648500Y1729430D01*
X1681500Y1729430D02*
X1687500Y1729430D01*
X1718500Y1729430D02*
X1725500Y1729430D01*
X1791500Y1729430D02*
X1797500Y1729430D01*
X1830500Y1729430D02*
X1836500Y1729430D01*
X1866500Y1729430D02*
X1873500Y1729430D01*
X1197500Y1728430D02*
X1202500Y1728430D01*
X1236500Y1728430D02*
X1242500Y1728430D01*
X1272500Y1728430D02*
X1280500Y1728430D01*
X1345500Y1728430D02*
X1351500Y1728430D01*
X1384500Y1728430D02*
X1390500Y1728430D01*
X1421500Y1728430D02*
X1429500Y1728430D01*
X1494500Y1728430D02*
X1500500Y1728430D01*
X1533500Y1728430D02*
X1539500Y1728430D01*
X1570500Y1728430D02*
X1577500Y1728430D01*
X1642500Y1728430D02*
X1648500Y1728430D01*
X1681500Y1728430D02*
X1687500Y1728430D01*
X1718500Y1728430D02*
X1726500Y1728430D01*
X1791500Y1728430D02*
X1797500Y1728430D01*
X1830500Y1728430D02*
X1836500Y1728430D01*
X1867500Y1728430D02*
X1874500Y1728430D01*
X1197500Y1727430D02*
X1202500Y1727430D01*
X1236500Y1727430D02*
X1242500Y1727430D01*
X1273500Y1727430D02*
X1281500Y1727430D01*
X1345500Y1727430D02*
X1351500Y1727430D01*
X1384500Y1727430D02*
X1390500Y1727430D01*
X1421500Y1727430D02*
X1430500Y1727430D01*
X1494500Y1727430D02*
X1500500Y1727430D01*
X1533500Y1727430D02*
X1539500Y1727430D01*
X1570500Y1727430D02*
X1578500Y1727430D01*
X1642500Y1727430D02*
X1648500Y1727430D01*
X1681500Y1727430D02*
X1687500Y1727430D01*
X1718500Y1727430D02*
X1727500Y1727430D01*
X1791500Y1727430D02*
X1797500Y1727430D01*
X1830500Y1727430D02*
X1836500Y1727430D01*
X1867500Y1727430D02*
X1875500Y1727430D01*
X1197500Y1726430D02*
X1202500Y1726430D01*
X1236500Y1726430D02*
X1242500Y1726430D01*
X1274500Y1726430D02*
X1283500Y1726430D01*
X1345500Y1726430D02*
X1351500Y1726430D01*
X1384500Y1726430D02*
X1390500Y1726430D01*
X1422500Y1726430D02*
X1431500Y1726430D01*
X1494500Y1726430D02*
X1500500Y1726430D01*
X1533500Y1726430D02*
X1539500Y1726430D01*
X1571500Y1726430D02*
X1580500Y1726430D01*
X1642500Y1726430D02*
X1648500Y1726430D01*
X1681500Y1726430D02*
X1687500Y1726430D01*
X1719500Y1726430D02*
X1728500Y1726430D01*
X1791500Y1726430D02*
X1797500Y1726430D01*
X1830500Y1726430D02*
X1836500Y1726430D01*
X1868500Y1726430D02*
X1877500Y1726430D01*
X1197500Y1725430D02*
X1202500Y1725430D01*
X1236500Y1725430D02*
X1242500Y1725430D01*
X1274500Y1725430D02*
X1284500Y1725430D01*
X1345500Y1725430D02*
X1351500Y1725430D01*
X1384500Y1725430D02*
X1390500Y1725430D01*
X1423500Y1725430D02*
X1432500Y1725430D01*
X1494500Y1725430D02*
X1500500Y1725430D01*
X1533500Y1725430D02*
X1539500Y1725430D01*
X1571500Y1725430D02*
X1581500Y1725430D01*
X1642500Y1725430D02*
X1648500Y1725430D01*
X1681500Y1725430D02*
X1687500Y1725430D01*
X1720500Y1725430D02*
X1729500Y1725430D01*
X1791500Y1725430D02*
X1797500Y1725430D01*
X1830500Y1725430D02*
X1836500Y1725430D01*
X1868500Y1725430D02*
X1878500Y1725430D01*
X1197500Y1724430D02*
X1202500Y1724430D01*
X1236500Y1724430D02*
X1242500Y1724430D01*
X1275500Y1724430D02*
X1285500Y1724430D01*
X1345500Y1724430D02*
X1351500Y1724430D01*
X1384500Y1724430D02*
X1390500Y1724430D01*
X1424500Y1724430D02*
X1433500Y1724430D01*
X1494500Y1724430D02*
X1500500Y1724430D01*
X1533500Y1724430D02*
X1539500Y1724430D01*
X1572500Y1724430D02*
X1582500Y1724430D01*
X1642500Y1724430D02*
X1648500Y1724430D01*
X1681500Y1724430D02*
X1687500Y1724430D01*
X1721500Y1724430D02*
X1730500Y1724430D01*
X1791500Y1724430D02*
X1797500Y1724430D01*
X1830500Y1724430D02*
X1836500Y1724430D01*
X1869500Y1724430D02*
X1879500Y1724430D01*
X1185500Y1723430D02*
X1202500Y1723430D01*
X1236500Y1723430D02*
X1242500Y1723430D01*
X1276500Y1723430D02*
X1303500Y1723430D01*
X1334500Y1723430D02*
X1351500Y1723430D01*
X1384500Y1723430D02*
X1390500Y1723430D01*
X1425500Y1723430D02*
X1451500Y1723430D01*
X1482500Y1723430D02*
X1500500Y1723430D01*
X1533500Y1723430D02*
X1539500Y1723430D01*
X1573500Y1723430D02*
X1600500Y1723430D01*
X1631500Y1723430D02*
X1648500Y1723430D01*
X1681500Y1723430D02*
X1687500Y1723430D01*
X1722500Y1723430D02*
X1748500Y1723430D01*
X1779500Y1723430D02*
X1797500Y1723430D01*
X1830500Y1723430D02*
X1836500Y1723430D01*
X1870500Y1723430D02*
X1897500Y1723430D01*
X1184500Y1722430D02*
X1202500Y1722430D01*
X1236500Y1722430D02*
X1242500Y1722430D01*
X1277500Y1722430D02*
X1304500Y1722430D01*
X1332500Y1722430D02*
X1351500Y1722430D01*
X1384500Y1722430D02*
X1390500Y1722430D01*
X1426500Y1722430D02*
X1453500Y1722430D01*
X1481500Y1722430D02*
X1500500Y1722430D01*
X1533500Y1722430D02*
X1539500Y1722430D01*
X1574500Y1722430D02*
X1601500Y1722430D01*
X1629500Y1722430D02*
X1648500Y1722430D01*
X1681500Y1722430D02*
X1687500Y1722430D01*
X1723500Y1722430D02*
X1750500Y1722430D01*
X1778500Y1722430D02*
X1797500Y1722430D01*
X1830500Y1722430D02*
X1836500Y1722430D01*
X1871500Y1722430D02*
X1898500Y1722430D01*
X1183500Y1721430D02*
X1202500Y1721430D01*
X1236500Y1721430D02*
X1242500Y1721430D01*
X1278500Y1721430D02*
X1305500Y1721430D01*
X1332500Y1721430D02*
X1351500Y1721430D01*
X1384500Y1721430D02*
X1390500Y1721430D01*
X1427500Y1721430D02*
X1453500Y1721430D01*
X1480500Y1721430D02*
X1500500Y1721430D01*
X1533500Y1721430D02*
X1539500Y1721430D01*
X1575500Y1721430D02*
X1602500Y1721430D01*
X1629500Y1721430D02*
X1648500Y1721430D01*
X1681500Y1721430D02*
X1687500Y1721430D01*
X1724500Y1721430D02*
X1750500Y1721430D01*
X1777500Y1721430D02*
X1797500Y1721430D01*
X1830500Y1721430D02*
X1836500Y1721430D01*
X1872500Y1721430D02*
X1899500Y1721430D01*
X1183500Y1720430D02*
X1202500Y1720430D01*
X1236500Y1720430D02*
X1242500Y1720430D01*
X1279500Y1720430D02*
X1305500Y1720430D01*
X1332500Y1720430D02*
X1351500Y1720430D01*
X1384500Y1720430D02*
X1390500Y1720430D01*
X1428500Y1720430D02*
X1453500Y1720430D01*
X1480500Y1720430D02*
X1500500Y1720430D01*
X1533500Y1720430D02*
X1539500Y1720430D01*
X1576500Y1720430D02*
X1602500Y1720430D01*
X1629500Y1720430D02*
X1648500Y1720430D01*
X1681500Y1720430D02*
X1687500Y1720430D01*
X1725500Y1720430D02*
X1750500Y1720430D01*
X1777500Y1720430D02*
X1797500Y1720430D01*
X1830500Y1720430D02*
X1836500Y1720430D01*
X1873500Y1720430D02*
X1899500Y1720430D01*
X1183500Y1719430D02*
X1202500Y1719430D01*
X1236500Y1719430D02*
X1242500Y1719430D01*
X1281500Y1719430D02*
X1305500Y1719430D01*
X1332500Y1719430D02*
X1351500Y1719430D01*
X1384500Y1719430D02*
X1390500Y1719430D01*
X1429500Y1719430D02*
X1453500Y1719430D01*
X1480500Y1719430D02*
X1499500Y1719430D01*
X1533500Y1719430D02*
X1539500Y1719430D01*
X1578500Y1719430D02*
X1602500Y1719430D01*
X1629500Y1719430D02*
X1648500Y1719430D01*
X1681500Y1719430D02*
X1687500Y1719430D01*
X1726500Y1719430D02*
X1750500Y1719430D01*
X1777500Y1719430D02*
X1796500Y1719430D01*
X1830500Y1719430D02*
X1836500Y1719430D01*
X1875500Y1719430D02*
X1899500Y1719430D01*
X1184500Y1718430D02*
X1202500Y1718430D01*
X1236500Y1718430D02*
X1242500Y1718430D01*
X1282500Y1718430D02*
X1304500Y1718430D01*
X1332500Y1718430D02*
X1350500Y1718430D01*
X1384500Y1718430D02*
X1390500Y1718430D01*
X1431500Y1718430D02*
X1453500Y1718430D01*
X1481500Y1718430D02*
X1499500Y1718430D01*
X1533500Y1718430D02*
X1539500Y1718430D01*
X1579500Y1718430D02*
X1601500Y1718430D01*
X1629500Y1718430D02*
X1647500Y1718430D01*
X1681500Y1718430D02*
X1687500Y1718430D01*
X1728500Y1718430D02*
X1750500Y1718430D01*
X1778500Y1718430D02*
X1796500Y1718430D01*
X1830500Y1718430D02*
X1836500Y1718430D01*
X1876500Y1718430D02*
X1898500Y1718430D01*
X1184500Y1717430D02*
X1201500Y1717430D01*
X1236500Y1717430D02*
X1242500Y1717430D01*
X1284500Y1717430D02*
X1303500Y1717430D01*
X1333500Y1717430D02*
X1349500Y1717430D01*
X1384500Y1717430D02*
X1390500Y1717430D01*
X1433500Y1717430D02*
X1452500Y1717430D01*
X1482500Y1717430D02*
X1498500Y1717430D01*
X1533500Y1717430D02*
X1539500Y1717430D01*
X1581500Y1717430D02*
X1600500Y1717430D01*
X1630500Y1717430D02*
X1646500Y1717430D01*
X1681500Y1717430D02*
X1687500Y1717430D01*
X1730500Y1717430D02*
X1749500Y1717430D01*
X1779500Y1717430D02*
X1795500Y1717430D01*
X1830500Y1717430D02*
X1836500Y1717430D01*
X1878500Y1717430D02*
X1897500Y1717430D01*
X1236500Y1716430D02*
X1242500Y1716430D01*
X1384500Y1716430D02*
X1390500Y1716430D01*
X1533500Y1716430D02*
X1539500Y1716430D01*
X1681500Y1716430D02*
X1687500Y1716430D01*
X1830500Y1716430D02*
X1836500Y1716430D01*
X1236500Y1715430D02*
X1242500Y1715430D01*
X1384500Y1715430D02*
X1390500Y1715430D01*
X1533500Y1715430D02*
X1539500Y1715430D01*
X1681500Y1715430D02*
X1687500Y1715430D01*
X1830500Y1715430D02*
X1836500Y1715430D01*
X1236500Y1714430D02*
X1242500Y1714430D01*
X1384500Y1714430D02*
X1390500Y1714430D01*
X1533500Y1714430D02*
X1539500Y1714430D01*
X1681500Y1714430D02*
X1687500Y1714430D01*
X1830500Y1714430D02*
X1836500Y1714430D01*
X1236500Y1713430D02*
X1242500Y1713430D01*
X1384500Y1713430D02*
X1390500Y1713430D01*
X1533500Y1713430D02*
X1539500Y1713430D01*
X1681500Y1713430D02*
X1687500Y1713430D01*
X1830500Y1713430D02*
X1836500Y1713430D01*
X1236500Y1712430D02*
X1242500Y1712430D01*
X1384500Y1712430D02*
X1390500Y1712430D01*
X1533500Y1712430D02*
X1539500Y1712430D01*
X1681500Y1712430D02*
X1687500Y1712430D01*
X1830500Y1712430D02*
X1836500Y1712430D01*
X1236500Y1711430D02*
X1242500Y1711430D01*
X1384500Y1711430D02*
X1390500Y1711430D01*
X1533500Y1711430D02*
X1539500Y1711430D01*
X1681500Y1711430D02*
X1687500Y1711430D01*
X1830500Y1711430D02*
X1836500Y1711430D01*
X1236500Y1710430D02*
X1242500Y1710430D01*
X1384500Y1710430D02*
X1390500Y1710430D01*
X1533500Y1710430D02*
X1539500Y1710430D01*
X1681500Y1710430D02*
X1687500Y1710430D01*
X1830500Y1710430D02*
X1836500Y1710430D01*
X1236500Y1709430D02*
X1242500Y1709430D01*
X1384500Y1709430D02*
X1390500Y1709430D01*
X1533500Y1709430D02*
X1539500Y1709430D01*
X1681500Y1709430D02*
X1687500Y1709430D01*
X1830500Y1709430D02*
X1836500Y1709430D01*
X1195500Y1708430D02*
X1201500Y1708430D01*
X1227500Y1708430D02*
X1242500Y1708430D01*
X1343500Y1708430D02*
X1350500Y1708430D01*
X1376500Y1708430D02*
X1390500Y1708430D01*
X1492500Y1708430D02*
X1498500Y1708430D01*
X1524500Y1708430D02*
X1539500Y1708430D01*
X1640500Y1708430D02*
X1647500Y1708430D01*
X1673500Y1708430D02*
X1687500Y1708430D01*
X1789500Y1708430D02*
X1795500Y1708430D01*
X1821500Y1708430D02*
X1836500Y1708430D01*
X1194500Y1707430D02*
X1202500Y1707430D01*
X1226500Y1707430D02*
X1242500Y1707430D01*
X1342500Y1707430D02*
X1350500Y1707430D01*
X1375500Y1707430D02*
X1390500Y1707430D01*
X1491500Y1707430D02*
X1499500Y1707430D01*
X1523500Y1707430D02*
X1539500Y1707430D01*
X1639500Y1707430D02*
X1647500Y1707430D01*
X1672500Y1707430D02*
X1687500Y1707430D01*
X1788500Y1707430D02*
X1796500Y1707430D01*
X1820500Y1707430D02*
X1836500Y1707430D01*
X1193500Y1706430D02*
X1202500Y1706430D01*
X1226500Y1706430D02*
X1242500Y1706430D01*
X1342500Y1706430D02*
X1351500Y1706430D01*
X1374500Y1706430D02*
X1390500Y1706430D01*
X1490500Y1706430D02*
X1499500Y1706430D01*
X1523500Y1706430D02*
X1539500Y1706430D01*
X1639500Y1706430D02*
X1648500Y1706430D01*
X1671500Y1706430D02*
X1687500Y1706430D01*
X1787500Y1706430D02*
X1796500Y1706430D01*
X1820500Y1706430D02*
X1836500Y1706430D01*
X1193500Y1705430D02*
X1202500Y1705430D01*
X1226500Y1705430D02*
X1242500Y1705430D01*
X1342500Y1705430D02*
X1351500Y1705430D01*
X1374500Y1705430D02*
X1390500Y1705430D01*
X1490500Y1705430D02*
X1500500Y1705430D01*
X1523500Y1705430D02*
X1539500Y1705430D01*
X1639500Y1705430D02*
X1648500Y1705430D01*
X1671500Y1705430D02*
X1687500Y1705430D01*
X1787500Y1705430D02*
X1797500Y1705430D01*
X1820500Y1705430D02*
X1836500Y1705430D01*
X1193500Y1704430D02*
X1202500Y1704430D01*
X1226500Y1704430D02*
X1241500Y1704430D01*
X1342500Y1704430D02*
X1351500Y1704430D01*
X1374500Y1704430D02*
X1390500Y1704430D01*
X1490500Y1704430D02*
X1500500Y1704430D01*
X1523500Y1704430D02*
X1539500Y1704430D01*
X1639500Y1704430D02*
X1648500Y1704430D01*
X1672500Y1704430D02*
X1687500Y1704430D01*
X1787500Y1704430D02*
X1797500Y1704430D01*
X1820500Y1704430D02*
X1836500Y1704430D01*
X1193500Y1703430D02*
X1202500Y1703430D01*
X1227500Y1703430D02*
X1241500Y1703430D01*
X1342500Y1703430D02*
X1351500Y1703430D01*
X1375500Y1703430D02*
X1389500Y1703430D01*
X1490500Y1703430D02*
X1500500Y1703430D01*
X1524500Y1703430D02*
X1538500Y1703430D01*
X1639500Y1703430D02*
X1648500Y1703430D01*
X1672500Y1703430D02*
X1686500Y1703430D01*
X1787500Y1703430D02*
X1797500Y1703430D01*
X1821500Y1703430D02*
X1835500Y1703430D01*
X1193500Y1702430D02*
X1202500Y1702430D01*
X1228500Y1702430D02*
X1239500Y1702430D01*
X1342500Y1702430D02*
X1351500Y1702430D01*
X1377500Y1702430D02*
X1388500Y1702430D01*
X1490500Y1702430D02*
X1499500Y1702430D01*
X1525500Y1702430D02*
X1536500Y1702430D01*
X1639500Y1702430D02*
X1648500Y1702430D01*
X1674500Y1702430D02*
X1685500Y1702430D01*
X1787500Y1702430D02*
X1796500Y1702430D01*
X1822500Y1702430D02*
X1833500Y1702430D01*
X1193500Y1701430D02*
X1202500Y1701430D01*
X1342500Y1701430D02*
X1351500Y1701430D01*
X1490500Y1701430D02*
X1499500Y1701430D01*
X1639500Y1701430D02*
X1648500Y1701430D01*
X1788500Y1701430D02*
X1796500Y1701430D01*
X1194500Y1700430D02*
X1201500Y1700430D01*
X1343500Y1700430D02*
X1350500Y1700430D01*
X1491500Y1700430D02*
X1498500Y1700430D01*
X1640500Y1700430D02*
X1647500Y1700430D01*
X1788500Y1700430D02*
X1796500Y1700430D01*
X1196500Y1699430D02*
X1199500Y1699430D01*
X1345500Y1699430D02*
X1348500Y1699430D01*
X1493500Y1699430D02*
X1496500Y1699430D01*
X1642500Y1699430D02*
X1645500Y1699430D01*
X1790500Y1699430D02*
X1793500Y1699430D01*
X2910500Y1139430D02*
X2913500Y1139430D01*
X2926500Y1139430D02*
X2937500Y1139430D01*
X2909500Y1138430D02*
X2914500Y1138430D01*
X2925500Y1138430D02*
X2939500Y1138430D01*
X2909500Y1137430D02*
X2914500Y1137430D01*
X2925500Y1137430D02*
X2941500Y1137430D01*
X2909500Y1136430D02*
X2915500Y1136430D01*
X2925500Y1136430D02*
X2942500Y1136430D01*
X2909500Y1135430D02*
X2915500Y1135430D01*
X2925500Y1135430D02*
X2943500Y1135430D01*
X2909500Y1134430D02*
X2915500Y1134430D01*
X2925500Y1134430D02*
X2944500Y1134430D01*
X2909500Y1133430D02*
X2915500Y1133430D01*
X2925500Y1133430D02*
X2945500Y1133430D01*
X2909500Y1132430D02*
X2915500Y1132430D01*
X2925500Y1132430D02*
X2931500Y1132430D01*
X2937500Y1132430D02*
X2945500Y1132430D01*
X2909500Y1131430D02*
X2915500Y1131430D01*
X2925500Y1131430D02*
X2931500Y1131430D01*
X2938500Y1131430D02*
X2946500Y1131430D01*
X2909500Y1130430D02*
X2915500Y1130430D01*
X2925500Y1130430D02*
X2931500Y1130430D01*
X2939500Y1130430D02*
X2946500Y1130430D01*
X2909500Y1129430D02*
X2915500Y1129430D01*
X2925500Y1129430D02*
X2931500Y1129430D01*
X2940500Y1129430D02*
X2946500Y1129430D01*
X2909500Y1128430D02*
X2915500Y1128430D01*
X2925500Y1128430D02*
X2931500Y1128430D01*
X2940500Y1128430D02*
X2946500Y1128430D01*
X2909500Y1127430D02*
X2915500Y1127430D01*
X2925500Y1127430D02*
X2931500Y1127430D01*
X2941500Y1127430D02*
X2947500Y1127430D01*
X2909500Y1126430D02*
X2915500Y1126430D01*
X2925500Y1126430D02*
X2931500Y1126430D01*
X2941500Y1126430D02*
X2947500Y1126430D01*
X2909500Y1125430D02*
X2915500Y1125430D01*
X2925500Y1125430D02*
X2931500Y1125430D01*
X2941500Y1125430D02*
X2947500Y1125430D01*
X2909500Y1124430D02*
X2915500Y1124430D01*
X2925500Y1124430D02*
X2931500Y1124430D01*
X2941500Y1124430D02*
X2947500Y1124430D01*
X2909500Y1123430D02*
X2915500Y1123430D01*
X2925500Y1123430D02*
X2931500Y1123430D01*
X2941500Y1123430D02*
X2947500Y1123430D01*
X2909500Y1122430D02*
X2915500Y1122430D01*
X2925500Y1122430D02*
X2931500Y1122430D01*
X2941500Y1122430D02*
X2947500Y1122430D01*
X2909500Y1121430D02*
X2915500Y1121430D01*
X2925500Y1121430D02*
X2931500Y1121430D01*
X2941500Y1121430D02*
X2947500Y1121430D01*
X2909500Y1120430D02*
X2915500Y1120430D01*
X2925500Y1120430D02*
X2931500Y1120430D01*
X2941500Y1120430D02*
X2947500Y1120430D01*
X2909500Y1119430D02*
X2915500Y1119430D01*
X2925500Y1119430D02*
X2931500Y1119430D01*
X2941500Y1119430D02*
X2947500Y1119430D01*
X2909500Y1118430D02*
X2915500Y1118430D01*
X2925500Y1118430D02*
X2931500Y1118430D01*
X2941500Y1118430D02*
X2947500Y1118430D01*
X2909500Y1117430D02*
X2915500Y1117430D01*
X2925500Y1117430D02*
X2931500Y1117430D01*
X2940500Y1117430D02*
X2946500Y1117430D01*
X2909500Y1116430D02*
X2916500Y1116430D01*
X2925500Y1116430D02*
X2931500Y1116430D01*
X2940500Y1116430D02*
X2946500Y1116430D01*
X2909500Y1115430D02*
X2916500Y1115430D01*
X2925500Y1115430D02*
X2931500Y1115430D01*
X2939500Y1115430D02*
X2946500Y1115430D01*
X2910500Y1114430D02*
X2917500Y1114430D01*
X2925500Y1114430D02*
X2931500Y1114430D01*
X2938500Y1114430D02*
X2946500Y1114430D01*
X2910500Y1113430D02*
X2918500Y1113430D01*
X2925500Y1113430D02*
X2931500Y1113430D01*
X2937500Y1113430D02*
X2945500Y1113430D01*
X2911500Y1112430D02*
X2945500Y1112430D01*
X2912500Y1111430D02*
X2944500Y1111430D01*
X2913500Y1110430D02*
X2943500Y1110430D01*
X2913500Y1109430D02*
X2942500Y1109430D01*
X2914500Y1108430D02*
X2941500Y1108430D01*
X2916500Y1107430D02*
X2939500Y1107430D01*
X2918500Y1106430D02*
X2937500Y1106430D01*
X2913500Y1090430D02*
X2957500Y1090430D01*
X2910500Y1089430D02*
X2960500Y1089430D01*
X2909500Y1088430D02*
X2961500Y1088430D01*
X2909500Y1087430D02*
X2961500Y1087430D01*
X2909500Y1086430D02*
X2961500Y1086430D01*
X2909500Y1085430D02*
X2961500Y1085430D01*
X2910500Y1084430D02*
X2960500Y1084430D01*
X2913500Y1083430D02*
X2923500Y1083430D01*
X2933500Y1083430D02*
X2943500Y1083430D01*
X2912500Y1082430D02*
X2921500Y1082430D01*
X2935500Y1082430D02*
X2943500Y1082430D01*
X2912500Y1081430D02*
X2920500Y1081430D01*
X2936500Y1081430D02*
X2944500Y1081430D01*
X2911500Y1080430D02*
X2919500Y1080430D01*
X2936500Y1080430D02*
X2944500Y1080430D01*
X2910500Y1079430D02*
X2918500Y1079430D01*
X2937500Y1079430D02*
X2945500Y1079430D01*
X2910500Y1078430D02*
X2917500Y1078430D01*
X2938500Y1078430D02*
X2946500Y1078430D01*
X2909500Y1077430D02*
X2916500Y1077430D01*
X2939500Y1077430D02*
X2946500Y1077430D01*
X2909500Y1076430D02*
X2916500Y1076430D01*
X2940500Y1076430D02*
X2946500Y1076430D01*
X2909500Y1075430D02*
X2915500Y1075430D01*
X2940500Y1075430D02*
X2947500Y1075430D01*
X2909500Y1074430D02*
X2915500Y1074430D01*
X2941500Y1074430D02*
X2947500Y1074430D01*
X2909500Y1073430D02*
X2915500Y1073430D01*
X2941500Y1073430D02*
X2947500Y1073430D01*
X2909500Y1072430D02*
X2915500Y1072430D01*
X2941500Y1072430D02*
X2947500Y1072430D01*
X2909500Y1071430D02*
X2915500Y1071430D01*
X2941500Y1071430D02*
X2947500Y1071430D01*
X2909500Y1070430D02*
X2915500Y1070430D01*
X2941500Y1070430D02*
X2947500Y1070430D01*
X2909500Y1069430D02*
X2915500Y1069430D01*
X2941500Y1069430D02*
X2947500Y1069430D01*
X2909500Y1068430D02*
X2915500Y1068430D01*
X2941500Y1068430D02*
X2947500Y1068430D01*
X2909500Y1067430D02*
X2915500Y1067430D01*
X2940500Y1067430D02*
X2946500Y1067430D01*
X2909500Y1066430D02*
X2916500Y1066430D01*
X2940500Y1066430D02*
X2946500Y1066430D01*
X2909500Y1065430D02*
X2917500Y1065430D01*
X2939500Y1065430D02*
X2946500Y1065430D01*
X2910500Y1064430D02*
X2918500Y1064430D01*
X2938500Y1064430D02*
X2945500Y1064430D01*
X2911500Y1063430D02*
X2919500Y1063430D01*
X2936500Y1063430D02*
X2945500Y1063430D01*
X2911500Y1062430D02*
X2944500Y1062430D01*
X2912500Y1061430D02*
X2943500Y1061430D01*
X2913500Y1060430D02*
X2942500Y1060430D01*
X2914500Y1059430D02*
X2941500Y1059430D01*
X2915500Y1058430D02*
X2940500Y1058430D01*
X2917500Y1057430D02*
X2939500Y1057430D01*
X2920500Y1056430D02*
X2935500Y1056430D01*
X2916500Y1030430D02*
X2924500Y1030430D01*
X2915500Y1029430D02*
X2925500Y1029430D01*
X2914500Y1028430D02*
X2925500Y1028430D01*
X2914500Y1027430D02*
X2926500Y1027430D01*
X2914500Y1026430D02*
X2926500Y1026430D01*
X2914500Y1025430D02*
X2926500Y1025430D01*
X2914500Y1024430D02*
X2926500Y1024430D01*
X2914500Y1023430D02*
X2926500Y1023430D01*
X2914500Y1022430D02*
X2926500Y1022430D01*
X2914500Y1021430D02*
X2926500Y1021430D01*
X2914500Y1020430D02*
X2926500Y1020430D01*
X2914500Y1019430D02*
X2925500Y1019430D01*
X2915500Y1018430D02*
X2925500Y1018430D01*
X2916500Y1017430D02*
X2924500Y1017430D01*
X2935500Y991430D02*
X2938500Y991430D01*
X2933500Y990430D02*
X2942500Y990430D01*
X2933500Y989430D02*
X2943500Y989430D01*
X2933500Y988430D02*
X2944500Y988430D01*
X2933500Y987430D02*
X2945500Y987430D01*
X2933500Y986430D02*
X2946500Y986430D01*
X2934500Y985430D02*
X2946500Y985430D01*
X2938500Y984430D02*
X2946500Y984430D01*
X2940500Y983430D02*
X2946500Y983430D01*
X2941500Y982430D02*
X2947500Y982430D01*
X2941500Y981430D02*
X2947500Y981430D01*
X2941500Y980430D02*
X2947500Y980430D01*
X2941500Y979430D02*
X2947500Y979430D01*
X2941500Y978430D02*
X2947500Y978430D01*
X2941500Y977430D02*
X2947500Y977430D01*
X2941500Y976430D02*
X2947500Y976430D01*
X2941500Y975430D02*
X2947500Y975430D01*
X2940500Y974430D02*
X2947500Y974430D01*
X2939500Y973430D02*
X2947500Y973430D01*
X2938500Y972430D02*
X2946500Y972430D01*
X2937500Y971430D02*
X2945500Y971430D01*
X2936500Y970430D02*
X2944500Y970430D01*
X2935500Y969430D02*
X2944500Y969430D01*
X2935500Y968430D02*
X2943500Y968430D01*
X2934500Y967430D02*
X2942500Y967430D01*
X2933500Y966430D02*
X2941500Y966430D01*
X2932500Y965430D02*
X2940500Y965430D01*
X2931500Y964430D02*
X2940500Y964430D01*
X2910500Y963430D02*
X2945500Y963430D01*
X2909500Y962430D02*
X2946500Y962430D01*
X2909500Y961430D02*
X2946500Y961430D01*
X2909500Y960430D02*
X2947500Y960430D01*
X2909500Y959430D02*
X2946500Y959430D01*
X2910500Y958430D02*
X2946500Y958430D01*
X2912500Y957430D02*
X2944500Y957430D01*
X2910500Y941430D02*
X2913500Y941430D01*
X2926500Y941430D02*
X2937500Y941430D01*
X2909500Y940430D02*
X2914500Y940430D01*
X2925500Y940430D02*
X2939500Y940430D01*
X2909500Y939430D02*
X2914500Y939430D01*
X2925500Y939430D02*
X2941500Y939430D01*
X2909500Y938430D02*
X2915500Y938430D01*
X2925500Y938430D02*
X2942500Y938430D01*
X2909500Y937430D02*
X2915500Y937430D01*
X2925500Y937430D02*
X2943500Y937430D01*
X2909500Y936430D02*
X2915500Y936430D01*
X2925500Y936430D02*
X2944500Y936430D01*
X2909500Y935430D02*
X2915500Y935430D01*
X2925500Y935430D02*
X2945500Y935430D01*
X2909500Y934430D02*
X2915500Y934430D01*
X2925500Y934430D02*
X2931500Y934430D01*
X2937500Y934430D02*
X2945500Y934430D01*
X2909500Y933430D02*
X2915500Y933430D01*
X2925500Y933430D02*
X2931500Y933430D01*
X2938500Y933430D02*
X2946500Y933430D01*
X2909500Y932430D02*
X2915500Y932430D01*
X2925500Y932430D02*
X2931500Y932430D01*
X2939500Y932430D02*
X2946500Y932430D01*
X2909500Y931430D02*
X2915500Y931430D01*
X2925500Y931430D02*
X2931500Y931430D01*
X2940500Y931430D02*
X2946500Y931430D01*
X2909500Y930430D02*
X2915500Y930430D01*
X2925500Y930430D02*
X2931500Y930430D01*
X2940500Y930430D02*
X2946500Y930430D01*
X2909500Y929430D02*
X2915500Y929430D01*
X2925500Y929430D02*
X2931500Y929430D01*
X2941500Y929430D02*
X2947500Y929430D01*
X2909500Y928430D02*
X2915500Y928430D01*
X2925500Y928430D02*
X2931500Y928430D01*
X2941500Y928430D02*
X2947500Y928430D01*
X2909500Y927430D02*
X2915500Y927430D01*
X2925500Y927430D02*
X2931500Y927430D01*
X2941500Y927430D02*
X2947500Y927430D01*
X2909500Y926430D02*
X2915500Y926430D01*
X2925500Y926430D02*
X2931500Y926430D01*
X2941500Y926430D02*
X2947500Y926430D01*
X2909500Y925430D02*
X2915500Y925430D01*
X2925500Y925430D02*
X2931500Y925430D01*
X2941500Y925430D02*
X2947500Y925430D01*
X2909500Y924430D02*
X2915500Y924430D01*
X2925500Y924430D02*
X2931500Y924430D01*
X2941500Y924430D02*
X2947500Y924430D01*
X2909500Y923430D02*
X2915500Y923430D01*
X2925500Y923430D02*
X2931500Y923430D01*
X2941500Y923430D02*
X2947500Y923430D01*
X2909500Y922430D02*
X2915500Y922430D01*
X2925500Y922430D02*
X2931500Y922430D01*
X2941500Y922430D02*
X2947500Y922430D01*
X2909500Y921430D02*
X2915500Y921430D01*
X2925500Y921430D02*
X2931500Y921430D01*
X2941500Y921430D02*
X2947500Y921430D01*
X2909500Y920430D02*
X2915500Y920430D01*
X2925500Y920430D02*
X2931500Y920430D01*
X2941500Y920430D02*
X2947500Y920430D01*
X2909500Y919430D02*
X2915500Y919430D01*
X2925500Y919430D02*
X2931500Y919430D01*
X2940500Y919430D02*
X2946500Y919430D01*
X2909500Y918430D02*
X2916500Y918430D01*
X2925500Y918430D02*
X2931500Y918430D01*
X2940500Y918430D02*
X2946500Y918430D01*
X2909500Y917430D02*
X2916500Y917430D01*
X2925500Y917430D02*
X2931500Y917430D01*
X2939500Y917430D02*
X2946500Y917430D01*
X2910500Y916430D02*
X2917500Y916430D01*
X2925500Y916430D02*
X2931500Y916430D01*
X2938500Y916430D02*
X2946500Y916430D01*
X2910500Y915430D02*
X2918500Y915430D01*
X2925500Y915430D02*
X2931500Y915430D01*
X2937500Y915430D02*
X2945500Y915430D01*
X2911500Y914430D02*
X2945500Y914430D01*
X2912500Y913430D02*
X2944500Y913430D01*
X2913500Y912430D02*
X2943500Y912430D01*
X2913500Y911430D02*
X2942500Y911430D01*
X2914500Y910430D02*
X2941500Y910430D01*
X2916500Y909430D02*
X2939500Y909430D01*
X2918500Y908430D02*
X2937500Y908430D01*
X2915500Y891430D02*
X2919500Y891430D01*
X2913500Y890430D02*
X2920500Y890430D01*
X2912500Y889430D02*
X2920500Y889430D01*
X2911500Y888430D02*
X2920500Y888430D01*
X2910500Y887430D02*
X2920500Y887430D01*
X2910500Y886430D02*
X2919500Y886430D01*
X2942500Y886430D02*
X2945500Y886430D01*
X2909500Y885430D02*
X2917500Y885430D01*
X2941500Y885430D02*
X2946500Y885430D01*
X2909500Y884430D02*
X2916500Y884430D01*
X2941500Y884430D02*
X2946500Y884430D01*
X2909500Y883430D02*
X2915500Y883430D01*
X2941500Y883430D02*
X2947500Y883430D01*
X2909500Y882430D02*
X2915500Y882430D01*
X2941500Y882430D02*
X2947500Y882430D01*
X2909500Y881430D02*
X2915500Y881430D01*
X2941500Y881430D02*
X2947500Y881430D01*
X2909500Y880430D02*
X2915500Y880430D01*
X2941500Y880430D02*
X2947500Y880430D01*
X2909500Y879430D02*
X2915500Y879430D01*
X2941500Y879430D02*
X2947500Y879430D01*
X2909500Y878430D02*
X2915500Y878430D01*
X2941500Y878430D02*
X2947500Y878430D01*
X2909500Y877430D02*
X2915500Y877430D01*
X2941500Y877430D02*
X2947500Y877430D01*
X2909500Y876430D02*
X2915500Y876430D01*
X2941500Y876430D02*
X2947500Y876430D01*
X2909500Y875430D02*
X2915500Y875430D01*
X2941500Y875430D02*
X2947500Y875430D01*
X2909500Y874430D02*
X2915500Y874430D01*
X2941500Y874430D02*
X2947500Y874430D01*
X2909500Y873430D02*
X2915500Y873430D01*
X2941500Y873430D02*
X2947500Y873430D01*
X2909500Y872430D02*
X2917500Y872430D01*
X2941500Y872430D02*
X2947500Y872430D01*
X2910500Y871430D02*
X2957500Y871430D01*
X2910500Y870430D02*
X2958500Y870430D01*
X2911500Y869430D02*
X2958500Y869430D01*
X2912500Y868430D02*
X2958500Y868430D01*
X2913500Y867430D02*
X2958500Y867430D01*
X2914500Y866430D02*
X2958500Y866430D01*
X2917500Y865430D02*
X2956500Y865430D01*
X2941500Y864430D02*
X2947500Y864430D01*
X2941500Y863430D02*
X2947500Y863430D01*
X2941500Y862430D02*
X2947500Y862430D01*
X2941500Y861430D02*
X2946500Y861430D01*
X2941500Y860430D02*
X2946500Y860430D01*
X2942500Y859430D02*
X2946500Y859430D01*
X2916500Y842430D02*
X2921500Y842430D01*
X2914500Y841430D02*
X2924500Y841430D01*
X2939500Y841430D02*
X2943500Y841430D01*
X2912500Y840430D02*
X2925500Y840430D01*
X2938500Y840430D02*
X2944500Y840430D01*
X2911500Y839430D02*
X2926500Y839430D01*
X2938500Y839430D02*
X2945500Y839430D01*
X2911500Y838430D02*
X2927500Y838430D01*
X2938500Y838430D02*
X2945500Y838430D01*
X2910500Y837430D02*
X2927500Y837430D01*
X2938500Y837430D02*
X2946500Y837430D01*
X2910500Y836430D02*
X2928500Y836430D01*
X2939500Y836430D02*
X2946500Y836430D01*
X2909500Y835430D02*
X2916500Y835430D01*
X2921500Y835430D02*
X2928500Y835430D01*
X2940500Y835430D02*
X2946500Y835430D01*
X2909500Y834430D02*
X2915500Y834430D01*
X2922500Y834430D02*
X2929500Y834430D01*
X2940500Y834430D02*
X2947500Y834430D01*
X2909500Y833430D02*
X2915500Y833430D01*
X2923500Y833430D02*
X2929500Y833430D01*
X2941500Y833430D02*
X2947500Y833430D01*
X2909500Y832430D02*
X2915500Y832430D01*
X2923500Y832430D02*
X2930500Y832430D01*
X2941500Y832430D02*
X2947500Y832430D01*
X2909500Y831430D02*
X2915500Y831430D01*
X2924500Y831430D02*
X2930500Y831430D01*
X2941500Y831430D02*
X2947500Y831430D01*
X2909500Y830430D02*
X2915500Y830430D01*
X2924500Y830430D02*
X2931500Y830430D01*
X2941500Y830430D02*
X2947500Y830430D01*
X2909500Y829430D02*
X2915500Y829430D01*
X2925500Y829430D02*
X2931500Y829430D01*
X2941500Y829430D02*
X2947500Y829430D01*
X2909500Y828430D02*
X2915500Y828430D01*
X2925500Y828430D02*
X2931500Y828430D01*
X2941500Y828430D02*
X2947500Y828430D01*
X2909500Y827430D02*
X2915500Y827430D01*
X2925500Y827430D02*
X2932500Y827430D01*
X2941500Y827430D02*
X2947500Y827430D01*
X2909500Y826430D02*
X2915500Y826430D01*
X2926500Y826430D02*
X2932500Y826430D01*
X2941500Y826430D02*
X2947500Y826430D01*
X2909500Y825430D02*
X2915500Y825430D01*
X2926500Y825430D02*
X2933500Y825430D01*
X2941500Y825430D02*
X2947500Y825430D01*
X2909500Y824430D02*
X2915500Y824430D01*
X2927500Y824430D02*
X2933500Y824430D01*
X2941500Y824430D02*
X2947500Y824430D01*
X2909500Y823430D02*
X2915500Y823430D01*
X2927500Y823430D02*
X2934500Y823430D01*
X2941500Y823430D02*
X2947500Y823430D01*
X2909500Y822430D02*
X2915500Y822430D01*
X2928500Y822430D02*
X2934500Y822430D01*
X2941500Y822430D02*
X2947500Y822430D01*
X2909500Y821430D02*
X2915500Y821430D01*
X2928500Y821430D02*
X2934500Y821430D01*
X2941500Y821430D02*
X2947500Y821430D01*
X2909500Y820430D02*
X2915500Y820430D01*
X2928500Y820430D02*
X2935500Y820430D01*
X2941500Y820430D02*
X2947500Y820430D01*
X2909500Y819430D02*
X2915500Y819430D01*
X2929500Y819430D02*
X2935500Y819430D01*
X2941500Y819430D02*
X2947500Y819430D01*
X2909500Y818430D02*
X2915500Y818430D01*
X2929500Y818430D02*
X2936500Y818430D01*
X2941500Y818430D02*
X2947500Y818430D01*
X2909500Y817430D02*
X2915500Y817430D01*
X2930500Y817430D02*
X2936500Y817430D01*
X2940500Y817430D02*
X2947500Y817430D01*
X2909500Y816430D02*
X2916500Y816430D01*
X2930500Y816430D02*
X2946500Y816430D01*
X2910500Y815430D02*
X2916500Y815430D01*
X2931500Y815430D02*
X2946500Y815430D01*
X2910500Y814430D02*
X2917500Y814430D01*
X2931500Y814430D02*
X2946500Y814430D01*
X2910500Y813430D02*
X2917500Y813430D01*
X2932500Y813430D02*
X2945500Y813430D01*
X2911500Y812430D02*
X2917500Y812430D01*
X2933500Y812430D02*
X2944500Y812430D01*
X2911500Y811430D02*
X2917500Y811430D01*
X2934500Y811430D02*
X2943500Y811430D01*
X2912500Y810430D02*
X2917500Y810430D01*
X2936500Y810430D02*
X2941500Y810430D01*
X2913500Y809430D02*
X2916500Y809430D01*
X2911500Y793430D02*
X2938500Y793430D01*
X2910500Y792430D02*
X2941500Y792430D01*
X2909500Y791430D02*
X2942500Y791430D01*
X2909500Y790430D02*
X2943500Y790430D01*
X2909500Y789430D02*
X2944500Y789430D01*
X2909500Y788430D02*
X2945500Y788430D01*
X2910500Y787430D02*
X2945500Y787430D01*
X2912500Y786430D02*
X2919500Y786430D01*
X2924500Y786430D02*
X2932500Y786430D01*
X2938500Y786430D02*
X2946500Y786430D01*
X2911500Y785430D02*
X2918500Y785430D01*
X2926500Y785430D02*
X2932500Y785430D01*
X2940500Y785430D02*
X2946500Y785430D01*
X2911500Y784430D02*
X2918500Y784430D01*
X2926500Y784430D02*
X2932500Y784430D01*
X2940500Y784430D02*
X2946500Y784430D01*
X2910500Y783430D02*
X2917500Y783430D01*
X2926500Y783430D02*
X2932500Y783430D01*
X2941500Y783430D02*
X2947500Y783430D01*
X2910500Y782430D02*
X2916500Y782430D01*
X2927500Y782430D02*
X2932500Y782430D01*
X2941500Y782430D02*
X2947500Y782430D01*
X2909500Y781430D02*
X2916500Y781430D01*
X2927500Y781430D02*
X2932500Y781430D01*
X2941500Y781430D02*
X2947500Y781430D01*
X2909500Y780430D02*
X2915500Y780430D01*
X2927500Y780430D02*
X2932500Y780430D01*
X2941500Y780430D02*
X2947500Y780430D01*
X2909500Y779430D02*
X2914500Y779430D01*
X2927500Y779430D02*
X2932500Y779430D01*
X2941500Y779430D02*
X2947500Y779430D01*
X2909500Y778430D02*
X2914500Y778430D01*
X2927500Y778430D02*
X2932500Y778430D01*
X2941500Y778430D02*
X2947500Y778430D01*
X2909500Y777430D02*
X2914500Y777430D01*
X2927500Y777430D02*
X2932500Y777430D01*
X2941500Y777430D02*
X2947500Y777430D01*
X2909500Y776430D02*
X2914500Y776430D01*
X2927500Y776430D02*
X2932500Y776430D01*
X2941500Y776430D02*
X2947500Y776430D01*
X2909500Y775430D02*
X2914500Y775430D01*
X2927500Y775430D02*
X2932500Y775430D01*
X2941500Y775430D02*
X2947500Y775430D01*
X2909500Y774430D02*
X2914500Y774430D01*
X2927500Y774430D02*
X2932500Y774430D01*
X2941500Y774430D02*
X2947500Y774430D01*
X2909500Y773430D02*
X2914500Y773430D01*
X2927500Y773430D02*
X2932500Y773430D01*
X2941500Y773430D02*
X2947500Y773430D01*
X2909500Y772430D02*
X2914500Y772430D01*
X2927500Y772430D02*
X2932500Y772430D01*
X2941500Y772430D02*
X2947500Y772430D01*
X2909500Y771430D02*
X2914500Y771430D01*
X2927500Y771430D02*
X2932500Y771430D01*
X2941500Y771430D02*
X2947500Y771430D01*
X2909500Y770430D02*
X2914500Y770430D01*
X2927500Y770430D02*
X2932500Y770430D01*
X2941500Y770430D02*
X2947500Y770430D01*
X2909500Y769430D02*
X2914500Y769430D01*
X2927500Y769430D02*
X2932500Y769430D01*
X2941500Y769430D02*
X2947500Y769430D01*
X2909500Y768430D02*
X2914500Y768430D01*
X2926500Y768430D02*
X2932500Y768430D01*
X2941500Y768430D02*
X2947500Y768430D01*
X2909500Y767430D02*
X2915500Y767430D01*
X2926500Y767430D02*
X2932500Y767430D01*
X2941500Y767430D02*
X2947500Y767430D01*
X2909500Y766430D02*
X2916500Y766430D01*
X2925500Y766430D02*
X2931500Y766430D01*
X2941500Y766430D02*
X2946500Y766430D01*
X2910500Y765430D02*
X2931500Y765430D01*
X2942500Y765430D02*
X2946500Y765430D01*
X2910500Y764430D02*
X2931500Y764430D01*
X2943500Y764430D02*
X2944500Y764430D01*
X2911500Y763430D02*
X2930500Y763430D01*
X2912500Y762430D02*
X2929500Y762430D01*
X2913500Y761430D02*
X2928500Y761430D01*
X2915500Y760430D02*
X2926500Y760430D01*
X2915500Y743430D02*
X2919500Y743430D01*
X2914500Y742430D02*
X2920500Y742430D01*
X2912500Y741430D02*
X2920500Y741430D01*
X2911500Y740430D02*
X2920500Y740430D01*
X2911500Y739430D02*
X2920500Y739430D01*
X2910500Y738430D02*
X2920500Y738430D01*
X2944500Y738430D02*
X2944500Y738430D01*
X2909500Y737430D02*
X2918500Y737430D01*
X2942500Y737430D02*
X2946500Y737430D01*
X2909500Y736430D02*
X2916500Y736430D01*
X2941500Y736430D02*
X2946500Y736430D01*
X2909500Y735430D02*
X2915500Y735430D01*
X2941500Y735430D02*
X2947500Y735430D01*
X2909500Y734430D02*
X2915500Y734430D01*
X2941500Y734430D02*
X2947500Y734430D01*
X2909500Y733430D02*
X2915500Y733430D01*
X2941500Y733430D02*
X2947500Y733430D01*
X2909500Y732430D02*
X2915500Y732430D01*
X2941500Y732430D02*
X2947500Y732430D01*
X2909500Y731430D02*
X2915500Y731430D01*
X2941500Y731430D02*
X2947500Y731430D01*
X2909500Y730430D02*
X2915500Y730430D01*
X2941500Y730430D02*
X2947500Y730430D01*
X2909500Y729430D02*
X2915500Y729430D01*
X2941500Y729430D02*
X2947500Y729430D01*
X2909500Y728430D02*
X2915500Y728430D01*
X2941500Y728430D02*
X2947500Y728430D01*
X2909500Y727430D02*
X2915500Y727430D01*
X2941500Y727430D02*
X2947500Y727430D01*
X2909500Y726430D02*
X2915500Y726430D01*
X2941500Y726430D02*
X2947500Y726430D01*
X2909500Y725430D02*
X2915500Y725430D01*
X2941500Y725430D02*
X2947500Y725430D01*
X2909500Y724430D02*
X2916500Y724430D01*
X2941500Y724430D02*
X2947500Y724430D01*
X2909500Y723430D02*
X2956500Y723430D01*
X2910500Y722430D02*
X2957500Y722430D01*
X2910500Y721430D02*
X2958500Y721430D01*
X2911500Y720430D02*
X2958500Y720430D01*
X2912500Y719430D02*
X2958500Y719430D01*
X2913500Y718430D02*
X2958500Y718430D01*
X2915500Y717430D02*
X2957500Y717430D01*
X2940500Y716430D02*
X2947500Y716430D01*
X2941500Y715430D02*
X2947500Y715430D01*
X2941500Y714430D02*
X2947500Y714430D01*
X2941500Y713430D02*
X2947500Y713430D01*
X2941500Y712430D02*
X2946500Y712430D01*
X2941500Y711430D02*
X2946500Y711430D01*
X2942500Y710430D02*
X2945500Y710430D01*
X2911500Y694430D02*
X2912500Y694430D01*
X2927500Y694430D02*
X2935500Y694430D01*
X2910500Y693430D02*
X2914500Y693430D01*
X2926500Y693430D02*
X2939500Y693430D01*
X2909500Y692430D02*
X2914500Y692430D01*
X2925500Y692430D02*
X2940500Y692430D01*
X2909500Y691430D02*
X2915500Y691430D01*
X2925500Y691430D02*
X2942500Y691430D01*
X2909500Y690430D02*
X2915500Y690430D01*
X2925500Y690430D02*
X2943500Y690430D01*
X2909500Y689430D02*
X2915500Y689430D01*
X2925500Y689430D02*
X2943500Y689430D01*
X2909500Y688430D02*
X2915500Y688430D01*
X2925500Y688430D02*
X2944500Y688430D01*
X2909500Y687430D02*
X2915500Y687430D01*
X2925500Y687430D02*
X2931500Y687430D01*
X2936500Y687430D02*
X2945500Y687430D01*
X2909500Y686430D02*
X2915500Y686430D01*
X2925500Y686430D02*
X2931500Y686430D01*
X2938500Y686430D02*
X2945500Y686430D01*
X2909500Y685430D02*
X2915500Y685430D01*
X2925500Y685430D02*
X2931500Y685430D01*
X2939500Y685430D02*
X2946500Y685430D01*
X2909500Y684430D02*
X2915500Y684430D01*
X2925500Y684430D02*
X2931500Y684430D01*
X2940500Y684430D02*
X2946500Y684430D01*
X2909500Y683430D02*
X2915500Y683430D01*
X2925500Y683430D02*
X2931500Y683430D01*
X2940500Y683430D02*
X2946500Y683430D01*
X2909500Y682430D02*
X2915500Y682430D01*
X2925500Y682430D02*
X2931500Y682430D01*
X2941500Y682430D02*
X2947500Y682430D01*
X2909500Y681430D02*
X2915500Y681430D01*
X2925500Y681430D02*
X2931500Y681430D01*
X2941500Y681430D02*
X2947500Y681430D01*
X2909500Y680430D02*
X2915500Y680430D01*
X2925500Y680430D02*
X2931500Y680430D01*
X2941500Y680430D02*
X2947500Y680430D01*
X2909500Y679430D02*
X2915500Y679430D01*
X2925500Y679430D02*
X2931500Y679430D01*
X2941500Y679430D02*
X2947500Y679430D01*
X2909500Y678430D02*
X2915500Y678430D01*
X2925500Y678430D02*
X2931500Y678430D01*
X2941500Y678430D02*
X2947500Y678430D01*
X2909500Y677430D02*
X2915500Y677430D01*
X2925500Y677430D02*
X2931500Y677430D01*
X2941500Y677430D02*
X2947500Y677430D01*
X2909500Y676430D02*
X2915500Y676430D01*
X2925500Y676430D02*
X2931500Y676430D01*
X2941500Y676430D02*
X2947500Y676430D01*
X2909500Y675430D02*
X2915500Y675430D01*
X2925500Y675430D02*
X2931500Y675430D01*
X2941500Y675430D02*
X2947500Y675430D01*
X2909500Y674430D02*
X2915500Y674430D01*
X2925500Y674430D02*
X2931500Y674430D01*
X2941500Y674430D02*
X2947500Y674430D01*
X2909500Y673430D02*
X2915500Y673430D01*
X2925500Y673430D02*
X2931500Y673430D01*
X2941500Y673430D02*
X2947500Y673430D01*
X2909500Y672430D02*
X2915500Y672430D01*
X2925500Y672430D02*
X2931500Y672430D01*
X2941500Y672430D02*
X2947500Y672430D01*
X2909500Y671430D02*
X2915500Y671430D01*
X2925500Y671430D02*
X2931500Y671430D01*
X2940500Y671430D02*
X2946500Y671430D01*
X2909500Y670430D02*
X2916500Y670430D01*
X2925500Y670430D02*
X2931500Y670430D01*
X2939500Y670430D02*
X2946500Y670430D01*
X2910500Y669430D02*
X2917500Y669430D01*
X2925500Y669430D02*
X2931500Y669430D01*
X2939500Y669430D02*
X2946500Y669430D01*
X2910500Y668430D02*
X2918500Y668430D01*
X2925500Y668430D02*
X2931500Y668430D01*
X2938500Y668430D02*
X2945500Y668430D01*
X2911500Y667430D02*
X2920500Y667430D01*
X2924500Y667430D02*
X2931500Y667430D01*
X2935500Y667430D02*
X2945500Y667430D01*
X2911500Y666430D02*
X2944500Y666430D01*
X2912500Y665430D02*
X2943500Y665430D01*
X2913500Y664430D02*
X2942500Y664430D01*
X2914500Y663430D02*
X2941500Y663430D01*
X2915500Y662430D02*
X2940500Y662430D01*
X2917500Y661430D02*
X2938500Y661430D01*
X2918500Y644430D02*
X2938500Y644430D01*
X2916500Y643430D02*
X2940500Y643430D01*
X2914500Y642430D02*
X2941500Y642430D01*
X2913500Y641430D02*
X2942500Y641430D01*
X2913500Y640430D02*
X2943500Y640430D01*
X2912500Y639430D02*
X2944500Y639430D01*
X2911500Y638430D02*
X2945500Y638430D01*
X2910500Y637430D02*
X2918500Y637430D01*
X2937500Y637430D02*
X2945500Y637430D01*
X2910500Y636430D02*
X2917500Y636430D01*
X2939500Y636430D02*
X2946500Y636430D01*
X2909500Y635430D02*
X2916500Y635430D01*
X2939500Y635430D02*
X2946500Y635430D01*
X2909500Y634430D02*
X2915500Y634430D01*
X2940500Y634430D02*
X2946500Y634430D01*
X2909500Y633430D02*
X2915500Y633430D01*
X2940500Y633430D02*
X2947500Y633430D01*
X2909500Y632430D02*
X2915500Y632430D01*
X2941500Y632430D02*
X2947500Y632430D01*
X2909500Y631430D02*
X2915500Y631430D01*
X2941500Y631430D02*
X2947500Y631430D01*
X2909500Y630430D02*
X2915500Y630430D01*
X2941500Y630430D02*
X2947500Y630430D01*
X2909500Y629430D02*
X2915500Y629430D01*
X2941500Y629430D02*
X2947500Y629430D01*
X2909500Y628430D02*
X2915500Y628430D01*
X2941500Y628430D02*
X2947500Y628430D01*
X2909500Y627430D02*
X2915500Y627430D01*
X2941500Y627430D02*
X2947500Y627430D01*
X2909500Y626430D02*
X2915500Y626430D01*
X2941500Y626430D02*
X2947500Y626430D01*
X2909500Y625430D02*
X2915500Y625430D01*
X2941500Y625430D02*
X2947500Y625430D01*
X2909500Y624430D02*
X2915500Y624430D01*
X2941500Y624430D02*
X2947500Y624430D01*
X2909500Y623430D02*
X2915500Y623430D01*
X2941500Y623430D02*
X2947500Y623430D01*
X2909500Y622430D02*
X2915500Y622430D01*
X2940500Y622430D02*
X2946500Y622430D01*
X2909500Y621430D02*
X2916500Y621430D01*
X2940500Y621430D02*
X2946500Y621430D01*
X2909500Y620430D02*
X2916500Y620430D01*
X2939500Y620430D02*
X2946500Y620430D01*
X2910500Y619430D02*
X2917500Y619430D01*
X2938500Y619430D02*
X2946500Y619430D01*
X2910500Y618430D02*
X2919500Y618430D01*
X2937500Y618430D02*
X2945500Y618430D01*
X2911500Y617430D02*
X2944500Y617430D01*
X2912500Y616430D02*
X2944500Y616430D01*
X2913500Y615430D02*
X2943500Y615430D01*
X2913500Y614430D02*
X2942500Y614430D01*
X2914500Y613430D02*
X2941500Y613430D01*
X2916500Y612430D02*
X2939500Y612430D01*
X2918500Y611430D02*
X2937500Y611430D01*
X2922500Y595430D02*
X2934500Y595430D01*
X2918500Y594430D02*
X2937500Y594430D01*
X2916500Y593430D02*
X2939500Y593430D01*
X2915500Y592430D02*
X2940500Y592430D01*
X2914500Y591430D02*
X2941500Y591430D01*
X2914500Y590430D02*
X2942500Y590430D01*
X2913500Y589430D02*
X2943500Y589430D01*
X2912500Y588430D02*
X2921500Y588430D01*
X2934500Y588430D02*
X2944500Y588430D01*
X2911500Y587430D02*
X2919500Y587430D01*
X2936500Y587430D02*
X2944500Y587430D01*
X2910500Y586430D02*
X2918500Y586430D01*
X2937500Y586430D02*
X2945500Y586430D01*
X2909500Y585430D02*
X2917500Y585430D01*
X2938500Y585430D02*
X2946500Y585430D01*
X2909500Y584430D02*
X2917500Y584430D01*
X2939500Y584430D02*
X2947500Y584430D01*
X2908500Y583430D02*
X2916500Y583430D01*
X2940500Y583430D02*
X2947500Y583430D01*
X2908500Y582430D02*
X2915500Y582430D01*
X2941500Y582430D02*
X2948500Y582430D01*
X2908500Y581430D02*
X2914500Y581430D01*
X2941500Y581430D02*
X2948500Y581430D01*
X2907500Y580430D02*
X2913500Y580430D01*
X2942500Y580430D02*
X2948500Y580430D01*
X2907500Y579430D02*
X2913500Y579430D01*
X2942500Y579430D02*
X2948500Y579430D01*
X2907500Y578430D02*
X2913500Y578430D01*
X2942500Y578430D02*
X2948500Y578430D01*
X2907500Y577430D02*
X2913500Y577430D01*
X2942500Y577430D02*
X2948500Y577430D01*
X2907500Y576430D02*
X2914500Y576430D01*
X2942500Y576430D02*
X2948500Y576430D01*
X2908500Y575430D02*
X2914500Y575430D01*
X2941500Y575430D02*
X2948500Y575430D01*
X2908500Y574430D02*
X2915500Y574430D01*
X2940500Y574430D02*
X2947500Y574430D01*
X2908500Y573430D02*
X2916500Y573430D01*
X2939500Y573430D02*
X2947500Y573430D01*
X2909500Y572430D02*
X2917500Y572430D01*
X2938500Y572430D02*
X2946500Y572430D01*
X2910500Y571430D02*
X2918500Y571430D01*
X2937500Y571430D02*
X2946500Y571430D01*
X2910500Y570430D02*
X2919500Y570430D01*
X2936500Y570430D02*
X2945500Y570430D01*
X2911500Y569430D02*
X2920500Y569430D01*
X2935500Y569430D02*
X2944500Y569430D01*
X2912500Y568430D02*
X2922500Y568430D01*
X2933500Y568430D02*
X2943500Y568430D01*
X2895500Y567430D02*
X2947500Y567430D01*
X2895500Y566430D02*
X2948500Y566430D01*
X2894500Y565430D02*
X2948500Y565430D01*
X2894500Y564430D02*
X2948500Y564430D01*
X2895500Y563430D02*
X2948500Y563430D01*
X2895500Y562430D02*
X2947500Y562430D01*
X2898500Y561430D02*
X2944500Y561430D01*
X2916500Y545430D02*
X2953500Y545430D01*
X2914500Y544430D02*
X2955500Y544430D01*
X2912500Y543430D02*
X2956500Y543430D01*
X2911500Y542430D02*
X2958500Y542430D01*
X2911500Y541430D02*
X2958500Y541430D01*
X2910500Y540430D02*
X2959500Y540430D01*
X2909500Y539430D02*
X2960500Y539430D01*
X2909500Y538430D02*
X2916500Y538430D01*
X2952500Y538430D02*
X2960500Y538430D01*
X2909500Y537430D02*
X2915500Y537430D01*
X2954500Y537430D02*
X2961500Y537430D01*
X2909500Y536430D02*
X2915500Y536430D01*
X2954500Y536430D02*
X2961500Y536430D01*
X2909500Y535430D02*
X2915500Y535430D01*
X2955500Y535430D02*
X2961500Y535430D01*
X2909500Y534430D02*
X2915500Y534430D01*
X2955500Y534430D02*
X2961500Y534430D01*
X2909500Y533430D02*
X2916500Y533430D01*
X2955500Y533430D02*
X2961500Y533430D01*
X2909500Y532430D02*
X2938500Y532430D01*
X2955500Y532430D02*
X2961500Y532430D01*
X2910500Y531430D02*
X2940500Y531430D01*
X2955500Y531430D02*
X2961500Y531430D01*
X2910500Y530430D02*
X2940500Y530430D01*
X2955500Y530430D02*
X2961500Y530430D01*
X2911500Y529430D02*
X2941500Y529430D01*
X2955500Y529430D02*
X2961500Y529430D01*
X2911500Y528430D02*
X2941500Y528430D01*
X2955500Y528430D02*
X2961500Y528430D01*
X2910500Y527430D02*
X2941500Y527430D01*
X2955500Y527430D02*
X2961500Y527430D01*
X2910500Y526430D02*
X2941500Y526430D01*
X2955500Y526430D02*
X2961500Y526430D01*
X2909500Y525430D02*
X2917500Y525430D01*
X2935500Y525430D02*
X2941500Y525430D01*
X2955500Y525430D02*
X2961500Y525430D01*
X2909500Y524430D02*
X2916500Y524430D01*
X2935500Y524430D02*
X2941500Y524430D01*
X2955500Y524430D02*
X2961500Y524430D01*
X2909500Y523430D02*
X2915500Y523430D01*
X2935500Y523430D02*
X2941500Y523430D01*
X2955500Y523430D02*
X2961500Y523430D01*
X2909500Y522430D02*
X2915500Y522430D01*
X2935500Y522430D02*
X2941500Y522430D01*
X2955500Y522430D02*
X2961500Y522430D01*
X2909500Y521430D02*
X2915500Y521430D01*
X2935500Y521430D02*
X2941500Y521430D01*
X2954500Y521430D02*
X2961500Y521430D01*
X2909500Y520430D02*
X2915500Y520430D01*
X2934500Y520430D02*
X2941500Y520430D01*
X2954500Y520430D02*
X2961500Y520430D01*
X2909500Y519430D02*
X2916500Y519430D01*
X2933500Y519430D02*
X2940500Y519430D01*
X2953500Y519430D02*
X2960500Y519430D01*
X2909500Y518430D02*
X2940500Y518430D01*
X2951500Y518430D02*
X2960500Y518430D01*
X2910500Y517430D02*
X2940500Y517430D01*
X2950500Y517430D02*
X2959500Y517430D01*
X2911500Y516430D02*
X2939500Y516430D01*
X2950500Y516430D02*
X2958500Y516430D01*
X2911500Y515430D02*
X2938500Y515430D01*
X2949500Y515430D02*
X2957500Y515430D01*
X2912500Y514430D02*
X2937500Y514430D01*
X2950500Y514430D02*
X2956500Y514430D01*
X2914500Y513430D02*
X2936500Y513430D01*
X2950500Y513430D02*
X2955500Y513430D01*
X2916500Y512430D02*
X2933500Y512430D01*
X2951500Y512430D02*
X2954500Y512430D01*
X2917500Y496430D02*
X2917500Y496430D01*
X2914500Y495430D02*
X2919500Y495430D01*
X2913500Y494430D02*
X2920500Y494430D01*
X2912500Y493430D02*
X2920500Y493430D01*
X2911500Y492430D02*
X2920500Y492430D01*
X2910500Y491430D02*
X2920500Y491430D01*
X2910500Y490430D02*
X2919500Y490430D01*
X2942500Y490430D02*
X2945500Y490430D01*
X2909500Y489430D02*
X2917500Y489430D01*
X2941500Y489430D02*
X2946500Y489430D01*
X2909500Y488430D02*
X2916500Y488430D01*
X2941500Y488430D02*
X2946500Y488430D01*
X2909500Y487430D02*
X2915500Y487430D01*
X2941500Y487430D02*
X2947500Y487430D01*
X2909500Y486430D02*
X2915500Y486430D01*
X2941500Y486430D02*
X2947500Y486430D01*
X2909500Y485430D02*
X2915500Y485430D01*
X2941500Y485430D02*
X2947500Y485430D01*
X2909500Y484430D02*
X2915500Y484430D01*
X2941500Y484430D02*
X2947500Y484430D01*
X2909500Y483430D02*
X2915500Y483430D01*
X2941500Y483430D02*
X2947500Y483430D01*
X2909500Y482430D02*
X2915500Y482430D01*
X2941500Y482430D02*
X2947500Y482430D01*
X2909500Y481430D02*
X2915500Y481430D01*
X2941500Y481430D02*
X2947500Y481430D01*
X2909500Y480430D02*
X2915500Y480430D01*
X2941500Y480430D02*
X2947500Y480430D01*
X2909500Y479430D02*
X2915500Y479430D01*
X2941500Y479430D02*
X2947500Y479430D01*
X2909500Y478430D02*
X2915500Y478430D01*
X2941500Y478430D02*
X2947500Y478430D01*
X2909500Y477430D02*
X2915500Y477430D01*
X2941500Y477430D02*
X2947500Y477430D01*
X2909500Y476430D02*
X2917500Y476430D01*
X2941500Y476430D02*
X2947500Y476430D01*
X2910500Y475430D02*
X2957500Y475430D01*
X2910500Y474430D02*
X2958500Y474430D01*
X2911500Y473430D02*
X2958500Y473430D01*
X2912500Y472430D02*
X2958500Y472430D01*
X2913500Y471430D02*
X2958500Y471430D01*
X2914500Y470430D02*
X2957500Y470430D01*
X2917500Y469430D02*
X2956500Y469430D01*
X2941500Y468430D02*
X2947500Y468430D01*
X2941500Y467430D02*
X2947500Y467430D01*
X2941500Y466430D02*
X2947500Y466430D01*
X2941500Y465430D02*
X2946500Y465430D01*
X2941500Y464430D02*
X2946500Y464430D01*
X2942500Y463430D02*
X2946500Y463430D01*
X2912500Y446430D02*
X2938500Y446430D01*
X2910500Y445430D02*
X2941500Y445430D01*
X2909500Y444430D02*
X2943500Y444430D01*
X2909500Y443430D02*
X2944500Y443430D01*
X2909500Y442430D02*
X2945500Y442430D01*
X2909500Y441430D02*
X2945500Y441430D01*
X2910500Y440430D02*
X2946500Y440430D01*
X2939500Y439430D02*
X2946500Y439430D01*
X2940500Y438430D02*
X2946500Y438430D01*
X2940500Y437430D02*
X2947500Y437430D01*
X2941500Y436430D02*
X2947500Y436430D01*
X2941500Y435430D02*
X2947500Y435430D01*
X2941500Y434430D02*
X2947500Y434430D01*
X2941500Y433430D02*
X2947500Y433430D01*
X2941500Y432430D02*
X2947500Y432430D01*
X2941500Y431430D02*
X2946500Y431430D01*
X2940500Y430430D02*
X2946500Y430430D01*
X2939500Y429430D02*
X2946500Y429430D01*
X2939500Y428430D02*
X2946500Y428430D01*
X2938500Y427430D02*
X2945500Y427430D01*
X2937500Y426430D02*
X2945500Y426430D01*
X2937500Y425430D02*
X2944500Y425430D01*
X2936500Y424430D02*
X2943500Y424430D01*
X2936500Y423430D02*
X2943500Y423430D01*
X2935500Y422430D02*
X2942500Y422430D01*
X2934500Y421430D02*
X2942500Y421430D01*
X2933500Y420430D02*
X2941500Y420430D01*
X2910500Y419430D02*
X2946500Y419430D01*
X2909500Y418430D02*
X2946500Y418430D01*
X2909500Y417430D02*
X2947500Y417430D01*
X2909500Y416430D02*
X2947500Y416430D01*
X2909500Y415430D02*
X2946500Y415430D01*
X2910500Y414430D02*
X2946500Y414430D01*
X2913500Y413430D02*
X2943500Y413430D01*
X2910500Y393430D02*
X2913500Y393430D01*
X2909500Y392430D02*
X2914500Y392430D01*
X2909500Y391430D02*
X2915500Y391430D01*
X2909500Y390430D02*
X2915500Y390430D01*
X2909500Y389430D02*
X2915500Y389430D01*
X2909500Y388430D02*
X2915500Y388430D01*
X2909500Y387430D02*
X2915500Y387430D01*
X2909500Y386430D02*
X2915500Y386430D01*
X2909500Y385430D02*
X2915500Y385430D01*
X2909500Y384430D02*
X2915500Y384430D01*
X2909500Y383430D02*
X2945500Y383430D01*
X2957500Y383430D02*
X2962500Y383430D01*
X2909500Y382430D02*
X2946500Y382430D01*
X2956500Y382430D02*
X2963500Y382430D01*
X2909500Y381430D02*
X2946500Y381430D01*
X2955500Y381430D02*
X2964500Y381430D01*
X2909500Y380430D02*
X2947500Y380430D01*
X2955500Y380430D02*
X2964500Y380430D01*
X2909500Y379430D02*
X2947500Y379430D01*
X2955500Y379430D02*
X2964500Y379430D01*
X2909500Y378430D02*
X2947500Y378430D01*
X2955500Y378430D02*
X2964500Y378430D01*
X2909500Y377430D02*
X2947500Y377430D01*
X2955500Y377430D02*
X2964500Y377430D01*
X2909500Y376430D02*
X2915500Y376430D01*
X2941500Y376430D02*
X2947500Y376430D01*
X2955500Y376430D02*
X2964500Y376430D01*
X2909500Y375430D02*
X2915500Y375430D01*
X2941500Y375430D02*
X2947500Y375430D01*
X2956500Y375430D02*
X2964500Y375430D01*
X2909500Y374430D02*
X2915500Y374430D01*
X2941500Y374430D02*
X2947500Y374430D01*
X2957500Y374430D02*
X2963500Y374430D01*
X2909500Y373430D02*
X2915500Y373430D01*
X2941500Y373430D02*
X2947500Y373430D01*
X2909500Y372430D02*
X2915500Y372430D01*
X2941500Y372430D02*
X2947500Y372430D01*
X2909500Y371430D02*
X2915500Y371430D01*
X2941500Y371430D02*
X2947500Y371430D01*
X2909500Y370430D02*
X2915500Y370430D01*
X2941500Y370430D02*
X2947500Y370430D01*
X2909500Y369430D02*
X2914500Y369430D01*
X2941500Y369430D02*
X2946500Y369430D01*
X2909500Y368430D02*
X2914500Y368430D01*
X2941500Y368430D02*
X2946500Y368430D01*
X2910500Y367430D02*
X2913500Y367430D01*
X2942500Y367430D02*
X2945500Y367430D01*
X2934500Y347430D02*
X2941500Y347430D01*
X2933500Y346430D02*
X2943500Y346430D01*
X2933500Y345430D02*
X2944500Y345430D01*
X2933500Y344430D02*
X2945500Y344430D01*
X2933500Y343430D02*
X2945500Y343430D01*
X2934500Y342430D02*
X2946500Y342430D01*
X2935500Y341430D02*
X2946500Y341430D01*
X2940500Y340430D02*
X2946500Y340430D01*
X2940500Y339430D02*
X2947500Y339430D01*
X2941500Y338430D02*
X2947500Y338430D01*
X2941500Y337430D02*
X2947500Y337430D01*
X2941500Y336430D02*
X2947500Y336430D01*
X2941500Y335430D02*
X2947500Y335430D01*
X2941500Y334430D02*
X2947500Y334430D01*
X2941500Y333430D02*
X2947500Y333430D01*
X2941500Y332430D02*
X2947500Y332430D01*
X2940500Y331430D02*
X2947500Y331430D01*
X2939500Y330430D02*
X2947500Y330430D01*
X2938500Y329430D02*
X2946500Y329430D01*
X2937500Y328430D02*
X2946500Y328430D01*
X2937500Y327430D02*
X2945500Y327430D01*
X2936500Y326430D02*
X2944500Y326430D01*
X2935500Y325430D02*
X2943500Y325430D01*
X2934500Y324430D02*
X2942500Y324430D01*
X2933500Y323430D02*
X2941500Y323430D01*
X2932500Y322430D02*
X2940500Y322430D01*
X2931500Y321430D02*
X2940500Y321430D01*
X2911500Y320430D02*
X2945500Y320430D01*
X2909500Y319430D02*
X2946500Y319430D01*
X2909500Y318430D02*
X2946500Y318430D01*
X2909500Y317430D02*
X2947500Y317430D01*
X2909500Y316430D02*
X2946500Y316430D01*
X2909500Y315430D02*
X2946500Y315430D01*
X2911500Y314430D02*
X2945500Y314430D01*
X2921500Y298430D02*
X2934500Y298430D01*
X2918500Y297430D02*
X2937500Y297430D01*
X2916500Y296430D02*
X2939500Y296430D01*
X2915500Y295430D02*
X2940500Y295430D01*
X2914500Y294430D02*
X2941500Y294430D01*
X2913500Y293430D02*
X2942500Y293430D01*
X2913500Y292430D02*
X2943500Y292430D01*
X2912500Y291430D02*
X2921500Y291430D01*
X2935500Y291430D02*
X2944500Y291430D01*
X2911500Y290430D02*
X2919500Y290430D01*
X2936500Y290430D02*
X2944500Y290430D01*
X2910500Y289430D02*
X2918500Y289430D01*
X2937500Y289430D02*
X2945500Y289430D01*
X2909500Y288430D02*
X2917500Y288430D01*
X2938500Y288430D02*
X2946500Y288430D01*
X2909500Y287430D02*
X2917500Y287430D01*
X2939500Y287430D02*
X2947500Y287430D01*
X2908500Y286430D02*
X2916500Y286430D01*
X2940500Y286430D02*
X2947500Y286430D01*
X2908500Y285430D02*
X2915500Y285430D01*
X2941500Y285430D02*
X2948500Y285430D01*
X2908500Y284430D02*
X2914500Y284430D01*
X2941500Y284430D02*
X2948500Y284430D01*
X2907500Y283430D02*
X2913500Y283430D01*
X2942500Y283430D02*
X2948500Y283430D01*
X2907500Y282430D02*
X2913500Y282430D01*
X2942500Y282430D02*
X2948500Y282430D01*
X2907500Y281430D02*
X2913500Y281430D01*
X2942500Y281430D02*
X2948500Y281430D01*
X2907500Y280430D02*
X2913500Y280430D01*
X2942500Y280430D02*
X2948500Y280430D01*
X2908500Y279430D02*
X2914500Y279430D01*
X2942500Y279430D02*
X2948500Y279430D01*
X2908500Y278430D02*
X2914500Y278430D01*
X2941500Y278430D02*
X2948500Y278430D01*
X2908500Y277430D02*
X2915500Y277430D01*
X2940500Y277430D02*
X2947500Y277430D01*
X2908500Y276430D02*
X2916500Y276430D01*
X2939500Y276430D02*
X2947500Y276430D01*
X2909500Y275430D02*
X2917500Y275430D01*
X2938500Y275430D02*
X2946500Y275430D01*
X2910500Y274430D02*
X2918500Y274430D01*
X2937500Y274430D02*
X2946500Y274430D01*
X2910500Y273430D02*
X2919500Y273430D01*
X2936500Y273430D02*
X2945500Y273430D01*
X2911500Y272430D02*
X2920500Y272430D01*
X2935500Y272430D02*
X2944500Y272430D01*
X2912500Y271430D02*
X2923500Y271430D01*
X2933500Y271430D02*
X2943500Y271430D01*
X2895500Y270430D02*
X2947500Y270430D01*
X2895500Y269430D02*
X2948500Y269430D01*
X2894500Y268430D02*
X2948500Y268430D01*
X2894500Y267430D02*
X2948500Y267430D01*
X2895500Y266430D02*
X2948500Y266430D01*
X2895500Y265430D02*
X2947500Y265430D01*
X2910500Y248430D02*
X2913500Y248430D01*
X2926500Y248430D02*
X2938500Y248430D01*
X2909500Y247430D02*
X2914500Y247430D01*
X2925500Y247430D02*
X2940500Y247430D01*
X2909500Y246430D02*
X2914500Y246430D01*
X2925500Y246430D02*
X2941500Y246430D01*
X2909500Y245430D02*
X2915500Y245430D01*
X2925500Y245430D02*
X2942500Y245430D01*
X2909500Y244430D02*
X2915500Y244430D01*
X2925500Y244430D02*
X2943500Y244430D01*
X2909500Y243430D02*
X2915500Y243430D01*
X2925500Y243430D02*
X2944500Y243430D01*
X2909500Y242430D02*
X2915500Y242430D01*
X2925500Y242430D02*
X2945500Y242430D01*
X2909500Y241430D02*
X2915500Y241430D01*
X2925500Y241430D02*
X2931500Y241430D01*
X2937500Y241430D02*
X2945500Y241430D01*
X2909500Y240430D02*
X2915500Y240430D01*
X2925500Y240430D02*
X2931500Y240430D01*
X2939500Y240430D02*
X2946500Y240430D01*
X2909500Y239430D02*
X2915500Y239430D01*
X2925500Y239430D02*
X2931500Y239430D01*
X2939500Y239430D02*
X2946500Y239430D01*
X2909500Y238430D02*
X2915500Y238430D01*
X2925500Y238430D02*
X2931500Y238430D01*
X2940500Y238430D02*
X2946500Y238430D01*
X2909500Y237430D02*
X2915500Y237430D01*
X2925500Y237430D02*
X2931500Y237430D01*
X2940500Y237430D02*
X2947500Y237430D01*
X2909500Y236430D02*
X2915500Y236430D01*
X2925500Y236430D02*
X2931500Y236430D01*
X2941500Y236430D02*
X2947500Y236430D01*
X2909500Y235430D02*
X2915500Y235430D01*
X2925500Y235430D02*
X2931500Y235430D01*
X2941500Y235430D02*
X2947500Y235430D01*
X2909500Y234430D02*
X2915500Y234430D01*
X2925500Y234430D02*
X2931500Y234430D01*
X2941500Y234430D02*
X2947500Y234430D01*
X2909500Y233430D02*
X2915500Y233430D01*
X2925500Y233430D02*
X2931500Y233430D01*
X2941500Y233430D02*
X2947500Y233430D01*
X2909500Y232430D02*
X2915500Y232430D01*
X2925500Y232430D02*
X2931500Y232430D01*
X2941500Y232430D02*
X2947500Y232430D01*
X2909500Y231430D02*
X2915500Y231430D01*
X2925500Y231430D02*
X2931500Y231430D01*
X2941500Y231430D02*
X2947500Y231430D01*
X2909500Y230430D02*
X2915500Y230430D01*
X2925500Y230430D02*
X2931500Y230430D01*
X2941500Y230430D02*
X2947500Y230430D01*
X2909500Y229430D02*
X2915500Y229430D01*
X2925500Y229430D02*
X2931500Y229430D01*
X2941500Y229430D02*
X2947500Y229430D01*
X2909500Y228430D02*
X2915500Y228430D01*
X2925500Y228430D02*
X2931500Y228430D01*
X2941500Y228430D02*
X2947500Y228430D01*
X2909500Y227430D02*
X2915500Y227430D01*
X2925500Y227430D02*
X2931500Y227430D01*
X2941500Y227430D02*
X2947500Y227430D01*
X2909500Y226430D02*
X2915500Y226430D01*
X2925500Y226430D02*
X2931500Y226430D01*
X2940500Y226430D02*
X2946500Y226430D01*
X2909500Y225430D02*
X2916500Y225430D01*
X2925500Y225430D02*
X2931500Y225430D01*
X2940500Y225430D02*
X2946500Y225430D01*
X2909500Y224430D02*
X2916500Y224430D01*
X2925500Y224430D02*
X2931500Y224430D01*
X2939500Y224430D02*
X2946500Y224430D01*
X2910500Y223430D02*
X2917500Y223430D01*
X2925500Y223430D02*
X2931500Y223430D01*
X2938500Y223430D02*
X2946500Y223430D01*
X2910500Y222430D02*
X2919500Y222430D01*
X2925500Y222430D02*
X2931500Y222430D01*
X2937500Y222430D02*
X2945500Y222430D01*
X2911500Y221430D02*
X2944500Y221430D01*
X2912500Y220430D02*
X2944500Y220430D01*
X2913500Y219430D02*
X2943500Y219430D01*
X2914500Y218430D02*
X2942500Y218430D01*
X2915500Y217430D02*
X2941500Y217430D01*
X2916500Y216430D02*
X2939500Y216430D01*
X2918500Y215430D02*
X2937500Y215430D01*
X2910500Y198430D02*
X2945500Y198430D01*
X2909500Y197430D02*
X2946500Y197430D01*
X2909500Y196430D02*
X2946500Y196430D01*
X2909500Y195430D02*
X2947500Y195430D01*
X2909500Y194430D02*
X2946500Y194430D01*
X2909500Y193430D02*
X2946500Y193430D01*
X2911500Y192430D02*
X2944500Y192430D01*
X2914500Y191430D02*
X2921500Y191430D01*
X2913500Y190430D02*
X2921500Y190430D01*
X2913500Y189430D02*
X2920500Y189430D01*
X2912500Y188430D02*
X2919500Y188430D01*
X2911500Y187430D02*
X2919500Y187430D01*
X2911500Y186430D02*
X2918500Y186430D01*
X2910500Y185430D02*
X2917500Y185430D01*
X2910500Y184430D02*
X2917500Y184430D01*
X2909500Y183430D02*
X2916500Y183430D01*
X2909500Y182430D02*
X2916500Y182430D01*
X2909500Y181430D02*
X2915500Y181430D01*
X2909500Y180430D02*
X2915500Y180430D01*
X2909500Y179430D02*
X2915500Y179430D01*
X2909500Y178430D02*
X2915500Y178430D01*
X2909500Y177430D02*
X2915500Y177430D01*
X2909500Y176430D02*
X2915500Y176430D01*
X2909500Y175430D02*
X2915500Y175430D01*
X2909500Y174430D02*
X2915500Y174430D01*
X2909500Y173430D02*
X2916500Y173430D01*
X2909500Y172430D02*
X2945500Y172430D01*
X2910500Y171430D02*
X2946500Y171430D01*
X2910500Y170430D02*
X2946500Y170430D01*
X2911500Y169430D02*
X2947500Y169430D01*
X2912500Y168430D02*
X2946500Y168430D01*
X2914500Y167430D02*
X2946500Y167430D01*
X2916500Y166430D02*
X2945500Y166430D01*
X2911500Y146430D02*
X2912500Y146430D01*
X2910500Y145430D02*
X2914500Y145430D01*
X2909500Y144430D02*
X2914500Y144430D01*
X2909500Y143430D02*
X2915500Y143430D01*
X2909500Y142430D02*
X2915500Y142430D01*
X2909500Y141430D02*
X2915500Y141430D01*
X2909500Y140430D02*
X2915500Y140430D01*
X2909500Y139430D02*
X2915500Y139430D01*
X2909500Y138430D02*
X2915500Y138430D01*
X2909500Y137430D02*
X2915500Y137430D01*
X2909500Y136430D02*
X2958500Y136430D01*
X2909500Y135430D02*
X2960500Y135430D01*
X2909500Y134430D02*
X2961500Y134430D01*
X2909500Y133430D02*
X2961500Y133430D01*
X2909500Y132430D02*
X2961500Y132430D01*
X2909500Y131430D02*
X2961500Y131430D01*
X2909500Y130430D02*
X2961500Y130430D01*
X2909500Y129430D02*
X2915500Y129430D01*
X2955500Y129430D02*
X2961500Y129430D01*
X2909500Y128430D02*
X2915500Y128430D01*
X2955500Y128430D02*
X2961500Y128430D01*
X2909500Y127430D02*
X2915500Y127430D01*
X2955500Y127430D02*
X2961500Y127430D01*
X2909500Y126430D02*
X2915500Y126430D01*
X2955500Y126430D02*
X2961500Y126430D01*
X2909500Y125430D02*
X2915500Y125430D01*
X2955500Y125430D02*
X2961500Y125430D01*
X2909500Y124430D02*
X2915500Y124430D01*
X2955500Y124430D02*
X2961500Y124430D01*
X2909500Y123430D02*
X2915500Y123430D01*
X2955500Y123430D02*
X2961500Y123430D01*
X2909500Y122430D02*
X2915500Y122430D01*
X2955500Y122430D02*
X2961500Y122430D01*
X2909500Y121430D02*
X2914500Y121430D01*
X2956500Y121430D02*
X2961500Y121430D01*
X2910500Y120430D02*
X2913500Y120430D01*
X2956500Y120430D02*
X2960500Y120430D01*
X2919500Y100430D02*
X2936500Y100430D01*
X2916500Y99430D02*
X2939500Y99430D01*
X2915500Y98430D02*
X2940500Y98430D01*
X2914500Y97430D02*
X2942500Y97430D01*
X2913500Y96430D02*
X2943500Y96430D01*
X2912500Y95430D02*
X2944500Y95430D01*
X2911500Y94430D02*
X2944500Y94430D01*
X2910500Y93430D02*
X2919500Y93430D01*
X2936500Y93430D02*
X2945500Y93430D01*
X2910500Y92430D02*
X2917500Y92430D01*
X2938500Y92430D02*
X2946500Y92430D01*
X2909500Y91430D02*
X2916500Y91430D01*
X2939500Y91430D02*
X2946500Y91430D01*
X2909500Y90430D02*
X2916500Y90430D01*
X2940500Y90430D02*
X2946500Y90430D01*
X2909500Y89430D02*
X2915500Y89430D01*
X2940500Y89430D02*
X2946500Y89430D01*
X2909500Y88430D02*
X2915500Y88430D01*
X2941500Y88430D02*
X2947500Y88430D01*
X2909500Y87430D02*
X2915500Y87430D01*
X2941500Y87430D02*
X2947500Y87430D01*
X2909500Y86430D02*
X2915500Y86430D01*
X2941500Y86430D02*
X2947500Y86430D01*
X2909500Y85430D02*
X2915500Y85430D01*
X2941500Y85430D02*
X2947500Y85430D01*
X2909500Y84430D02*
X2915500Y84430D01*
X2941500Y84430D02*
X2947500Y84430D01*
X2909500Y83430D02*
X2915500Y83430D01*
X2941500Y83430D02*
X2947500Y83430D01*
X2909500Y82430D02*
X2915500Y82430D01*
X2941500Y82430D02*
X2947500Y82430D01*
X2909500Y81430D02*
X2915500Y81430D01*
X2940500Y81430D02*
X2946500Y81430D01*
X2909500Y80430D02*
X2916500Y80430D01*
X2940500Y80430D02*
X2946500Y80430D01*
X2909500Y79430D02*
X2916500Y79430D01*
X2939500Y79430D02*
X2946500Y79430D01*
X2910500Y78430D02*
X2917500Y78430D01*
X2938500Y78430D02*
X2946500Y78430D01*
X2910500Y77430D02*
X2918500Y77430D01*
X2937500Y77430D02*
X2945500Y77430D01*
X2911500Y76430D02*
X2919500Y76430D01*
X2936500Y76430D02*
X2945500Y76430D01*
X2912500Y75430D02*
X2920500Y75430D01*
X2936500Y75430D02*
X2944500Y75430D01*
X2912500Y74430D02*
X2921500Y74430D01*
X2935500Y74430D02*
X2943500Y74430D01*
X2913500Y73430D02*
X2958500Y73430D01*
X2910500Y72430D02*
X2960500Y72430D01*
X2909500Y71430D02*
X2961500Y71430D01*
X2909500Y70430D02*
X2961500Y70430D01*
X2909500Y69430D02*
X2961500Y69430D01*
X2909500Y68430D02*
X2961500Y68430D01*
X2910500Y67430D02*
X2960500Y67430D01*
D02*
G04 End of Silk0*
M02*