G04 MADE WITH FRITZING*
G04 WWW.FRITZING.ORG*
G04 DOUBLE SIDED*
G04 HOLES PLATED*
G04 CONTOUR ON CENTER OF CONTOUR VECTOR*
%FSLAX26Y26*%
%MOIN*%
%ADD10C,0.085000*%
%ADD11C,0.084000*%
%ADD12C,0.080000*%
%ADD13C,0.065433*%
%ADD14C,0.132047*%
%ADD15C,0.076929*%
%ADD16C,0.077559*%
%ADD17C,0.088000*%
%ADD18C,0.073622*%
%ADD19C,0.080866*%
%ADD20C,0.112677*%
%ADD21R,0.085000X0.085000*%
G04 MASK0*
%FSLAX26Y26*%
%MOIN*%
D10*
X143721Y216780D03*
X143721Y516780D03*
X1226770Y87580D03*
X1226770Y387580D03*
D11*
X52966Y519990D03*
X52966Y219990D03*
D12*
X231332Y656090D03*
X431332Y656090D03*
D10*
X242788Y65140D03*
X242788Y365140D03*
X342788Y65140D03*
X342788Y365140D03*
X442788Y65140D03*
X442788Y365140D03*
X542788Y65140D03*
X542788Y365140D03*
D13*
X1520630Y2469871D03*
X1800630Y2469871D03*
X2140860Y1327540D03*
X2140860Y1607536D03*
X1759170Y661500D03*
X1759170Y381500D03*
X2335300Y1015700D03*
X2335300Y1295700D03*
X1618810Y665320D03*
X1338810Y665320D03*
X1861200Y717170D03*
X1861200Y437170D03*
D14*
X3333120Y95580D03*
X3324800Y2441451D03*
X113146Y2441451D03*
X112257Y95580D03*
D13*
X2149190Y852680D03*
X2149190Y572680D03*
D15*
X572910Y1294250D03*
X572910Y1194250D03*
X572910Y1094250D03*
X572910Y994250D03*
X572910Y894250D03*
X572910Y794250D03*
X572910Y694250D03*
X572910Y594250D03*
X572910Y494250D03*
D12*
X231454Y1661627D03*
X231454Y1761812D03*
D16*
X829332Y542820D03*
X829332Y642820D03*
X829332Y747250D03*
X829332Y847250D03*
X2556800Y2334249D03*
X2556800Y2234249D03*
X2556800Y2334249D03*
X2556800Y2234249D03*
X2656800Y2234249D03*
X2656800Y2334249D03*
X2556800Y491280D03*
X2556800Y391280D03*
X2556800Y491280D03*
X2556800Y391280D03*
X2656800Y391280D03*
X2656800Y491280D03*
X2556800Y203800D03*
X2556800Y103800D03*
X2556800Y203800D03*
X2556800Y103800D03*
X2656800Y103800D03*
X2656800Y203800D03*
X2556800Y805550D03*
X2556800Y705550D03*
X2556800Y805550D03*
X2556800Y705550D03*
X2656800Y705550D03*
X2656800Y805550D03*
X2556800Y1103470D03*
X2556800Y1003470D03*
X2556800Y1103470D03*
X2556800Y1003470D03*
X2656800Y1003470D03*
X2656800Y1103470D03*
X2556800Y1416770D03*
X2556800Y1316770D03*
X2556800Y1416770D03*
X2556800Y1316770D03*
X2656800Y1316770D03*
X2656800Y1416770D03*
X2556800Y1754249D03*
X2556800Y1654249D03*
X2556800Y1754249D03*
X2556800Y1654249D03*
X2656800Y1654249D03*
X2656800Y1754249D03*
D17*
X750458Y2261205D03*
X750458Y2161205D03*
X750458Y2061205D03*
X750458Y1961205D03*
D15*
X557728Y1543508D03*
X457728Y1543508D03*
X357728Y1543508D03*
X257728Y1543508D03*
X157728Y1543508D03*
X57728Y1543508D03*
D18*
X1008070Y2357804D03*
X1008070Y2257804D03*
X1008070Y2157804D03*
X1008070Y2057804D03*
X1008070Y1957804D03*
X1008070Y1857804D03*
X1008070Y1757804D03*
X1008070Y1657804D03*
X1008070Y1557804D03*
X1008070Y1457800D03*
X1008070Y1357800D03*
X1008070Y1257800D03*
X1008070Y1157800D03*
X1008070Y1057800D03*
X1008070Y957800D03*
X1008070Y857800D03*
X1008070Y757800D03*
X1008070Y657800D03*
X1008070Y557800D03*
X1008070Y457800D03*
D19*
X630711Y1969099D03*
X630711Y2067525D03*
X630711Y2165950D03*
D12*
X59845Y1968666D03*
X59845Y2165517D03*
D20*
X335435Y1849021D03*
X335435Y2286028D03*
D19*
X2797250Y1591572D03*
X2797250Y1493150D03*
X2797250Y1394720D03*
D12*
X3368120Y1592005D03*
X3368120Y1395150D03*
D20*
X3092530Y1711650D03*
X3092530Y1274640D03*
D19*
X2794380Y998730D03*
X2794380Y900310D03*
X2794380Y801880D03*
D12*
X3365250Y999170D03*
X3365250Y802310D03*
D20*
X3089660Y1118810D03*
X3089660Y681800D03*
D19*
X2781910Y2193566D03*
X2781910Y2095140D03*
X2781910Y1996715D03*
D12*
X3352780Y2193999D03*
X3352780Y1997148D03*
D20*
X3077190Y2313644D03*
X3077190Y1876637D03*
D10*
X2246750Y1629923D03*
X2246750Y1329920D03*
X2462490Y607140D03*
X2762490Y607140D03*
X2021480Y264860D03*
X2321480Y264860D03*
X2058010Y86060D03*
X1758010Y86060D03*
X1605500Y180070D03*
X1605500Y480070D03*
X2322680Y835770D03*
X2322680Y535770D03*
X2347680Y350220D03*
X2047680Y350220D03*
X2206010Y1240850D03*
X2206010Y940850D03*
X2436710Y174020D03*
X2136710Y174020D03*
X2423600Y862150D03*
X2423600Y1162150D03*
X2431010Y1556030D03*
X2431010Y1256030D03*
X2334710Y1842808D03*
X2334710Y1542808D03*
X482588Y1660216D03*
X482588Y1760216D03*
D16*
X2041400Y2357804D03*
X2041400Y2257804D03*
X2041400Y2157804D03*
X2041400Y2057804D03*
X2041400Y1957804D03*
X2041400Y1857804D03*
X2041400Y1757804D03*
X2041400Y1657804D03*
X2041400Y1557804D03*
X2041400Y1457800D03*
X2041400Y1357800D03*
X2041400Y1257800D03*
X2041400Y1157800D03*
X2041400Y1057800D03*
X2041400Y957800D03*
X2041400Y857800D03*
X2041400Y757800D03*
X2041400Y657800D03*
X2041400Y557800D03*
X2041400Y457800D03*
D21*
X242788Y65140D03*
X482588Y1660216D03*
G04 End of Mask0*
M02*