; NON-PLATED HOLES START AT T1
; THROUGH (PLATED) HOLES START AT T100
M48
INCH
T1C0.047244
T2C0.122047
T100C0.043307
T101C0.031496
T102C0.030000
T103C0.035000
T104C0.038000
T105C0.035433
T106C0.082677
%
T1
X008596Y000517
X008596Y002881
T2
X001122Y000955
X033331Y000955
X033248Y024414
X001131Y024414
T100
X033681Y015920
X027943Y009003
X027819Y020951
X006307Y021341
X006307Y020357
X027943Y008018
X033527Y021939
X027972Y014931
X033681Y013951
X006307Y022326
X033652Y009991
X027943Y009987
X000598Y020353
X027972Y015915
X033527Y019971
X027819Y019967
X000598Y022321
X027972Y013947
X027819Y021935
X033652Y008023
T101
X010191Y005577
X010191Y022578
X010191Y007577
X010191Y009577
X010191Y020578
X010191Y021578
X010191Y023578
X010191Y017578
X010191Y004577
X010191Y015578
X010191Y019578
X010191Y006577
X010191Y012577
X010191Y008577
X010191Y010577
X010191Y011577
X010191Y014577
X010191Y013577
X010191Y016578
X010191Y018578
T102
X002313Y006560
X004313Y006560
X003073Y017560
X001073Y017560
T103
X002872Y000540
X012712Y003875
X004872Y003540
X023089Y001017
X004872Y000540
X024642Y024666
X023413Y002055
X002872Y003540
X022421Y009338
X023365Y011575
X027642Y024666
X023365Y008575
X001437Y002501
X023097Y015400
X024180Y008876
X004825Y018268
X020413Y002055
X003872Y003540
X005872Y003540
X022421Y012338
X020089Y001017
X024180Y005876
X005872Y000540
X012712Y000875
X023097Y018400
X003872Y000540
X004825Y017268
X001437Y005501
T104
X007504Y017278
X007504Y018278
X007504Y020278
X007504Y019278
T105
X025568Y004912
X025568Y002037
X020414Y011577
X024342Y014457
X023262Y004206
X026568Y022342
X005729Y011497
X025568Y014167
X005729Y009497
X005729Y006497
X017940Y008314
X025568Y016542
X008293Y005428
X026568Y013167
X017573Y000855
X026568Y001037
X026568Y007055
X015600Y007093
X020414Y020578
X020414Y009577
X020414Y004577
X015600Y009893
X020414Y023578
X025568Y011034
X020414Y019578
X025568Y017542
X005729Y010497
X005729Y008497
X020414Y010577
X023810Y023852
X021913Y015916
X020414Y013577
X021742Y003506
X005729Y012497
X026568Y003912
X026568Y023342
X025568Y008055
X023262Y007006
X017573Y003655
X020414Y021578
X015205Y003706
X014088Y003676
X016498Y003655
X026568Y010034
X008293Y008472
X018942Y003506
X019708Y024708
X014515Y010786
X016908Y024708
X017940Y005514
X025568Y010034
X020414Y014577
X000529Y002755
X000529Y005755
X026568Y008055
X025568Y003912
X025568Y023342
X016757Y006465
X020414Y022578
X020414Y005577
X014515Y007986
X016757Y009265
X020414Y015578
X023810Y021052
X005729Y013497
X005577Y015990
X026568Y011034
X020414Y012577
X020414Y006577
X008293Y007472
X014088Y000876
X020414Y008577
X026568Y017542
X020414Y016578
X008293Y006428
X015205Y000906
X025568Y001037
X016498Y000855
X000577Y015990
X025568Y007055
X005729Y005497
X020414Y018578
X024342Y017257
X020414Y007577
X004577Y015990
X026568Y014167
X001577Y015990
X025568Y013167
X026568Y016542
X003577Y015990
X026568Y002037
X020414Y017578
X026568Y004912
X021913Y013116
X005729Y007497
X002577Y015990
X025568Y022342
T106
X030771Y023136
X030925Y012746
X030925Y017116
X003354Y023526
X030771Y018766
X003354Y019156
X030896Y011188
X030896Y006817
T00
M30
