G04 MADE WITH FRITZING*
G04 WWW.FRITZING.ORG*
G04 DOUBLE SIDED*
G04 HOLES PLATED*
G04 CONTOUR ON CENTER OF CONTOUR VECTOR*
%FSLAX26Y26*%
%MOIN*%
%ADD10C,0.005000*%
%ADD10C,0.008*%
G04 CONTOUR*
%FSLAX26Y26*%
%MOIN*%
D10*
D10*
X111000Y2532930D02*
X112000Y2532930D01*
X113000Y2532930D01*
X114000Y2532930D01*
X115000Y2532930D01*
X116000Y2532930D01*
X117000Y2532930D01*
X118000Y2532930D01*
X119000Y2532930D01*
X120000Y2532930D01*
X121000Y2532930D01*
X122000Y2532930D01*
X123000Y2532930D01*
X124000Y2532930D01*
X125000Y2532930D01*
X126000Y2532930D01*
X127000Y2532930D01*
X128000Y2532930D01*
X129000Y2532930D01*
X130000Y2532930D01*
X131000Y2532930D01*
X132000Y2532930D01*
X133000Y2532930D01*
X134000Y2532930D01*
X135000Y2532930D01*
X136000Y2532930D01*
X137000Y2532930D01*
X138000Y2532930D01*
X139000Y2532930D01*
X140000Y2532930D01*
X141000Y2532930D01*
X142000Y2532930D01*
X143000Y2532930D01*
X144000Y2532930D01*
X145000Y2532930D01*
X146000Y2532930D01*
X147000Y2532930D01*
X148000Y2532930D01*
X149000Y2532930D01*
X150000Y2532930D01*
X151000Y2532930D01*
X152000Y2532930D01*
X153000Y2532930D01*
X154000Y2532930D01*
X155000Y2532930D01*
X156000Y2532930D01*
X157000Y2532930D01*
X158000Y2532930D01*
X159000Y2532930D01*
X160000Y2532930D01*
X161000Y2532930D01*
X162000Y2532930D01*
X163000Y2532930D01*
X164000Y2532930D01*
X165000Y2532930D01*
X166000Y2532930D01*
X167000Y2532930D01*
X168000Y2532930D01*
X169000Y2532930D01*
X170000Y2532930D01*
X171000Y2532930D01*
X172000Y2532930D01*
X173000Y2532930D01*
X174000Y2532930D01*
X175000Y2532930D01*
X176000Y2532930D01*
X177000Y2532930D01*
X178000Y2532930D01*
X179000Y2532930D01*
X180000Y2532930D01*
X181000Y2532930D01*
X182000Y2532930D01*
X183000Y2532930D01*
X184000Y2532930D01*
X185000Y2532930D01*
X186000Y2532930D01*
X187000Y2532930D01*
X188000Y2532930D01*
X189000Y2532930D01*
X190000Y2532930D01*
X191000Y2532930D01*
X192000Y2532930D01*
X193000Y2532930D01*
X194000Y2532930D01*
X195000Y2532930D01*
X196000Y2532930D01*
X197000Y2532930D01*
X198000Y2532930D01*
X199000Y2532930D01*
X200000Y2532930D01*
X201000Y2532930D01*
X202000Y2532930D01*
X203000Y2532930D01*
X204000Y2532930D01*
X205000Y2532930D01*
X206000Y2532930D01*
X207000Y2532930D01*
X208000Y2532930D01*
X209000Y2532930D01*
X210000Y2532930D01*
X211000Y2532930D01*
X212000Y2532930D01*
X213000Y2532930D01*
X214000Y2532930D01*
X215000Y2532930D01*
X216000Y2532930D01*
X217000Y2532930D01*
X218000Y2532930D01*
X219000Y2532930D01*
X220000Y2532930D01*
X221000Y2532930D01*
X222000Y2532930D01*
X223000Y2532930D01*
X224000Y2532930D01*
X225000Y2532930D01*
X226000Y2532930D01*
X227000Y2532930D01*
X228000Y2532930D01*
X229000Y2532930D01*
X230000Y2532930D01*
X231000Y2532930D01*
X232000Y2532930D01*
X233000Y2532930D01*
X234000Y2532930D01*
X235000Y2532930D01*
X236000Y2532930D01*
X237000Y2532930D01*
X238000Y2532930D01*
X239000Y2532930D01*
X240000Y2532930D01*
X241000Y2532930D01*
X242000Y2532930D01*
X243000Y2532930D01*
X244000Y2532930D01*
X245000Y2532930D01*
X246000Y2532930D01*
X247000Y2532930D01*
X248000Y2532930D01*
X249000Y2532930D01*
X250000Y2532930D01*
X251000Y2532930D01*
X252000Y2532930D01*
X253000Y2532930D01*
X254000Y2532930D01*
X255000Y2532930D01*
X256000Y2532930D01*
X257000Y2532930D01*
X258000Y2532930D01*
X259000Y2532930D01*
X260000Y2532930D01*
X261000Y2532930D01*
X262000Y2532930D01*
X263000Y2532930D01*
X264000Y2532930D01*
X265000Y2532930D01*
X266000Y2532930D01*
X267000Y2532930D01*
X268000Y2532930D01*
X269000Y2532930D01*
X270000Y2532930D01*
X271000Y2532930D01*
X272000Y2532930D01*
X273000Y2532930D01*
X274000Y2532930D01*
X275000Y2532930D01*
X276000Y2532930D01*
X277000Y2532930D01*
X278000Y2532930D01*
X279000Y2532930D01*
X280000Y2532930D01*
X281000Y2532930D01*
X282000Y2532930D01*
X283000Y2532930D01*
X284000Y2532930D01*
X285000Y2532930D01*
X286000Y2532930D01*
X287000Y2532930D01*
X288000Y2532930D01*
X289000Y2532930D01*
X290000Y2532930D01*
X291000Y2532930D01*
X292000Y2532930D01*
X293000Y2532930D01*
X294000Y2532930D01*
X295000Y2532930D01*
X296000Y2532930D01*
X297000Y2532930D01*
X298000Y2532930D01*
X299000Y2532930D01*
X300000Y2532930D01*
X301000Y2532930D01*
X302000Y2532930D01*
X303000Y2532930D01*
X304000Y2532930D01*
X305000Y2532930D01*
X306000Y2532930D01*
X307000Y2532930D01*
X308000Y2532930D01*
X309000Y2532930D01*
X310000Y2532930D01*
X311000Y2532930D01*
X312000Y2532930D01*
X313000Y2532930D01*
X314000Y2532930D01*
X315000Y2532930D01*
X316000Y2532930D01*
X317000Y2532930D01*
X318000Y2532930D01*
X319000Y2532930D01*
X320000Y2532930D01*
X321000Y2532930D01*
X322000Y2532930D01*
X323000Y2532930D01*
X324000Y2532930D01*
X325000Y2532930D01*
X326000Y2532930D01*
X327000Y2532930D01*
X328000Y2532930D01*
X329000Y2532930D01*
X330000Y2532930D01*
X331000Y2532930D01*
X332000Y2532930D01*
X333000Y2532930D01*
X334000Y2532930D01*
X335000Y2532930D01*
X336000Y2532930D01*
X337000Y2532930D01*
X338000Y2532930D01*
X339000Y2532930D01*
X340000Y2532930D01*
X341000Y2532930D01*
X342000Y2532930D01*
X343000Y2532930D01*
X344000Y2532930D01*
X345000Y2532930D01*
X346000Y2532930D01*
X347000Y2532930D01*
X348000Y2532930D01*
X349000Y2532930D01*
X350000Y2532930D01*
X351000Y2532930D01*
X352000Y2532930D01*
X353000Y2532930D01*
X354000Y2532930D01*
X355000Y2532930D01*
X356000Y2532930D01*
X357000Y2532930D01*
X358000Y2532930D01*
X359000Y2532930D01*
X360000Y2532930D01*
X361000Y2532930D01*
X362000Y2532930D01*
X363000Y2532930D01*
X364000Y2532930D01*
X365000Y2532930D01*
X366000Y2532930D01*
X367000Y2532930D01*
X368000Y2532930D01*
X369000Y2532930D01*
X370000Y2532930D01*
X371000Y2532930D01*
X372000Y2532930D01*
X373000Y2532930D01*
X374000Y2532930D01*
X375000Y2532930D01*
X376000Y2532930D01*
X377000Y2532930D01*
X378000Y2532930D01*
X379000Y2532930D01*
X380000Y2532930D01*
X381000Y2532930D01*
X382000Y2532930D01*
X383000Y2532930D01*
X384000Y2532930D01*
X385000Y2532930D01*
X386000Y2532930D01*
X387000Y2532930D01*
X388000Y2532930D01*
X389000Y2532930D01*
X390000Y2532930D01*
X391000Y2532930D01*
X392000Y2532930D01*
X393000Y2532930D01*
X394000Y2532930D01*
X395000Y2532930D01*
X396000Y2532930D01*
X397000Y2532930D01*
X398000Y2532930D01*
X399000Y2532930D01*
X400000Y2532930D01*
X401000Y2532930D01*
X402000Y2532930D01*
X403000Y2532930D01*
X404000Y2532930D01*
X405000Y2532930D01*
X406000Y2532930D01*
X407000Y2532930D01*
X408000Y2532930D01*
X409000Y2532930D01*
X410000Y2532930D01*
X411000Y2532930D01*
X412000Y2532930D01*
X413000Y2532930D01*
X414000Y2532930D01*
X415000Y2532930D01*
X416000Y2532930D01*
X417000Y2532930D01*
X418000Y2532930D01*
X419000Y2532930D01*
X420000Y2532930D01*
X421000Y2532930D01*
X422000Y2532930D01*
X423000Y2532930D01*
X424000Y2532930D01*
X425000Y2532930D01*
X426000Y2532930D01*
X427000Y2532930D01*
X428000Y2532930D01*
X429000Y2532930D01*
X430000Y2532930D01*
X431000Y2532930D01*
X432000Y2532930D01*
X433000Y2532930D01*
X434000Y2532930D01*
X435000Y2532930D01*
X436000Y2532930D01*
X437000Y2532930D01*
X438000Y2532930D01*
X439000Y2532930D01*
X440000Y2532930D01*
X441000Y2532930D01*
X442000Y2532930D01*
X443000Y2532930D01*
X444000Y2532930D01*
X445000Y2532930D01*
X446000Y2532930D01*
X447000Y2532930D01*
X448000Y2532930D01*
X449000Y2532930D01*
X450000Y2532930D01*
X451000Y2532930D01*
X452000Y2532930D01*
X453000Y2532930D01*
X454000Y2532930D01*
X455000Y2532930D01*
X456000Y2532930D01*
X457000Y2532930D01*
X458000Y2532930D01*
X459000Y2532930D01*
X460000Y2532930D01*
X461000Y2532930D01*
X462000Y2532930D01*
X463000Y2532930D01*
X464000Y2532930D01*
X465000Y2532930D01*
X466000Y2532930D01*
X467000Y2532930D01*
X468000Y2532930D01*
X469000Y2532930D01*
X470000Y2532930D01*
X471000Y2532930D01*
X472000Y2532930D01*
X473000Y2532930D01*
X474000Y2532930D01*
X475000Y2532930D01*
X476000Y2532930D01*
X477000Y2532930D01*
X478000Y2532930D01*
X479000Y2532930D01*
X480000Y2532930D01*
X481000Y2532930D01*
X482000Y2532930D01*
X483000Y2532930D01*
X484000Y2532930D01*
X485000Y2532930D01*
X486000Y2532930D01*
X487000Y2532930D01*
X488000Y2532930D01*
X489000Y2532930D01*
X490000Y2532930D01*
X491000Y2532930D01*
X492000Y2532930D01*
X493000Y2532930D01*
X494000Y2532930D01*
X495000Y2532930D01*
X496000Y2532930D01*
X497000Y2532930D01*
X498000Y2532930D01*
X499000Y2532930D01*
X500000Y2532930D01*
X501000Y2532930D01*
X502000Y2532930D01*
X503000Y2532930D01*
X504000Y2532930D01*
X505000Y2532930D01*
X506000Y2532930D01*
X507000Y2532930D01*
X508000Y2532930D01*
X509000Y2532930D01*
X510000Y2532930D01*
X511000Y2532930D01*
X512000Y2532930D01*
X513000Y2532930D01*
X514000Y2532930D01*
X515000Y2532930D01*
X516000Y2532930D01*
X517000Y2532930D01*
X518000Y2532930D01*
X519000Y2532930D01*
X520000Y2532930D01*
X521000Y2532930D01*
X522000Y2532930D01*
X523000Y2532930D01*
X524000Y2532930D01*
X525000Y2532930D01*
X526000Y2532930D01*
X527000Y2532930D01*
X528000Y2532930D01*
X529000Y2532930D01*
X530000Y2532930D01*
X531000Y2532930D01*
X532000Y2532930D01*
X533000Y2532930D01*
X534000Y2532930D01*
X535000Y2532930D01*
X536000Y2532930D01*
X537000Y2532930D01*
X538000Y2532930D01*
X539000Y2532930D01*
X540000Y2532930D01*
X541000Y2532930D01*
X542000Y2532930D01*
X543000Y2532930D01*
X544000Y2532930D01*
X545000Y2532930D01*
X546000Y2532930D01*
X547000Y2532930D01*
X548000Y2532930D01*
X549000Y2532930D01*
X550000Y2532930D01*
X551000Y2532930D01*
X552000Y2532930D01*
X553000Y2532930D01*
X554000Y2532930D01*
X555000Y2532930D01*
X556000Y2532930D01*
X557000Y2532930D01*
X558000Y2532930D01*
X559000Y2532930D01*
X560000Y2532930D01*
X561000Y2532930D01*
X562000Y2532930D01*
X563000Y2532930D01*
X564000Y2532930D01*
X565000Y2532930D01*
X566000Y2532930D01*
X567000Y2532930D01*
X568000Y2532930D01*
X569000Y2532930D01*
X570000Y2532930D01*
X571000Y2532930D01*
X572000Y2532930D01*
X573000Y2532930D01*
X574000Y2532930D01*
X575000Y2532930D01*
X576000Y2532930D01*
X577000Y2532930D01*
X578000Y2532930D01*
X579000Y2532930D01*
X580000Y2532930D01*
X581000Y2532930D01*
X582000Y2532930D01*
X583000Y2532930D01*
X584000Y2532930D01*
X585000Y2532930D01*
X586000Y2532930D01*
X587000Y2532930D01*
X588000Y2532930D01*
X589000Y2532930D01*
X590000Y2532930D01*
X591000Y2532930D01*
X592000Y2532930D01*
X593000Y2532930D01*
X594000Y2532930D01*
X595000Y2532930D01*
X596000Y2532930D01*
X597000Y2532930D01*
X598000Y2532930D01*
X599000Y2532930D01*
X600000Y2532930D01*
X601000Y2532930D01*
X602000Y2532930D01*
X603000Y2532930D01*
X604000Y2532930D01*
X605000Y2532930D01*
X606000Y2532930D01*
X607000Y2532930D01*
X608000Y2532930D01*
X609000Y2532930D01*
X610000Y2532930D01*
X611000Y2532930D01*
X612000Y2532930D01*
X613000Y2532930D01*
X614000Y2532930D01*
X615000Y2532930D01*
X616000Y2532930D01*
X617000Y2532930D01*
X618000Y2532930D01*
X619000Y2532930D01*
X620000Y2532930D01*
X621000Y2532930D01*
X622000Y2532930D01*
X623000Y2532930D01*
X624000Y2532930D01*
X625000Y2532930D01*
X626000Y2532930D01*
X627000Y2532930D01*
X628000Y2532930D01*
X629000Y2532930D01*
X630000Y2532930D01*
X631000Y2532930D01*
X632000Y2532930D01*
X633000Y2532930D01*
X634000Y2532930D01*
X635000Y2532930D01*
X636000Y2532930D01*
X637000Y2532930D01*
X638000Y2532930D01*
X639000Y2532930D01*
X640000Y2532930D01*
X641000Y2532930D01*
X642000Y2532930D01*
X643000Y2532930D01*
X644000Y2532930D01*
X645000Y2532930D01*
X646000Y2532930D01*
X647000Y2532930D01*
X648000Y2532930D01*
X649000Y2532930D01*
X650000Y2532930D01*
X651000Y2532930D01*
X652000Y2532930D01*
X653000Y2532930D01*
X654000Y2532930D01*
X655000Y2532930D01*
X656000Y2532930D01*
X657000Y2532930D01*
X658000Y2532930D01*
X659000Y2532930D01*
X660000Y2532930D01*
X661000Y2532930D01*
X662000Y2532930D01*
X663000Y2532930D01*
X664000Y2532930D01*
X665000Y2532930D01*
X666000Y2532930D01*
X667000Y2532930D01*
X668000Y2532930D01*
X669000Y2532930D01*
X670000Y2532930D01*
X671000Y2532930D01*
X672000Y2532930D01*
X673000Y2532930D01*
X674000Y2532930D01*
X675000Y2532930D01*
X676000Y2532930D01*
X677000Y2532930D01*
X678000Y2532930D01*
X679000Y2532930D01*
X680000Y2532930D01*
X681000Y2532930D01*
X682000Y2532930D01*
X683000Y2532930D01*
X684000Y2532930D01*
X685000Y2532930D01*
X686000Y2532930D01*
X687000Y2532930D01*
X688000Y2532930D01*
X689000Y2532930D01*
X690000Y2532930D01*
X691000Y2532930D01*
X692000Y2532930D01*
X693000Y2532930D01*
X694000Y2532930D01*
X695000Y2532930D01*
X696000Y2532930D01*
X697000Y2532930D01*
X698000Y2532930D01*
X699000Y2532930D01*
X700000Y2532930D01*
X701000Y2532930D01*
X702000Y2532930D01*
X703000Y2532930D01*
X704000Y2532930D01*
X705000Y2532930D01*
X706000Y2532930D01*
X707000Y2532930D01*
X708000Y2532930D01*
X709000Y2532930D01*
X710000Y2532930D01*
X711000Y2532930D01*
X712000Y2532930D01*
X713000Y2532930D01*
X714000Y2532930D01*
X715000Y2532930D01*
X716000Y2532930D01*
X717000Y2532930D01*
X718000Y2532930D01*
X719000Y2532930D01*
X720000Y2532930D01*
X721000Y2532930D01*
X722000Y2532930D01*
X723000Y2532930D01*
X724000Y2532930D01*
X725000Y2532930D01*
X726000Y2532930D01*
X727000Y2532930D01*
X728000Y2532930D01*
X729000Y2532930D01*
X730000Y2532930D01*
X731000Y2532930D01*
X732000Y2532930D01*
X733000Y2532930D01*
X734000Y2532930D01*
X735000Y2532930D01*
X736000Y2532930D01*
X737000Y2532930D01*
X738000Y2532930D01*
X739000Y2532930D01*
X740000Y2532930D01*
X741000Y2532930D01*
X742000Y2532930D01*
X743000Y2532930D01*
X744000Y2532930D01*
X745000Y2532930D01*
X746000Y2532930D01*
X747000Y2532930D01*
X748000Y2532930D01*
X749000Y2532930D01*
X750000Y2532930D01*
X751000Y2532930D01*
X752000Y2532930D01*
X753000Y2532930D01*
X754000Y2532930D01*
X755000Y2532930D01*
X756000Y2532930D01*
X757000Y2532930D01*
X758000Y2532930D01*
X759000Y2532930D01*
X760000Y2532930D01*
X761000Y2532930D01*
X762000Y2532930D01*
X763000Y2532930D01*
X764000Y2532930D01*
X765000Y2532930D01*
X766000Y2532930D01*
X767000Y2532930D01*
X768000Y2532930D01*
X769000Y2532930D01*
X770000Y2532930D01*
X771000Y2532930D01*
X772000Y2532930D01*
X773000Y2532930D01*
X774000Y2532930D01*
X775000Y2532930D01*
X776000Y2532930D01*
X777000Y2532930D01*
X778000Y2532930D01*
X779000Y2532930D01*
X780000Y2532930D01*
X781000Y2532930D01*
X782000Y2532930D01*
X783000Y2532930D01*
X784000Y2532930D01*
X785000Y2532930D01*
X786000Y2532930D01*
X787000Y2532930D01*
X788000Y2532930D01*
X789000Y2532930D01*
X790000Y2532930D01*
X791000Y2532930D01*
X792000Y2532930D01*
X793000Y2532930D01*
X794000Y2532930D01*
X795000Y2532930D01*
X796000Y2532930D01*
X797000Y2532930D01*
X798000Y2532930D01*
X799000Y2532930D01*
X800000Y2532930D01*
X801000Y2532930D01*
X802000Y2532930D01*
X803000Y2532930D01*
X804000Y2532930D01*
X805000Y2532930D01*
X806000Y2532930D01*
X807000Y2532930D01*
X808000Y2532930D01*
X809000Y2532930D01*
X810000Y2532930D01*
X811000Y2532930D01*
X812000Y2532930D01*
X813000Y2532930D01*
X814000Y2532930D01*
X815000Y2532930D01*
X816000Y2532930D01*
X817000Y2532930D01*
X818000Y2532930D01*
X819000Y2532930D01*
X820000Y2532930D01*
X821000Y2532930D01*
X822000Y2532930D01*
X823000Y2532930D01*
X824000Y2532930D01*
X825000Y2532930D01*
X826000Y2532930D01*
X827000Y2532930D01*
X828000Y2532930D01*
X829000Y2532930D01*
X830000Y2532930D01*
X831000Y2532930D01*
X832000Y2532930D01*
X833000Y2532930D01*
X834000Y2532930D01*
X835000Y2532930D01*
X836000Y2532930D01*
X837000Y2532930D01*
X838000Y2532930D01*
X839000Y2532930D01*
X840000Y2532930D01*
X841000Y2532930D01*
X842000Y2532930D01*
X843000Y2532930D01*
X844000Y2532930D01*
X845000Y2532930D01*
X846000Y2532930D01*
X847000Y2532930D01*
X848000Y2532930D01*
X849000Y2532930D01*
X850000Y2532930D01*
X851000Y2532930D01*
X852000Y2532930D01*
X853000Y2532930D01*
X854000Y2532930D01*
X855000Y2532930D01*
X856000Y2532930D01*
X857000Y2532930D01*
X858000Y2532930D01*
X859000Y2532930D01*
X860000Y2532930D01*
X861000Y2532930D01*
X862000Y2532930D01*
X863000Y2532930D01*
X864000Y2532930D01*
X865000Y2532930D01*
X866000Y2532930D01*
X867000Y2532930D01*
X868000Y2532930D01*
X869000Y2532930D01*
X870000Y2532930D01*
X871000Y2532930D01*
X872000Y2532930D01*
X873000Y2532930D01*
X874000Y2532930D01*
X875000Y2532930D01*
X876000Y2532930D01*
X877000Y2532930D01*
X878000Y2532930D01*
X879000Y2532930D01*
X880000Y2532930D01*
X881000Y2532930D01*
X882000Y2532930D01*
X883000Y2532930D01*
X884000Y2532930D01*
X885000Y2532930D01*
X886000Y2532930D01*
X887000Y2532930D01*
X888000Y2532930D01*
X889000Y2532930D01*
X890000Y2532930D01*
X891000Y2532930D01*
X892000Y2532930D01*
X893000Y2532930D01*
X894000Y2532930D01*
X895000Y2532930D01*
X896000Y2532930D01*
X897000Y2532930D01*
X898000Y2532930D01*
X899000Y2532930D01*
X900000Y2532930D01*
X901000Y2532930D01*
X902000Y2532930D01*
X903000Y2532930D01*
X904000Y2532930D01*
X905000Y2532930D01*
X906000Y2532930D01*
X907000Y2532930D01*
X908000Y2532930D01*
X909000Y2532930D01*
X910000Y2532930D01*
X911000Y2532930D01*
X912000Y2532930D01*
X913000Y2532930D01*
X914000Y2532930D01*
X915000Y2532930D01*
X916000Y2532930D01*
X917000Y2532930D01*
X918000Y2532930D01*
X919000Y2532930D01*
X920000Y2532930D01*
X921000Y2532930D01*
X922000Y2532930D01*
X923000Y2532930D01*
X924000Y2532930D01*
X925000Y2532930D01*
X926000Y2532930D01*
X927000Y2532930D01*
X928000Y2532930D01*
X929000Y2532930D01*
X930000Y2532930D01*
X931000Y2532930D01*
X932000Y2532930D01*
X933000Y2532930D01*
X934000Y2532930D01*
X935000Y2532930D01*
X936000Y2532930D01*
X937000Y2532930D01*
X938000Y2532930D01*
X939000Y2532930D01*
X940000Y2532930D01*
X941000Y2532930D01*
X942000Y2532930D01*
X943000Y2532930D01*
X944000Y2532930D01*
X945000Y2532930D01*
X946000Y2532930D01*
X947000Y2532930D01*
X948000Y2532930D01*
X949000Y2532930D01*
X950000Y2532930D01*
X951000Y2532930D01*
X952000Y2532930D01*
X953000Y2532930D01*
X954000Y2532930D01*
X955000Y2532930D01*
X956000Y2532930D01*
X957000Y2532930D01*
X958000Y2532930D01*
X959000Y2532930D01*
X960000Y2532930D01*
X961000Y2532930D01*
X962000Y2532930D01*
X963000Y2532930D01*
X964000Y2532930D01*
X965000Y2532930D01*
X966000Y2532930D01*
X967000Y2532930D01*
X968000Y2532930D01*
X969000Y2532930D01*
X970000Y2532930D01*
X971000Y2532930D01*
X972000Y2532930D01*
X973000Y2532930D01*
X974000Y2532930D01*
X975000Y2532930D01*
X976000Y2532930D01*
X977000Y2532930D01*
X978000Y2532930D01*
X979000Y2532930D01*
X980000Y2532930D01*
X981000Y2532930D01*
X982000Y2532930D01*
X983000Y2532930D01*
X984000Y2532930D01*
X985000Y2532930D01*
X986000Y2532930D01*
X987000Y2532930D01*
X988000Y2532930D01*
X989000Y2532930D01*
X990000Y2532930D01*
X991000Y2532930D01*
X992000Y2532930D01*
X993000Y2532930D01*
X994000Y2532930D01*
X995000Y2532930D01*
X996000Y2532930D01*
X997000Y2532930D01*
X998000Y2532930D01*
X999000Y2532930D01*
X1000000Y2532930D01*
X1001000Y2532930D01*
X1002000Y2532930D01*
X1003000Y2532930D01*
X1004000Y2532930D01*
X1005000Y2532930D01*
X1006000Y2532930D01*
X1007000Y2532930D01*
X1008000Y2532930D01*
X1009000Y2532930D01*
X1010000Y2532930D01*
X1011000Y2532930D01*
X1012000Y2532930D01*
X1013000Y2532930D01*
X1014000Y2532930D01*
X1015000Y2532930D01*
X1016000Y2532930D01*
X1017000Y2532930D01*
X1018000Y2532930D01*
X1019000Y2532930D01*
X1020000Y2532930D01*
X1021000Y2532930D01*
X1022000Y2532930D01*
X1023000Y2532930D01*
X1024000Y2532930D01*
X1025000Y2532930D01*
X1026000Y2532930D01*
X1027000Y2532930D01*
X1028000Y2532930D01*
X1029000Y2532930D01*
X1030000Y2532930D01*
X1031000Y2532930D01*
X1032000Y2532930D01*
X1033000Y2532930D01*
X1034000Y2532930D01*
X1035000Y2532930D01*
X1036000Y2532930D01*
X1037000Y2532930D01*
X1038000Y2532930D01*
X1039000Y2532930D01*
X1040000Y2532930D01*
X1041000Y2532930D01*
X1042000Y2532930D01*
X1043000Y2532930D01*
X1044000Y2532930D01*
X1045000Y2532930D01*
X1046000Y2532930D01*
X1047000Y2532930D01*
X1048000Y2532930D01*
X1049000Y2532930D01*
X1050000Y2532930D01*
X1051000Y2532930D01*
X1052000Y2532930D01*
X1053000Y2532930D01*
X1054000Y2532930D01*
X1055000Y2532930D01*
X1056000Y2532930D01*
X1057000Y2532930D01*
X1058000Y2532930D01*
X1059000Y2532930D01*
X1060000Y2532930D01*
X1061000Y2532930D01*
X1062000Y2532930D01*
X1063000Y2532930D01*
X1064000Y2532930D01*
X1065000Y2532930D01*
X1066000Y2532930D01*
X1067000Y2532930D01*
X1068000Y2532930D01*
X1069000Y2532930D01*
X1070000Y2532930D01*
X1071000Y2532930D01*
X1072000Y2532930D01*
X1073000Y2532930D01*
X1074000Y2532930D01*
X1075000Y2532930D01*
X1076000Y2532930D01*
X1077000Y2532930D01*
X1078000Y2532930D01*
X1079000Y2532930D01*
X1080000Y2532930D01*
X1081000Y2532930D01*
X1082000Y2532930D01*
X1083000Y2532930D01*
X1084000Y2532930D01*
X1085000Y2532930D01*
X1086000Y2532930D01*
X1087000Y2532930D01*
X1088000Y2532930D01*
X1089000Y2532930D01*
X1090000Y2532930D01*
X1091000Y2532930D01*
X1092000Y2532930D01*
X1093000Y2532930D01*
X1094000Y2532930D01*
X1095000Y2532930D01*
X1096000Y2532930D01*
X1097000Y2532930D01*
X1098000Y2532930D01*
X1099000Y2532930D01*
X1100000Y2532930D01*
X1101000Y2532930D01*
X1102000Y2532930D01*
X1103000Y2532930D01*
X1104000Y2532930D01*
X1105000Y2532930D01*
X1106000Y2532930D01*
X1107000Y2532930D01*
X1108000Y2532930D01*
X1109000Y2532930D01*
X1110000Y2532930D01*
X1111000Y2532930D01*
X1112000Y2532930D01*
X1113000Y2532930D01*
X1114000Y2532930D01*
X1115000Y2532930D01*
X1116000Y2532930D01*
X1117000Y2532930D01*
X1118000Y2532930D01*
X1119000Y2532930D01*
X1120000Y2532930D01*
X1121000Y2532930D01*
X1122000Y2532930D01*
X1123000Y2532930D01*
X1124000Y2532930D01*
X1125000Y2532930D01*
X1126000Y2532930D01*
X1127000Y2532930D01*
X1128000Y2532930D01*
X1129000Y2532930D01*
X1130000Y2532930D01*
X1131000Y2532930D01*
X1132000Y2532930D01*
X1133000Y2532930D01*
X1134000Y2532930D01*
X1135000Y2532930D01*
X1136000Y2532930D01*
X1137000Y2532930D01*
X1138000Y2532930D01*
X1139000Y2532930D01*
X1140000Y2532930D01*
X1141000Y2532930D01*
X1142000Y2532930D01*
X1143000Y2532930D01*
X1144000Y2532930D01*
X1145000Y2532930D01*
X1146000Y2532930D01*
X1147000Y2532930D01*
X1148000Y2532930D01*
X1149000Y2532930D01*
X1150000Y2532930D01*
X1151000Y2532930D01*
X1152000Y2532930D01*
X1153000Y2532930D01*
X1154000Y2532930D01*
X1155000Y2532930D01*
X1156000Y2532930D01*
X1157000Y2532930D01*
X1158000Y2532930D01*
X1159000Y2532930D01*
X1160000Y2532930D01*
X1161000Y2532930D01*
X1162000Y2532930D01*
X1163000Y2532930D01*
X1164000Y2532930D01*
X1165000Y2532930D01*
X1166000Y2532930D01*
X1167000Y2532930D01*
X1168000Y2532930D01*
X1169000Y2532930D01*
X1170000Y2532930D01*
X1171000Y2532930D01*
X1172000Y2532930D01*
X1173000Y2532930D01*
X1174000Y2532930D01*
X1175000Y2532930D01*
X1176000Y2532930D01*
X1177000Y2532930D01*
X1178000Y2532930D01*
X1179000Y2532930D01*
X1180000Y2532930D01*
X1181000Y2532930D01*
X1182000Y2532930D01*
X1183000Y2532930D01*
X1184000Y2532930D01*
X1185000Y2532930D01*
X1186000Y2532930D01*
X1187000Y2532930D01*
X1188000Y2532930D01*
X1189000Y2532930D01*
X1190000Y2532930D01*
X1191000Y2532930D01*
X1192000Y2532930D01*
X1193000Y2532930D01*
X1194000Y2532930D01*
X1195000Y2532930D01*
X1196000Y2532930D01*
X1197000Y2532930D01*
X1198000Y2532930D01*
X1199000Y2532930D01*
X1200000Y2532930D01*
X1201000Y2532930D01*
X1202000Y2532930D01*
X1203000Y2532930D01*
X1204000Y2532930D01*
X1205000Y2532930D01*
X1206000Y2532930D01*
X1207000Y2532930D01*
X1208000Y2532930D01*
X1209000Y2532930D01*
X1210000Y2532930D01*
X1211000Y2532930D01*
X1212000Y2532930D01*
X1213000Y2532930D01*
X1214000Y2532930D01*
X1215000Y2532930D01*
X1216000Y2532930D01*
X1217000Y2532930D01*
X1218000Y2532930D01*
X1219000Y2532930D01*
X1220000Y2532930D01*
X1221000Y2532930D01*
X1222000Y2532930D01*
X1223000Y2532930D01*
X1224000Y2532930D01*
X1225000Y2532930D01*
X1226000Y2532930D01*
X1227000Y2532930D01*
X1228000Y2532930D01*
X1229000Y2532930D01*
X1230000Y2532930D01*
X1231000Y2532930D01*
X1232000Y2532930D01*
X1233000Y2532930D01*
X1234000Y2532930D01*
X1235000Y2532930D01*
X1236000Y2532930D01*
X1237000Y2532930D01*
X1238000Y2532930D01*
X1239000Y2532930D01*
X1240000Y2532930D01*
X1241000Y2532930D01*
X1242000Y2532930D01*
X1243000Y2532930D01*
X1244000Y2532930D01*
X1245000Y2532930D01*
X1246000Y2532930D01*
X1247000Y2532930D01*
X1248000Y2532930D01*
X1249000Y2532930D01*
X1250000Y2532930D01*
X1251000Y2532930D01*
X1252000Y2532930D01*
X1253000Y2532930D01*
X1254000Y2532930D01*
X1255000Y2532930D01*
X1256000Y2532930D01*
X1257000Y2532930D01*
X1258000Y2532930D01*
X1259000Y2532930D01*
X1260000Y2532930D01*
X1261000Y2532930D01*
X1262000Y2532930D01*
X1263000Y2532930D01*
X1264000Y2532930D01*
X1265000Y2532930D01*
X1266000Y2532930D01*
X1267000Y2532930D01*
X1268000Y2532930D01*
X1269000Y2532930D01*
X1270000Y2532930D01*
X1271000Y2532930D01*
X1272000Y2532930D01*
X1273000Y2532930D01*
X1274000Y2532930D01*
X1275000Y2532930D01*
X1276000Y2532930D01*
X1277000Y2532930D01*
X1278000Y2532930D01*
X1279000Y2532930D01*
X1280000Y2532930D01*
X1281000Y2532930D01*
X1282000Y2532930D01*
X1283000Y2532930D01*
X1284000Y2532930D01*
X1285000Y2532930D01*
X1286000Y2532930D01*
X1287000Y2532930D01*
X1288000Y2532930D01*
X1289000Y2532930D01*
X1290000Y2532930D01*
X1291000Y2532930D01*
X1292000Y2532930D01*
X1293000Y2532930D01*
X1294000Y2532930D01*
X1295000Y2532930D01*
X1296000Y2532930D01*
X1297000Y2532930D01*
X1298000Y2532930D01*
X1299000Y2532930D01*
X1300000Y2532930D01*
X1301000Y2532930D01*
X1302000Y2532930D01*
X1303000Y2532930D01*
X1304000Y2532930D01*
X1305000Y2532930D01*
X1306000Y2532930D01*
X1307000Y2532930D01*
X1308000Y2532930D01*
X1309000Y2532930D01*
X1310000Y2532930D01*
X1311000Y2532930D01*
X1312000Y2532930D01*
X1313000Y2532930D01*
X1314000Y2532930D01*
X1315000Y2532930D01*
X1316000Y2532930D01*
X1317000Y2532930D01*
X1318000Y2532930D01*
X1319000Y2532930D01*
X1320000Y2532930D01*
X1321000Y2532930D01*
X1322000Y2532930D01*
X1323000Y2532930D01*
X1324000Y2532930D01*
X1325000Y2532930D01*
X1326000Y2532930D01*
X1327000Y2532930D01*
X1328000Y2532930D01*
X1329000Y2532930D01*
X1330000Y2532930D01*
X1331000Y2532930D01*
X1332000Y2532930D01*
X1333000Y2532930D01*
X1334000Y2532930D01*
X1335000Y2532930D01*
X1336000Y2532930D01*
X1337000Y2532930D01*
X1338000Y2532930D01*
X1339000Y2532930D01*
X1340000Y2532930D01*
X1341000Y2532930D01*
X1342000Y2532930D01*
X1343000Y2532930D01*
X1344000Y2532930D01*
X1345000Y2532930D01*
X1346000Y2532930D01*
X1347000Y2532930D01*
X1348000Y2532930D01*
X1349000Y2532930D01*
X1350000Y2532930D01*
X1351000Y2532930D01*
X1352000Y2532930D01*
X1353000Y2532930D01*
X1354000Y2532930D01*
X1355000Y2532930D01*
X1356000Y2532930D01*
X1357000Y2532930D01*
X1358000Y2532930D01*
X1359000Y2532930D01*
X1360000Y2532930D01*
X1361000Y2532930D01*
X1362000Y2532930D01*
X1363000Y2532930D01*
X1364000Y2532930D01*
X1365000Y2532930D01*
X1366000Y2532930D01*
X1367000Y2532930D01*
X1368000Y2532930D01*
X1369000Y2532930D01*
X1370000Y2532930D01*
X1371000Y2532930D01*
X1372000Y2532930D01*
X1373000Y2532930D01*
X1374000Y2532930D01*
X1375000Y2532930D01*
X1376000Y2532930D01*
X1377000Y2532930D01*
X1378000Y2532930D01*
X1379000Y2532930D01*
X1380000Y2532930D01*
X1381000Y2532930D01*
X1382000Y2532930D01*
X1383000Y2532930D01*
X1384000Y2532930D01*
X1385000Y2532930D01*
X1386000Y2532930D01*
X1387000Y2532930D01*
X1388000Y2532930D01*
X1389000Y2532930D01*
X1390000Y2532930D01*
X1391000Y2532930D01*
X1392000Y2532930D01*
X1393000Y2532930D01*
X1394000Y2532930D01*
X1395000Y2532930D01*
X1396000Y2532930D01*
X1397000Y2532930D01*
X1398000Y2532930D01*
X1399000Y2532930D01*
X1400000Y2532930D01*
X1401000Y2532930D01*
X1402000Y2532930D01*
X1403000Y2532930D01*
X1404000Y2532930D01*
X1405000Y2532930D01*
X1406000Y2532930D01*
X1407000Y2532930D01*
X1408000Y2532930D01*
X1409000Y2532930D01*
X1410000Y2532930D01*
X1411000Y2532930D01*
X1412000Y2532930D01*
X1413000Y2532930D01*
X1414000Y2532930D01*
X1415000Y2532930D01*
X1416000Y2532930D01*
X1417000Y2532930D01*
X1418000Y2532930D01*
X1419000Y2532930D01*
X1420000Y2532930D01*
X1421000Y2532930D01*
X1422000Y2532930D01*
X1423000Y2532930D01*
X1424000Y2532930D01*
X1425000Y2532930D01*
X1426000Y2532930D01*
X1427000Y2532930D01*
X1428000Y2532930D01*
X1429000Y2532930D01*
X1430000Y2532930D01*
X1431000Y2532930D01*
X1432000Y2532930D01*
X1433000Y2532930D01*
X1434000Y2532930D01*
X1435000Y2532930D01*
X1436000Y2532930D01*
X1437000Y2532930D01*
X1438000Y2532930D01*
X1439000Y2532930D01*
X1440000Y2532930D01*
X1441000Y2532930D01*
X1442000Y2532930D01*
X1443000Y2532930D01*
X1444000Y2532930D01*
X1445000Y2532930D01*
X1446000Y2532930D01*
X1447000Y2532930D01*
X1448000Y2532930D01*
X1449000Y2532930D01*
X1450000Y2532930D01*
X1451000Y2532930D01*
X1452000Y2532930D01*
X1453000Y2532930D01*
X1454000Y2532930D01*
X1455000Y2532930D01*
X1456000Y2532930D01*
X1457000Y2532930D01*
X1458000Y2532930D01*
X1459000Y2532930D01*
X1460000Y2532930D01*
X1461000Y2532930D01*
X1462000Y2532930D01*
X1463000Y2532930D01*
X1464000Y2532930D01*
X1465000Y2532930D01*
X1466000Y2532930D01*
X1467000Y2532930D01*
X1468000Y2532930D01*
X1469000Y2532930D01*
X1470000Y2532930D01*
X1471000Y2532930D01*
X1472000Y2532930D01*
X1473000Y2532930D01*
X1474000Y2532930D01*
X1475000Y2532930D01*
X1476000Y2532930D01*
X1477000Y2532930D01*
X1478000Y2532930D01*
X1479000Y2532930D01*
X1480000Y2532930D01*
X1481000Y2532930D01*
X1482000Y2532930D01*
X1483000Y2532930D01*
X1484000Y2532930D01*
X1485000Y2532930D01*
X1486000Y2532930D01*
X1487000Y2532930D01*
X1488000Y2532930D01*
X1489000Y2532930D01*
X1490000Y2532930D01*
X1491000Y2532930D01*
X1492000Y2532930D01*
X1493000Y2532930D01*
X1494000Y2532930D01*
X1495000Y2532930D01*
X1496000Y2532930D01*
X1497000Y2532930D01*
X1498000Y2532930D01*
X1499000Y2532930D01*
X1500000Y2532930D01*
X1501000Y2532930D01*
X1502000Y2532930D01*
X1503000Y2532930D01*
X1504000Y2532930D01*
X1505000Y2532930D01*
X1506000Y2532930D01*
X1507000Y2532930D01*
X1508000Y2532930D01*
X1509000Y2532930D01*
X1510000Y2532930D01*
X1511000Y2532930D01*
X1512000Y2532930D01*
X1513000Y2532930D01*
X1514000Y2532930D01*
X1515000Y2532930D01*
X1516000Y2532930D01*
X1517000Y2532930D01*
X1518000Y2532930D01*
X1519000Y2532930D01*
X1520000Y2532930D01*
X1521000Y2532930D01*
X1522000Y2532930D01*
X1523000Y2532930D01*
X1524000Y2532930D01*
X1525000Y2532930D01*
X1526000Y2532930D01*
X1527000Y2532930D01*
X1528000Y2532930D01*
X1529000Y2532930D01*
X1530000Y2532930D01*
X1531000Y2532930D01*
X1532000Y2532930D01*
X1533000Y2532930D01*
X1534000Y2532930D01*
X1535000Y2532930D01*
X1536000Y2532930D01*
X1537000Y2532930D01*
X1538000Y2532930D01*
X1539000Y2532930D01*
X1540000Y2532930D01*
X1541000Y2532930D01*
X1542000Y2532930D01*
X1543000Y2532930D01*
X1544000Y2532930D01*
X1545000Y2532930D01*
X1546000Y2532930D01*
X1547000Y2532930D01*
X1548000Y2532930D01*
X1549000Y2532930D01*
X1550000Y2532930D01*
X1551000Y2532930D01*
X1552000Y2532930D01*
X1553000Y2532930D01*
X1554000Y2532930D01*
X1555000Y2532930D01*
X1556000Y2532930D01*
X1557000Y2532930D01*
X1558000Y2532930D01*
X1559000Y2532930D01*
X1560000Y2532930D01*
X1561000Y2532930D01*
X1562000Y2532930D01*
X1563000Y2532930D01*
X1564000Y2532930D01*
X1565000Y2532930D01*
X1566000Y2532930D01*
X1567000Y2532930D01*
X1568000Y2532930D01*
X1569000Y2532930D01*
X1570000Y2532930D01*
X1571000Y2532930D01*
X1572000Y2532930D01*
X1573000Y2532930D01*
X1574000Y2532930D01*
X1575000Y2532930D01*
X1576000Y2532930D01*
X1577000Y2532930D01*
X1578000Y2532930D01*
X1579000Y2532930D01*
X1580000Y2532930D01*
X1581000Y2532930D01*
X1582000Y2532930D01*
X1583000Y2532930D01*
X1584000Y2532930D01*
X1585000Y2532930D01*
X1586000Y2532930D01*
X1587000Y2532930D01*
X1588000Y2532930D01*
X1589000Y2532930D01*
X1590000Y2532930D01*
X1591000Y2532930D01*
X1592000Y2532930D01*
X1593000Y2532930D01*
X1594000Y2532930D01*
X1595000Y2532930D01*
X1596000Y2532930D01*
X1597000Y2532930D01*
X1598000Y2532930D01*
X1599000Y2532930D01*
X1600000Y2532930D01*
X1601000Y2532930D01*
X1602000Y2532930D01*
X1603000Y2532930D01*
X1604000Y2532930D01*
X1605000Y2532930D01*
X1606000Y2532930D01*
X1607000Y2532930D01*
X1608000Y2532930D01*
X1609000Y2532930D01*
X1610000Y2532930D01*
X1611000Y2532930D01*
X1612000Y2532930D01*
X1613000Y2532930D01*
X1614000Y2532930D01*
X1615000Y2532930D01*
X1616000Y2532930D01*
X1617000Y2532930D01*
X1618000Y2532930D01*
X1619000Y2532930D01*
X1620000Y2532930D01*
X1621000Y2532930D01*
X1622000Y2532930D01*
X1623000Y2532930D01*
X1624000Y2532930D01*
X1625000Y2532930D01*
X1626000Y2532930D01*
X1627000Y2532930D01*
X1628000Y2532930D01*
X1629000Y2532930D01*
X1630000Y2532930D01*
X1631000Y2532930D01*
X1632000Y2532930D01*
X1633000Y2532930D01*
X1634000Y2532930D01*
X1635000Y2532930D01*
X1636000Y2532930D01*
X1637000Y2532930D01*
X1638000Y2532930D01*
X1639000Y2532930D01*
X1640000Y2532930D01*
X1641000Y2532930D01*
X1642000Y2532930D01*
X1643000Y2532930D01*
X1644000Y2532930D01*
X1645000Y2532930D01*
X1646000Y2532930D01*
X1647000Y2532930D01*
X1648000Y2532930D01*
X1649000Y2532930D01*
X1650000Y2532930D01*
X1651000Y2532930D01*
X1652000Y2532930D01*
X1653000Y2532930D01*
X1654000Y2532930D01*
X1655000Y2532930D01*
X1656000Y2532930D01*
X1657000Y2532930D01*
X1658000Y2532930D01*
X1659000Y2532930D01*
X1660000Y2532930D01*
X1661000Y2532930D01*
X1662000Y2532930D01*
X1663000Y2532930D01*
X1664000Y2532930D01*
X1665000Y2532930D01*
X1666000Y2532930D01*
X1667000Y2532930D01*
X1668000Y2532930D01*
X1669000Y2532930D01*
X1670000Y2532930D01*
X1671000Y2532930D01*
X1672000Y2532930D01*
X1673000Y2532930D01*
X1674000Y2532930D01*
X1675000Y2532930D01*
X1676000Y2532930D01*
X1677000Y2532930D01*
X1678000Y2532930D01*
X1679000Y2532930D01*
X1680000Y2532930D01*
X1681000Y2532930D01*
X1682000Y2532930D01*
X1683000Y2532930D01*
X1684000Y2532930D01*
X1685000Y2532930D01*
X1686000Y2532930D01*
X1687000Y2532930D01*
X1688000Y2532930D01*
X1689000Y2532930D01*
X1690000Y2532930D01*
X1691000Y2532930D01*
X1692000Y2532930D01*
X1693000Y2532930D01*
X1694000Y2532930D01*
X1695000Y2532930D01*
X1696000Y2532930D01*
X1697000Y2532930D01*
X1698000Y2532930D01*
X1699000Y2532930D01*
X1700000Y2532930D01*
X1701000Y2532930D01*
X1702000Y2532930D01*
X1703000Y2532930D01*
X1704000Y2532930D01*
X1705000Y2532930D01*
X1706000Y2532930D01*
X1707000Y2532930D01*
X1708000Y2532930D01*
X1709000Y2532930D01*
X1710000Y2532930D01*
X1711000Y2532930D01*
X1712000Y2532930D01*
X1713000Y2532930D01*
X1714000Y2532930D01*
X1715000Y2532930D01*
X1716000Y2532930D01*
X1717000Y2532930D01*
X1718000Y2532930D01*
X1719000Y2532930D01*
X1720000Y2532930D01*
X1721000Y2532930D01*
X1722000Y2532930D01*
X1723000Y2532930D01*
X1724000Y2532930D01*
X1725000Y2532930D01*
X1726000Y2532930D01*
X1727000Y2532930D01*
X1728000Y2532930D01*
X1729000Y2532930D01*
X1730000Y2532930D01*
X1731000Y2532930D01*
X1732000Y2532930D01*
X1733000Y2532930D01*
X1734000Y2532930D01*
X1735000Y2532930D01*
X1736000Y2532930D01*
X1737000Y2532930D01*
X1738000Y2532930D01*
X1739000Y2532930D01*
X1740000Y2532930D01*
X1741000Y2532930D01*
X1742000Y2532930D01*
X1743000Y2532930D01*
X1744000Y2532930D01*
X1745000Y2532930D01*
X1746000Y2532930D01*
X1747000Y2532930D01*
X1748000Y2532930D01*
X1749000Y2532930D01*
X1750000Y2532930D01*
X1751000Y2532930D01*
X1752000Y2532930D01*
X1753000Y2532930D01*
X1754000Y2532930D01*
X1755000Y2532930D01*
X1756000Y2532930D01*
X1757000Y2532930D01*
X1758000Y2532930D01*
X1759000Y2532930D01*
X1760000Y2532930D01*
X1761000Y2532930D01*
X1762000Y2532930D01*
X1763000Y2532930D01*
X1764000Y2532930D01*
X1765000Y2532930D01*
X1766000Y2532930D01*
X1767000Y2532930D01*
X1768000Y2532930D01*
X1769000Y2532930D01*
X1770000Y2532930D01*
X1771000Y2532930D01*
X1772000Y2532930D01*
X1773000Y2532930D01*
X1774000Y2532930D01*
X1775000Y2532930D01*
X1776000Y2532930D01*
X1777000Y2532930D01*
X1778000Y2532930D01*
X1779000Y2532930D01*
X1780000Y2532930D01*
X1781000Y2532930D01*
X1782000Y2532930D01*
X1783000Y2532930D01*
X1784000Y2532930D01*
X1785000Y2532930D01*
X1786000Y2532930D01*
X1787000Y2532930D01*
X1788000Y2532930D01*
X1789000Y2532930D01*
X1790000Y2532930D01*
X1791000Y2532930D01*
X1792000Y2532930D01*
X1793000Y2532930D01*
X1794000Y2532930D01*
X1795000Y2532930D01*
X1796000Y2532930D01*
X1797000Y2532930D01*
X1798000Y2532930D01*
X1799000Y2532930D01*
X1800000Y2532930D01*
X1801000Y2532930D01*
X1802000Y2532930D01*
X1803000Y2532930D01*
X1804000Y2532930D01*
X1805000Y2532930D01*
X1806000Y2532930D01*
X1807000Y2532930D01*
X1808000Y2532930D01*
X1809000Y2532930D01*
X1810000Y2532930D01*
X1811000Y2532930D01*
X1812000Y2532930D01*
X1813000Y2532930D01*
X1814000Y2532930D01*
X1815000Y2532930D01*
X1816000Y2532930D01*
X1817000Y2532930D01*
X1818000Y2532930D01*
X1819000Y2532930D01*
X1820000Y2532930D01*
X1821000Y2532930D01*
X1822000Y2532930D01*
X1823000Y2532930D01*
X1824000Y2532930D01*
X1825000Y2532930D01*
X1826000Y2532930D01*
X1827000Y2532930D01*
X1828000Y2532930D01*
X1829000Y2532930D01*
X1830000Y2532930D01*
X1831000Y2532930D01*
X1832000Y2532930D01*
X1833000Y2532930D01*
X1834000Y2532930D01*
X1835000Y2532930D01*
X1836000Y2532930D01*
X1837000Y2532930D01*
X1838000Y2532930D01*
X1839000Y2532930D01*
X1840000Y2532930D01*
X1841000Y2532930D01*
X1842000Y2532930D01*
X1843000Y2532930D01*
X1844000Y2532930D01*
X1845000Y2532930D01*
X1846000Y2532930D01*
X1847000Y2532930D01*
X1848000Y2532930D01*
X1849000Y2532930D01*
X1850000Y2532930D01*
X1851000Y2532930D01*
X1852000Y2532930D01*
X1853000Y2532930D01*
X1854000Y2532930D01*
X1855000Y2532930D01*
X1856000Y2532930D01*
X1857000Y2532930D01*
X1858000Y2532930D01*
X1859000Y2532930D01*
X1860000Y2532930D01*
X1861000Y2532930D01*
X1862000Y2532930D01*
X1863000Y2532930D01*
X1864000Y2532930D01*
X1865000Y2532930D01*
X1866000Y2532930D01*
X1867000Y2532930D01*
X1868000Y2532930D01*
X1869000Y2532930D01*
X1870000Y2532930D01*
X1871000Y2532930D01*
X1872000Y2532930D01*
X1873000Y2532930D01*
X1874000Y2532930D01*
X1875000Y2532930D01*
X1876000Y2532930D01*
X1877000Y2532930D01*
X1878000Y2532930D01*
X1879000Y2532930D01*
X1880000Y2532930D01*
X1881000Y2532930D01*
X1882000Y2532930D01*
X1883000Y2532930D01*
X1884000Y2532930D01*
X1885000Y2532930D01*
X1886000Y2532930D01*
X1887000Y2532930D01*
X1888000Y2532930D01*
X1889000Y2532930D01*
X1890000Y2532930D01*
X1891000Y2532930D01*
X1892000Y2532930D01*
X1893000Y2532930D01*
X1894000Y2532930D01*
X1895000Y2532930D01*
X1896000Y2532930D01*
X1897000Y2532930D01*
X1898000Y2532930D01*
X1899000Y2532930D01*
X1900000Y2532930D01*
X1901000Y2532930D01*
X1902000Y2532930D01*
X1903000Y2532930D01*
X1904000Y2532930D01*
X1905000Y2532930D01*
X1906000Y2532930D01*
X1907000Y2532930D01*
X1908000Y2532930D01*
X1909000Y2532930D01*
X1910000Y2532930D01*
X1911000Y2532930D01*
X1912000Y2532930D01*
X1913000Y2532930D01*
X1914000Y2532930D01*
X1915000Y2532930D01*
X1916000Y2532930D01*
X1917000Y2532930D01*
X1918000Y2532930D01*
X1919000Y2532930D01*
X1920000Y2532930D01*
X1921000Y2532930D01*
X1922000Y2532930D01*
X1923000Y2532930D01*
X1924000Y2532930D01*
X1925000Y2532930D01*
X1926000Y2532930D01*
X1927000Y2532930D01*
X1928000Y2532930D01*
X1929000Y2532930D01*
X1930000Y2532930D01*
X1931000Y2532930D01*
X1932000Y2532930D01*
X1933000Y2532930D01*
X1934000Y2532930D01*
X1935000Y2532930D01*
X1936000Y2532930D01*
X1937000Y2532930D01*
X1938000Y2532930D01*
X1939000Y2532930D01*
X1940000Y2532930D01*
X1941000Y2532930D01*
X1942000Y2532930D01*
X1943000Y2532930D01*
X1944000Y2532930D01*
X1945000Y2532930D01*
X1946000Y2532930D01*
X1947000Y2532930D01*
X1948000Y2532930D01*
X1949000Y2532930D01*
X1950000Y2532930D01*
X1951000Y2532930D01*
X1952000Y2532930D01*
X1953000Y2532930D01*
X1954000Y2532930D01*
X1955000Y2532930D01*
X1956000Y2532930D01*
X1957000Y2532930D01*
X1958000Y2532930D01*
X1959000Y2532930D01*
X1960000Y2532930D01*
X1961000Y2532930D01*
X1962000Y2532930D01*
X1963000Y2532930D01*
X1964000Y2532930D01*
X1965000Y2532930D01*
X1966000Y2532930D01*
X1967000Y2532930D01*
X1968000Y2532930D01*
X1969000Y2532930D01*
X1970000Y2532930D01*
X1971000Y2532930D01*
X1972000Y2532930D01*
X1973000Y2532930D01*
X1974000Y2532930D01*
X1975000Y2532930D01*
X1976000Y2532930D01*
X1977000Y2532930D01*
X1978000Y2532930D01*
X1979000Y2532930D01*
X1980000Y2532930D01*
X1981000Y2532930D01*
X1982000Y2532930D01*
X1983000Y2532930D01*
X1984000Y2532930D01*
X1985000Y2532930D01*
X1986000Y2532930D01*
X1987000Y2532930D01*
X1988000Y2532930D01*
X1989000Y2532930D01*
X1990000Y2532930D01*
X1991000Y2532930D01*
X1992000Y2532930D01*
X1993000Y2532930D01*
X1994000Y2532930D01*
X1995000Y2532930D01*
X1996000Y2532930D01*
X1997000Y2532930D01*
X1998000Y2532930D01*
X1999000Y2532930D01*
X2000000Y2532930D01*
X2001000Y2532930D01*
X2002000Y2532930D01*
X2003000Y2532930D01*
X2004000Y2532930D01*
X2005000Y2532930D01*
X2006000Y2532930D01*
X2007000Y2532930D01*
X2008000Y2532930D01*
X2009000Y2532930D01*
X2010000Y2532930D01*
X2011000Y2532930D01*
X2012000Y2532930D01*
X2013000Y2532930D01*
X2014000Y2532930D01*
X2015000Y2532930D01*
X2016000Y2532930D01*
X2017000Y2532930D01*
X2018000Y2532930D01*
X2019000Y2532930D01*
X2020000Y2532930D01*
X2021000Y2532930D01*
X2022000Y2532930D01*
X2023000Y2532930D01*
X2024000Y2532930D01*
X2025000Y2532930D01*
X2026000Y2532930D01*
X2027000Y2532930D01*
X2028000Y2532930D01*
X2029000Y2532930D01*
X2030000Y2532930D01*
X2031000Y2532930D01*
X2032000Y2532930D01*
X2033000Y2532930D01*
X2034000Y2532930D01*
X2035000Y2532930D01*
X2036000Y2532930D01*
X2037000Y2532930D01*
X2038000Y2532930D01*
X2039000Y2532930D01*
X2040000Y2532930D01*
X2041000Y2532930D01*
X2042000Y2532930D01*
X2043000Y2532930D01*
X2044000Y2532930D01*
X2045000Y2532930D01*
X2046000Y2532930D01*
X2047000Y2532930D01*
X2048000Y2532930D01*
X2049000Y2532930D01*
X2050000Y2532930D01*
X2051000Y2532930D01*
X2052000Y2532930D01*
X2053000Y2532930D01*
X2054000Y2532930D01*
X2055000Y2532930D01*
X2056000Y2532930D01*
X2057000Y2532930D01*
X2058000Y2532930D01*
X2059000Y2532930D01*
X2060000Y2532930D01*
X2061000Y2532930D01*
X2062000Y2532930D01*
X2063000Y2532930D01*
X2064000Y2532930D01*
X2065000Y2532930D01*
X2066000Y2532930D01*
X2067000Y2532930D01*
X2068000Y2532930D01*
X2069000Y2532930D01*
X2070000Y2532930D01*
X2071000Y2532930D01*
X2072000Y2532930D01*
X2073000Y2532930D01*
X2074000Y2532930D01*
X2075000Y2532930D01*
X2076000Y2532930D01*
X2077000Y2532930D01*
X2078000Y2532930D01*
X2079000Y2532930D01*
X2080000Y2532930D01*
X2081000Y2532930D01*
X2082000Y2532930D01*
X2083000Y2532930D01*
X2084000Y2532930D01*
X2085000Y2532930D01*
X2086000Y2532930D01*
X2087000Y2532930D01*
X2088000Y2532930D01*
X2089000Y2532930D01*
X2090000Y2532930D01*
X2091000Y2532930D01*
X2092000Y2532930D01*
X2093000Y2532930D01*
X2094000Y2532930D01*
X2095000Y2532930D01*
X2096000Y2532930D01*
X2097000Y2532930D01*
X2098000Y2532930D01*
X2099000Y2532930D01*
X2100000Y2532930D01*
X2101000Y2532930D01*
X2102000Y2532930D01*
X2103000Y2532930D01*
X2104000Y2532930D01*
X2105000Y2532930D01*
X2106000Y2532930D01*
X2107000Y2532930D01*
X2108000Y2532930D01*
X2109000Y2532930D01*
X2110000Y2532930D01*
X2111000Y2532930D01*
X2112000Y2532930D01*
X2113000Y2532930D01*
X2114000Y2532930D01*
X2115000Y2532930D01*
X2116000Y2532930D01*
X2117000Y2532930D01*
X2118000Y2532930D01*
X2119000Y2532930D01*
X2120000Y2532930D01*
X2121000Y2532930D01*
X2122000Y2532930D01*
X2123000Y2532930D01*
X2124000Y2532930D01*
X2125000Y2532930D01*
X2126000Y2532930D01*
X2127000Y2532930D01*
X2128000Y2532930D01*
X2129000Y2532930D01*
X2130000Y2532930D01*
X2131000Y2532930D01*
X2132000Y2532930D01*
X2133000Y2532930D01*
X2134000Y2532930D01*
X2135000Y2532930D01*
X2136000Y2532930D01*
X2137000Y2532930D01*
X2138000Y2532930D01*
X2139000Y2532930D01*
X2140000Y2532930D01*
X2141000Y2532930D01*
X2142000Y2532930D01*
X2143000Y2532930D01*
X2144000Y2532930D01*
X2145000Y2532930D01*
X2146000Y2532930D01*
X2147000Y2532930D01*
X2148000Y2532930D01*
X2149000Y2532930D01*
X2150000Y2532930D01*
X2151000Y2532930D01*
X2152000Y2532930D01*
X2153000Y2532930D01*
X2154000Y2532930D01*
X2155000Y2532930D01*
X2156000Y2532930D01*
X2157000Y2532930D01*
X2158000Y2532930D01*
X2159000Y2532930D01*
X2160000Y2532930D01*
X2161000Y2532930D01*
X2162000Y2532930D01*
X2163000Y2532930D01*
X2164000Y2532930D01*
X2165000Y2532930D01*
X2166000Y2532930D01*
X2167000Y2532930D01*
X2168000Y2532930D01*
X2169000Y2532930D01*
X2170000Y2532930D01*
X2171000Y2532930D01*
X2172000Y2532930D01*
X2173000Y2532930D01*
X2174000Y2532930D01*
X2175000Y2532930D01*
X2176000Y2532930D01*
X2177000Y2532930D01*
X2178000Y2532930D01*
X2179000Y2532930D01*
X2180000Y2532930D01*
X2181000Y2532930D01*
X2182000Y2532930D01*
X2183000Y2532930D01*
X2184000Y2532930D01*
X2185000Y2532930D01*
X2186000Y2532930D01*
X2187000Y2532930D01*
X2188000Y2532930D01*
X2189000Y2532930D01*
X2190000Y2532930D01*
X2191000Y2532930D01*
X2192000Y2532930D01*
X2193000Y2532930D01*
X2194000Y2532930D01*
X2195000Y2532930D01*
X2196000Y2532930D01*
X2197000Y2532930D01*
X2198000Y2532930D01*
X2199000Y2532930D01*
X2200000Y2532930D01*
X2201000Y2532930D01*
X2202000Y2532930D01*
X2203000Y2532930D01*
X2204000Y2532930D01*
X2205000Y2532930D01*
X2206000Y2532930D01*
X2207000Y2532930D01*
X2208000Y2532930D01*
X2209000Y2532930D01*
X2210000Y2532930D01*
X2211000Y2532930D01*
X2212000Y2532930D01*
X2213000Y2532930D01*
X2214000Y2532930D01*
X2215000Y2532930D01*
X2216000Y2532930D01*
X2217000Y2532930D01*
X2218000Y2532930D01*
X2219000Y2532930D01*
X2220000Y2532930D01*
X2221000Y2532930D01*
X2222000Y2532930D01*
X2223000Y2532930D01*
X2224000Y2532930D01*
X2225000Y2532930D01*
X2226000Y2532930D01*
X2227000Y2532930D01*
X2228000Y2532930D01*
X2229000Y2532930D01*
X2230000Y2532930D01*
X2231000Y2532930D01*
X2232000Y2532930D01*
X2233000Y2532930D01*
X2234000Y2532930D01*
X2235000Y2532930D01*
X2236000Y2532930D01*
X2237000Y2532930D01*
X2238000Y2532930D01*
X2239000Y2532930D01*
X2240000Y2532930D01*
X2241000Y2532930D01*
X2242000Y2532930D01*
X2243000Y2532930D01*
X2244000Y2532930D01*
X2245000Y2532930D01*
X2246000Y2532930D01*
X2247000Y2532930D01*
X2248000Y2532930D01*
X2249000Y2532930D01*
X2250000Y2532930D01*
X2251000Y2532930D01*
X2252000Y2532930D01*
X2253000Y2532930D01*
X2254000Y2532930D01*
X2255000Y2532930D01*
X2256000Y2532930D01*
X2257000Y2532930D01*
X2258000Y2532930D01*
X2259000Y2532930D01*
X2260000Y2532930D01*
X2261000Y2532930D01*
X2262000Y2532930D01*
X2263000Y2532930D01*
X2264000Y2532930D01*
X2265000Y2532930D01*
X2266000Y2532930D01*
X2267000Y2532930D01*
X2268000Y2532930D01*
X2269000Y2532930D01*
X2270000Y2532930D01*
X2271000Y2532930D01*
X2272000Y2532930D01*
X2273000Y2532930D01*
X2274000Y2532930D01*
X2275000Y2532930D01*
X2276000Y2532930D01*
X2277000Y2532930D01*
X2278000Y2532930D01*
X2279000Y2532930D01*
X2280000Y2532930D01*
X2281000Y2532930D01*
X2282000Y2532930D01*
X2283000Y2532930D01*
X2284000Y2532930D01*
X2285000Y2532930D01*
X2286000Y2532930D01*
X2287000Y2532930D01*
X2288000Y2532930D01*
X2289000Y2532930D01*
X2290000Y2532930D01*
X2291000Y2532930D01*
X2292000Y2532930D01*
X2293000Y2532930D01*
X2294000Y2532930D01*
X2295000Y2532930D01*
X2296000Y2532930D01*
X2297000Y2532930D01*
X2298000Y2532930D01*
X2299000Y2532930D01*
X2300000Y2532930D01*
X2301000Y2532930D01*
X2302000Y2532930D01*
X2303000Y2532930D01*
X2304000Y2532930D01*
X2305000Y2532930D01*
X2306000Y2532930D01*
X2307000Y2532930D01*
X2308000Y2532930D01*
X2309000Y2532930D01*
X2310000Y2532930D01*
X2311000Y2532930D01*
X2312000Y2532930D01*
X2313000Y2532930D01*
X2314000Y2532930D01*
X2315000Y2532930D01*
X2316000Y2532930D01*
X2317000Y2532930D01*
X2318000Y2532930D01*
X2319000Y2532930D01*
X2320000Y2532930D01*
X2321000Y2532930D01*
X2322000Y2532930D01*
X2323000Y2532930D01*
X2324000Y2532930D01*
X2325000Y2532930D01*
X2326000Y2532930D01*
X2327000Y2532930D01*
X2328000Y2532930D01*
X2329000Y2532930D01*
X2330000Y2532930D01*
X2331000Y2532930D01*
X2332000Y2532930D01*
X2333000Y2532930D01*
X2334000Y2532930D01*
X2335000Y2532930D01*
X2336000Y2532930D01*
X2337000Y2532930D01*
X2338000Y2532930D01*
X2339000Y2532930D01*
X2340000Y2532930D01*
X2341000Y2532930D01*
X2342000Y2532930D01*
X2343000Y2532930D01*
X2344000Y2532930D01*
X2345000Y2532930D01*
X2346000Y2532930D01*
X2347000Y2532930D01*
X2348000Y2532930D01*
X2349000Y2532930D01*
X2350000Y2532930D01*
X2351000Y2532930D01*
X2352000Y2532930D01*
X2353000Y2532930D01*
X2354000Y2532930D01*
X2355000Y2532930D01*
X2356000Y2532930D01*
X2357000Y2532930D01*
X2358000Y2532930D01*
X2359000Y2532930D01*
X2360000Y2532930D01*
X2361000Y2532930D01*
X2362000Y2532930D01*
X2363000Y2532930D01*
X2364000Y2532930D01*
X2365000Y2532930D01*
X2366000Y2532930D01*
X2367000Y2532930D01*
X2368000Y2532930D01*
X2369000Y2532930D01*
X2370000Y2532930D01*
X2371000Y2532930D01*
X2372000Y2532930D01*
X2373000Y2532930D01*
X2374000Y2532930D01*
X2375000Y2532930D01*
X2376000Y2532930D01*
X2377000Y2532930D01*
X2378000Y2532930D01*
X2379000Y2532930D01*
X2380000Y2532930D01*
X2381000Y2532930D01*
X2382000Y2532930D01*
X2383000Y2532930D01*
X2384000Y2532930D01*
X2385000Y2532930D01*
X2386000Y2532930D01*
X2387000Y2532930D01*
X2388000Y2532930D01*
X2389000Y2532930D01*
X2390000Y2532930D01*
X2391000Y2532930D01*
X2392000Y2532930D01*
X2393000Y2532930D01*
X2394000Y2532930D01*
X2395000Y2532930D01*
X2396000Y2532930D01*
X2397000Y2532930D01*
X2398000Y2532930D01*
X2399000Y2532930D01*
X2400000Y2532930D01*
X2401000Y2532930D01*
X2402000Y2532930D01*
X2403000Y2532930D01*
X2404000Y2532930D01*
X2405000Y2532930D01*
X2406000Y2532930D01*
X2407000Y2532930D01*
X2408000Y2532930D01*
X2409000Y2532930D01*
X2410000Y2532930D01*
X2411000Y2532930D01*
X2412000Y2532930D01*
X2413000Y2532930D01*
X2414000Y2532930D01*
X2415000Y2532930D01*
X2416000Y2532930D01*
X2417000Y2532930D01*
X2418000Y2532930D01*
X2419000Y2532930D01*
X2420000Y2532930D01*
X2421000Y2532930D01*
X2422000Y2532930D01*
X2423000Y2532930D01*
X2424000Y2532930D01*
X2425000Y2532930D01*
X2426000Y2532930D01*
X2427000Y2532930D01*
X2428000Y2532930D01*
X2429000Y2532930D01*
X2430000Y2532930D01*
X2431000Y2532930D01*
X2432000Y2532930D01*
X2433000Y2532930D01*
X2434000Y2532930D01*
X2435000Y2532930D01*
X2436000Y2532930D01*
X2437000Y2532930D01*
X2438000Y2532930D01*
X2439000Y2532930D01*
X2440000Y2532930D01*
X2441000Y2532930D01*
X2442000Y2532930D01*
X2443000Y2532930D01*
X2444000Y2532930D01*
X2445000Y2532930D01*
X2446000Y2532930D01*
X2447000Y2532930D01*
X2448000Y2532930D01*
X2449000Y2532930D01*
X2450000Y2532930D01*
X2451000Y2532930D01*
X2452000Y2532930D01*
X2453000Y2532930D01*
X2454000Y2532930D01*
X2455000Y2532930D01*
X2456000Y2532930D01*
X2457000Y2532930D01*
X2458000Y2532930D01*
X2459000Y2532930D01*
X2460000Y2532930D01*
X2461000Y2532930D01*
X2462000Y2532930D01*
X2463000Y2532930D01*
X2464000Y2532930D01*
X2465000Y2532930D01*
X2466000Y2532930D01*
X2467000Y2532930D01*
X2468000Y2532930D01*
X2469000Y2532930D01*
X2470000Y2532930D01*
X2471000Y2532930D01*
X2472000Y2532930D01*
X2473000Y2532930D01*
X2474000Y2532930D01*
X2475000Y2532930D01*
X2476000Y2532930D01*
X2477000Y2532930D01*
X2478000Y2532930D01*
X2479000Y2532930D01*
X2480000Y2532930D01*
X2481000Y2532930D01*
X2482000Y2532930D01*
X2483000Y2532930D01*
X2484000Y2532930D01*
X2485000Y2532930D01*
X2486000Y2532930D01*
X2487000Y2532930D01*
X2488000Y2532930D01*
X2489000Y2532930D01*
X2490000Y2532930D01*
X2491000Y2532930D01*
X2492000Y2532930D01*
X2493000Y2532930D01*
X2494000Y2532930D01*
X2495000Y2532930D01*
X2496000Y2532930D01*
X2497000Y2532930D01*
X2498000Y2532930D01*
X2499000Y2532930D01*
X2500000Y2532930D01*
X2501000Y2532930D01*
X2502000Y2532930D01*
X2503000Y2532930D01*
X2504000Y2532930D01*
X2505000Y2532930D01*
X2506000Y2532930D01*
X2507000Y2532930D01*
X2508000Y2532930D01*
X2509000Y2532930D01*
X2510000Y2532930D01*
X2511000Y2532930D01*
X2512000Y2532930D01*
X2513000Y2532930D01*
X2514000Y2532930D01*
X2515000Y2532930D01*
X2516000Y2532930D01*
X2517000Y2532930D01*
X2518000Y2532930D01*
X2519000Y2532930D01*
X2520000Y2532930D01*
X2521000Y2532930D01*
X2522000Y2532930D01*
X2523000Y2532930D01*
X2524000Y2532930D01*
X2525000Y2532930D01*
X2526000Y2532930D01*
X2527000Y2532930D01*
X2528000Y2532930D01*
X2529000Y2532930D01*
X2530000Y2532930D01*
X2531000Y2532930D01*
X2532000Y2532930D01*
X2533000Y2532930D01*
X2534000Y2532930D01*
X2535000Y2532930D01*
X2536000Y2532930D01*
X2537000Y2532930D01*
X2538000Y2532930D01*
X2539000Y2532930D01*
X2540000Y2532930D01*
X2541000Y2532930D01*
X2542000Y2532930D01*
X2543000Y2532930D01*
X2544000Y2532930D01*
X2545000Y2532930D01*
X2546000Y2532930D01*
X2547000Y2532930D01*
X2548000Y2532930D01*
X2549000Y2532930D01*
X2550000Y2532930D01*
X2551000Y2532930D01*
X2552000Y2532930D01*
X2553000Y2532930D01*
X2554000Y2532930D01*
X2555000Y2532930D01*
X2556000Y2532930D01*
X2557000Y2532930D01*
X2558000Y2532930D01*
X2559000Y2532930D01*
X2560000Y2532930D01*
X2561000Y2532930D01*
X2562000Y2532930D01*
X2563000Y2532930D01*
X2564000Y2532930D01*
X2565000Y2532930D01*
X2566000Y2532930D01*
X2567000Y2532930D01*
X2568000Y2532930D01*
X2569000Y2532930D01*
X2570000Y2532930D01*
X2571000Y2532930D01*
X2572000Y2532930D01*
X2573000Y2532930D01*
X2574000Y2532930D01*
X2575000Y2532930D01*
X2576000Y2532930D01*
X2577000Y2532930D01*
X2578000Y2532930D01*
X2579000Y2532930D01*
X2580000Y2532930D01*
X2581000Y2532930D01*
X2582000Y2532930D01*
X2583000Y2532930D01*
X2584000Y2532930D01*
X2585000Y2532930D01*
X2586000Y2532930D01*
X2587000Y2532930D01*
X2588000Y2532930D01*
X2589000Y2532930D01*
X2590000Y2532930D01*
X2591000Y2532930D01*
X2592000Y2532930D01*
X2593000Y2532930D01*
X2594000Y2532930D01*
X2595000Y2532930D01*
X2596000Y2532930D01*
X2597000Y2532930D01*
X2598000Y2532930D01*
X2599000Y2532930D01*
X2600000Y2532930D01*
X2601000Y2532930D01*
X2602000Y2532930D01*
X2603000Y2532930D01*
X2604000Y2532930D01*
X2605000Y2532930D01*
X2606000Y2532930D01*
X2607000Y2532930D01*
X2608000Y2532930D01*
X2609000Y2532930D01*
X2610000Y2532930D01*
X2611000Y2532930D01*
X2612000Y2532930D01*
X2613000Y2532930D01*
X2614000Y2532930D01*
X2615000Y2532930D01*
X2616000Y2532930D01*
X2617000Y2532930D01*
X2618000Y2532930D01*
X2619000Y2532930D01*
X2620000Y2532930D01*
X2621000Y2532930D01*
X2622000Y2532930D01*
X2623000Y2532930D01*
X2624000Y2532930D01*
X2625000Y2532930D01*
X2626000Y2532930D01*
X2627000Y2532930D01*
X2628000Y2532930D01*
X2629000Y2532930D01*
X2630000Y2532930D01*
X2631000Y2532930D01*
X2632000Y2532930D01*
X2633000Y2532930D01*
X2634000Y2532930D01*
X2635000Y2532930D01*
X2636000Y2532930D01*
X2637000Y2532930D01*
X2638000Y2532930D01*
X2639000Y2532930D01*
X2640000Y2532930D01*
X2641000Y2532930D01*
X2642000Y2532930D01*
X2643000Y2532930D01*
X2644000Y2532930D01*
X2645000Y2532930D01*
X2646000Y2532930D01*
X2647000Y2532930D01*
X2648000Y2532930D01*
X2649000Y2532930D01*
X2650000Y2532930D01*
X2651000Y2532930D01*
X2652000Y2532930D01*
X2653000Y2532930D01*
X2654000Y2532930D01*
X2655000Y2532930D01*
X2656000Y2532930D01*
X2657000Y2532930D01*
X2658000Y2532930D01*
X2659000Y2532930D01*
X2660000Y2532930D01*
X2661000Y2532930D01*
X2662000Y2532930D01*
X2663000Y2532930D01*
X2664000Y2532930D01*
X2665000Y2532930D01*
X2666000Y2532930D01*
X2667000Y2532930D01*
X2668000Y2532930D01*
X2669000Y2532930D01*
X2670000Y2532930D01*
X2671000Y2532930D01*
X2672000Y2532930D01*
X2673000Y2532930D01*
X2674000Y2532930D01*
X2675000Y2532930D01*
X2676000Y2532930D01*
X2677000Y2532930D01*
X2678000Y2532930D01*
X2679000Y2532930D01*
X2680000Y2532930D01*
X2681000Y2532930D01*
X2682000Y2532930D01*
X2683000Y2532930D01*
X2684000Y2532930D01*
X2685000Y2532930D01*
X2686000Y2532930D01*
X2687000Y2532930D01*
X2688000Y2532930D01*
X2689000Y2532930D01*
X2690000Y2532930D01*
X2691000Y2532930D01*
X2692000Y2532930D01*
X2693000Y2532930D01*
X2694000Y2532930D01*
X2695000Y2532930D01*
X2696000Y2532930D01*
X2697000Y2532930D01*
X2698000Y2532930D01*
X2699000Y2532930D01*
X2700000Y2532930D01*
X2701000Y2532930D01*
X2702000Y2532930D01*
X2703000Y2532930D01*
X2704000Y2532930D01*
X2705000Y2532930D01*
X2706000Y2532930D01*
X2707000Y2532930D01*
X2708000Y2532930D01*
X2709000Y2532930D01*
X2710000Y2532930D01*
X2711000Y2532930D01*
X2712000Y2532930D01*
X2713000Y2532930D01*
X2714000Y2532930D01*
X2715000Y2532930D01*
X2716000Y2532930D01*
X2717000Y2532930D01*
X2718000Y2532930D01*
X2719000Y2532930D01*
X2720000Y2532930D01*
X2721000Y2532930D01*
X2722000Y2532930D01*
X2723000Y2532930D01*
X2724000Y2532930D01*
X2725000Y2532930D01*
X2726000Y2532930D01*
X2727000Y2532930D01*
X2728000Y2532930D01*
X2729000Y2532930D01*
X2730000Y2532930D01*
X2731000Y2532930D01*
X2732000Y2532930D01*
X2733000Y2532930D01*
X2734000Y2532930D01*
X2735000Y2532930D01*
X2736000Y2532930D01*
X2737000Y2532930D01*
X2738000Y2532930D01*
X2739000Y2532930D01*
X2740000Y2532930D01*
X2741000Y2532930D01*
X2742000Y2532930D01*
X2743000Y2532930D01*
X2744000Y2532930D01*
X2745000Y2532930D01*
X2746000Y2532930D01*
X2747000Y2532930D01*
X2748000Y2532930D01*
X2749000Y2532930D01*
X2750000Y2532930D01*
X2751000Y2532930D01*
X2752000Y2532930D01*
X2753000Y2532930D01*
X2754000Y2532930D01*
X2755000Y2532930D01*
X2756000Y2532930D01*
X2757000Y2532930D01*
X2758000Y2532930D01*
X2759000Y2532930D01*
X2760000Y2532930D01*
X2761000Y2532930D01*
X2762000Y2532930D01*
X2763000Y2532930D01*
X2764000Y2532930D01*
X2765000Y2532930D01*
X2766000Y2532930D01*
X2767000Y2532930D01*
X2768000Y2532930D01*
X2769000Y2532930D01*
X2770000Y2532930D01*
X2771000Y2532930D01*
X2772000Y2532930D01*
X2773000Y2532930D01*
X2774000Y2532930D01*
X2775000Y2532930D01*
X2776000Y2532930D01*
X2777000Y2532930D01*
X2778000Y2532930D01*
X2779000Y2532930D01*
X2780000Y2532930D01*
X2781000Y2532930D01*
X2782000Y2532930D01*
X2783000Y2532930D01*
X2784000Y2532930D01*
X2785000Y2532930D01*
X2786000Y2532930D01*
X2787000Y2532930D01*
X2788000Y2532930D01*
X2789000Y2532930D01*
X2790000Y2532930D01*
X2791000Y2532930D01*
X2792000Y2532930D01*
X2793000Y2532930D01*
X2794000Y2532930D01*
X2795000Y2532930D01*
X2796000Y2532930D01*
X2797000Y2532930D01*
X2798000Y2532930D01*
X2799000Y2532930D01*
X2800000Y2532930D01*
X2801000Y2532930D01*
X2802000Y2532930D01*
X2803000Y2532930D01*
X2804000Y2532930D01*
X2805000Y2532930D01*
X2806000Y2532930D01*
X2807000Y2532930D01*
X2808000Y2532930D01*
X2809000Y2532930D01*
X2810000Y2532930D01*
X2811000Y2532930D01*
X2812000Y2532930D01*
X2813000Y2532930D01*
X2814000Y2532930D01*
X2815000Y2532930D01*
X2816000Y2532930D01*
X2817000Y2532930D01*
X2818000Y2532930D01*
X2819000Y2532930D01*
X2820000Y2532930D01*
X2821000Y2532930D01*
X2822000Y2532930D01*
X2823000Y2532930D01*
X2824000Y2532930D01*
X2825000Y2532930D01*
X2826000Y2532930D01*
X2827000Y2532930D01*
X2828000Y2532930D01*
X2829000Y2532930D01*
X2830000Y2532930D01*
X2831000Y2532930D01*
X2832000Y2532930D01*
X2833000Y2532930D01*
X2834000Y2532930D01*
X2835000Y2532930D01*
X2836000Y2532930D01*
X2837000Y2532930D01*
X2838000Y2532930D01*
X2839000Y2532930D01*
X2840000Y2532930D01*
X2841000Y2532930D01*
X2842000Y2532930D01*
X2843000Y2532930D01*
X2844000Y2532930D01*
X2845000Y2532930D01*
X2846000Y2532930D01*
X2847000Y2532930D01*
X2848000Y2532930D01*
X2849000Y2532930D01*
X2850000Y2532930D01*
X2851000Y2532930D01*
X2852000Y2532930D01*
X2853000Y2532930D01*
X2854000Y2532930D01*
X2855000Y2532930D01*
X2856000Y2532930D01*
X2857000Y2532930D01*
X2858000Y2532930D01*
X2859000Y2532930D01*
X2860000Y2532930D01*
X2861000Y2532930D01*
X2862000Y2532930D01*
X2863000Y2532930D01*
X2864000Y2532930D01*
X2865000Y2532930D01*
X2866000Y2532930D01*
X2867000Y2532930D01*
X2868000Y2532930D01*
X2869000Y2532930D01*
X2870000Y2532930D01*
X2871000Y2532930D01*
X2872000Y2532930D01*
X2873000Y2532930D01*
X2874000Y2532930D01*
X2875000Y2532930D01*
X2876000Y2532930D01*
X2877000Y2532930D01*
X2878000Y2532930D01*
X2879000Y2532930D01*
X2880000Y2532930D01*
X2881000Y2532930D01*
X2882000Y2532930D01*
X2883000Y2532930D01*
X2884000Y2532930D01*
X2885000Y2532930D01*
X2886000Y2532930D01*
X2887000Y2532930D01*
X2888000Y2532930D01*
X2889000Y2532930D01*
X2890000Y2532930D01*
X2891000Y2532930D01*
X2892000Y2532930D01*
X2893000Y2532930D01*
X2894000Y2532930D01*
X2895000Y2532930D01*
X2896000Y2532930D01*
X2897000Y2532930D01*
X2898000Y2532930D01*
X2899000Y2532930D01*
X2900000Y2532930D01*
X2901000Y2532930D01*
X2902000Y2532930D01*
X2903000Y2532930D01*
X2904000Y2532930D01*
X2905000Y2532930D01*
X2906000Y2532930D01*
X2907000Y2532930D01*
X2908000Y2532930D01*
X2909000Y2532930D01*
X2910000Y2532930D01*
X2911000Y2532930D01*
X2912000Y2532930D01*
X2913000Y2532930D01*
X2914000Y2532930D01*
X2915000Y2532930D01*
X2916000Y2532930D01*
X2917000Y2532930D01*
X2918000Y2532930D01*
X2919000Y2532930D01*
X2920000Y2532930D01*
X2921000Y2532930D01*
X2922000Y2532930D01*
X2923000Y2532930D01*
X2924000Y2532930D01*
X2925000Y2532930D01*
X2926000Y2532930D01*
X2927000Y2532930D01*
X2928000Y2532930D01*
X2929000Y2532930D01*
X2930000Y2532930D01*
X2931000Y2532930D01*
X2932000Y2532930D01*
X2933000Y2532930D01*
X2934000Y2532930D01*
X2935000Y2532930D01*
X2936000Y2532930D01*
X2937000Y2532930D01*
X2938000Y2532930D01*
X2939000Y2532930D01*
X2940000Y2532930D01*
X2941000Y2532930D01*
X2942000Y2532930D01*
X2943000Y2532930D01*
X2944000Y2532930D01*
X2945000Y2532930D01*
X2946000Y2532930D01*
X2947000Y2532930D01*
X2948000Y2532930D01*
X2949000Y2532930D01*
X2950000Y2532930D01*
X2951000Y2532930D01*
X2952000Y2532930D01*
X2953000Y2532930D01*
X2954000Y2532930D01*
X2955000Y2532930D01*
X2956000Y2532930D01*
X2957000Y2532930D01*
X2958000Y2532930D01*
X2959000Y2532930D01*
X2960000Y2532930D01*
X2961000Y2532930D01*
X2962000Y2532930D01*
X2963000Y2532930D01*
X2964000Y2532930D01*
X2965000Y2532930D01*
X2966000Y2532930D01*
X2967000Y2532930D01*
X2968000Y2532930D01*
X2969000Y2532930D01*
X2970000Y2532930D01*
X2971000Y2532930D01*
X2972000Y2532930D01*
X2973000Y2532930D01*
X2974000Y2532930D01*
X2975000Y2532930D01*
X2976000Y2532930D01*
X2977000Y2532930D01*
X2978000Y2532930D01*
X2979000Y2532930D01*
X2980000Y2532930D01*
X2981000Y2532930D01*
X2982000Y2532930D01*
X2983000Y2532930D01*
X2984000Y2532930D01*
X2985000Y2532930D01*
X2986000Y2532930D01*
X2987000Y2532930D01*
X2988000Y2532930D01*
X2989000Y2532930D01*
X2990000Y2532930D01*
X2991000Y2532930D01*
X2992000Y2532930D01*
X2993000Y2532930D01*
X2994000Y2532930D01*
X2995000Y2532930D01*
X2996000Y2532930D01*
X2997000Y2532930D01*
X2998000Y2532930D01*
X2999000Y2532930D01*
X3000000Y2532930D01*
X3001000Y2532930D01*
X3002000Y2532930D01*
X3003000Y2532930D01*
X3004000Y2532930D01*
X3005000Y2532930D01*
X3006000Y2532930D01*
X3007000Y2532930D01*
X3008000Y2532930D01*
X3009000Y2532930D01*
X3010000Y2532930D01*
X3011000Y2532930D01*
X3012000Y2532930D01*
X3013000Y2532930D01*
X3014000Y2532930D01*
X3015000Y2532930D01*
X3016000Y2532930D01*
X3017000Y2532930D01*
X3018000Y2532930D01*
X3019000Y2532930D01*
X3020000Y2532930D01*
X3021000Y2532930D01*
X3022000Y2532930D01*
X3023000Y2532930D01*
X3024000Y2532930D01*
X3025000Y2532930D01*
X3026000Y2532930D01*
X3027000Y2532930D01*
X3028000Y2532930D01*
X3029000Y2532930D01*
X3030000Y2532930D01*
X3031000Y2532930D01*
X3032000Y2532930D01*
X3033000Y2532930D01*
X3034000Y2532930D01*
X3035000Y2532930D01*
X3036000Y2532930D01*
X3037000Y2532930D01*
X3038000Y2532930D01*
X3039000Y2532930D01*
X3040000Y2532930D01*
X3041000Y2532930D01*
X3042000Y2532930D01*
X3043000Y2532930D01*
X3044000Y2532930D01*
X3045000Y2532930D01*
X3046000Y2532930D01*
X3047000Y2532930D01*
X3048000Y2532930D01*
X3049000Y2532930D01*
X3050000Y2532930D01*
X3051000Y2532930D01*
X3052000Y2532930D01*
X3053000Y2532930D01*
X3054000Y2532930D01*
X3055000Y2532930D01*
X3056000Y2532930D01*
X3057000Y2532930D01*
X3058000Y2532930D01*
X3059000Y2532930D01*
X3060000Y2532930D01*
X3061000Y2532930D01*
X3062000Y2532930D01*
X3063000Y2532930D01*
X3064000Y2532930D01*
X3065000Y2532930D01*
X3066000Y2532930D01*
X3067000Y2532930D01*
X3068000Y2532930D01*
X3069000Y2532930D01*
X3070000Y2532930D01*
X3071000Y2532930D01*
X3072000Y2532930D01*
X3073000Y2532930D01*
X3074000Y2532930D01*
X3075000Y2532930D01*
X3076000Y2532930D01*
X3077000Y2532930D01*
X3078000Y2532930D01*
X3079000Y2532930D01*
X3080000Y2532930D01*
X3081000Y2532930D01*
X3082000Y2532930D01*
X3083000Y2532930D01*
X3084000Y2532930D01*
X3085000Y2532930D01*
X3086000Y2532930D01*
X3087000Y2532930D01*
X3088000Y2532930D01*
X3089000Y2532930D01*
X3090000Y2532930D01*
X3091000Y2532930D01*
X3092000Y2532930D01*
X3093000Y2532930D01*
X3094000Y2532930D01*
X3095000Y2532930D01*
X3096000Y2532930D01*
X3097000Y2532930D01*
X3098000Y2532930D01*
X3099000Y2532930D01*
X3100000Y2532930D01*
X3101000Y2532930D01*
X3102000Y2532930D01*
X3103000Y2532930D01*
X3104000Y2532930D01*
X3105000Y2532930D01*
X3106000Y2532930D01*
X3107000Y2532930D01*
X3108000Y2532930D01*
X3109000Y2532930D01*
X3110000Y2532930D01*
X3111000Y2532930D01*
X3112000Y2532930D01*
X3113000Y2532930D01*
X3114000Y2532930D01*
X3115000Y2532930D01*
X3116000Y2532930D01*
X3117000Y2532930D01*
X3118000Y2532930D01*
X3119000Y2532930D01*
X3120000Y2532930D01*
X3121000Y2532930D01*
X3122000Y2532930D01*
X3123000Y2532930D01*
X3124000Y2532930D01*
X3125000Y2532930D01*
X3126000Y2532930D01*
X3127000Y2532930D01*
X3128000Y2532930D01*
X3129000Y2532930D01*
X3130000Y2532930D01*
X3131000Y2532930D01*
X3132000Y2532930D01*
X3133000Y2532930D01*
X3134000Y2532930D01*
X3135000Y2532930D01*
X3136000Y2532930D01*
X3137000Y2532930D01*
X3138000Y2532930D01*
X3139000Y2532930D01*
X3140000Y2532930D01*
X3141000Y2532930D01*
X3142000Y2532930D01*
X3143000Y2532930D01*
X3144000Y2532930D01*
X3145000Y2532930D01*
X3146000Y2532930D01*
X3147000Y2532930D01*
X3148000Y2532930D01*
X3149000Y2532930D01*
X3150000Y2532930D01*
X3151000Y2532930D01*
X3152000Y2532930D01*
X3153000Y2532930D01*
X3154000Y2532930D01*
X3155000Y2532930D01*
X3156000Y2532930D01*
X3157000Y2532930D01*
X3158000Y2532930D01*
X3159000Y2532930D01*
X3160000Y2532930D01*
X3161000Y2532930D01*
X3162000Y2532930D01*
X3163000Y2532930D01*
X3164000Y2532930D01*
X3165000Y2532930D01*
X3166000Y2532930D01*
X3167000Y2532930D01*
X3168000Y2532930D01*
X3169000Y2532930D01*
X3170000Y2532930D01*
X3171000Y2532930D01*
X3172000Y2532930D01*
X3173000Y2532930D01*
X3174000Y2532930D01*
X3175000Y2532930D01*
X3176000Y2532930D01*
X3177000Y2532930D01*
X3178000Y2532930D01*
X3179000Y2532930D01*
X3180000Y2532930D01*
X3181000Y2532930D01*
X3182000Y2532930D01*
X3183000Y2532930D01*
X3184000Y2532930D01*
X3185000Y2532930D01*
X3186000Y2532930D01*
X3187000Y2532930D01*
X3188000Y2532930D01*
X3189000Y2532930D01*
X3190000Y2532930D01*
X3191000Y2532930D01*
X3192000Y2532930D01*
X3193000Y2532930D01*
X3194000Y2532930D01*
X3195000Y2532930D01*
X3196000Y2532930D01*
X3197000Y2532930D01*
X3198000Y2532930D01*
X3199000Y2532930D01*
X3200000Y2532930D01*
X3201000Y2532930D01*
X3202000Y2532930D01*
X3203000Y2532930D01*
X3204000Y2532930D01*
X3205000Y2532930D01*
X3206000Y2532930D01*
X3207000Y2532930D01*
X3208000Y2532930D01*
X3209000Y2532930D01*
X3210000Y2532930D01*
X3211000Y2532930D01*
X3212000Y2532930D01*
X3213000Y2532930D01*
X3214000Y2532930D01*
X3215000Y2532930D01*
X3216000Y2532930D01*
X3217000Y2532930D01*
X3218000Y2532930D01*
X3219000Y2532930D01*
X3220000Y2532930D01*
X3221000Y2532930D01*
X3222000Y2532930D01*
X3223000Y2532930D01*
X3224000Y2532930D01*
X3225000Y2532930D01*
X3226000Y2532930D01*
X3227000Y2532930D01*
X3228000Y2532930D01*
X3229000Y2532930D01*
X3230000Y2532930D01*
X3231000Y2532930D01*
X3232000Y2532930D01*
X3233000Y2532930D01*
X3234000Y2532930D01*
X3235000Y2532930D01*
X3236000Y2532930D01*
X3237000Y2532930D01*
X3238000Y2532930D01*
X3239000Y2532930D01*
X3240000Y2532930D01*
X3241000Y2532930D01*
X3242000Y2532930D01*
X3243000Y2532930D01*
X3244000Y2532930D01*
X3245000Y2532930D01*
X3246000Y2532930D01*
X3247000Y2532930D01*
X3248000Y2532930D01*
X3249000Y2532930D01*
X3250000Y2532930D01*
X3251000Y2532930D01*
X3252000Y2532930D01*
X3253000Y2532930D01*
X3254000Y2532930D01*
X3255000Y2532930D01*
X3256000Y2532930D01*
X3257000Y2532930D01*
X3258000Y2532930D01*
X3259000Y2532930D01*
X3260000Y2532930D01*
X3261000Y2532930D01*
X3262000Y2532930D01*
X3263000Y2532930D01*
X3264000Y2532930D01*
X3265000Y2532930D01*
X3266000Y2532930D01*
X3267000Y2532930D01*
X3268000Y2532930D01*
X3269000Y2532930D01*
X3270000Y2532930D01*
X3271000Y2532930D01*
X3272000Y2532930D01*
X3273000Y2532930D01*
X3274000Y2532930D01*
X3275000Y2532930D01*
X3276000Y2532930D01*
X3277000Y2532930D01*
X3278000Y2532930D01*
X3279000Y2532930D01*
X3280000Y2532930D01*
X3281000Y2532930D01*
X3282000Y2532930D01*
X3283000Y2532930D01*
X3284000Y2532930D01*
X3285000Y2532930D01*
X3286000Y2532930D01*
X3287000Y2532930D01*
X3288000Y2532930D01*
X3289000Y2532930D01*
X3290000Y2532930D01*
X3291000Y2532930D01*
X3292000Y2532930D01*
X3293000Y2532930D01*
X3294000Y2532930D01*
X3295000Y2532930D01*
X3296000Y2532930D01*
X3297000Y2532930D01*
X3298000Y2532930D01*
X3299000Y2532930D01*
X3300000Y2532930D01*
X3301000Y2532930D01*
X3302000Y2532930D01*
X3303000Y2532930D01*
X3304000Y2532930D01*
X3305000Y2532930D01*
X3306000Y2532930D01*
X3307000Y2532930D01*
X3308000Y2532930D01*
X3309000Y2532930D01*
X3310000Y2532930D01*
X3311000Y2532930D01*
X3312000Y2532930D01*
X3313000Y2532930D01*
X3314000Y2532930D01*
X3315000Y2532930D01*
X3316000Y2532930D01*
X3317000Y2532930D01*
X3318000Y2532930D01*
X3319000Y2532930D01*
X3320000Y2532930D01*
X3321000Y2532930D01*
X3322000Y2532930D01*
X3323000Y2532930D01*
X3324000Y2532930D01*
X3325000Y2532930D01*
X3326000Y2532930D01*
X3327000Y2532930D01*
X3328000Y2531930D01*
X3329000Y2531930D01*
X3330000Y2531930D01*
X3331000Y2531930D01*
X3332000Y2531930D01*
X3333000Y2531930D01*
X3334000Y2531930D01*
X3335000Y2531930D01*
X3336000Y2530930D01*
X3337000Y2530930D01*
X3338000Y2530930D01*
X3339000Y2530930D01*
X3340000Y2530930D01*
X3341000Y2529930D01*
X3342000Y2529930D01*
X3343000Y2529930D01*
X3344000Y2529930D01*
X3345000Y2528930D01*
X3346000Y2528930D01*
X3347000Y2528930D01*
X3348000Y2528930D01*
X3349000Y2527930D01*
X3350000Y2527930D01*
X3351000Y2527930D01*
X3352000Y2526930D01*
X3353000Y2526930D01*
X3354000Y2526930D01*
X3355000Y2525930D01*
X3356000Y2525930D01*
X3357000Y2525930D01*
X3358000Y2524930D01*
X3359000Y2524930D01*
X3360000Y2523930D01*
X3361000Y2523930D01*
X3362000Y2522930D01*
X3363000Y2522930D01*
X3364000Y2522930D01*
X3365000Y2521930D01*
X3366000Y2521930D01*
X3367000Y2520930D01*
X3368000Y2519930D01*
X3369000Y2519930D01*
X3370000Y2518930D01*
X3371000Y2518930D01*
X3372000Y2517930D01*
X3373000Y2517930D01*
X3374000Y2516930D01*
X3375000Y2515930D01*
X3376000Y2515930D01*
X3377000Y2514930D01*
X3378000Y2514930D01*
X3379000Y2513930D01*
X3380000Y2512930D01*
X3381000Y2511930D01*
X3382000Y2511930D01*
X3383000Y2510930D01*
X3384000Y2509930D01*
X3385000Y2509930D01*
X3386000Y2508930D01*
X3387000Y2507930D01*
X3388000Y2506930D01*
X3389000Y2505930D01*
X3390000Y2504930D01*
X3391000Y2504930D01*
X3392000Y2503930D01*
X3393000Y2502930D01*
X3394000Y2501930D01*
X3395000Y2500930D01*
X3396000Y2499930D01*
X3397000Y2498930D01*
X3398000Y2497930D01*
X3399000Y2496930D01*
X3400000Y2495930D01*
X3401000Y2494930D01*
X3402000Y2493930D01*
X3402000Y2492930D01*
X3403000Y2491930D01*
X3404000Y2490930D01*
X3405000Y2489930D01*
X3406000Y2488930D01*
X3407000Y2487930D01*
X3407000Y2486930D01*
X3408000Y2485930D01*
X3409000Y2484930D01*
X3410000Y2483930D01*
X3410000Y2482930D01*
X3411000Y2481930D01*
X3412000Y2480930D01*
X3412000Y2479930D01*
X3413000Y2478930D01*
X3414000Y2477930D01*
X3414000Y2476930D01*
X3415000Y2475930D01*
X3416000Y2474930D01*
X3416000Y2473930D01*
X3417000Y2472930D01*
X3417000Y2471930D01*
X3418000Y2470930D01*
X3419000Y2469930D01*
X3419000Y2468930D01*
X3420000Y2467930D01*
X3420000Y2466930D01*
X3421000Y2465930D01*
X3421000Y2464930D01*
X3422000Y2463930D01*
X3422000Y2462930D01*
X3423000Y2461930D01*
X3423000Y2460930D01*
X3424000Y2459930D01*
X3424000Y2458930D01*
X3425000Y2457930D01*
X3425000Y2456930D01*
X3426000Y2455930D01*
X3426000Y2453930D01*
X3427000Y2452930D01*
X3427000Y2451930D01*
X3428000Y2450930D01*
X3428000Y2448930D01*
X3429000Y2447930D01*
X3429000Y2445930D01*
X3430000Y2444930D01*
X3430000Y2442930D01*
X3431000Y2441930D01*
X3431000Y2439930D01*
X3432000Y2438930D01*
X3432000Y2435930D01*
X3433000Y2434930D01*
X3433000Y2431930D01*
X3434000Y2430930D01*
X3434000Y2427930D01*
X3435000Y2426930D01*
X3435000Y2422930D01*
X3436000Y2421930D01*
X3436000Y2416930D01*
X3437000Y2415930D01*
X3437000Y2406930D01*
X3438000Y2405930D01*
X3438000Y128930D01*
X3437000Y127930D01*
X3437000Y118930D01*
X3436000Y117930D01*
X3436000Y112930D01*
X3435000Y111930D01*
X3435000Y107930D01*
X3434000Y106930D01*
X3434000Y103930D01*
X3433000Y102930D01*
X3433000Y99930D01*
X3432000Y98930D01*
X3432000Y95930D01*
X3431000Y94930D01*
X3431000Y92930D01*
X3430000Y91930D01*
X3430000Y89930D01*
X3429000Y88930D01*
X3429000Y86930D01*
X3428000Y85930D01*
X3428000Y83930D01*
X3427000Y82930D01*
X3427000Y81930D01*
X3426000Y80930D01*
X3426000Y78930D01*
X3425000Y77930D01*
X3425000Y76930D01*
X3424000Y75930D01*
X3424000Y74930D01*
X3423000Y73930D01*
X3423000Y72930D01*
X3422000Y71930D01*
X3422000Y70930D01*
X3421000Y69930D01*
X3421000Y68930D01*
X3420000Y67930D01*
X3420000Y66930D01*
X3419000Y65930D01*
X3419000Y64930D01*
X3418000Y63930D01*
X3417000Y62930D01*
X3417000Y61930D01*
X3416000Y60930D01*
X3416000Y59930D01*
X3415000Y58930D01*
X3414000Y57930D01*
X3414000Y56930D01*
X3413000Y55930D01*
X3412000Y54930D01*
X3412000Y53930D01*
X3411000Y52930D01*
X3410000Y51930D01*
X3410000Y50930D01*
X3409000Y49930D01*
X3408000Y48930D01*
X3407000Y47930D01*
X3407000Y46930D01*
X3406000Y45930D01*
X3405000Y44930D01*
X3404000Y43930D01*
X3403000Y42930D01*
X3402000Y41930D01*
X3402000Y40930D01*
X3401000Y39930D01*
X3400000Y38930D01*
X3399000Y37930D01*
X3398000Y36930D01*
X3397000Y35930D01*
X3396000Y34930D01*
X3395000Y33930D01*
X3394000Y32930D01*
X3393000Y31930D01*
X3392000Y30930D01*
X3391000Y29930D01*
X3390000Y29930D01*
X3389000Y28930D01*
X3388000Y27930D01*
X3387000Y26930D01*
X3386000Y25930D01*
X3385000Y24930D01*
X3384000Y24930D01*
X3383000Y23930D01*
X3382000Y22930D01*
X3381000Y22930D01*
X3380000Y21930D01*
X3379000Y20930D01*
X3378000Y19930D01*
X3377000Y19930D01*
X3376000Y18930D01*
X3375000Y18930D01*
X3374000Y17930D01*
X3373000Y16930D01*
X3372000Y16930D01*
X3371000Y15930D01*
X3370000Y15930D01*
X3369000Y14930D01*
X3368000Y14930D01*
X3367000Y13930D01*
X3366000Y12930D01*
X3365000Y12930D01*
X3364000Y11930D01*
X3363000Y11930D01*
X3362000Y11930D01*
X3361000Y10930D01*
X3360000Y10930D01*
X3359000Y9930D01*
X3358000Y9930D01*
X3357000Y8930D01*
X3356000Y8930D01*
X3355000Y8930D01*
X3354000Y7930D01*
X3353000Y7930D01*
X3352000Y7930D01*
X3351000Y6930D01*
X3350000Y6930D01*
X3349000Y6930D01*
X3348000Y5930D01*
X3347000Y5930D01*
X3346000Y5930D01*
X3345000Y5930D01*
X3344000Y4930D01*
X3343000Y4930D01*
X3342000Y4930D01*
X3341000Y4930D01*
X3340000Y3930D01*
X3339000Y3930D01*
X3338000Y3930D01*
X3337000Y3930D01*
X3336000Y3930D01*
X3335000Y2930D01*
X3334000Y2930D01*
X3333000Y2930D01*
X3332000Y2930D01*
X3331000Y2930D01*
X3330000Y2930D01*
X3329000Y2930D01*
X3328000Y2930D01*
X3327000Y1930D01*
X3326000Y1930D01*
X3325000Y1930D01*
X3324000Y1930D01*
X3323000Y1930D01*
X3322000Y1930D01*
X3321000Y1930D01*
X3320000Y1930D01*
X3319000Y1930D01*
X3318000Y1930D01*
X3317000Y1930D01*
X3316000Y1930D01*
X3315000Y1930D01*
X3314000Y1930D01*
X3313000Y1930D01*
X3312000Y1930D01*
X3311000Y1930D01*
X3310000Y1930D01*
X3309000Y1930D01*
X3308000Y1930D01*
X3307000Y1930D01*
X3306000Y1930D01*
X3305000Y1930D01*
X3304000Y1930D01*
X3303000Y1930D01*
X3302000Y1930D01*
X3301000Y1930D01*
X3300000Y1930D01*
X3299000Y1930D01*
X3298000Y1930D01*
X3297000Y1930D01*
X3296000Y1930D01*
X3295000Y1930D01*
X3294000Y1930D01*
X3293000Y1930D01*
X3292000Y1930D01*
X3291000Y1930D01*
X3290000Y1930D01*
X3289000Y1930D01*
X3288000Y1930D01*
X3287000Y1930D01*
X3286000Y1930D01*
X3285000Y1930D01*
X3284000Y1930D01*
X3283000Y1930D01*
X3282000Y1930D01*
X3281000Y1930D01*
X3280000Y1930D01*
X3279000Y1930D01*
X3278000Y1930D01*
X3277000Y1930D01*
X3276000Y1930D01*
X3275000Y1930D01*
X3274000Y1930D01*
X3273000Y1930D01*
X3272000Y1930D01*
X3271000Y1930D01*
X3270000Y1930D01*
X3269000Y1930D01*
X3268000Y1930D01*
X3267000Y1930D01*
X3266000Y1930D01*
X3265000Y1930D01*
X3264000Y1930D01*
X3263000Y1930D01*
X3262000Y1930D01*
X3261000Y1930D01*
X3260000Y1930D01*
X3259000Y1930D01*
X3258000Y1930D01*
X3257000Y1930D01*
X3256000Y1930D01*
X3255000Y1930D01*
X3254000Y1930D01*
X3253000Y1930D01*
X3252000Y1930D01*
X3251000Y1930D01*
X3250000Y1930D01*
X3249000Y1930D01*
X3248000Y1930D01*
X3247000Y1930D01*
X3246000Y1930D01*
X3245000Y1930D01*
X3244000Y1930D01*
X3243000Y1930D01*
X3242000Y1930D01*
X3241000Y1930D01*
X3240000Y1930D01*
X3239000Y1930D01*
X3238000Y1930D01*
X3237000Y1930D01*
X3236000Y1930D01*
X3235000Y1930D01*
X3234000Y1930D01*
X3233000Y1930D01*
X3232000Y1930D01*
X3231000Y1930D01*
X3230000Y1930D01*
X3229000Y1930D01*
X3228000Y1930D01*
X3227000Y1930D01*
X3226000Y1930D01*
X3225000Y1930D01*
X3224000Y1930D01*
X3223000Y1930D01*
X3222000Y1930D01*
X3221000Y1930D01*
X3220000Y1930D01*
X3219000Y1930D01*
X3218000Y1930D01*
X3217000Y1930D01*
X3216000Y1930D01*
X3215000Y1930D01*
X3214000Y1930D01*
X3213000Y1930D01*
X3212000Y1930D01*
X3211000Y1930D01*
X3210000Y1930D01*
X3209000Y1930D01*
X3208000Y1930D01*
X3207000Y1930D01*
X3206000Y1930D01*
X3205000Y1930D01*
X3204000Y1930D01*
X3203000Y1930D01*
X3202000Y1930D01*
X3201000Y1930D01*
X3200000Y1930D01*
X3199000Y1930D01*
X3198000Y1930D01*
X3197000Y1930D01*
X3196000Y1930D01*
X3195000Y1930D01*
X3194000Y1930D01*
X3193000Y1930D01*
X3192000Y1930D01*
X3191000Y1930D01*
X3190000Y1930D01*
X3189000Y1930D01*
X3188000Y1930D01*
X3187000Y1930D01*
X3186000Y1930D01*
X3185000Y1930D01*
X3184000Y1930D01*
X3183000Y1930D01*
X3182000Y1930D01*
X3181000Y1930D01*
X3180000Y1930D01*
X3179000Y1930D01*
X3178000Y1930D01*
X3177000Y1930D01*
X3176000Y1930D01*
X3175000Y1930D01*
X3174000Y1930D01*
X3173000Y1930D01*
X3172000Y1930D01*
X3171000Y1930D01*
X3170000Y1930D01*
X3169000Y1930D01*
X3168000Y1930D01*
X3167000Y1930D01*
X3166000Y1930D01*
X3165000Y1930D01*
X3164000Y1930D01*
X3163000Y1930D01*
X3162000Y1930D01*
X3161000Y1930D01*
X3160000Y1930D01*
X3159000Y1930D01*
X3158000Y1930D01*
X3157000Y1930D01*
X3156000Y1930D01*
X3155000Y1930D01*
X3154000Y1930D01*
X3153000Y1930D01*
X3152000Y1930D01*
X3151000Y1930D01*
X3150000Y1930D01*
X3149000Y1930D01*
X3148000Y1930D01*
X3147000Y1930D01*
X3146000Y1930D01*
X3145000Y1930D01*
X3144000Y1930D01*
X3143000Y1930D01*
X3142000Y1930D01*
X3141000Y1930D01*
X3140000Y1930D01*
X3139000Y1930D01*
X3138000Y1930D01*
X3137000Y1930D01*
X3136000Y1930D01*
X3135000Y1930D01*
X3134000Y1930D01*
X3133000Y1930D01*
X3132000Y1930D01*
X3131000Y1930D01*
X3130000Y1930D01*
X3129000Y1930D01*
X3128000Y1930D01*
X3127000Y1930D01*
X3126000Y1930D01*
X3125000Y1930D01*
X3124000Y1930D01*
X3123000Y1930D01*
X3122000Y1930D01*
X3121000Y1930D01*
X3120000Y1930D01*
X3119000Y1930D01*
X3118000Y1930D01*
X3117000Y1930D01*
X3116000Y1930D01*
X3115000Y1930D01*
X3114000Y1930D01*
X3113000Y1930D01*
X3112000Y1930D01*
X3111000Y1930D01*
X3110000Y1930D01*
X3109000Y1930D01*
X3108000Y1930D01*
X3107000Y1930D01*
X3106000Y1930D01*
X3105000Y1930D01*
X3104000Y1930D01*
X3103000Y1930D01*
X3102000Y1930D01*
X3101000Y1930D01*
X3100000Y1930D01*
X3099000Y1930D01*
X3098000Y1930D01*
X3097000Y1930D01*
X3096000Y1930D01*
X3095000Y1930D01*
X3094000Y1930D01*
X3093000Y1930D01*
X3092000Y1930D01*
X3091000Y1930D01*
X3090000Y1930D01*
X3089000Y1930D01*
X3088000Y1930D01*
X3087000Y1930D01*
X3086000Y1930D01*
X3085000Y1930D01*
X3084000Y1930D01*
X3083000Y1930D01*
X3082000Y1930D01*
X3081000Y1930D01*
X3080000Y1930D01*
X3079000Y1930D01*
X3078000Y1930D01*
X3077000Y1930D01*
X3076000Y1930D01*
X3075000Y1930D01*
X3074000Y1930D01*
X3073000Y1930D01*
X3072000Y1930D01*
X3071000Y1930D01*
X3070000Y1930D01*
X3069000Y1930D01*
X3068000Y1930D01*
X3067000Y1930D01*
X3066000Y1930D01*
X3065000Y1930D01*
X3064000Y1930D01*
X3063000Y1930D01*
X3062000Y1930D01*
X3061000Y1930D01*
X3060000Y1930D01*
X3059000Y1930D01*
X3058000Y1930D01*
X3057000Y1930D01*
X3056000Y1930D01*
X3055000Y1930D01*
X3054000Y1930D01*
X3053000Y1930D01*
X3052000Y1930D01*
X3051000Y1930D01*
X3050000Y1930D01*
X3049000Y1930D01*
X3048000Y1930D01*
X3047000Y1930D01*
X3046000Y1930D01*
X3045000Y1930D01*
X3044000Y1930D01*
X3043000Y1930D01*
X3042000Y1930D01*
X3041000Y1930D01*
X3040000Y1930D01*
X3039000Y1930D01*
X3038000Y1930D01*
X3037000Y1930D01*
X3036000Y1930D01*
X3035000Y1930D01*
X3034000Y1930D01*
X3033000Y1930D01*
X3032000Y1930D01*
X3031000Y1930D01*
X3030000Y1930D01*
X3029000Y1930D01*
X3028000Y1930D01*
X3027000Y1930D01*
X3026000Y1930D01*
X3025000Y1930D01*
X3024000Y1930D01*
X3023000Y1930D01*
X3022000Y1930D01*
X3021000Y1930D01*
X3020000Y1930D01*
X3019000Y1930D01*
X3018000Y1930D01*
X3017000Y1930D01*
X3016000Y1930D01*
X3015000Y1930D01*
X3014000Y1930D01*
X3013000Y1930D01*
X3012000Y1930D01*
X3011000Y1930D01*
X3010000Y1930D01*
X3009000Y1930D01*
X3008000Y1930D01*
X3007000Y1930D01*
X3006000Y1930D01*
X3005000Y1930D01*
X3004000Y1930D01*
X3003000Y1930D01*
X3002000Y1930D01*
X3001000Y1930D01*
X3000000Y1930D01*
X2999000Y1930D01*
X2998000Y1930D01*
X2997000Y1930D01*
X2996000Y1930D01*
X2995000Y1930D01*
X2994000Y1930D01*
X2993000Y1930D01*
X2992000Y1930D01*
X2991000Y1930D01*
X2990000Y1930D01*
X2989000Y1930D01*
X2988000Y1930D01*
X2987000Y1930D01*
X2986000Y1930D01*
X2985000Y1930D01*
X2984000Y1930D01*
X2983000Y1930D01*
X2982000Y1930D01*
X2981000Y1930D01*
X2980000Y1930D01*
X2979000Y1930D01*
X2978000Y1930D01*
X2977000Y1930D01*
X2976000Y1930D01*
X2975000Y1930D01*
X2974000Y1930D01*
X2973000Y1930D01*
X2972000Y1930D01*
X2971000Y1930D01*
X2970000Y1930D01*
X2969000Y1930D01*
X2968000Y1930D01*
X2967000Y1930D01*
X2966000Y1930D01*
X2965000Y1930D01*
X2964000Y1930D01*
X2963000Y1930D01*
X2962000Y1930D01*
X2961000Y1930D01*
X2960000Y1930D01*
X2959000Y1930D01*
X2958000Y1930D01*
X2957000Y1930D01*
X2956000Y1930D01*
X2955000Y1930D01*
X2954000Y1930D01*
X2953000Y1930D01*
X2952000Y1930D01*
X2951000Y1930D01*
X2950000Y1930D01*
X2949000Y1930D01*
X2948000Y1930D01*
X2947000Y1930D01*
X2946000Y1930D01*
X2945000Y1930D01*
X2944000Y1930D01*
X2943000Y1930D01*
X2942000Y1930D01*
X2941000Y1930D01*
X2940000Y1930D01*
X2939000Y1930D01*
X2938000Y1930D01*
X2937000Y1930D01*
X2936000Y1930D01*
X2935000Y1930D01*
X2934000Y1930D01*
X2933000Y1930D01*
X2932000Y1930D01*
X2931000Y1930D01*
X2930000Y1930D01*
X2929000Y1930D01*
X2928000Y1930D01*
X2927000Y1930D01*
X2926000Y1930D01*
X2925000Y1930D01*
X2924000Y1930D01*
X2923000Y1930D01*
X2922000Y1930D01*
X2921000Y1930D01*
X2920000Y1930D01*
X2919000Y1930D01*
X2918000Y1930D01*
X2917000Y1930D01*
X2916000Y1930D01*
X2915000Y1930D01*
X2914000Y1930D01*
X2913000Y1930D01*
X2912000Y1930D01*
X2911000Y1930D01*
X2910000Y1930D01*
X2909000Y1930D01*
X2908000Y1930D01*
X2907000Y1930D01*
X2906000Y1930D01*
X2905000Y1930D01*
X2904000Y1930D01*
X2903000Y1930D01*
X2902000Y1930D01*
X2901000Y1930D01*
X2900000Y1930D01*
X2899000Y1930D01*
X2898000Y1930D01*
X2897000Y1930D01*
X2896000Y1930D01*
X2895000Y1930D01*
X2894000Y1930D01*
X2893000Y1930D01*
X2892000Y1930D01*
X2891000Y1930D01*
X2890000Y1930D01*
X2889000Y1930D01*
X2888000Y1930D01*
X2887000Y1930D01*
X2886000Y1930D01*
X2885000Y1930D01*
X2884000Y1930D01*
X2883000Y1930D01*
X2882000Y1930D01*
X2881000Y1930D01*
X2880000Y1930D01*
X2879000Y1930D01*
X2878000Y1930D01*
X2877000Y1930D01*
X2876000Y1930D01*
X2875000Y1930D01*
X2874000Y1930D01*
X2873000Y1930D01*
X2872000Y1930D01*
X2871000Y1930D01*
X2870000Y1930D01*
X2869000Y1930D01*
X2868000Y1930D01*
X2867000Y1930D01*
X2866000Y1930D01*
X2865000Y1930D01*
X2864000Y1930D01*
X2863000Y1930D01*
X2862000Y1930D01*
X2861000Y1930D01*
X2860000Y1930D01*
X2859000Y1930D01*
X2858000Y1930D01*
X2857000Y1930D01*
X2856000Y1930D01*
X2855000Y1930D01*
X2854000Y1930D01*
X2853000Y1930D01*
X2852000Y1930D01*
X2851000Y1930D01*
X2850000Y1930D01*
X2849000Y1930D01*
X2848000Y1930D01*
X2847000Y1930D01*
X2846000Y1930D01*
X2845000Y1930D01*
X2844000Y1930D01*
X2843000Y1930D01*
X2842000Y1930D01*
X2841000Y1930D01*
X2840000Y1930D01*
X2839000Y1930D01*
X2838000Y1930D01*
X2837000Y1930D01*
X2836000Y1930D01*
X2835000Y1930D01*
X2834000Y1930D01*
X2833000Y1930D01*
X2832000Y1930D01*
X2831000Y1930D01*
X2830000Y1930D01*
X2829000Y1930D01*
X2828000Y1930D01*
X2827000Y1930D01*
X2826000Y1930D01*
X2825000Y1930D01*
X2824000Y1930D01*
X2823000Y1930D01*
X2822000Y1930D01*
X2821000Y1930D01*
X2820000Y1930D01*
X2819000Y1930D01*
X2818000Y1930D01*
X2817000Y1930D01*
X2816000Y1930D01*
X2815000Y1930D01*
X2814000Y1930D01*
X2813000Y1930D01*
X2812000Y1930D01*
X2811000Y1930D01*
X2810000Y1930D01*
X2809000Y1930D01*
X2808000Y1930D01*
X2807000Y1930D01*
X2806000Y1930D01*
X2805000Y1930D01*
X2804000Y1930D01*
X2803000Y1930D01*
X2802000Y1930D01*
X2801000Y1930D01*
X2800000Y1930D01*
X2799000Y1930D01*
X2798000Y1930D01*
X2797000Y1930D01*
X2796000Y1930D01*
X2795000Y1930D01*
X2794000Y1930D01*
X2793000Y1930D01*
X2792000Y1930D01*
X2791000Y1930D01*
X2790000Y1930D01*
X2789000Y1930D01*
X2788000Y1930D01*
X2787000Y1930D01*
X2786000Y1930D01*
X2785000Y1930D01*
X2784000Y1930D01*
X2783000Y1930D01*
X2782000Y1930D01*
X2781000Y1930D01*
X2780000Y1930D01*
X2779000Y1930D01*
X2778000Y1930D01*
X2777000Y1930D01*
X2776000Y1930D01*
X2775000Y1930D01*
X2774000Y1930D01*
X2773000Y1930D01*
X2772000Y1930D01*
X2771000Y1930D01*
X2770000Y1930D01*
X2769000Y1930D01*
X2768000Y1930D01*
X2767000Y1930D01*
X2766000Y1930D01*
X2765000Y1930D01*
X2764000Y1930D01*
X2763000Y1930D01*
X2762000Y1930D01*
X2761000Y1930D01*
X2760000Y1930D01*
X2759000Y1930D01*
X2758000Y1930D01*
X2757000Y1930D01*
X2756000Y1930D01*
X2755000Y1930D01*
X2754000Y1930D01*
X2753000Y1930D01*
X2752000Y1930D01*
X2751000Y1930D01*
X2750000Y1930D01*
X2749000Y1930D01*
X2748000Y1930D01*
X2747000Y1930D01*
X2746000Y1930D01*
X2745000Y1930D01*
X2744000Y1930D01*
X2743000Y1930D01*
X2742000Y1930D01*
X2741000Y1930D01*
X2740000Y1930D01*
X2739000Y1930D01*
X2738000Y1930D01*
X2737000Y1930D01*
X2736000Y1930D01*
X2735000Y1930D01*
X2734000Y1930D01*
X2733000Y1930D01*
X2732000Y1930D01*
X2731000Y1930D01*
X2730000Y1930D01*
X2729000Y1930D01*
X2728000Y1930D01*
X2727000Y1930D01*
X2726000Y1930D01*
X2725000Y1930D01*
X2724000Y1930D01*
X2723000Y1930D01*
X2722000Y1930D01*
X2721000Y1930D01*
X2720000Y1930D01*
X2719000Y1930D01*
X2718000Y1930D01*
X2717000Y1930D01*
X2716000Y1930D01*
X2715000Y1930D01*
X2714000Y1930D01*
X2713000Y1930D01*
X2712000Y1930D01*
X2711000Y1930D01*
X2710000Y1930D01*
X2709000Y1930D01*
X2708000Y1930D01*
X2707000Y1930D01*
X2706000Y1930D01*
X2705000Y1930D01*
X2704000Y1930D01*
X2703000Y1930D01*
X2702000Y1930D01*
X2701000Y1930D01*
X2700000Y1930D01*
X2699000Y1930D01*
X2698000Y1930D01*
X2697000Y1930D01*
X2696000Y1930D01*
X2695000Y1930D01*
X2694000Y1930D01*
X2693000Y1930D01*
X2692000Y1930D01*
X2691000Y1930D01*
X2690000Y1930D01*
X2689000Y1930D01*
X2688000Y1930D01*
X2687000Y1930D01*
X2686000Y1930D01*
X2685000Y1930D01*
X2684000Y1930D01*
X2683000Y1930D01*
X2682000Y1930D01*
X2681000Y1930D01*
X2680000Y1930D01*
X2679000Y1930D01*
X2678000Y1930D01*
X2677000Y1930D01*
X2676000Y1930D01*
X2675000Y1930D01*
X2674000Y1930D01*
X2673000Y1930D01*
X2672000Y1930D01*
X2671000Y1930D01*
X2670000Y1930D01*
X2669000Y1930D01*
X2668000Y1930D01*
X2667000Y1930D01*
X2666000Y1930D01*
X2665000Y1930D01*
X2664000Y1930D01*
X2663000Y1930D01*
X2662000Y1930D01*
X2661000Y1930D01*
X2660000Y1930D01*
X2659000Y1930D01*
X2658000Y1930D01*
X2657000Y1930D01*
X2656000Y1930D01*
X2655000Y1930D01*
X2654000Y1930D01*
X2653000Y1930D01*
X2652000Y1930D01*
X2651000Y1930D01*
X2650000Y1930D01*
X2649000Y1930D01*
X2648000Y1930D01*
X2647000Y1930D01*
X2646000Y1930D01*
X2645000Y1930D01*
X2644000Y1930D01*
X2643000Y1930D01*
X2642000Y1930D01*
X2641000Y1930D01*
X2640000Y1930D01*
X2639000Y1930D01*
X2638000Y1930D01*
X2637000Y1930D01*
X2636000Y1930D01*
X2635000Y1930D01*
X2634000Y1930D01*
X2633000Y1930D01*
X2632000Y1930D01*
X2631000Y1930D01*
X2630000Y1930D01*
X2629000Y1930D01*
X2628000Y1930D01*
X2627000Y1930D01*
X2626000Y1930D01*
X2625000Y1930D01*
X2624000Y1930D01*
X2623000Y1930D01*
X2622000Y1930D01*
X2621000Y1930D01*
X2620000Y1930D01*
X2619000Y1930D01*
X2618000Y1930D01*
X2617000Y1930D01*
X2616000Y1930D01*
X2615000Y1930D01*
X2614000Y1930D01*
X2613000Y1930D01*
X2612000Y1930D01*
X2611000Y1930D01*
X2610000Y1930D01*
X2609000Y1930D01*
X2608000Y1930D01*
X2607000Y1930D01*
X2606000Y1930D01*
X2605000Y1930D01*
X2604000Y1930D01*
X2603000Y1930D01*
X2602000Y1930D01*
X2601000Y1930D01*
X2600000Y1930D01*
X2599000Y1930D01*
X2598000Y1930D01*
X2597000Y1930D01*
X2596000Y1930D01*
X2595000Y1930D01*
X2594000Y1930D01*
X2593000Y1930D01*
X2592000Y1930D01*
X2591000Y1930D01*
X2590000Y1930D01*
X2589000Y1930D01*
X2588000Y1930D01*
X2587000Y1930D01*
X2586000Y1930D01*
X2585000Y1930D01*
X2584000Y1930D01*
X2583000Y1930D01*
X2582000Y1930D01*
X2581000Y1930D01*
X2580000Y1930D01*
X2579000Y1930D01*
X2578000Y1930D01*
X2577000Y1930D01*
X2576000Y1930D01*
X2575000Y1930D01*
X2574000Y1930D01*
X2573000Y1930D01*
X2572000Y1930D01*
X2571000Y1930D01*
X2570000Y1930D01*
X2569000Y1930D01*
X2568000Y1930D01*
X2567000Y1930D01*
X2566000Y1930D01*
X2565000Y1930D01*
X2564000Y1930D01*
X2563000Y1930D01*
X2562000Y1930D01*
X2561000Y1930D01*
X2560000Y1930D01*
X2559000Y1930D01*
X2558000Y1930D01*
X2557000Y1930D01*
X2556000Y1930D01*
X2555000Y1930D01*
X2554000Y1930D01*
X2553000Y1930D01*
X2552000Y1930D01*
X2551000Y1930D01*
X2550000Y1930D01*
X2549000Y1930D01*
X2548000Y1930D01*
X2547000Y1930D01*
X2546000Y1930D01*
X2545000Y1930D01*
X2544000Y1930D01*
X2543000Y1930D01*
X2542000Y1930D01*
X2541000Y1930D01*
X2540000Y1930D01*
X2539000Y1930D01*
X2538000Y1930D01*
X2537000Y1930D01*
X2536000Y1930D01*
X2535000Y1930D01*
X2534000Y1930D01*
X2533000Y1930D01*
X2532000Y1930D01*
X2531000Y1930D01*
X2530000Y1930D01*
X2529000Y1930D01*
X2528000Y1930D01*
X2527000Y1930D01*
X2526000Y1930D01*
X2525000Y1930D01*
X2524000Y1930D01*
X2523000Y1930D01*
X2522000Y1930D01*
X2521000Y1930D01*
X2520000Y1930D01*
X2519000Y1930D01*
X2518000Y1930D01*
X2517000Y1930D01*
X2516000Y1930D01*
X2515000Y1930D01*
X2514000Y1930D01*
X2513000Y1930D01*
X2512000Y1930D01*
X2511000Y1930D01*
X2510000Y1930D01*
X2509000Y1930D01*
X2508000Y1930D01*
X2507000Y1930D01*
X2506000Y1930D01*
X2505000Y1930D01*
X2504000Y1930D01*
X2503000Y1930D01*
X2502000Y1930D01*
X2501000Y1930D01*
X2500000Y1930D01*
X2499000Y1930D01*
X2498000Y1930D01*
X2497000Y1930D01*
X2496000Y1930D01*
X2495000Y1930D01*
X2494000Y1930D01*
X2493000Y1930D01*
X2492000Y1930D01*
X2491000Y1930D01*
X2490000Y1930D01*
X2489000Y1930D01*
X2488000Y1930D01*
X2487000Y1930D01*
X2486000Y1930D01*
X2485000Y1930D01*
X2484000Y1930D01*
X2483000Y1930D01*
X2482000Y1930D01*
X2481000Y1930D01*
X2480000Y1930D01*
X2479000Y1930D01*
X2478000Y1930D01*
X2477000Y1930D01*
X2476000Y1930D01*
X2475000Y1930D01*
X2474000Y1930D01*
X2473000Y1930D01*
X2472000Y1930D01*
X2471000Y1930D01*
X2470000Y1930D01*
X2469000Y1930D01*
X2468000Y1930D01*
X2467000Y1930D01*
X2466000Y1930D01*
X2465000Y1930D01*
X2464000Y1930D01*
X2463000Y1930D01*
X2462000Y1930D01*
X2461000Y1930D01*
X2460000Y1930D01*
X2459000Y1930D01*
X2458000Y1930D01*
X2457000Y1930D01*
X2456000Y1930D01*
X2455000Y1930D01*
X2454000Y1930D01*
X2453000Y1930D01*
X2452000Y1930D01*
X2451000Y1930D01*
X2450000Y1930D01*
X2449000Y1930D01*
X2448000Y1930D01*
X2447000Y1930D01*
X2446000Y1930D01*
X2445000Y1930D01*
X2444000Y1930D01*
X2443000Y1930D01*
X2442000Y1930D01*
X2441000Y1930D01*
X2440000Y1930D01*
X2439000Y1930D01*
X2438000Y1930D01*
X2437000Y1930D01*
X2436000Y1930D01*
X2435000Y1930D01*
X2434000Y1930D01*
X2433000Y1930D01*
X2432000Y1930D01*
X2431000Y1930D01*
X2430000Y1930D01*
X2429000Y1930D01*
X2428000Y1930D01*
X2427000Y1930D01*
X2426000Y1930D01*
X2425000Y1930D01*
X2424000Y1930D01*
X2423000Y1930D01*
X2422000Y1930D01*
X2421000Y1930D01*
X2420000Y1930D01*
X2419000Y1930D01*
X2418000Y1930D01*
X2417000Y1930D01*
X2416000Y1930D01*
X2415000Y1930D01*
X2414000Y1930D01*
X2413000Y1930D01*
X2412000Y1930D01*
X2411000Y1930D01*
X2410000Y1930D01*
X2409000Y1930D01*
X2408000Y1930D01*
X2407000Y1930D01*
X2406000Y1930D01*
X2405000Y1930D01*
X2404000Y1930D01*
X2403000Y1930D01*
X2402000Y1930D01*
X2401000Y1930D01*
X2400000Y1930D01*
X2399000Y1930D01*
X2398000Y1930D01*
X2397000Y1930D01*
X2396000Y1930D01*
X2395000Y1930D01*
X2394000Y1930D01*
X2393000Y1930D01*
X2392000Y1930D01*
X2391000Y1930D01*
X2390000Y1930D01*
X2389000Y1930D01*
X2388000Y1930D01*
X2387000Y1930D01*
X2386000Y1930D01*
X2385000Y1930D01*
X2384000Y1930D01*
X2383000Y1930D01*
X2382000Y1930D01*
X2381000Y1930D01*
X2380000Y1930D01*
X2379000Y1930D01*
X2378000Y1930D01*
X2377000Y1930D01*
X2376000Y1930D01*
X2375000Y1930D01*
X2374000Y1930D01*
X2373000Y1930D01*
X2372000Y1930D01*
X2371000Y1930D01*
X2370000Y1930D01*
X2369000Y1930D01*
X2368000Y1930D01*
X2367000Y1930D01*
X2366000Y1930D01*
X2365000Y1930D01*
X2364000Y1930D01*
X2363000Y1930D01*
X2362000Y1930D01*
X2361000Y1930D01*
X2360000Y1930D01*
X2359000Y1930D01*
X2358000Y1930D01*
X2357000Y1930D01*
X2356000Y1930D01*
X2355000Y1930D01*
X2354000Y1930D01*
X2353000Y1930D01*
X2352000Y1930D01*
X2351000Y1930D01*
X2350000Y1930D01*
X2349000Y1930D01*
X2348000Y1930D01*
X2347000Y1930D01*
X2346000Y1930D01*
X2345000Y1930D01*
X2344000Y1930D01*
X2343000Y1930D01*
X2342000Y1930D01*
X2341000Y1930D01*
X2340000Y1930D01*
X2339000Y1930D01*
X2338000Y1930D01*
X2337000Y1930D01*
X2336000Y1930D01*
X2335000Y1930D01*
X2334000Y1930D01*
X2333000Y1930D01*
X2332000Y1930D01*
X2331000Y1930D01*
X2330000Y1930D01*
X2329000Y1930D01*
X2328000Y1930D01*
X2327000Y1930D01*
X2326000Y1930D01*
X2325000Y1930D01*
X2324000Y1930D01*
X2323000Y1930D01*
X2322000Y1930D01*
X2321000Y1930D01*
X2320000Y1930D01*
X2319000Y1930D01*
X2318000Y1930D01*
X2317000Y1930D01*
X2316000Y1930D01*
X2315000Y1930D01*
X2314000Y1930D01*
X2313000Y1930D01*
X2312000Y1930D01*
X2311000Y1930D01*
X2310000Y1930D01*
X2309000Y1930D01*
X2308000Y1930D01*
X2307000Y1930D01*
X2306000Y1930D01*
X2305000Y1930D01*
X2304000Y1930D01*
X2303000Y1930D01*
X2302000Y1930D01*
X2301000Y1930D01*
X2300000Y1930D01*
X2299000Y1930D01*
X2298000Y1930D01*
X2297000Y1930D01*
X2296000Y1930D01*
X2295000Y1930D01*
X2294000Y1930D01*
X2293000Y1930D01*
X2292000Y1930D01*
X2291000Y1930D01*
X2290000Y1930D01*
X2289000Y1930D01*
X2288000Y1930D01*
X2287000Y1930D01*
X2286000Y1930D01*
X2285000Y1930D01*
X2284000Y1930D01*
X2283000Y1930D01*
X2282000Y1930D01*
X2281000Y1930D01*
X2280000Y1930D01*
X2279000Y1930D01*
X2278000Y1930D01*
X2277000Y1930D01*
X2276000Y1930D01*
X2275000Y1930D01*
X2274000Y1930D01*
X2273000Y1930D01*
X2272000Y1930D01*
X2271000Y1930D01*
X2270000Y1930D01*
X2269000Y1930D01*
X2268000Y1930D01*
X2267000Y1930D01*
X2266000Y1930D01*
X2265000Y1930D01*
X2264000Y1930D01*
X2263000Y1930D01*
X2262000Y1930D01*
X2261000Y1930D01*
X2260000Y1930D01*
X2259000Y1930D01*
X2258000Y1930D01*
X2257000Y1930D01*
X2256000Y1930D01*
X2255000Y1930D01*
X2254000Y1930D01*
X2253000Y1930D01*
X2252000Y1930D01*
X2251000Y1930D01*
X2250000Y1930D01*
X2249000Y1930D01*
X2248000Y1930D01*
X2247000Y1930D01*
X2246000Y1930D01*
X2245000Y1930D01*
X2244000Y1930D01*
X2243000Y1930D01*
X2242000Y1930D01*
X2241000Y1930D01*
X2240000Y1930D01*
X2239000Y1930D01*
X2238000Y1930D01*
X2237000Y1930D01*
X2236000Y1930D01*
X2235000Y1930D01*
X2234000Y1930D01*
X2233000Y1930D01*
X2232000Y1930D01*
X2231000Y1930D01*
X2230000Y1930D01*
X2229000Y1930D01*
X2228000Y1930D01*
X2227000Y1930D01*
X2226000Y1930D01*
X2225000Y1930D01*
X2224000Y1930D01*
X2223000Y1930D01*
X2222000Y1930D01*
X2221000Y1930D01*
X2220000Y1930D01*
X2219000Y1930D01*
X2218000Y1930D01*
X2217000Y1930D01*
X2216000Y1930D01*
X2215000Y1930D01*
X2214000Y1930D01*
X2213000Y1930D01*
X2212000Y1930D01*
X2211000Y1930D01*
X2210000Y1930D01*
X2209000Y1930D01*
X2208000Y1930D01*
X2207000Y1930D01*
X2206000Y1930D01*
X2205000Y1930D01*
X2204000Y1930D01*
X2203000Y1930D01*
X2202000Y1930D01*
X2201000Y1930D01*
X2200000Y1930D01*
X2199000Y1930D01*
X2198000Y1930D01*
X2197000Y1930D01*
X2196000Y1930D01*
X2195000Y1930D01*
X2194000Y1930D01*
X2193000Y1930D01*
X2192000Y1930D01*
X2191000Y1930D01*
X2190000Y1930D01*
X2189000Y1930D01*
X2188000Y1930D01*
X2187000Y1930D01*
X2186000Y1930D01*
X2185000Y1930D01*
X2184000Y1930D01*
X2183000Y1930D01*
X2182000Y1930D01*
X2181000Y1930D01*
X2180000Y1930D01*
X2179000Y1930D01*
X2178000Y1930D01*
X2177000Y1930D01*
X2176000Y1930D01*
X2175000Y1930D01*
X2174000Y1930D01*
X2173000Y1930D01*
X2172000Y1930D01*
X2171000Y1930D01*
X2170000Y1930D01*
X2169000Y1930D01*
X2168000Y1930D01*
X2167000Y1930D01*
X2166000Y1930D01*
X2165000Y1930D01*
X2164000Y1930D01*
X2163000Y1930D01*
X2162000Y1930D01*
X2161000Y1930D01*
X2160000Y1930D01*
X2159000Y1930D01*
X2158000Y1930D01*
X2157000Y1930D01*
X2156000Y1930D01*
X2155000Y1930D01*
X2154000Y1930D01*
X2153000Y1930D01*
X2152000Y1930D01*
X2151000Y1930D01*
X2150000Y1930D01*
X2149000Y1930D01*
X2148000Y1930D01*
X2147000Y1930D01*
X2146000Y1930D01*
X2145000Y1930D01*
X2144000Y1930D01*
X2143000Y1930D01*
X2142000Y1930D01*
X2141000Y1930D01*
X2140000Y1930D01*
X2139000Y1930D01*
X2138000Y1930D01*
X2137000Y1930D01*
X2136000Y1930D01*
X2135000Y1930D01*
X2134000Y1930D01*
X2133000Y1930D01*
X2132000Y1930D01*
X2131000Y1930D01*
X2130000Y1930D01*
X2129000Y1930D01*
X2128000Y1930D01*
X2127000Y1930D01*
X2126000Y1930D01*
X2125000Y1930D01*
X2124000Y1930D01*
X2123000Y1930D01*
X2122000Y1930D01*
X2121000Y1930D01*
X2120000Y1930D01*
X2119000Y1930D01*
X2118000Y1930D01*
X2117000Y1930D01*
X2116000Y1930D01*
X2115000Y1930D01*
X2114000Y1930D01*
X2113000Y1930D01*
X2112000Y1930D01*
X2111000Y1930D01*
X2110000Y1930D01*
X2109000Y1930D01*
X2108000Y1930D01*
X2107000Y1930D01*
X2106000Y1930D01*
X2105000Y1930D01*
X2104000Y1930D01*
X2103000Y1930D01*
X2102000Y1930D01*
X2101000Y1930D01*
X2100000Y1930D01*
X2099000Y1930D01*
X2098000Y1930D01*
X2097000Y1930D01*
X2096000Y1930D01*
X2095000Y1930D01*
X2094000Y1930D01*
X2093000Y1930D01*
X2092000Y1930D01*
X2091000Y1930D01*
X2090000Y1930D01*
X2089000Y1930D01*
X2088000Y1930D01*
X2087000Y1930D01*
X2086000Y1930D01*
X2085000Y1930D01*
X2084000Y1930D01*
X2083000Y1930D01*
X2082000Y1930D01*
X2081000Y1930D01*
X2080000Y1930D01*
X2079000Y1930D01*
X2078000Y1930D01*
X2077000Y1930D01*
X2076000Y1930D01*
X2075000Y1930D01*
X2074000Y1930D01*
X2073000Y1930D01*
X2072000Y1930D01*
X2071000Y1930D01*
X2070000Y1930D01*
X2069000Y1930D01*
X2068000Y1930D01*
X2067000Y1930D01*
X2066000Y1930D01*
X2065000Y1930D01*
X2064000Y1930D01*
X2063000Y1930D01*
X2062000Y1930D01*
X2061000Y1930D01*
X2060000Y1930D01*
X2059000Y1930D01*
X2058000Y1930D01*
X2057000Y1930D01*
X2056000Y1930D01*
X2055000Y1930D01*
X2054000Y1930D01*
X2053000Y1930D01*
X2052000Y1930D01*
X2051000Y1930D01*
X2050000Y1930D01*
X2049000Y1930D01*
X2048000Y1930D01*
X2047000Y1930D01*
X2046000Y1930D01*
X2045000Y1930D01*
X2044000Y1930D01*
X2043000Y1930D01*
X2042000Y1930D01*
X2041000Y1930D01*
X2040000Y1930D01*
X2039000Y1930D01*
X2038000Y1930D01*
X2037000Y1930D01*
X2036000Y1930D01*
X2035000Y1930D01*
X2034000Y1930D01*
X2033000Y1930D01*
X2032000Y1930D01*
X2031000Y1930D01*
X2030000Y1930D01*
X2029000Y1930D01*
X2028000Y1930D01*
X2027000Y1930D01*
X2026000Y1930D01*
X2025000Y1930D01*
X2024000Y1930D01*
X2023000Y1930D01*
X2022000Y1930D01*
X2021000Y1930D01*
X2020000Y1930D01*
X2019000Y1930D01*
X2018000Y1930D01*
X2017000Y1930D01*
X2016000Y1930D01*
X2015000Y1930D01*
X2014000Y1930D01*
X2013000Y1930D01*
X2012000Y1930D01*
X2011000Y1930D01*
X2010000Y1930D01*
X2009000Y1930D01*
X2008000Y1930D01*
X2007000Y1930D01*
X2006000Y1930D01*
X2005000Y1930D01*
X2004000Y1930D01*
X2003000Y1930D01*
X2002000Y1930D01*
X2001000Y1930D01*
X2000000Y1930D01*
X1999000Y1930D01*
X1998000Y1930D01*
X1997000Y1930D01*
X1996000Y1930D01*
X1995000Y1930D01*
X1994000Y1930D01*
X1993000Y1930D01*
X1992000Y1930D01*
X1991000Y1930D01*
X1990000Y1930D01*
X1989000Y1930D01*
X1988000Y1930D01*
X1987000Y1930D01*
X1986000Y1930D01*
X1985000Y1930D01*
X1984000Y1930D01*
X1983000Y1930D01*
X1982000Y1930D01*
X1981000Y1930D01*
X1980000Y1930D01*
X1979000Y1930D01*
X1978000Y1930D01*
X1977000Y1930D01*
X1976000Y1930D01*
X1975000Y1930D01*
X1974000Y1930D01*
X1973000Y1930D01*
X1972000Y1930D01*
X1971000Y1930D01*
X1970000Y1930D01*
X1969000Y1930D01*
X1968000Y1930D01*
X1967000Y1930D01*
X1966000Y1930D01*
X1965000Y1930D01*
X1964000Y1930D01*
X1963000Y1930D01*
X1962000Y1930D01*
X1961000Y1930D01*
X1960000Y1930D01*
X1959000Y1930D01*
X1958000Y1930D01*
X1957000Y1930D01*
X1956000Y1930D01*
X1955000Y1930D01*
X1954000Y1930D01*
X1953000Y1930D01*
X1952000Y1930D01*
X1951000Y1930D01*
X1950000Y1930D01*
X1949000Y1930D01*
X1948000Y1930D01*
X1947000Y1930D01*
X1946000Y1930D01*
X1945000Y1930D01*
X1944000Y1930D01*
X1943000Y1930D01*
X1942000Y1930D01*
X1941000Y1930D01*
X1940000Y1930D01*
X1939000Y1930D01*
X1938000Y1930D01*
X1937000Y1930D01*
X1936000Y1930D01*
X1935000Y1930D01*
X1934000Y1930D01*
X1933000Y1930D01*
X1932000Y1930D01*
X1931000Y1930D01*
X1930000Y1930D01*
X1929000Y1930D01*
X1928000Y1930D01*
X1927000Y1930D01*
X1926000Y1930D01*
X1925000Y1930D01*
X1924000Y1930D01*
X1923000Y1930D01*
X1922000Y1930D01*
X1921000Y1930D01*
X1920000Y1930D01*
X1919000Y1930D01*
X1918000Y1930D01*
X1917000Y1930D01*
X1916000Y1930D01*
X1915000Y1930D01*
X1914000Y1930D01*
X1913000Y1930D01*
X1912000Y1930D01*
X1911000Y1930D01*
X1910000Y1930D01*
X1909000Y1930D01*
X1908000Y1930D01*
X1907000Y1930D01*
X1906000Y1930D01*
X1905000Y1930D01*
X1904000Y1930D01*
X1903000Y1930D01*
X1902000Y1930D01*
X1901000Y1930D01*
X1900000Y1930D01*
X1899000Y1930D01*
X1898000Y1930D01*
X1897000Y1930D01*
X1896000Y1930D01*
X1895000Y1930D01*
X1894000Y1930D01*
X1893000Y1930D01*
X1892000Y1930D01*
X1891000Y1930D01*
X1890000Y1930D01*
X1889000Y1930D01*
X1888000Y1930D01*
X1887000Y1930D01*
X1886000Y1930D01*
X1885000Y1930D01*
X1884000Y1930D01*
X1883000Y1930D01*
X1882000Y1930D01*
X1881000Y1930D01*
X1880000Y1930D01*
X1879000Y1930D01*
X1878000Y1930D01*
X1877000Y1930D01*
X1876000Y1930D01*
X1875000Y1930D01*
X1874000Y1930D01*
X1873000Y1930D01*
X1872000Y1930D01*
X1871000Y1930D01*
X1870000Y1930D01*
X1869000Y1930D01*
X1868000Y1930D01*
X1867000Y1930D01*
X1866000Y1930D01*
X1865000Y1930D01*
X1864000Y1930D01*
X1863000Y1930D01*
X1862000Y1930D01*
X1861000Y1930D01*
X1860000Y1930D01*
X1859000Y1930D01*
X1858000Y1930D01*
X1857000Y1930D01*
X1856000Y1930D01*
X1855000Y1930D01*
X1854000Y1930D01*
X1853000Y1930D01*
X1852000Y1930D01*
X1851000Y1930D01*
X1850000Y1930D01*
X1849000Y1930D01*
X1848000Y1930D01*
X1847000Y1930D01*
X1846000Y1930D01*
X1845000Y1930D01*
X1844000Y1930D01*
X1843000Y1930D01*
X1842000Y1930D01*
X1841000Y1930D01*
X1840000Y1930D01*
X1839000Y1930D01*
X1838000Y1930D01*
X1837000Y1930D01*
X1836000Y1930D01*
X1835000Y1930D01*
X1834000Y1930D01*
X1833000Y1930D01*
X1832000Y1930D01*
X1831000Y1930D01*
X1830000Y1930D01*
X1829000Y1930D01*
X1828000Y1930D01*
X1827000Y1930D01*
X1826000Y1930D01*
X1825000Y1930D01*
X1824000Y1930D01*
X1823000Y1930D01*
X1822000Y1930D01*
X1821000Y1930D01*
X1820000Y1930D01*
X1819000Y1930D01*
X1818000Y1930D01*
X1817000Y1930D01*
X1816000Y1930D01*
X1815000Y1930D01*
X1814000Y1930D01*
X1813000Y1930D01*
X1812000Y1930D01*
X1811000Y1930D01*
X1810000Y1930D01*
X1809000Y1930D01*
X1808000Y1930D01*
X1807000Y1930D01*
X1806000Y1930D01*
X1805000Y1930D01*
X1804000Y1930D01*
X1803000Y1930D01*
X1802000Y1930D01*
X1801000Y1930D01*
X1800000Y1930D01*
X1799000Y1930D01*
X1798000Y1930D01*
X1797000Y1930D01*
X1796000Y1930D01*
X1795000Y1930D01*
X1794000Y1930D01*
X1793000Y1930D01*
X1792000Y1930D01*
X1791000Y1930D01*
X1790000Y1930D01*
X1789000Y1930D01*
X1788000Y1930D01*
X1787000Y1930D01*
X1786000Y1930D01*
X1785000Y1930D01*
X1784000Y1930D01*
X1783000Y1930D01*
X1782000Y1930D01*
X1781000Y1930D01*
X1780000Y1930D01*
X1779000Y1930D01*
X1778000Y1930D01*
X1777000Y1930D01*
X1776000Y1930D01*
X1775000Y1930D01*
X1774000Y1930D01*
X1773000Y1930D01*
X1772000Y1930D01*
X1771000Y1930D01*
X1770000Y1930D01*
X1769000Y1930D01*
X1768000Y1930D01*
X1767000Y1930D01*
X1766000Y1930D01*
X1765000Y1930D01*
X1764000Y1930D01*
X1763000Y1930D01*
X1762000Y1930D01*
X1761000Y1930D01*
X1760000Y1930D01*
X1759000Y1930D01*
X1758000Y1930D01*
X1757000Y1930D01*
X1756000Y1930D01*
X1755000Y1930D01*
X1754000Y1930D01*
X1753000Y1930D01*
X1752000Y1930D01*
X1751000Y1930D01*
X1750000Y1930D01*
X1749000Y1930D01*
X1748000Y1930D01*
X1747000Y1930D01*
X1746000Y1930D01*
X1745000Y1930D01*
X1744000Y1930D01*
X1743000Y1930D01*
X1742000Y1930D01*
X1741000Y1930D01*
X1740000Y1930D01*
X1739000Y1930D01*
X1738000Y1930D01*
X1737000Y1930D01*
X1736000Y1930D01*
X1735000Y1930D01*
X1734000Y1930D01*
X1733000Y1930D01*
X1732000Y1930D01*
X1731000Y1930D01*
X1730000Y1930D01*
X1729000Y1930D01*
X1728000Y1930D01*
X1727000Y1930D01*
X1726000Y1930D01*
X1725000Y1930D01*
X1724000Y1930D01*
X1723000Y1930D01*
X1722000Y1930D01*
X1721000Y1930D01*
X1720000Y1930D01*
X1719000Y1930D01*
X1718000Y1930D01*
X1717000Y1930D01*
X1716000Y1930D01*
X1715000Y1930D01*
X1714000Y1930D01*
X1713000Y1930D01*
X1712000Y1930D01*
X1711000Y1930D01*
X1710000Y1930D01*
X1709000Y1930D01*
X1708000Y1930D01*
X1707000Y1930D01*
X1706000Y1930D01*
X1705000Y1930D01*
X1704000Y1930D01*
X1703000Y1930D01*
X1702000Y1930D01*
X1701000Y1930D01*
X1700000Y1930D01*
X1699000Y1930D01*
X1698000Y1930D01*
X1697000Y1930D01*
X1696000Y1930D01*
X1695000Y1930D01*
X1694000Y1930D01*
X1693000Y1930D01*
X1692000Y1930D01*
X1691000Y1930D01*
X1690000Y1930D01*
X1689000Y1930D01*
X1688000Y1930D01*
X1687000Y1930D01*
X1686000Y1930D01*
X1685000Y1930D01*
X1684000Y1930D01*
X1683000Y1930D01*
X1682000Y1930D01*
X1681000Y1930D01*
X1680000Y1930D01*
X1679000Y1930D01*
X1678000Y1930D01*
X1677000Y1930D01*
X1676000Y1930D01*
X1675000Y1930D01*
X1674000Y1930D01*
X1673000Y1930D01*
X1672000Y1930D01*
X1671000Y1930D01*
X1670000Y1930D01*
X1669000Y1930D01*
X1668000Y1930D01*
X1667000Y1930D01*
X1666000Y1930D01*
X1665000Y1930D01*
X1664000Y1930D01*
X1663000Y1930D01*
X1662000Y1930D01*
X1661000Y1930D01*
X1660000Y1930D01*
X1659000Y1930D01*
X1658000Y1930D01*
X1657000Y1930D01*
X1656000Y1930D01*
X1655000Y1930D01*
X1654000Y1930D01*
X1653000Y1930D01*
X1652000Y1930D01*
X1651000Y1930D01*
X1650000Y1930D01*
X1649000Y1930D01*
X1648000Y1930D01*
X1647000Y1930D01*
X1646000Y1930D01*
X1645000Y1930D01*
X1644000Y1930D01*
X1643000Y1930D01*
X1642000Y1930D01*
X1641000Y1930D01*
X1640000Y1930D01*
X1639000Y1930D01*
X1638000Y1930D01*
X1637000Y1930D01*
X1636000Y1930D01*
X1635000Y1930D01*
X1634000Y1930D01*
X1633000Y1930D01*
X1632000Y1930D01*
X1631000Y1930D01*
X1630000Y1930D01*
X1629000Y1930D01*
X1628000Y1930D01*
X1627000Y1930D01*
X1626000Y1930D01*
X1625000Y1930D01*
X1624000Y1930D01*
X1623000Y1930D01*
X1622000Y1930D01*
X1621000Y1930D01*
X1620000Y1930D01*
X1619000Y1930D01*
X1618000Y1930D01*
X1617000Y1930D01*
X1616000Y1930D01*
X1615000Y1930D01*
X1614000Y1930D01*
X1613000Y1930D01*
X1612000Y1930D01*
X1611000Y1930D01*
X1610000Y1930D01*
X1609000Y1930D01*
X1608000Y1930D01*
X1607000Y1930D01*
X1606000Y1930D01*
X1605000Y1930D01*
X1604000Y1930D01*
X1603000Y1930D01*
X1602000Y1930D01*
X1601000Y1930D01*
X1600000Y1930D01*
X1599000Y1930D01*
X1598000Y1930D01*
X1597000Y1930D01*
X1596000Y1930D01*
X1595000Y1930D01*
X1594000Y1930D01*
X1593000Y1930D01*
X1592000Y1930D01*
X1591000Y1930D01*
X1590000Y1930D01*
X1589000Y1930D01*
X1588000Y1930D01*
X1587000Y1930D01*
X1586000Y1930D01*
X1585000Y1930D01*
X1584000Y1930D01*
X1583000Y1930D01*
X1582000Y1930D01*
X1581000Y1930D01*
X1580000Y1930D01*
X1579000Y1930D01*
X1578000Y1930D01*
X1577000Y1930D01*
X1576000Y1930D01*
X1575000Y1930D01*
X1574000Y1930D01*
X1573000Y1930D01*
X1572000Y1930D01*
X1571000Y1930D01*
X1570000Y1930D01*
X1569000Y1930D01*
X1568000Y1930D01*
X1567000Y1930D01*
X1566000Y1930D01*
X1565000Y1930D01*
X1564000Y1930D01*
X1563000Y1930D01*
X1562000Y1930D01*
X1561000Y1930D01*
X1560000Y1930D01*
X1559000Y1930D01*
X1558000Y1930D01*
X1557000Y1930D01*
X1556000Y1930D01*
X1555000Y1930D01*
X1554000Y1930D01*
X1553000Y1930D01*
X1552000Y1930D01*
X1551000Y1930D01*
X1550000Y1930D01*
X1549000Y1930D01*
X1548000Y1930D01*
X1547000Y1930D01*
X1546000Y1930D01*
X1545000Y1930D01*
X1544000Y1930D01*
X1543000Y1930D01*
X1542000Y1930D01*
X1541000Y1930D01*
X1540000Y1930D01*
X1539000Y1930D01*
X1538000Y1930D01*
X1537000Y1930D01*
X1536000Y1930D01*
X1535000Y1930D01*
X1534000Y1930D01*
X1533000Y1930D01*
X1532000Y1930D01*
X1531000Y1930D01*
X1530000Y1930D01*
X1529000Y1930D01*
X1528000Y1930D01*
X1527000Y1930D01*
X1526000Y1930D01*
X1525000Y1930D01*
X1524000Y1930D01*
X1523000Y1930D01*
X1522000Y1930D01*
X1521000Y1930D01*
X1520000Y1930D01*
X1519000Y1930D01*
X1518000Y1930D01*
X1517000Y1930D01*
X1516000Y1930D01*
X1515000Y1930D01*
X1514000Y1930D01*
X1513000Y1930D01*
X1512000Y1930D01*
X1511000Y1930D01*
X1510000Y1930D01*
X1509000Y1930D01*
X1508000Y1930D01*
X1507000Y1930D01*
X1506000Y1930D01*
X1505000Y1930D01*
X1504000Y1930D01*
X1503000Y1930D01*
X1502000Y1930D01*
X1501000Y1930D01*
X1500000Y1930D01*
X1499000Y1930D01*
X1498000Y1930D01*
X1497000Y1930D01*
X1496000Y1930D01*
X1495000Y1930D01*
X1494000Y1930D01*
X1493000Y1930D01*
X1492000Y1930D01*
X1491000Y1930D01*
X1490000Y1930D01*
X1489000Y1930D01*
X1488000Y1930D01*
X1487000Y1930D01*
X1486000Y1930D01*
X1485000Y1930D01*
X1484000Y1930D01*
X1483000Y1930D01*
X1482000Y1930D01*
X1481000Y1930D01*
X1480000Y1930D01*
X1479000Y1930D01*
X1478000Y1930D01*
X1477000Y1930D01*
X1476000Y1930D01*
X1475000Y1930D01*
X1474000Y1930D01*
X1473000Y1930D01*
X1472000Y1930D01*
X1471000Y1930D01*
X1470000Y1930D01*
X1469000Y1930D01*
X1468000Y1930D01*
X1467000Y1930D01*
X1466000Y1930D01*
X1465000Y1930D01*
X1464000Y1930D01*
X1463000Y1930D01*
X1462000Y1930D01*
X1461000Y1930D01*
X1460000Y1930D01*
X1459000Y1930D01*
X1458000Y1930D01*
X1457000Y1930D01*
X1456000Y1930D01*
X1455000Y1930D01*
X1454000Y1930D01*
X1453000Y1930D01*
X1452000Y1930D01*
X1451000Y1930D01*
X1450000Y1930D01*
X1449000Y1930D01*
X1448000Y1930D01*
X1447000Y1930D01*
X1446000Y1930D01*
X1445000Y1930D01*
X1444000Y1930D01*
X1443000Y1930D01*
X1442000Y1930D01*
X1441000Y1930D01*
X1440000Y1930D01*
X1439000Y1930D01*
X1438000Y1930D01*
X1437000Y1930D01*
X1436000Y1930D01*
X1435000Y1930D01*
X1434000Y1930D01*
X1433000Y1930D01*
X1432000Y1930D01*
X1431000Y1930D01*
X1430000Y1930D01*
X1429000Y1930D01*
X1428000Y1930D01*
X1427000Y1930D01*
X1426000Y1930D01*
X1425000Y1930D01*
X1424000Y1930D01*
X1423000Y1930D01*
X1422000Y1930D01*
X1421000Y1930D01*
X1420000Y1930D01*
X1419000Y1930D01*
X1418000Y1930D01*
X1417000Y1930D01*
X1416000Y1930D01*
X1415000Y1930D01*
X1414000Y1930D01*
X1413000Y1930D01*
X1412000Y1930D01*
X1411000Y1930D01*
X1410000Y1930D01*
X1409000Y1930D01*
X1408000Y1930D01*
X1407000Y1930D01*
X1406000Y1930D01*
X1405000Y1930D01*
X1404000Y1930D01*
X1403000Y1930D01*
X1402000Y1930D01*
X1401000Y1930D01*
X1400000Y1930D01*
X1399000Y1930D01*
X1398000Y1930D01*
X1397000Y1930D01*
X1396000Y1930D01*
X1395000Y1930D01*
X1394000Y1930D01*
X1393000Y1930D01*
X1392000Y1930D01*
X1391000Y1930D01*
X1390000Y1930D01*
X1389000Y1930D01*
X1388000Y1930D01*
X1387000Y1930D01*
X1386000Y1930D01*
X1385000Y1930D01*
X1384000Y1930D01*
X1383000Y1930D01*
X1382000Y1930D01*
X1381000Y1930D01*
X1380000Y1930D01*
X1379000Y1930D01*
X1378000Y1930D01*
X1377000Y1930D01*
X1376000Y1930D01*
X1375000Y1930D01*
X1374000Y1930D01*
X1373000Y1930D01*
X1372000Y1930D01*
X1371000Y1930D01*
X1370000Y1930D01*
X1369000Y1930D01*
X1368000Y1930D01*
X1367000Y1930D01*
X1366000Y1930D01*
X1365000Y1930D01*
X1364000Y1930D01*
X1363000Y1930D01*
X1362000Y1930D01*
X1361000Y1930D01*
X1360000Y1930D01*
X1359000Y1930D01*
X1358000Y1930D01*
X1357000Y1930D01*
X1356000Y1930D01*
X1355000Y1930D01*
X1354000Y1930D01*
X1353000Y1930D01*
X1352000Y1930D01*
X1351000Y1930D01*
X1350000Y1930D01*
X1349000Y1930D01*
X1348000Y1930D01*
X1347000Y1930D01*
X1346000Y1930D01*
X1345000Y1930D01*
X1344000Y1930D01*
X1343000Y1930D01*
X1342000Y1930D01*
X1341000Y1930D01*
X1340000Y1930D01*
X1339000Y1930D01*
X1338000Y1930D01*
X1337000Y1930D01*
X1336000Y1930D01*
X1335000Y1930D01*
X1334000Y1930D01*
X1333000Y1930D01*
X1332000Y1930D01*
X1331000Y1930D01*
X1330000Y1930D01*
X1329000Y1930D01*
X1328000Y1930D01*
X1327000Y1930D01*
X1326000Y1930D01*
X1325000Y1930D01*
X1324000Y1930D01*
X1323000Y1930D01*
X1322000Y1930D01*
X1321000Y1930D01*
X1320000Y1930D01*
X1319000Y1930D01*
X1318000Y1930D01*
X1317000Y1930D01*
X1316000Y1930D01*
X1315000Y1930D01*
X1314000Y1930D01*
X1313000Y1930D01*
X1312000Y1930D01*
X1311000Y1930D01*
X1310000Y1930D01*
X1309000Y1930D01*
X1308000Y1930D01*
X1307000Y1930D01*
X1306000Y1930D01*
X1305000Y1930D01*
X1304000Y1930D01*
X1303000Y1930D01*
X1302000Y1930D01*
X1301000Y1930D01*
X1300000Y1930D01*
X1299000Y1930D01*
X1298000Y1930D01*
X1297000Y1930D01*
X1296000Y1930D01*
X1295000Y1930D01*
X1294000Y1930D01*
X1293000Y1930D01*
X1292000Y1930D01*
X1291000Y1930D01*
X1290000Y1930D01*
X1289000Y1930D01*
X1288000Y1930D01*
X1287000Y1930D01*
X1286000Y1930D01*
X1285000Y1930D01*
X1284000Y1930D01*
X1283000Y1930D01*
X1282000Y1930D01*
X1281000Y1930D01*
X1280000Y1930D01*
X1279000Y1930D01*
X1278000Y1930D01*
X1277000Y1930D01*
X1276000Y1930D01*
X1275000Y1930D01*
X1274000Y1930D01*
X1273000Y1930D01*
X1272000Y1930D01*
X1271000Y1930D01*
X1270000Y1930D01*
X1269000Y1930D01*
X1268000Y1930D01*
X1267000Y1930D01*
X1266000Y1930D01*
X1265000Y1930D01*
X1264000Y1930D01*
X1263000Y1930D01*
X1262000Y1930D01*
X1261000Y1930D01*
X1260000Y1930D01*
X1259000Y1930D01*
X1258000Y1930D01*
X1257000Y1930D01*
X1256000Y1930D01*
X1255000Y1930D01*
X1254000Y1930D01*
X1253000Y1930D01*
X1252000Y1930D01*
X1251000Y1930D01*
X1250000Y1930D01*
X1249000Y1930D01*
X1248000Y1930D01*
X1247000Y1930D01*
X1246000Y1930D01*
X1245000Y1930D01*
X1244000Y1930D01*
X1243000Y1930D01*
X1242000Y1930D01*
X1241000Y1930D01*
X1240000Y1930D01*
X1239000Y1930D01*
X1238000Y1930D01*
X1237000Y1930D01*
X1236000Y1930D01*
X1235000Y1930D01*
X1234000Y1930D01*
X1233000Y1930D01*
X1232000Y1930D01*
X1231000Y1930D01*
X1230000Y1930D01*
X1229000Y1930D01*
X1228000Y1930D01*
X1227000Y1930D01*
X1226000Y1930D01*
X1225000Y1930D01*
X1224000Y1930D01*
X1223000Y1930D01*
X1222000Y1930D01*
X1221000Y1930D01*
X1220000Y1930D01*
X1219000Y1930D01*
X1218000Y1930D01*
X1217000Y1930D01*
X1216000Y1930D01*
X1215000Y1930D01*
X1214000Y1930D01*
X1213000Y1930D01*
X1212000Y1930D01*
X1211000Y1930D01*
X1210000Y1930D01*
X1209000Y1930D01*
X1208000Y1930D01*
X1207000Y1930D01*
X1206000Y1930D01*
X1205000Y1930D01*
X1204000Y1930D01*
X1203000Y1930D01*
X1202000Y1930D01*
X1201000Y1930D01*
X1200000Y1930D01*
X1199000Y1930D01*
X1198000Y1930D01*
X1197000Y1930D01*
X1196000Y1930D01*
X1195000Y1930D01*
X1194000Y1930D01*
X1193000Y1930D01*
X1192000Y1930D01*
X1191000Y1930D01*
X1190000Y1930D01*
X1189000Y1930D01*
X1188000Y1930D01*
X1187000Y1930D01*
X1186000Y1930D01*
X1185000Y1930D01*
X1184000Y1930D01*
X1183000Y1930D01*
X1182000Y1930D01*
X1181000Y1930D01*
X1180000Y1930D01*
X1179000Y1930D01*
X1178000Y1930D01*
X1177000Y1930D01*
X1176000Y1930D01*
X1175000Y1930D01*
X1174000Y1930D01*
X1173000Y1930D01*
X1172000Y1930D01*
X1171000Y1930D01*
X1170000Y1930D01*
X1169000Y1930D01*
X1168000Y1930D01*
X1167000Y1930D01*
X1166000Y1930D01*
X1165000Y1930D01*
X1164000Y1930D01*
X1163000Y1930D01*
X1162000Y1930D01*
X1161000Y1930D01*
X1160000Y1930D01*
X1159000Y1930D01*
X1158000Y1930D01*
X1157000Y1930D01*
X1156000Y1930D01*
X1155000Y1930D01*
X1154000Y1930D01*
X1153000Y1930D01*
X1152000Y1930D01*
X1151000Y1930D01*
X1150000Y1930D01*
X1149000Y1930D01*
X1148000Y1930D01*
X1147000Y1930D01*
X1146000Y1930D01*
X1145000Y1930D01*
X1144000Y1930D01*
X1143000Y1930D01*
X1142000Y1930D01*
X1141000Y1930D01*
X1140000Y1930D01*
X1139000Y1930D01*
X1138000Y1930D01*
X1137000Y1930D01*
X1136000Y1930D01*
X1135000Y1930D01*
X1134000Y1930D01*
X1133000Y1930D01*
X1132000Y1930D01*
X1131000Y1930D01*
X1130000Y1930D01*
X1129000Y1930D01*
X1128000Y1930D01*
X1127000Y1930D01*
X1126000Y1930D01*
X1125000Y1930D01*
X1124000Y1930D01*
X1123000Y1930D01*
X1122000Y1930D01*
X1121000Y1930D01*
X1120000Y1930D01*
X1119000Y1930D01*
X1118000Y1930D01*
X1117000Y1930D01*
X1116000Y1930D01*
X1115000Y1930D01*
X1114000Y1930D01*
X1113000Y1930D01*
X1112000Y1930D01*
X1111000Y1930D01*
X1110000Y1930D01*
X1109000Y1930D01*
X1108000Y1930D01*
X1107000Y1930D01*
X1106000Y1930D01*
X1105000Y1930D01*
X1104000Y1930D01*
X1103000Y1930D01*
X1102000Y1930D01*
X1101000Y1930D01*
X1100000Y1930D01*
X1099000Y1930D01*
X1098000Y1930D01*
X1097000Y1930D01*
X1096000Y1930D01*
X1095000Y1930D01*
X1094000Y1930D01*
X1093000Y1930D01*
X1092000Y1930D01*
X1091000Y1930D01*
X1090000Y1930D01*
X1089000Y1930D01*
X1088000Y1930D01*
X1087000Y1930D01*
X1086000Y1930D01*
X1085000Y1930D01*
X1084000Y1930D01*
X1083000Y1930D01*
X1082000Y1930D01*
X1081000Y1930D01*
X1080000Y1930D01*
X1079000Y1930D01*
X1078000Y1930D01*
X1077000Y1930D01*
X1076000Y1930D01*
X1075000Y1930D01*
X1074000Y1930D01*
X1073000Y1930D01*
X1072000Y1930D01*
X1071000Y1930D01*
X1070000Y1930D01*
X1069000Y1930D01*
X1068000Y1930D01*
X1067000Y1930D01*
X1066000Y1930D01*
X1065000Y1930D01*
X1064000Y1930D01*
X1063000Y1930D01*
X1062000Y1930D01*
X1061000Y1930D01*
X1060000Y1930D01*
X1059000Y1930D01*
X1058000Y1930D01*
X1057000Y1930D01*
X1056000Y1930D01*
X1055000Y1930D01*
X1054000Y1930D01*
X1053000Y1930D01*
X1052000Y1930D01*
X1051000Y1930D01*
X1050000Y1930D01*
X1049000Y1930D01*
X1048000Y1930D01*
X1047000Y1930D01*
X1046000Y1930D01*
X1045000Y1930D01*
X1044000Y1930D01*
X1043000Y1930D01*
X1042000Y1930D01*
X1041000Y1930D01*
X1040000Y1930D01*
X1039000Y1930D01*
X1038000Y1930D01*
X1037000Y1930D01*
X1036000Y1930D01*
X1035000Y1930D01*
X1034000Y1930D01*
X1033000Y1930D01*
X1032000Y1930D01*
X1031000Y1930D01*
X1030000Y1930D01*
X1029000Y1930D01*
X1028000Y1930D01*
X1027000Y1930D01*
X1026000Y1930D01*
X1025000Y1930D01*
X1024000Y1930D01*
X1023000Y1930D01*
X1022000Y1930D01*
X1021000Y1930D01*
X1020000Y1930D01*
X1019000Y1930D01*
X1018000Y1930D01*
X1017000Y1930D01*
X1016000Y1930D01*
X1015000Y1930D01*
X1014000Y1930D01*
X1013000Y1930D01*
X1012000Y1930D01*
X1011000Y1930D01*
X1010000Y1930D01*
X1009000Y1930D01*
X1008000Y1930D01*
X1007000Y1930D01*
X1006000Y1930D01*
X1005000Y1930D01*
X1004000Y1930D01*
X1003000Y1930D01*
X1002000Y1930D01*
X1001000Y1930D01*
X1000000Y1930D01*
X999000Y1930D01*
X998000Y1930D01*
X997000Y1930D01*
X996000Y1930D01*
X995000Y1930D01*
X994000Y1930D01*
X993000Y1930D01*
X992000Y1930D01*
X991000Y1930D01*
X990000Y1930D01*
X989000Y1930D01*
X988000Y1930D01*
X987000Y1930D01*
X986000Y1930D01*
X985000Y1930D01*
X984000Y1930D01*
X983000Y1930D01*
X982000Y1930D01*
X981000Y1930D01*
X980000Y1930D01*
X979000Y1930D01*
X978000Y1930D01*
X977000Y1930D01*
X976000Y1930D01*
X975000Y1930D01*
X974000Y1930D01*
X973000Y1930D01*
X972000Y1930D01*
X971000Y1930D01*
X970000Y1930D01*
X969000Y1930D01*
X968000Y1930D01*
X967000Y1930D01*
X966000Y1930D01*
X965000Y1930D01*
X964000Y1930D01*
X963000Y1930D01*
X962000Y1930D01*
X961000Y1930D01*
X960000Y1930D01*
X959000Y1930D01*
X958000Y1930D01*
X957000Y1930D01*
X956000Y1930D01*
X955000Y1930D01*
X954000Y1930D01*
X953000Y1930D01*
X952000Y1930D01*
X951000Y1930D01*
X950000Y1930D01*
X949000Y1930D01*
X948000Y1930D01*
X947000Y1930D01*
X946000Y1930D01*
X945000Y1930D01*
X944000Y1930D01*
X943000Y1930D01*
X942000Y1930D01*
X941000Y1930D01*
X940000Y1930D01*
X939000Y1930D01*
X938000Y1930D01*
X937000Y1930D01*
X936000Y1930D01*
X935000Y1930D01*
X934000Y1930D01*
X933000Y1930D01*
X932000Y1930D01*
X931000Y1930D01*
X930000Y1930D01*
X929000Y1930D01*
X928000Y1930D01*
X927000Y1930D01*
X926000Y1930D01*
X925000Y1930D01*
X924000Y1930D01*
X923000Y1930D01*
X922000Y1930D01*
X921000Y1930D01*
X920000Y1930D01*
X919000Y1930D01*
X918000Y1930D01*
X917000Y1930D01*
X916000Y1930D01*
X915000Y1930D01*
X914000Y1930D01*
X913000Y1930D01*
X912000Y1930D01*
X911000Y1930D01*
X910000Y1930D01*
X909000Y1930D01*
X908000Y1930D01*
X907000Y1930D01*
X906000Y1930D01*
X905000Y1930D01*
X904000Y1930D01*
X903000Y1930D01*
X902000Y1930D01*
X901000Y1930D01*
X900000Y1930D01*
X899000Y1930D01*
X898000Y1930D01*
X897000Y1930D01*
X896000Y1930D01*
X895000Y1930D01*
X894000Y1930D01*
X893000Y1930D01*
X892000Y1930D01*
X891000Y1930D01*
X890000Y1930D01*
X889000Y1930D01*
X888000Y1930D01*
X887000Y1930D01*
X886000Y1930D01*
X885000Y1930D01*
X884000Y1930D01*
X883000Y1930D01*
X882000Y1930D01*
X881000Y1930D01*
X880000Y1930D01*
X879000Y1930D01*
X878000Y1930D01*
X877000Y1930D01*
X876000Y1930D01*
X875000Y1930D01*
X874000Y1930D01*
X873000Y1930D01*
X872000Y1930D01*
X871000Y1930D01*
X870000Y1930D01*
X869000Y1930D01*
X868000Y1930D01*
X867000Y1930D01*
X866000Y1930D01*
X865000Y1930D01*
X864000Y1930D01*
X863000Y1930D01*
X862000Y1930D01*
X861000Y1930D01*
X860000Y1930D01*
X859000Y1930D01*
X858000Y1930D01*
X857000Y1930D01*
X856000Y1930D01*
X855000Y1930D01*
X854000Y1930D01*
X853000Y1930D01*
X852000Y1930D01*
X851000Y1930D01*
X850000Y1930D01*
X849000Y1930D01*
X848000Y1930D01*
X847000Y1930D01*
X846000Y1930D01*
X845000Y1930D01*
X844000Y1930D01*
X843000Y1930D01*
X842000Y1930D01*
X841000Y1930D01*
X840000Y1930D01*
X839000Y1930D01*
X838000Y1930D01*
X837000Y1930D01*
X836000Y1930D01*
X835000Y1930D01*
X834000Y1930D01*
X833000Y1930D01*
X832000Y1930D01*
X831000Y1930D01*
X830000Y1930D01*
X829000Y1930D01*
X828000Y1930D01*
X827000Y1930D01*
X826000Y1930D01*
X825000Y1930D01*
X824000Y1930D01*
X823000Y1930D01*
X822000Y1930D01*
X821000Y1930D01*
X820000Y1930D01*
X819000Y1930D01*
X818000Y1930D01*
X817000Y1930D01*
X816000Y1930D01*
X815000Y1930D01*
X814000Y1930D01*
X813000Y1930D01*
X812000Y1930D01*
X811000Y1930D01*
X810000Y1930D01*
X809000Y1930D01*
X808000Y1930D01*
X807000Y1930D01*
X806000Y1930D01*
X805000Y1930D01*
X804000Y1930D01*
X803000Y1930D01*
X802000Y1930D01*
X801000Y1930D01*
X800000Y1930D01*
X799000Y1930D01*
X798000Y1930D01*
X797000Y1930D01*
X796000Y1930D01*
X795000Y1930D01*
X794000Y1930D01*
X793000Y1930D01*
X792000Y1930D01*
X791000Y1930D01*
X790000Y1930D01*
X789000Y1930D01*
X788000Y1930D01*
X787000Y1930D01*
X786000Y1930D01*
X785000Y1930D01*
X784000Y1930D01*
X783000Y1930D01*
X782000Y1930D01*
X781000Y1930D01*
X780000Y1930D01*
X779000Y1930D01*
X778000Y1930D01*
X777000Y1930D01*
X776000Y1930D01*
X775000Y1930D01*
X774000Y1930D01*
X773000Y1930D01*
X772000Y1930D01*
X771000Y1930D01*
X770000Y1930D01*
X769000Y1930D01*
X768000Y1930D01*
X767000Y1930D01*
X766000Y1930D01*
X765000Y1930D01*
X764000Y1930D01*
X763000Y1930D01*
X762000Y1930D01*
X761000Y1930D01*
X760000Y1930D01*
X759000Y1930D01*
X758000Y1930D01*
X757000Y1930D01*
X756000Y1930D01*
X755000Y1930D01*
X754000Y1930D01*
X753000Y1930D01*
X752000Y1930D01*
X751000Y1930D01*
X750000Y1930D01*
X749000Y1930D01*
X748000Y1930D01*
X747000Y1930D01*
X746000Y1930D01*
X745000Y1930D01*
X744000Y1930D01*
X743000Y1930D01*
X742000Y1930D01*
X741000Y1930D01*
X740000Y1930D01*
X739000Y1930D01*
X738000Y1930D01*
X737000Y1930D01*
X736000Y1930D01*
X735000Y1930D01*
X734000Y1930D01*
X733000Y1930D01*
X732000Y1930D01*
X731000Y1930D01*
X730000Y1930D01*
X729000Y1930D01*
X728000Y1930D01*
X727000Y1930D01*
X726000Y1930D01*
X725000Y1930D01*
X724000Y1930D01*
X723000Y1930D01*
X722000Y1930D01*
X721000Y1930D01*
X720000Y1930D01*
X719000Y1930D01*
X718000Y1930D01*
X717000Y1930D01*
X716000Y1930D01*
X715000Y1930D01*
X714000Y1930D01*
X713000Y1930D01*
X712000Y1930D01*
X711000Y1930D01*
X710000Y1930D01*
X709000Y1930D01*
X708000Y1930D01*
X707000Y1930D01*
X706000Y1930D01*
X705000Y1930D01*
X704000Y1930D01*
X703000Y1930D01*
X702000Y1930D01*
X701000Y1930D01*
X700000Y1930D01*
X699000Y1930D01*
X698000Y1930D01*
X697000Y1930D01*
X696000Y1930D01*
X695000Y1930D01*
X694000Y1930D01*
X693000Y1930D01*
X692000Y1930D01*
X691000Y1930D01*
X690000Y1930D01*
X689000Y1930D01*
X688000Y1930D01*
X687000Y1930D01*
X686000Y1930D01*
X685000Y1930D01*
X684000Y1930D01*
X683000Y1930D01*
X682000Y1930D01*
X681000Y1930D01*
X680000Y1930D01*
X679000Y1930D01*
X678000Y1930D01*
X677000Y1930D01*
X676000Y1930D01*
X675000Y1930D01*
X674000Y1930D01*
X673000Y1930D01*
X672000Y1930D01*
X671000Y1930D01*
X670000Y1930D01*
X669000Y1930D01*
X668000Y1930D01*
X667000Y1930D01*
X666000Y1930D01*
X665000Y1930D01*
X664000Y1930D01*
X663000Y1930D01*
X662000Y1930D01*
X661000Y1930D01*
X660000Y1930D01*
X659000Y1930D01*
X658000Y1930D01*
X657000Y1930D01*
X656000Y1930D01*
X655000Y1930D01*
X654000Y1930D01*
X653000Y1930D01*
X652000Y1930D01*
X651000Y1930D01*
X650000Y1930D01*
X649000Y1930D01*
X648000Y1930D01*
X647000Y1930D01*
X646000Y1930D01*
X645000Y1930D01*
X644000Y1930D01*
X643000Y1930D01*
X642000Y1930D01*
X641000Y1930D01*
X640000Y1930D01*
X639000Y1930D01*
X638000Y1930D01*
X637000Y1930D01*
X636000Y1930D01*
X635000Y1930D01*
X634000Y1930D01*
X633000Y1930D01*
X632000Y1930D01*
X631000Y1930D01*
X630000Y1930D01*
X629000Y1930D01*
X628000Y1930D01*
X627000Y1930D01*
X626000Y1930D01*
X625000Y1930D01*
X624000Y1930D01*
X623000Y1930D01*
X622000Y1930D01*
X621000Y1930D01*
X620000Y1930D01*
X619000Y1930D01*
X618000Y1930D01*
X617000Y1930D01*
X616000Y1930D01*
X615000Y1930D01*
X614000Y1930D01*
X613000Y1930D01*
X612000Y1930D01*
X611000Y1930D01*
X610000Y1930D01*
X609000Y1930D01*
X608000Y1930D01*
X607000Y1930D01*
X606000Y1930D01*
X605000Y1930D01*
X604000Y1930D01*
X603000Y1930D01*
X602000Y1930D01*
X601000Y1930D01*
X600000Y1930D01*
X599000Y1930D01*
X598000Y1930D01*
X597000Y1930D01*
X596000Y1930D01*
X595000Y1930D01*
X594000Y1930D01*
X593000Y1930D01*
X592000Y1930D01*
X591000Y1930D01*
X590000Y1930D01*
X589000Y1930D01*
X588000Y1930D01*
X587000Y1930D01*
X586000Y1930D01*
X585000Y1930D01*
X584000Y1930D01*
X583000Y1930D01*
X582000Y1930D01*
X581000Y1930D01*
X580000Y1930D01*
X579000Y1930D01*
X578000Y1930D01*
X577000Y1930D01*
X576000Y1930D01*
X575000Y1930D01*
X574000Y1930D01*
X573000Y1930D01*
X572000Y1930D01*
X571000Y1930D01*
X570000Y1930D01*
X569000Y1930D01*
X568000Y1930D01*
X567000Y1930D01*
X566000Y1930D01*
X565000Y1930D01*
X564000Y1930D01*
X563000Y1930D01*
X562000Y1930D01*
X561000Y1930D01*
X560000Y1930D01*
X559000Y1930D01*
X558000Y1930D01*
X557000Y1930D01*
X556000Y1930D01*
X555000Y1930D01*
X554000Y1930D01*
X553000Y1930D01*
X552000Y1930D01*
X551000Y1930D01*
X550000Y1930D01*
X549000Y1930D01*
X548000Y1930D01*
X547000Y1930D01*
X546000Y1930D01*
X545000Y1930D01*
X544000Y1930D01*
X543000Y1930D01*
X542000Y1930D01*
X541000Y1930D01*
X540000Y1930D01*
X539000Y1930D01*
X538000Y1930D01*
X537000Y1930D01*
X536000Y1930D01*
X535000Y1930D01*
X534000Y1930D01*
X533000Y1930D01*
X532000Y1930D01*
X531000Y1930D01*
X530000Y1930D01*
X529000Y1930D01*
X528000Y1930D01*
X527000Y1930D01*
X526000Y1930D01*
X525000Y1930D01*
X524000Y1930D01*
X523000Y1930D01*
X522000Y1930D01*
X521000Y1930D01*
X520000Y1930D01*
X519000Y1930D01*
X518000Y1930D01*
X517000Y1930D01*
X516000Y1930D01*
X515000Y1930D01*
X514000Y1930D01*
X513000Y1930D01*
X512000Y1930D01*
X511000Y1930D01*
X510000Y1930D01*
X509000Y1930D01*
X508000Y1930D01*
X507000Y1930D01*
X506000Y1930D01*
X505000Y1930D01*
X504000Y1930D01*
X503000Y1930D01*
X502000Y1930D01*
X501000Y1930D01*
X500000Y1930D01*
X499000Y1930D01*
X498000Y1930D01*
X497000Y1930D01*
X496000Y1930D01*
X495000Y1930D01*
X494000Y1930D01*
X493000Y1930D01*
X492000Y1930D01*
X491000Y1930D01*
X490000Y1930D01*
X489000Y1930D01*
X488000Y1930D01*
X487000Y1930D01*
X486000Y1930D01*
X485000Y1930D01*
X484000Y1930D01*
X483000Y1930D01*
X482000Y1930D01*
X481000Y1930D01*
X480000Y1930D01*
X479000Y1930D01*
X478000Y1930D01*
X477000Y1930D01*
X476000Y1930D01*
X475000Y1930D01*
X474000Y1930D01*
X473000Y1930D01*
X472000Y1930D01*
X471000Y1930D01*
X470000Y1930D01*
X469000Y1930D01*
X468000Y1930D01*
X467000Y1930D01*
X466000Y1930D01*
X465000Y1930D01*
X464000Y1930D01*
X463000Y1930D01*
X462000Y1930D01*
X461000Y1930D01*
X460000Y1930D01*
X459000Y1930D01*
X458000Y1930D01*
X457000Y1930D01*
X456000Y1930D01*
X455000Y1930D01*
X454000Y1930D01*
X453000Y1930D01*
X452000Y1930D01*
X451000Y1930D01*
X450000Y1930D01*
X449000Y1930D01*
X448000Y1930D01*
X447000Y1930D01*
X446000Y1930D01*
X445000Y1930D01*
X444000Y1930D01*
X443000Y1930D01*
X442000Y1930D01*
X441000Y1930D01*
X440000Y1930D01*
X439000Y1930D01*
X438000Y1930D01*
X437000Y1930D01*
X436000Y1930D01*
X435000Y1930D01*
X434000Y1930D01*
X433000Y1930D01*
X432000Y1930D01*
X431000Y1930D01*
X430000Y1930D01*
X429000Y1930D01*
X428000Y1930D01*
X427000Y1930D01*
X426000Y1930D01*
X425000Y1930D01*
X424000Y1930D01*
X423000Y1930D01*
X422000Y1930D01*
X421000Y1930D01*
X420000Y1930D01*
X419000Y1930D01*
X418000Y1930D01*
X417000Y1930D01*
X416000Y1930D01*
X415000Y1930D01*
X414000Y1930D01*
X413000Y1930D01*
X412000Y1930D01*
X411000Y1930D01*
X410000Y1930D01*
X409000Y1930D01*
X408000Y1930D01*
X407000Y1930D01*
X406000Y1930D01*
X405000Y1930D01*
X404000Y1930D01*
X403000Y1930D01*
X402000Y1930D01*
X401000Y1930D01*
X400000Y1930D01*
X399000Y1930D01*
X398000Y1930D01*
X397000Y1930D01*
X396000Y1930D01*
X395000Y1930D01*
X394000Y1930D01*
X393000Y1930D01*
X392000Y1930D01*
X391000Y1930D01*
X390000Y1930D01*
X389000Y1930D01*
X388000Y1930D01*
X387000Y1930D01*
X386000Y1930D01*
X385000Y1930D01*
X384000Y1930D01*
X383000Y1930D01*
X382000Y1930D01*
X381000Y1930D01*
X380000Y1930D01*
X379000Y1930D01*
X378000Y1930D01*
X377000Y1930D01*
X376000Y1930D01*
X375000Y1930D01*
X374000Y1930D01*
X373000Y1930D01*
X372000Y1930D01*
X371000Y1930D01*
X370000Y1930D01*
X369000Y1930D01*
X368000Y1930D01*
X367000Y1930D01*
X366000Y1930D01*
X365000Y1930D01*
X364000Y1930D01*
X363000Y1930D01*
X362000Y1930D01*
X361000Y1930D01*
X360000Y1930D01*
X359000Y1930D01*
X358000Y1930D01*
X357000Y1930D01*
X356000Y1930D01*
X355000Y1930D01*
X354000Y1930D01*
X353000Y1930D01*
X352000Y1930D01*
X351000Y1930D01*
X350000Y1930D01*
X349000Y1930D01*
X348000Y1930D01*
X347000Y1930D01*
X346000Y1930D01*
X345000Y1930D01*
X344000Y1930D01*
X343000Y1930D01*
X342000Y1930D01*
X341000Y1930D01*
X340000Y1930D01*
X339000Y1930D01*
X338000Y1930D01*
X337000Y1930D01*
X336000Y1930D01*
X335000Y1930D01*
X334000Y1930D01*
X333000Y1930D01*
X332000Y1930D01*
X331000Y1930D01*
X330000Y1930D01*
X329000Y1930D01*
X328000Y1930D01*
X327000Y1930D01*
X326000Y1930D01*
X325000Y1930D01*
X324000Y1930D01*
X323000Y1930D01*
X322000Y1930D01*
X321000Y1930D01*
X320000Y1930D01*
X319000Y1930D01*
X318000Y1930D01*
X317000Y1930D01*
X316000Y1930D01*
X315000Y1930D01*
X314000Y1930D01*
X313000Y1930D01*
X312000Y1930D01*
X311000Y1930D01*
X310000Y1930D01*
X309000Y1930D01*
X308000Y1930D01*
X307000Y1930D01*
X306000Y1930D01*
X305000Y1930D01*
X304000Y1930D01*
X303000Y1930D01*
X302000Y1930D01*
X301000Y1930D01*
X300000Y1930D01*
X299000Y1930D01*
X298000Y1930D01*
X297000Y1930D01*
X296000Y1930D01*
X295000Y1930D01*
X294000Y1930D01*
X293000Y1930D01*
X292000Y1930D01*
X291000Y1930D01*
X290000Y1930D01*
X289000Y1930D01*
X288000Y1930D01*
X287000Y1930D01*
X286000Y1930D01*
X285000Y1930D01*
X284000Y1930D01*
X283000Y1930D01*
X282000Y1930D01*
X281000Y1930D01*
X280000Y1930D01*
X279000Y1930D01*
X278000Y1930D01*
X277000Y1930D01*
X276000Y1930D01*
X275000Y1930D01*
X274000Y1930D01*
X273000Y1930D01*
X272000Y1930D01*
X271000Y1930D01*
X270000Y1930D01*
X269000Y1930D01*
X268000Y1930D01*
X267000Y1930D01*
X266000Y1930D01*
X265000Y1930D01*
X264000Y1930D01*
X263000Y1930D01*
X262000Y1930D01*
X261000Y1930D01*
X260000Y1930D01*
X259000Y1930D01*
X258000Y1930D01*
X257000Y1930D01*
X256000Y1930D01*
X255000Y1930D01*
X254000Y1930D01*
X253000Y1930D01*
X252000Y1930D01*
X251000Y1930D01*
X250000Y1930D01*
X249000Y1930D01*
X248000Y1930D01*
X247000Y1930D01*
X246000Y1930D01*
X245000Y1930D01*
X244000Y1930D01*
X243000Y1930D01*
X242000Y1930D01*
X241000Y1930D01*
X240000Y1930D01*
X239000Y1930D01*
X238000Y1930D01*
X237000Y1930D01*
X236000Y1930D01*
X235000Y1930D01*
X234000Y1930D01*
X233000Y1930D01*
X232000Y1930D01*
X231000Y1930D01*
X230000Y1930D01*
X229000Y1930D01*
X228000Y1930D01*
X227000Y1930D01*
X226000Y1930D01*
X225000Y1930D01*
X224000Y1930D01*
X223000Y1930D01*
X222000Y1930D01*
X221000Y1930D01*
X220000Y1930D01*
X219000Y1930D01*
X218000Y1930D01*
X217000Y1930D01*
X216000Y1930D01*
X215000Y1930D01*
X214000Y1930D01*
X213000Y1930D01*
X212000Y1930D01*
X211000Y1930D01*
X210000Y1930D01*
X209000Y1930D01*
X208000Y1930D01*
X207000Y1930D01*
X206000Y1930D01*
X205000Y1930D01*
X204000Y1930D01*
X203000Y1930D01*
X202000Y1930D01*
X201000Y1930D01*
X200000Y1930D01*
X199000Y1930D01*
X198000Y1930D01*
X197000Y1930D01*
X196000Y1930D01*
X195000Y1930D01*
X194000Y1930D01*
X193000Y1930D01*
X192000Y1930D01*
X191000Y1930D01*
X190000Y1930D01*
X189000Y1930D01*
X188000Y1930D01*
X187000Y1930D01*
X186000Y1930D01*
X185000Y1930D01*
X184000Y1930D01*
X183000Y1930D01*
X182000Y1930D01*
X181000Y1930D01*
X180000Y1930D01*
X179000Y1930D01*
X178000Y1930D01*
X177000Y1930D01*
X176000Y1930D01*
X175000Y1930D01*
X174000Y1930D01*
X173000Y1930D01*
X172000Y1930D01*
X171000Y1930D01*
X170000Y1930D01*
X169000Y1930D01*
X168000Y1930D01*
X167000Y1930D01*
X166000Y1930D01*
X165000Y1930D01*
X164000Y1930D01*
X163000Y1930D01*
X162000Y1930D01*
X161000Y1930D01*
X160000Y1930D01*
X159000Y1930D01*
X158000Y1930D01*
X157000Y1930D01*
X156000Y1930D01*
X155000Y1930D01*
X154000Y1930D01*
X153000Y1930D01*
X152000Y1930D01*
X151000Y1930D01*
X150000Y1930D01*
X149000Y1930D01*
X148000Y1930D01*
X147000Y1930D01*
X146000Y1930D01*
X145000Y1930D01*
X144000Y1930D01*
X143000Y1930D01*
X142000Y1930D01*
X141000Y1930D01*
X140000Y1930D01*
X139000Y1930D01*
X138000Y1930D01*
X137000Y1930D01*
X136000Y1930D01*
X135000Y1930D01*
X134000Y1930D01*
X133000Y1930D01*
X132000Y1930D01*
X131000Y1930D01*
X130000Y1930D01*
X129000Y1930D01*
X128000Y1930D01*
X127000Y1930D01*
X126000Y1930D01*
X125000Y1930D01*
X124000Y1930D01*
X123000Y1930D01*
X122000Y1930D01*
X121000Y1930D01*
X120000Y1930D01*
X119000Y1930D01*
X118000Y1930D01*
X117000Y1930D01*
X116000Y1930D01*
X115000Y1930D01*
X114000Y1930D01*
X113000Y1930D01*
X112000Y1930D01*
X111000Y1930D01*
X110000Y2930D01*
X109000Y2930D01*
X108000Y2930D01*
X107000Y2930D01*
X106000Y2930D01*
X105000Y2930D01*
X104000Y2930D01*
X103000Y2930D01*
X102000Y3930D01*
X101000Y3930D01*
X100000Y3930D01*
X99000Y3930D01*
X98000Y3930D01*
X97000Y4930D01*
X96000Y4930D01*
X95000Y4930D01*
X94000Y4930D01*
X93000Y5930D01*
X92000Y5930D01*
X91000Y5930D01*
X90000Y5930D01*
X89000Y6930D01*
X88000Y6930D01*
X87000Y6930D01*
X86000Y7930D01*
X85000Y7930D01*
X84000Y7930D01*
X83000Y8930D01*
X82000Y8930D01*
X81000Y8930D01*
X80000Y9930D01*
X79000Y9930D01*
X78000Y10930D01*
X77000Y10930D01*
X76000Y11930D01*
X75000Y11930D01*
X74000Y11930D01*
X73000Y12930D01*
X72000Y12930D01*
X71000Y13930D01*
X70000Y14930D01*
X69000Y14930D01*
X68000Y15930D01*
X67000Y15930D01*
X66000Y16930D01*
X65000Y16930D01*
X64000Y17930D01*
X63000Y18930D01*
X62000Y18930D01*
X61000Y19930D01*
X60000Y19930D01*
X59000Y20930D01*
X58000Y21930D01*
X57000Y21930D01*
X56000Y22930D01*
X55000Y23930D01*
X54000Y24930D01*
X53000Y24930D01*
X52000Y25930D01*
X51000Y26930D01*
X50000Y27930D01*
X49000Y28930D01*
X48000Y29930D01*
X47000Y29930D01*
X46000Y30930D01*
X45000Y31930D01*
X44000Y32930D01*
X43000Y33930D01*
X42000Y34930D01*
X41000Y35930D01*
X40000Y36930D01*
X39000Y37930D01*
X38000Y38930D01*
X37000Y39930D01*
X36000Y40930D01*
X36000Y41930D01*
X35000Y42930D01*
X34000Y43930D01*
X33000Y44930D01*
X32000Y45930D01*
X31000Y46930D01*
X31000Y47930D01*
X30000Y48930D01*
X29000Y49930D01*
X28000Y50930D01*
X28000Y51930D01*
X27000Y52930D01*
X26000Y53930D01*
X26000Y54930D01*
X25000Y55930D01*
X24000Y56930D01*
X24000Y57930D01*
X23000Y58930D01*
X22000Y59930D01*
X22000Y60930D01*
X21000Y61930D01*
X21000Y62930D01*
X20000Y63930D01*
X19000Y64930D01*
X19000Y65930D01*
X18000Y66930D01*
X18000Y67930D01*
X17000Y68930D01*
X17000Y69930D01*
X16000Y70930D01*
X16000Y71930D01*
X15000Y72930D01*
X15000Y73930D01*
X14000Y74930D01*
X14000Y75930D01*
X13000Y76930D01*
X13000Y77930D01*
X12000Y78930D01*
X12000Y80930D01*
X11000Y81930D01*
X11000Y82930D01*
X10000Y83930D01*
X10000Y85930D01*
X9000Y86930D01*
X9000Y88930D01*
X8000Y89930D01*
X8000Y91930D01*
X7000Y92930D01*
X7000Y94930D01*
X6000Y95930D01*
X6000Y98930D01*
X5000Y99930D01*
X5000Y102930D01*
X4000Y103930D01*
X4000Y106930D01*
X3000Y107930D01*
X3000Y111930D01*
X2000Y112930D01*
X2000Y117930D01*
X1000Y118930D01*
X1000Y127930D01*
X0Y128930D01*
X0Y2405930D01*
X1000Y2406930D01*
X1000Y2415930D01*
X2000Y2416930D01*
X2000Y2421930D01*
X3000Y2422930D01*
X3000Y2426930D01*
X4000Y2427930D01*
X4000Y2430930D01*
X5000Y2431930D01*
X5000Y2434930D01*
X6000Y2435930D01*
X6000Y2438930D01*
X7000Y2439930D01*
X7000Y2441930D01*
X8000Y2442930D01*
X8000Y2444930D01*
X9000Y2445930D01*
X9000Y2447930D01*
X10000Y2448930D01*
X10000Y2450930D01*
X11000Y2451930D01*
X11000Y2452930D01*
X12000Y2453930D01*
X12000Y2455930D01*
X13000Y2456930D01*
X13000Y2457930D01*
X14000Y2458930D01*
X14000Y2459930D01*
X15000Y2460930D01*
X15000Y2461930D01*
X16000Y2462930D01*
X16000Y2463930D01*
X17000Y2464930D01*
X17000Y2465930D01*
X18000Y2466930D01*
X18000Y2467930D01*
X19000Y2468930D01*
X19000Y2469930D01*
X20000Y2470930D01*
X21000Y2471930D01*
X21000Y2472930D01*
X22000Y2473930D01*
X22000Y2474930D01*
X23000Y2475930D01*
X24000Y2476930D01*
X24000Y2477930D01*
X25000Y2478930D01*
X26000Y2479930D01*
X26000Y2480930D01*
X27000Y2481930D01*
X28000Y2482930D01*
X28000Y2483930D01*
X29000Y2484930D01*
X30000Y2485930D01*
X31000Y2486930D01*
X31000Y2487930D01*
X32000Y2488930D01*
X33000Y2489930D01*
X34000Y2490930D01*
X35000Y2491930D01*
X36000Y2492930D01*
X36000Y2493930D01*
X37000Y2494930D01*
X38000Y2495930D01*
X39000Y2496930D01*
X40000Y2497930D01*
X41000Y2498930D01*
X42000Y2499930D01*
X43000Y2500930D01*
X44000Y2501930D01*
X45000Y2502930D01*
X46000Y2503930D01*
X47000Y2504930D01*
X48000Y2504930D01*
X49000Y2505930D01*
X50000Y2506930D01*
X51000Y2507930D01*
X52000Y2508930D01*
X53000Y2509930D01*
X54000Y2509930D01*
X55000Y2510930D01*
X56000Y2511930D01*
X57000Y2512930D01*
X58000Y2512930D01*
X59000Y2513930D01*
X60000Y2514930D01*
X61000Y2514930D01*
X62000Y2515930D01*
X63000Y2515930D01*
X64000Y2516930D01*
X65000Y2517930D01*
X66000Y2517930D01*
X67000Y2518930D01*
X68000Y2518930D01*
X69000Y2519930D01*
X70000Y2519930D01*
X71000Y2520930D01*
X72000Y2521930D01*
X73000Y2521930D01*
X74000Y2522930D01*
X75000Y2522930D01*
X76000Y2522930D01*
X77000Y2523930D01*
X78000Y2523930D01*
X79000Y2524930D01*
X80000Y2524930D01*
X81000Y2525930D01*
X82000Y2525930D01*
X83000Y2525930D01*
X84000Y2526930D01*
X85000Y2526930D01*
X86000Y2526930D01*
X87000Y2527930D01*
X88000Y2527930D01*
X89000Y2527930D01*
X90000Y2528930D01*
X91000Y2528930D01*
X92000Y2528930D01*
X93000Y2528930D01*
X94000Y2529930D01*
X95000Y2529930D01*
X96000Y2529930D01*
X97000Y2529930D01*
X98000Y2530930D01*
X99000Y2530930D01*
X100000Y2530930D01*
X101000Y2530930D01*
X102000Y2530930D01*
X103000Y2531930D01*
X104000Y2531930D01*
X105000Y2531930D01*
X106000Y2531930D01*
X107000Y2531930D01*
X108000Y2531930D01*
X109000Y2531930D01*
X110000Y2531930D01*
X111000Y2532930D01*
D02*
G04 End of contour*
M02*