; NON-PLATED HOLES START AT T1
; THROUGH (PLATED) HOLES START AT T100
M48
INCH
T1C0.122047
T2C0.047244
T100C0.043307
T101C0.082677
T102C0.031496
T103C0.035433
T104C0.035000
T105C0.030000
T106C0.038000
%
T1
X033248Y024414
X033331Y000955
X001131Y024414
X001122Y000955
T2
X008262Y000517
X008262Y002881
T100
X006307Y021659
X027972Y013947
X027972Y015915
X027943Y008018
X027819Y021935
X033527Y021939
X033652Y009991
X027943Y009987
X027819Y019967
X033681Y015920
X027972Y014931
X006307Y020675
X033681Y013951
X027819Y020951
X033527Y019971
X000598Y019686
X006307Y019690
X000598Y021655
X033652Y008023
X027943Y009003
T101
X030771Y023136
X003354Y022860
X030771Y018766
X030925Y017116
X030925Y012746
X030896Y006817
X030896Y011188
X003354Y018490
T102
X010080Y012577
X010080Y007577
X010080Y017578
X010080Y022578
X010080Y018578
X010080Y008577
X010080Y011577
X010080Y005577
X010080Y015578
X010080Y021578
X010080Y014577
X010080Y010577
X010080Y006577
X010080Y016578
X010080Y020578
X010080Y009577
X010080Y019578
X010080Y004577
X010080Y013577
X010080Y023578
T103
X025568Y008055
X025568Y013167
X021408Y013275
X017591Y003815
X004577Y015435
X025568Y017542
X000529Y005199
X018612Y007171
X020414Y023578
X020414Y013577
X020414Y004577
X025568Y001037
X003577Y015435
X013388Y006653
X025568Y022342
X005729Y008942
X025568Y016542
X005729Y012942
X026568Y002037
X020414Y021578
X008293Y007472
X005729Y010942
X020414Y005577
X020414Y011577
X020414Y008577
X018006Y024698
X020414Y022578
X020414Y017578
X025568Y011034
X008293Y005428
X020414Y012577
X026568Y004912
X018612Y004371
X026568Y007055
X005729Y009942
X002577Y015435
X025568Y010034
X020414Y009577
X026568Y003912
X025568Y023342
X021491Y008526
X020414Y016578
X026568Y014167
X026568Y022342
X021491Y005726
X026568Y016542
X005729Y011942
X026568Y001037
X008293Y008472
X021408Y016075
X026568Y017542
X015206Y024698
X026568Y013167
X026568Y008055
X005577Y015435
X016188Y006653
X025568Y014167
X020414Y015578
X020414Y018578
X025568Y003912
X026568Y010034
X026568Y023342
X017591Y006614
X025568Y007055
X020414Y007577
X001577Y015435
X025568Y004912
X005729Y005942
X023353Y010156
X023353Y012956
X005729Y006942
X000577Y015435
X026568Y011034
X020414Y019578
X005729Y004942
X000529Y002199
X020414Y020578
X005729Y007942
X020414Y006577
X020414Y010577
X020414Y014577
X008293Y006428
X025568Y002037
T104
X017580Y000860
X027624Y006071
X001437Y005167
X022467Y016299
X024310Y015560
X002427Y003651
X021367Y001740
X020214Y002648
X023476Y003502
X020476Y003502
X023226Y005357
X002427Y000651
X023214Y002648
X016055Y004800
X003427Y003651
X004825Y016602
X005427Y003651
X024236Y008621
X004427Y000651
X024236Y011621
X022467Y013299
X022060Y012408
X024310Y012560
X012267Y003875
X022060Y009408
X001437Y002167
X024624Y006071
X005427Y000651
X024367Y001740
X004427Y003651
X023347Y018428
X004825Y017602
X016055Y001800
X003427Y000651
X012267Y000875
X020580Y000860
X023347Y015428
X023226Y008357
T105
X002314Y016616
X002314Y017618
X002313Y006560
X004313Y006560
T106
X007504Y022612
X007504Y021612
X007504Y020612
X007504Y019612
T00
M30
