<?xml version="1.0" encoding="UTF-8" standalone="no"?>
<!-- Created with Inkscape (http://www.inkscape.org/) -->

<svg
   width="87.35936mm"
   height="64.336327mm"
   viewBox="0 0 87.35936 64.336327"
   version="1.1"
   id="svg1534"
   inkscape:version="1.1.2 (0a00cf5339, 2022-02-04)"
   sodipodi:docname="marvelous-desktop-top-cut.svg"
   xmlns:inkscape="http://www.inkscape.org/namespaces/inkscape"
   xmlns:sodipodi="http://sodipodi.sourceforge.net/DTD/sodipodi-0.dtd"
   xmlns="http://www.w3.org/2000/svg"
   xmlns:svg="http://www.w3.org/2000/svg">
  <sodipodi:namedview
     id="namedview1536"
     pagecolor="#ffffff"
     bordercolor="#666666"
     borderopacity="1.0"
     inkscape:pageshadow="2"
     inkscape:pageopacity="0.0"
     inkscape:pagecheckerboard="0"
     inkscape:document-units="mm"
     showgrid="false"
     inkscape:zoom="1.8712141"
     inkscape:cx="136.00796"
     inkscape:cy="147.76503"
     inkscape:window-width="1680"
     inkscape:window-height="1050"
     inkscape:window-x="1920"
     inkscape:window-y="0"
     inkscape:window-maximized="1"
     inkscape:current-layer="silkscreen0"
     width="88mm"
     fit-margin-top="0"
     fit-margin-left="0"
     fit-margin-right="0"
     fit-margin-bottom="0"
     inkscape:snap-global="false" />
  <defs
     id="defs1531" />
  <g
     inkscape:label="board"
     inkscape:groupmode="layer"
     id="board"
     transform="translate(-0.48065907,-0.55148345)"
     style="display:inline">
    <g
       inkscape:groupmode="layer"
       id="boardoutline"
       inkscape:label="boardoutline"
       style="display:inline">
      <path
         id="rect7045-3-7"
         style="display:inline;fill:#0088d4;fill-opacity:1;stroke:none;stroke-width:3.74648;stroke-miterlimit:4;stroke-dasharray:none;stroke-opacity:1"
         d="M 12.958984,0 C 5.7800996,0 0,6.1929569 0,13.884766 V 229.27734 c 0,7.69181 5.7800996,13.88282 12.958984,13.88282 H 317.2168 c 7.17889,0 12.95898,-6.19101 12.95898,-13.88282 V 13.884766 C 330.17578,6.1929569 324.39569,0 317.2168,0 Z M 10.035156,2.8222656 A 5.858255,5.858255 0 0 1 15.892578,8.6796875 5.858255,5.858255 0 0 1 10.035156,14.539062 5.858255,5.858255 0 0 1 4.1777344,8.6796875 5.858255,5.858255 0 0 1 10.035156,2.8222656 Z m 308.318364,0 a 5.858255,5.858255 0 0 1 5.85742,5.8574219 5.858255,5.858255 0 0 1 -5.85742,5.8593745 5.858255,5.858255 0 0 1 -5.85938,-5.8593745 5.858255,5.858255 0 0 1 5.85938,-5.8574219 z M 238.79688,13.140625 h 21.17187 V 34.384766 H 238.79688 Z M 31.361328,25.255859 A 13.228345,13.228345 0 0 1 44.589844,38.484375 13.228345,13.228345 0 0 1 31.361328,51.712891 13.228345,13.228345 0 0 1 18.132812,38.484375 13.228345,13.228345 0 0 1 31.361328,25.255859 Z m 263.064452,3.46875 A 13.228345,13.228345 0 0 1 307.6543,41.953125 13.228345,13.228345 0 0 1 294.42578,55.181641 13.228345,13.228345 0 0 1 281.19727,41.953125 13.228345,13.228345 0 0 1 294.42578,28.724609 Z M 76.132812,42.316406 H 176.80859 V 77.703125 H 76.132812 Z M 238.79688,68.833984 h 21.17187 v 21.246094 h -21.17187 z m 57.6289,17.716797 A 13.228345,13.228345 0 0 1 309.6543,99.779297 13.228345,13.228345 0 0 1 296.42578,113.00781 13.228345,13.228345 0 0 1 283.19727,99.779297 13.228345,13.228345 0 0 1 296.42578,86.550781 Z m -57.58789,14.673829 h 21.17188 v 21.24414 h -21.17188 z m 0,30 h 21.17188 v 21.24414 h -21.17188 z m 56.7207,12.01953 a 13.228345,13.228345 0 0 1 13.22852,13.22852 13.228345,13.228345 0 0 1 -13.22852,13.22851 13.228345,13.228345 0 0 1 -13.22851,-13.22851 13.228345,13.228345 0 0 1 13.22851,-13.22852 z M 73.068359,155.96484 H 85.457031 V 196.5918 H 73.068359 Z m 165.728521,3.91797 h 21.17187 v 21.2461 h -21.17187 z m 0.0469,30.20117 h 21.17187 v 21.24414 h -21.17187 z m 0.004,27.56836 h 21.17187 v 21.24414 H 238.84766 Z M 9.9492188,228.02344 a 5.858256,5.858256 0 0 1 5.8593752,5.85937 5.858256,5.858256 0 0 1 -5.8593752,5.85742 5.858256,5.858256 0 0 1 -5.8574219,-5.85742 5.858256,5.858256 0 0 1 5.8574219,-5.85937 z m 309.2031212,0 a 5.8582559,5.8582559 0 0 1 5.85743,5.85937 5.8582559,5.8582559 0 0 1 -5.85743,5.85742 5.8582559,5.8582559 0 0 1 -5.85937,-5.85742 5.8582559,5.8582559 0 0 1 5.85937,-5.85937 z"
         transform="matrix(0.26458333,0,0,0.26458333,0.48065907,0.55148345)" />
    </g>
  </g>
  <g
     inkscape:groupmode="layer"
     id="silkscreen"
     inkscape:label="silkscreen"
     transform="translate(-0.48065907,-0.55148345)">
    <rect
       fill="none"
       height="64.336327"
       rx="3.4285476"
       ry="3.6735075"
       stroke="#000000"
       stroke-width="0.5779"
       width="87.35936"
       x="0.48065907"
       y="0.55148345"
       id="rect7045-3"
       style="display:inline;fill:none;stroke:none;stroke-width:0.991255;stroke-miterlimit:4;stroke-dasharray:none;stroke-opacity:1" />
  </g>
  <g
     inkscape:groupmode="layer"
     id="silkscreen0"
     inkscape:label="silkscreen0"
     transform="translate(-0.48065907,-0.55148345)">
    <rect
       fill="none"
       height="64.336327"
       rx="3.4285476"
       ry="3.6735075"
       stroke="#000000"
       stroke-width="0.5779"
       width="87.35936"
       x="0.48066235"
       y="0.55148345"
       id="rect7045-3-6"
       style="display:inline;fill:none;stroke:none;stroke-width:0.991;stroke-miterlimit:4;stroke-dasharray:none;stroke-opacity:1" />
  </g>
</svg>
