<?xml version="1.0" encoding="UTF-8" standalone="no"?>
<!-- Created with Inkscape (http://www.inkscape.org/) -->

<svg
   width="87.35936mm"
   height="64.336327mm"
   viewBox="0 0 87.35936 64.336327"
   version="1.1"
   id="svg1534"
   inkscape:version="1.1.2 (0a00cf5339, 2022-02-04)"
   sodipodi:docname="marvelous-desktop-top-cut.svg"
   xmlns:inkscape="http://www.inkscape.org/namespaces/inkscape"
   xmlns:sodipodi="http://sodipodi.sourceforge.net/DTD/sodipodi-0.dtd"
   xmlns="http://www.w3.org/2000/svg"
   xmlns:svg="http://www.w3.org/2000/svg">
  <sodipodi:namedview
     id="namedview1536"
     pagecolor="#ffffff"
     bordercolor="#666666"
     borderopacity="1.0"
     inkscape:pageshadow="2"
     inkscape:pageopacity="0.0"
     inkscape:pagecheckerboard="0"
     inkscape:document-units="mm"
     showgrid="false"
     inkscape:zoom="4.1032789"
     inkscape:cx="258.93926"
     inkscape:cy="160.96883"
     inkscape:window-width="1680"
     inkscape:window-height="1050"
     inkscape:window-x="1920"
     inkscape:window-y="0"
     inkscape:window-maximized="1"
     inkscape:current-layer="layer2"
     width="88mm"
     fit-margin-top="0"
     fit-margin-left="0"
     fit-margin-right="0"
     fit-margin-bottom="0"
     inkscape:snap-global="false" />
  <defs
     id="defs1531" />
  <g
     inkscape:label="board"
     inkscape:groupmode="layer"
     id="board"
     transform="translate(-0.48065907,-0.55148345)"
     style="display:inline">
    <g
       inkscape:groupmode="layer"
       id="layer2"
       inkscape:label="boardoutline"
       style="display:inline">
      <path
         id="rect7045-3-7"
         style="display:inline;fill:#0088d4;fill-opacity:1;stroke:none;stroke-width:3.74648;stroke-miterlimit:4;stroke-dasharray:none;stroke-opacity:1"
         d="M 12.958984,0 C 5.7800976,0 0,6.1929581 0,13.884766 V 229.27734 c 0,7.69181 5.7800976,13.88282 12.958984,13.88282 H 317.2168 c 7.17889,0 12.95898,-6.19101 12.95898,-13.88282 V 13.884766 C 330.17578,6.1929581 324.39569,0 317.2168,0 Z M 238.79688,13.140625 h 21.17187 V 34.384766 H 238.79688 Z M 76.167969,18.017578 H 177.65234 V 54.560547 H 76.167969 Z M 294.42578,28.724609 A 13.228345,13.228345 0 0 1 307.6543,41.953125 13.228345,13.228345 0 0 1 294.42578,55.181641 13.228345,13.228345 0 0 1 281.19727,41.953125 13.228345,13.228345 0 0 1 294.42578,28.724609 Z M 31.369141,31.369141 A 13.228345,13.228345 0 0 1 44.597656,44.597656 13.228345,13.228345 0 0 1 31.369141,57.826172 13.228345,13.228345 0 0 1 18.142578,44.597656 13.228345,13.228345 0 0 1 31.369141,31.369141 Z M 238.79688,68.833984 h 21.17187 v 21.246094 h -21.17187 z m 57.6289,17.716797 A 13.228345,13.228345 0 0 1 309.6543,99.779297 13.228345,13.228345 0 0 1 296.42578,113.00781 13.228345,13.228345 0 0 1 283.19727,99.779297 13.228345,13.228345 0 0 1 296.42578,86.550781 Z m -57.58789,14.673829 h 21.17188 v 21.24414 h -21.17188 z m 0.15625,30.09375 h 20.97461 v 21.16992 h -20.97461 z m 56.56445,11.92578 a 13.228345,13.228345 0 0 1 13.22852,13.22852 13.228345,13.228345 0 0 1 -13.22852,13.22851 13.228345,13.228345 0 0 1 -13.22851,-13.22851 13.228345,13.228345 0 0 1 13.22851,-13.22852 z M 73.068359,155.96484 H 85.457031 V 196.5918 H 73.068359 Z m 165.728521,3.91797 h 21.17187 v 21.2461 h -21.17187 z m 0.0469,30.20117 h 21.17187 v 21.24414 h -21.17187 z m 0.004,27.56836 h 21.17187 v 21.24414 h -21.17187 z"
         transform="matrix(0.26458333,0,0,0.26458333,0.48065907,0.55148345)" />
      <g
         partID="872164360"
         id="g39206"
         transform="matrix(0.35277716,0,0,0.35277716,0.1823858,0.52448574)"
         style="display:inline">
        <g
           transform="translate(234.216,169.495)"
           id="g39204">
          <g
             id="copper0">
            <circle
               cx="5.9937"
               cy="5.9937"
               fill="#000000"
               id="nonconn0"
               r="4.3937001"
               stroke="#f9a435"
               stroke-width="0" />
          </g>
        </g>
      </g>
    </g>
    <g
       partID="872164331"
       id="g39516"
       transform="matrix(0.35277716,0,0,0.35277716,0.1823858,0.52448574)">
      <g
         transform="translate(2.31417,169.495)"
         id="g39514">
        <g
           id="g39512">
          <path
             id="circle39510"
             style="stroke:#fdde68;stroke-width:0"
             d="M 10.3874,5.9937 A 4.3937001,4.3937001 0 0 1 5.9937,10.3874 4.3937001,4.3937001 0 0 1 1.5999999,5.9937 4.3937001,4.3937001 0 0 1 5.9937,1.5999999 4.3937001,4.3937001 0 0 1 10.3874,5.9937 Z" />
        </g>
      </g>
    </g>
    <g
       partID="872164341"
       id="g39508"
       transform="matrix(0.35277716,0,0,0.35277716,0.1823858,0.52448574)">
      <g
         transform="translate(2.37817,0.5928)"
         id="g39506">
        <g
           id="g39504">
          <circle
             cx="5.9937"
             cy="5.9937"
             fill="#000000"
             id="circle39502"
             r="4.3937001"
             stroke="#fdde68"
             stroke-width="0" />
        </g>
      </g>
    </g>
    <g
       partID="872164351"
       id="g39500"
       transform="matrix(0.35277716,0,0,0.35277716,0.1823858,0.52448574)"
       style="display:inline">
      <g
         transform="translate(233.617,0.5928)"
         id="g39498">
        <g
           id="g39496">
          <path
             id="circle39494"
             style="stroke:#fdde68;stroke-width:0"
             d="M 10.3874,5.9937 A 4.3937001,4.3937001 0 0 1 5.9937,10.3874 4.3937001,4.3937001 0 0 1 1.5999999,5.9937 4.3937001,4.3937001 0 0 1 5.9937,1.5999999 4.3937001,4.3937001 0 0 1 10.3874,5.9937 Z" />
        </g>
      </g>
    </g>
  </g>
  <g
     inkscape:groupmode="layer"
     id="silkscreen"
     inkscape:label="silkscreen"
     transform="translate(-0.48065907,-0.55148345)">
    <rect
       fill="none"
       height="64.336327"
       rx="3.4285476"
       ry="3.6735075"
       stroke="#000000"
       stroke-width="0.5779"
       width="87.35936"
       x="0.48065907"
       y="0.55148345"
       id="rect7045-3"
       style="display:inline;fill:none;stroke:none;stroke-width:0.991255;stroke-miterlimit:4;stroke-dasharray:none;stroke-opacity:1" />
  </g>
  <g
     inkscape:groupmode="layer"
     id="silkscreen0"
     inkscape:label="silkscreen0"
     transform="translate(-0.48065907,-0.55148345)">
    <rect
       fill="none"
       height="64.336327"
       rx="3.4285476"
       ry="3.6735075"
       stroke="#000000"
       stroke-width="0.5779"
       width="87.35936"
       x="0.48066235"
       y="0.55148345"
       id="rect7045-3-6"
       style="display:inline;fill:none;stroke:none;stroke-width:0.991;stroke-miterlimit:4;stroke-dasharray:none;stroke-opacity:1" />
  </g>
</svg>
