G04 MADE WITH FRITZING*
G04 WWW.FRITZING.ORG*
G04 DOUBLE SIDED*
G04 HOLES PLATED*
G04 CONTOUR ON CENTER OF CONTOUR VECTOR*
%FSLAX26Y26*%
%MOIN*%
%ADD10R,0.001000X0.001000*%
G04 SILK0*
%FSLAX26Y26*%
%MOIN*%
D10*
X1428500Y3991240D02*
X1477500Y3991240D01*
X1427500Y3990240D02*
X1478500Y3990240D01*
X1427500Y3989240D02*
X1478500Y3989240D01*
X1426500Y3988240D02*
X1479500Y3988240D01*
X1426500Y3987240D02*
X1479500Y3987240D01*
X1427500Y3986240D02*
X1478500Y3986240D01*
X1428500Y3985240D02*
X1477500Y3985240D01*
X1445500Y3984240D02*
X1454500Y3984240D01*
X1466500Y3984240D02*
X1475500Y3984240D01*
X1444500Y3983240D02*
X1452500Y3983240D01*
X1467500Y3983240D02*
X1475500Y3983240D01*
X1443500Y3982240D02*
X1452500Y3982240D01*
X1468500Y3982240D02*
X1476500Y3982240D01*
X1443500Y3981240D02*
X1451500Y3981240D01*
X1469500Y3981240D02*
X1477500Y3981240D01*
X1442500Y3980240D02*
X1450500Y3980240D01*
X1470500Y3980240D02*
X1478500Y3980240D01*
X1442500Y3979240D02*
X1449500Y3979240D01*
X1471500Y3979240D02*
X1478500Y3979240D01*
X1441500Y3978240D02*
X1448500Y3978240D01*
X1471500Y3978240D02*
X1478500Y3978240D01*
X1441500Y3977240D02*
X1447500Y3977240D01*
X1472500Y3977240D02*
X1479500Y3977240D01*
X1441500Y3976240D02*
X1447500Y3976240D01*
X1473500Y3976240D02*
X1479500Y3976240D01*
X1441500Y3975240D02*
X1447500Y3975240D01*
X1473500Y3975240D02*
X1479500Y3975240D01*
X1441500Y3974240D02*
X1447500Y3974240D01*
X1473500Y3974240D02*
X1479500Y3974240D01*
X1441500Y3973240D02*
X1447500Y3973240D01*
X1473500Y3973240D02*
X1479500Y3973240D01*
X1441500Y3972240D02*
X1447500Y3972240D01*
X1473500Y3972240D02*
X1479500Y3972240D01*
X1441500Y3971240D02*
X1447500Y3971240D01*
X1473500Y3971240D02*
X1479500Y3971240D01*
X1441500Y3970240D02*
X1447500Y3970240D01*
X1473500Y3970240D02*
X1479500Y3970240D01*
X1441500Y3969240D02*
X1447500Y3969240D01*
X1473500Y3969240D02*
X1479500Y3969240D01*
X1441500Y3968240D02*
X1447500Y3968240D01*
X1472500Y3968240D02*
X1479500Y3968240D01*
X1441500Y3967240D02*
X1448500Y3967240D01*
X1471500Y3967240D02*
X1478500Y3967240D01*
X1442500Y3966240D02*
X1449500Y3966240D01*
X1471500Y3966240D02*
X1478500Y3966240D01*
X1442500Y3965240D02*
X1450500Y3965240D01*
X1469500Y3965240D02*
X1477500Y3965240D01*
X1443500Y3964240D02*
X1477500Y3964240D01*
X1443500Y3963240D02*
X1476500Y3963240D01*
X1444500Y3962240D02*
X1475500Y3962240D01*
X1445500Y3961240D02*
X1474500Y3961240D01*
X1446500Y3960240D02*
X1473500Y3960240D01*
X1448500Y3959240D02*
X1472500Y3959240D01*
X1450500Y3958240D02*
X1470500Y3958240D01*
X1428500Y3938240D02*
X1430500Y3938240D01*
X1475500Y3938240D02*
X1477500Y3938240D01*
X1427500Y3937240D02*
X1432500Y3937240D01*
X1474500Y3937240D02*
X1478500Y3937240D01*
X1427500Y3936240D02*
X1432500Y3936240D01*
X1473500Y3936240D02*
X1479500Y3936240D01*
X1426500Y3935240D02*
X1432500Y3935240D01*
X1473500Y3935240D02*
X1479500Y3935240D01*
X1426500Y3934240D02*
X1432500Y3934240D01*
X1473500Y3934240D02*
X1479500Y3934240D01*
X1426500Y3933240D02*
X1432500Y3933240D01*
X1473500Y3933240D02*
X1479500Y3933240D01*
X1426500Y3932240D02*
X1432500Y3932240D01*
X1473500Y3932240D02*
X1479500Y3932240D01*
X1426500Y3931240D02*
X1432500Y3931240D01*
X1473500Y3931240D02*
X1479500Y3931240D01*
X1426500Y3930240D02*
X1432500Y3930240D01*
X1473500Y3930240D02*
X1479500Y3930240D01*
X1426500Y3929240D02*
X1432500Y3929240D01*
X1473500Y3929240D02*
X1479500Y3929240D01*
X1426500Y3928240D02*
X1479500Y3928240D01*
X1426500Y3927240D02*
X1479500Y3927240D01*
X1426500Y3926240D02*
X1479500Y3926240D01*
X1426500Y3925240D02*
X1479500Y3925240D01*
X1426500Y3924240D02*
X1479500Y3924240D01*
X1427500Y3923240D02*
X1479500Y3923240D01*
X1428500Y3922240D02*
X1479500Y3922240D01*
X1473500Y3921240D02*
X1479500Y3921240D01*
X1473500Y3920240D02*
X1479500Y3920240D01*
X1473500Y3919240D02*
X1479500Y3919240D01*
X1473500Y3918240D02*
X1479500Y3918240D01*
X1473500Y3917240D02*
X1479500Y3917240D01*
X1473500Y3916240D02*
X1479500Y3916240D01*
X1473500Y3915240D02*
X1479500Y3915240D01*
X1473500Y3914240D02*
X1479500Y3914240D01*
X1473500Y3913240D02*
X1478500Y3913240D01*
X1474500Y3912240D02*
X1477500Y3912240D01*
X1442500Y3891240D02*
X1473500Y3891240D01*
X1441500Y3890240D02*
X1475500Y3890240D01*
X1441500Y3889240D02*
X1476500Y3889240D01*
X1441500Y3888240D02*
X1477500Y3888240D01*
X1441500Y3887240D02*
X1477500Y3887240D01*
X1442500Y3886240D02*
X1478500Y3886240D01*
X1445500Y3885240D02*
X1478500Y3885240D01*
X1472500Y3884240D02*
X1478500Y3884240D01*
X1472500Y3883240D02*
X1479500Y3883240D01*
X1473500Y3882240D02*
X1479500Y3882240D01*
X1473500Y3881240D02*
X1479500Y3881240D01*
X1473500Y3880240D02*
X1479500Y3880240D01*
X1473500Y3879240D02*
X1479500Y3879240D01*
X1473500Y3878240D02*
X1479500Y3878240D01*
X1473500Y3877240D02*
X1479500Y3877240D01*
X1472500Y3876240D02*
X1479500Y3876240D01*
X1472500Y3875240D02*
X1478500Y3875240D01*
X1471500Y3874240D02*
X1478500Y3874240D01*
X1470500Y3873240D02*
X1477500Y3873240D01*
X1470500Y3872240D02*
X1477500Y3872240D01*
X1469500Y3871240D02*
X1476500Y3871240D01*
X1468500Y3870240D02*
X1476500Y3870240D01*
X1468500Y3869240D02*
X1475500Y3869240D01*
X1467500Y3868240D02*
X1474500Y3868240D01*
X1467500Y3867240D02*
X1474500Y3867240D01*
X1466500Y3866240D02*
X1473500Y3866240D01*
X1442500Y3865240D02*
X1477500Y3865240D01*
X1441500Y3864240D02*
X1478500Y3864240D01*
X1441500Y3863240D02*
X1479500Y3863240D01*
X1441500Y3862240D02*
X1479500Y3862240D01*
X1441500Y3861240D02*
X1478500Y3861240D01*
X1442500Y3860240D02*
X1478500Y3860240D01*
X1443500Y3859240D02*
X1477500Y3859240D01*
X1449500Y3842240D02*
X1470500Y3842240D01*
X1448500Y3841240D02*
X1472500Y3841240D01*
X1446500Y3840240D02*
X1473500Y3840240D01*
X1445500Y3839240D02*
X1474500Y3839240D01*
X1444500Y3838240D02*
X1475500Y3838240D01*
X1443500Y3837240D02*
X1476500Y3837240D01*
X1443500Y3836240D02*
X1477500Y3836240D01*
X1442500Y3835240D02*
X1450500Y3835240D01*
X1457500Y3835240D02*
X1463500Y3835240D01*
X1469500Y3835240D02*
X1477500Y3835240D01*
X1442500Y3834240D02*
X1449500Y3834240D01*
X1457500Y3834240D02*
X1463500Y3834240D01*
X1471500Y3834240D02*
X1478500Y3834240D01*
X1441500Y3833240D02*
X1448500Y3833240D01*
X1457500Y3833240D02*
X1463500Y3833240D01*
X1471500Y3833240D02*
X1478500Y3833240D01*
X1441500Y3832240D02*
X1447500Y3832240D01*
X1457500Y3832240D02*
X1463500Y3832240D01*
X1472500Y3832240D02*
X1479500Y3832240D01*
X1441500Y3831240D02*
X1447500Y3831240D01*
X1457500Y3831240D02*
X1463500Y3831240D01*
X1473500Y3831240D02*
X1479500Y3831240D01*
X1441500Y3830240D02*
X1447500Y3830240D01*
X1457500Y3830240D02*
X1463500Y3830240D01*
X1473500Y3830240D02*
X1479500Y3830240D01*
X1441500Y3829240D02*
X1447500Y3829240D01*
X1457500Y3829240D02*
X1463500Y3829240D01*
X1473500Y3829240D02*
X1479500Y3829240D01*
X1441500Y3828240D02*
X1447500Y3828240D01*
X1457500Y3828240D02*
X1463500Y3828240D01*
X1473500Y3828240D02*
X1479500Y3828240D01*
X1441500Y3827240D02*
X1447500Y3827240D01*
X1457500Y3827240D02*
X1463500Y3827240D01*
X1473500Y3827240D02*
X1479500Y3827240D01*
X1441500Y3826240D02*
X1447500Y3826240D01*
X1457500Y3826240D02*
X1463500Y3826240D01*
X1473500Y3826240D02*
X1479500Y3826240D01*
X1441500Y3825240D02*
X1447500Y3825240D01*
X1457500Y3825240D02*
X1463500Y3825240D01*
X1473500Y3825240D02*
X1479500Y3825240D01*
X1441500Y3824240D02*
X1447500Y3824240D01*
X1457500Y3824240D02*
X1463500Y3824240D01*
X1473500Y3824240D02*
X1479500Y3824240D01*
X1441500Y3823240D02*
X1447500Y3823240D01*
X1457500Y3823240D02*
X1463500Y3823240D01*
X1473500Y3823240D02*
X1479500Y3823240D01*
X1441500Y3822240D02*
X1447500Y3822240D01*
X1457500Y3822240D02*
X1463500Y3822240D01*
X1473500Y3822240D02*
X1479500Y3822240D01*
X1441500Y3821240D02*
X1447500Y3821240D01*
X1457500Y3821240D02*
X1463500Y3821240D01*
X1473500Y3821240D02*
X1479500Y3821240D01*
X1441500Y3820240D02*
X1447500Y3820240D01*
X1457500Y3820240D02*
X1463500Y3820240D01*
X1473500Y3820240D02*
X1479500Y3820240D01*
X1441500Y3819240D02*
X1448500Y3819240D01*
X1457500Y3819240D02*
X1463500Y3819240D01*
X1473500Y3819240D02*
X1479500Y3819240D01*
X1442500Y3818240D02*
X1448500Y3818240D01*
X1457500Y3818240D02*
X1463500Y3818240D01*
X1473500Y3818240D02*
X1479500Y3818240D01*
X1442500Y3817240D02*
X1449500Y3817240D01*
X1457500Y3817240D02*
X1463500Y3817240D01*
X1473500Y3817240D02*
X1479500Y3817240D01*
X1442500Y3816240D02*
X1451500Y3816240D01*
X1457500Y3816240D02*
X1463500Y3816240D01*
X1473500Y3816240D02*
X1479500Y3816240D01*
X1443500Y3815240D02*
X1463500Y3815240D01*
X1473500Y3815240D02*
X1479500Y3815240D01*
X1444500Y3814240D02*
X1463500Y3814240D01*
X1473500Y3814240D02*
X1479500Y3814240D01*
X1445500Y3813240D02*
X1463500Y3813240D01*
X1473500Y3813240D02*
X1479500Y3813240D01*
X1446500Y3812240D02*
X1463500Y3812240D01*
X1473500Y3812240D02*
X1479500Y3812240D01*
X1447500Y3811240D02*
X1463500Y3811240D01*
X1473500Y3811240D02*
X1478500Y3811240D01*
X1449500Y3810240D02*
X1462500Y3810240D01*
X1474500Y3810240D02*
X1478500Y3810240D01*
X1451500Y3809240D02*
X1461500Y3809240D01*
X1475500Y3809240D02*
X1476500Y3809240D01*
X1441500Y3793240D02*
X1491500Y3793240D01*
X1440500Y3792240D02*
X1492500Y3792240D01*
X1440500Y3791240D02*
X1493500Y3791240D01*
X1439500Y3790240D02*
X1493500Y3790240D01*
X1440500Y3789240D02*
X1493500Y3789240D01*
X1440500Y3788240D02*
X1493500Y3788240D01*
X1441500Y3787240D02*
X1492500Y3787240D01*
X1444500Y3786240D02*
X1453500Y3786240D01*
X1466500Y3786240D02*
X1475500Y3786240D01*
X1443500Y3785240D02*
X1452500Y3785240D01*
X1468500Y3785240D02*
X1476500Y3785240D01*
X1442500Y3784240D02*
X1451500Y3784240D01*
X1469500Y3784240D02*
X1477500Y3784240D01*
X1442500Y3783240D02*
X1450500Y3783240D01*
X1470500Y3783240D02*
X1478500Y3783240D01*
X1441500Y3782240D02*
X1449500Y3782240D01*
X1471500Y3782240D02*
X1479500Y3782240D01*
X1440500Y3781240D02*
X1448500Y3781240D01*
X1472500Y3781240D02*
X1479500Y3781240D01*
X1440500Y3780240D02*
X1447500Y3780240D01*
X1473500Y3780240D02*
X1480500Y3780240D01*
X1440500Y3779240D02*
X1446500Y3779240D01*
X1474500Y3779240D02*
X1480500Y3779240D01*
X1440500Y3778240D02*
X1446500Y3778240D01*
X1474500Y3778240D02*
X1480500Y3778240D01*
X1440500Y3777240D02*
X1445500Y3777240D01*
X1474500Y3777240D02*
X1480500Y3777240D01*
X1439500Y3776240D02*
X1445500Y3776240D01*
X1474500Y3776240D02*
X1480500Y3776240D01*
X1439500Y3775240D02*
X1445500Y3775240D01*
X1474500Y3775240D02*
X1480500Y3775240D01*
X1440500Y3774240D02*
X1446500Y3774240D01*
X1474500Y3774240D02*
X1480500Y3774240D01*
X1440500Y3773240D02*
X1446500Y3773240D01*
X1473500Y3773240D02*
X1480500Y3773240D01*
X1440500Y3772240D02*
X1447500Y3772240D01*
X1472500Y3772240D02*
X1480500Y3772240D01*
X1440500Y3771240D02*
X1448500Y3771240D01*
X1471500Y3771240D02*
X1479500Y3771240D01*
X1441500Y3770240D02*
X1449500Y3770240D01*
X1471500Y3770240D02*
X1479500Y3770240D01*
X1442500Y3769240D02*
X1450500Y3769240D01*
X1470500Y3769240D02*
X1478500Y3769240D01*
X1443500Y3768240D02*
X1451500Y3768240D01*
X1469500Y3768240D02*
X1477500Y3768240D01*
X1443500Y3767240D02*
X1452500Y3767240D01*
X1468500Y3767240D02*
X1476500Y3767240D01*
X1444500Y3766240D02*
X1475500Y3766240D01*
X1445500Y3765240D02*
X1475500Y3765240D01*
X1446500Y3764240D02*
X1474500Y3764240D01*
X1447500Y3763240D02*
X1473500Y3763240D01*
X1448500Y3762240D02*
X1472500Y3762240D01*
X1449500Y3761240D02*
X1470500Y3761240D01*
X1451500Y3760240D02*
X1469500Y3760240D01*
X1442500Y3743240D02*
X1477500Y3743240D01*
X1441500Y3742240D02*
X1478500Y3742240D01*
X1441500Y3741240D02*
X1479500Y3741240D01*
X1441500Y3740240D02*
X1479500Y3740240D01*
X1441500Y3739240D02*
X1478500Y3739240D01*
X1442500Y3738240D02*
X1478500Y3738240D01*
X1445500Y3737240D02*
X1475500Y3737240D01*
X1448500Y3736240D02*
X1456500Y3736240D01*
X1447500Y3735240D02*
X1455500Y3735240D01*
X1446500Y3734240D02*
X1454500Y3734240D01*
X1445500Y3733240D02*
X1453500Y3733240D01*
X1444500Y3732240D02*
X1452500Y3732240D01*
X1443500Y3731240D02*
X1451500Y3731240D01*
X1442500Y3730240D02*
X1451500Y3730240D01*
X1442500Y3729240D02*
X1450500Y3729240D01*
X1441500Y3728240D02*
X1449500Y3728240D01*
X1441500Y3727240D02*
X1448500Y3727240D01*
X1441500Y3726240D02*
X1447500Y3726240D01*
X1441500Y3725240D02*
X1447500Y3725240D01*
X1441500Y3724240D02*
X1447500Y3724240D01*
X1441500Y3723240D02*
X1447500Y3723240D01*
X1441500Y3722240D02*
X1447500Y3722240D01*
X1441500Y3721240D02*
X1447500Y3721240D01*
X1441500Y3720240D02*
X1447500Y3720240D01*
X1441500Y3719240D02*
X1447500Y3719240D01*
X1441500Y3718240D02*
X1447500Y3718240D01*
X1441500Y3717240D02*
X1448500Y3717240D01*
X1441500Y3716240D02*
X1453500Y3716240D01*
X1442500Y3715240D02*
X1454500Y3715240D01*
X1442500Y3714240D02*
X1455500Y3714240D01*
X1443500Y3713240D02*
X1455500Y3713240D01*
X1444500Y3712240D02*
X1455500Y3712240D01*
X1445500Y3711240D02*
X1454500Y3711240D01*
X1448500Y3710240D02*
X1453500Y3710240D01*
X1442500Y3690240D02*
X1446500Y3690240D01*
X1474500Y3690240D02*
X1478500Y3690240D01*
X1441500Y3689240D02*
X1446500Y3689240D01*
X1473500Y3689240D02*
X1478500Y3689240D01*
X1441500Y3688240D02*
X1447500Y3688240D01*
X1473500Y3688240D02*
X1479500Y3688240D01*
X1441500Y3687240D02*
X1447500Y3687240D01*
X1473500Y3687240D02*
X1479500Y3687240D01*
X1441500Y3686240D02*
X1447500Y3686240D01*
X1473500Y3686240D02*
X1479500Y3686240D01*
X1441500Y3685240D02*
X1447500Y3685240D01*
X1473500Y3685240D02*
X1479500Y3685240D01*
X1426500Y3684240D02*
X1430500Y3684240D01*
X1441500Y3684240D02*
X1447500Y3684240D01*
X1473500Y3684240D02*
X1479500Y3684240D01*
X1424500Y3683240D02*
X1431500Y3683240D01*
X1441500Y3683240D02*
X1447500Y3683240D01*
X1473500Y3683240D02*
X1479500Y3683240D01*
X1424500Y3682240D02*
X1432500Y3682240D01*
X1441500Y3682240D02*
X1447500Y3682240D01*
X1473500Y3682240D02*
X1479500Y3682240D01*
X1424500Y3681240D02*
X1432500Y3681240D01*
X1441500Y3681240D02*
X1447500Y3681240D01*
X1473500Y3681240D02*
X1479500Y3681240D01*
X1423500Y3680240D02*
X1432500Y3680240D01*
X1441500Y3680240D02*
X1479500Y3680240D01*
X1423500Y3679240D02*
X1432500Y3679240D01*
X1441500Y3679240D02*
X1479500Y3679240D01*
X1423500Y3678240D02*
X1432500Y3678240D01*
X1441500Y3678240D02*
X1479500Y3678240D01*
X1424500Y3677240D02*
X1432500Y3677240D01*
X1441500Y3677240D02*
X1479500Y3677240D01*
X1424500Y3676240D02*
X1432500Y3676240D01*
X1441500Y3676240D02*
X1479500Y3676240D01*
X1424500Y3675240D02*
X1431500Y3675240D01*
X1442500Y3675240D02*
X1479500Y3675240D01*
X1426500Y3674240D02*
X1430500Y3674240D01*
X1443500Y3674240D02*
X1479500Y3674240D01*
X1473500Y3673240D02*
X1479500Y3673240D01*
X1473500Y3672240D02*
X1479500Y3672240D01*
X1473500Y3671240D02*
X1479500Y3671240D01*
X1473500Y3670240D02*
X1479500Y3670240D01*
X1473500Y3669240D02*
X1479500Y3669240D01*
X1473500Y3668240D02*
X1479500Y3668240D01*
X1473500Y3667240D02*
X1479500Y3667240D01*
X1473500Y3666240D02*
X1478500Y3666240D01*
X1474500Y3665240D02*
X1478500Y3665240D01*
X1475500Y3664240D02*
X1477500Y3664240D01*
X1443500Y3644240D02*
X1477500Y3644240D01*
X1442500Y3643240D02*
X1478500Y3643240D01*
X1441500Y3642240D02*
X1479500Y3642240D01*
X1441500Y3641240D02*
X1479500Y3641240D01*
X1441500Y3640240D02*
X1479500Y3640240D01*
X1441500Y3639240D02*
X1478500Y3639240D01*
X1442500Y3638240D02*
X1477500Y3638240D01*
X1446500Y3637240D02*
X1454500Y3637240D01*
X1446500Y3636240D02*
X1453500Y3636240D01*
X1445500Y3635240D02*
X1452500Y3635240D01*
X1444500Y3634240D02*
X1452500Y3634240D01*
X1444500Y3633240D02*
X1451500Y3633240D01*
X1443500Y3632240D02*
X1450500Y3632240D01*
X1443500Y3631240D02*
X1450500Y3631240D01*
X1442500Y3630240D02*
X1449500Y3630240D01*
X1442500Y3629240D02*
X1448500Y3629240D01*
X1441500Y3628240D02*
X1448500Y3628240D01*
X1441500Y3627240D02*
X1447500Y3627240D01*
X1441500Y3626240D02*
X1447500Y3626240D01*
X1441500Y3625240D02*
X1447500Y3625240D01*
X1441500Y3624240D02*
X1447500Y3624240D01*
X1441500Y3623240D02*
X1447500Y3623240D01*
X1441500Y3622240D02*
X1447500Y3622240D01*
X1441500Y3621240D02*
X1447500Y3621240D01*
X1441500Y3620240D02*
X1447500Y3620240D01*
X1441500Y3619240D02*
X1448500Y3619240D01*
X1441500Y3618240D02*
X1476500Y3618240D01*
X1442500Y3617240D02*
X1478500Y3617240D01*
X1442500Y3616240D02*
X1478500Y3616240D01*
X1443500Y3615240D02*
X1479500Y3615240D01*
X1444500Y3614240D02*
X1479500Y3614240D01*
X1445500Y3613240D02*
X1478500Y3613240D01*
X1447500Y3612240D02*
X1477500Y3612240D01*
X1443500Y3595240D02*
X1445500Y3595240D01*
X1442500Y3594240D02*
X1446500Y3594240D01*
X1441500Y3593240D02*
X1447500Y3593240D01*
X1441500Y3592240D02*
X1447500Y3592240D01*
X1441500Y3591240D02*
X1447500Y3591240D01*
X1441500Y3590240D02*
X1447500Y3590240D01*
X1441500Y3589240D02*
X1447500Y3589240D01*
X1431500Y3588240D02*
X1472500Y3588240D01*
X1430500Y3587240D02*
X1474500Y3587240D01*
X1429500Y3586240D02*
X1475500Y3586240D01*
X1429500Y3585240D02*
X1476500Y3585240D01*
X1429500Y3584240D02*
X1477500Y3584240D01*
X1430500Y3583240D02*
X1478500Y3583240D01*
X1431500Y3582240D02*
X1478500Y3582240D01*
X1441500Y3581240D02*
X1447500Y3581240D01*
X1471500Y3581240D02*
X1478500Y3581240D01*
X1441500Y3580240D02*
X1447500Y3580240D01*
X1472500Y3580240D02*
X1479500Y3580240D01*
X1441500Y3579240D02*
X1447500Y3579240D01*
X1473500Y3579240D02*
X1479500Y3579240D01*
X1441500Y3578240D02*
X1447500Y3578240D01*
X1473500Y3578240D02*
X1479500Y3578240D01*
X1441500Y3577240D02*
X1447500Y3577240D01*
X1473500Y3577240D02*
X1479500Y3577240D01*
X1441500Y3576240D02*
X1447500Y3576240D01*
X1473500Y3576240D02*
X1479500Y3576240D01*
X1441500Y3575240D02*
X1447500Y3575240D01*
X1473500Y3575240D02*
X1479500Y3575240D01*
X1441500Y3574240D02*
X1447500Y3574240D01*
X1473500Y3574240D02*
X1479500Y3574240D01*
X1441500Y3573240D02*
X1447500Y3573240D01*
X1473500Y3573240D02*
X1479500Y3573240D01*
X1441500Y3572240D02*
X1447500Y3572240D01*
X1473500Y3572240D02*
X1479500Y3572240D01*
X1441500Y3571240D02*
X1447500Y3571240D01*
X1473500Y3571240D02*
X1479500Y3571240D01*
X1441500Y3570240D02*
X1447500Y3570240D01*
X1472500Y3570240D02*
X1479500Y3570240D01*
X1441500Y3569240D02*
X1446500Y3569240D01*
X1471500Y3569240D02*
X1478500Y3569240D01*
X1442500Y3568240D02*
X1446500Y3568240D01*
X1470500Y3568240D02*
X1478500Y3568240D01*
X1443500Y3567240D02*
X1444500Y3567240D01*
X1468500Y3567240D02*
X1478500Y3567240D01*
X1467500Y3566240D02*
X1477500Y3566240D01*
X1467500Y3565240D02*
X1476500Y3565240D01*
X1467500Y3564240D02*
X1475500Y3564240D01*
X1467500Y3563240D02*
X1474500Y3563240D01*
X1468500Y3562240D02*
X1472500Y3562240D01*
X1433500Y3545240D02*
X1437500Y3545240D01*
X1453500Y3545240D02*
X1472500Y3545240D01*
X1432500Y3544240D02*
X1438500Y3544240D01*
X1451500Y3544240D02*
X1474500Y3544240D01*
X1431500Y3543240D02*
X1438500Y3543240D01*
X1450500Y3543240D02*
X1475500Y3543240D01*
X1430500Y3542240D02*
X1438500Y3542240D01*
X1449500Y3542240D02*
X1476500Y3542240D01*
X1429500Y3541240D02*
X1438500Y3541240D01*
X1448500Y3541240D02*
X1477500Y3541240D01*
X1428500Y3540240D02*
X1437500Y3540240D01*
X1448500Y3540240D02*
X1478500Y3540240D01*
X1428500Y3539240D02*
X1436500Y3539240D01*
X1447500Y3539240D02*
X1478500Y3539240D01*
X1427500Y3538240D02*
X1434500Y3538240D01*
X1447500Y3538240D02*
X1454500Y3538240D01*
X1472500Y3538240D02*
X1478500Y3538240D01*
X1427500Y3537240D02*
X1434500Y3537240D01*
X1447500Y3537240D02*
X1453500Y3537240D01*
X1472500Y3537240D02*
X1479500Y3537240D01*
X1427500Y3536240D02*
X1433500Y3536240D01*
X1447500Y3536240D02*
X1453500Y3536240D01*
X1473500Y3536240D02*
X1479500Y3536240D01*
X1426500Y3535240D02*
X1432500Y3535240D01*
X1447500Y3535240D02*
X1453500Y3535240D01*
X1473500Y3535240D02*
X1479500Y3535240D01*
X1426500Y3534240D02*
X1432500Y3534240D01*
X1447500Y3534240D02*
X1453500Y3534240D01*
X1472500Y3534240D02*
X1479500Y3534240D01*
X1426500Y3533240D02*
X1432500Y3533240D01*
X1447500Y3533240D02*
X1453500Y3533240D01*
X1471500Y3533240D02*
X1478500Y3533240D01*
X1426500Y3532240D02*
X1432500Y3532240D01*
X1447500Y3532240D02*
X1478500Y3532240D01*
X1426500Y3531240D02*
X1432500Y3531240D01*
X1447500Y3531240D02*
X1478500Y3531240D01*
X1426500Y3530240D02*
X1432500Y3530240D01*
X1447500Y3530240D02*
X1477500Y3530240D01*
X1426500Y3529240D02*
X1432500Y3529240D01*
X1447500Y3529240D02*
X1476500Y3529240D01*
X1426500Y3528240D02*
X1432500Y3528240D01*
X1447500Y3528240D02*
X1477500Y3528240D01*
X1426500Y3527240D02*
X1432500Y3527240D01*
X1447500Y3527240D02*
X1477500Y3527240D01*
X1426500Y3526240D02*
X1432500Y3526240D01*
X1448500Y3526240D02*
X1478500Y3526240D01*
X1426500Y3525240D02*
X1432500Y3525240D01*
X1471500Y3525240D02*
X1478500Y3525240D01*
X1426500Y3524240D02*
X1432500Y3524240D01*
X1472500Y3524240D02*
X1478500Y3524240D01*
X1426500Y3523240D02*
X1432500Y3523240D01*
X1473500Y3523240D02*
X1479500Y3523240D01*
X1427500Y3522240D02*
X1433500Y3522240D01*
X1473500Y3522240D02*
X1479500Y3522240D01*
X1427500Y3521240D02*
X1433500Y3521240D01*
X1473500Y3521240D02*
X1479500Y3521240D01*
X1427500Y3520240D02*
X1434500Y3520240D01*
X1472500Y3520240D02*
X1479500Y3520240D01*
X1427500Y3519240D02*
X1436500Y3519240D01*
X1471500Y3519240D02*
X1478500Y3519240D01*
X1428500Y3518240D02*
X1478500Y3518240D01*
X1429500Y3517240D02*
X1477500Y3517240D01*
X1429500Y3516240D02*
X1477500Y3516240D01*
X1430500Y3515240D02*
X1476500Y3515240D01*
X1432500Y3514240D02*
X1475500Y3514240D01*
X1433500Y3513240D02*
X1473500Y3513240D01*
X1436500Y3512240D02*
X1471500Y3512240D01*
X1441500Y3496240D02*
X1491500Y3496240D01*
X1440500Y3495240D02*
X1492500Y3495240D01*
X1440500Y3494240D02*
X1493500Y3494240D01*
X1439500Y3493240D02*
X1493500Y3493240D01*
X1440500Y3492240D02*
X1493500Y3492240D01*
X1440500Y3491240D02*
X1493500Y3491240D01*
X1441500Y3490240D02*
X1492500Y3490240D01*
X1444500Y3489240D02*
X1453500Y3489240D01*
X1466500Y3489240D02*
X1475500Y3489240D01*
X1443500Y3488240D02*
X1452500Y3488240D01*
X1468500Y3488240D02*
X1476500Y3488240D01*
X1442500Y3487240D02*
X1451500Y3487240D01*
X1469500Y3487240D02*
X1477500Y3487240D01*
X1442500Y3486240D02*
X1450500Y3486240D01*
X1470500Y3486240D02*
X1478500Y3486240D01*
X1441500Y3485240D02*
X1449500Y3485240D01*
X1471500Y3485240D02*
X1479500Y3485240D01*
X1440500Y3484240D02*
X1448500Y3484240D01*
X1472500Y3484240D02*
X1479500Y3484240D01*
X1440500Y3483240D02*
X1447500Y3483240D01*
X1473500Y3483240D02*
X1480500Y3483240D01*
X1440500Y3482240D02*
X1446500Y3482240D01*
X1474500Y3482240D02*
X1480500Y3482240D01*
X1440500Y3481240D02*
X1446500Y3481240D01*
X1474500Y3481240D02*
X1480500Y3481240D01*
X1440500Y3480240D02*
X1445500Y3480240D01*
X1474500Y3480240D02*
X1480500Y3480240D01*
X1439500Y3479240D02*
X1445500Y3479240D01*
X1474500Y3479240D02*
X1480500Y3479240D01*
X1439500Y3478240D02*
X1445500Y3478240D01*
X1474500Y3478240D02*
X1480500Y3478240D01*
X1440500Y3477240D02*
X1446500Y3477240D01*
X1474500Y3477240D02*
X1480500Y3477240D01*
X1440500Y3476240D02*
X1446500Y3476240D01*
X1473500Y3476240D02*
X1480500Y3476240D01*
X1440500Y3475240D02*
X1447500Y3475240D01*
X1472500Y3475240D02*
X1480500Y3475240D01*
X1440500Y3474240D02*
X1448500Y3474240D01*
X1471500Y3474240D02*
X1479500Y3474240D01*
X1441500Y3473240D02*
X1449500Y3473240D01*
X1471500Y3473240D02*
X1479500Y3473240D01*
X1442500Y3472240D02*
X1450500Y3472240D01*
X1470500Y3472240D02*
X1478500Y3472240D01*
X1442500Y3471240D02*
X1451500Y3471240D01*
X1469500Y3471240D02*
X1477500Y3471240D01*
X1443500Y3470240D02*
X1452500Y3470240D01*
X1468500Y3470240D02*
X1476500Y3470240D01*
X1444500Y3469240D02*
X1475500Y3469240D01*
X1445500Y3468240D02*
X1475500Y3468240D01*
X1446500Y3467240D02*
X1474500Y3467240D01*
X1447500Y3466240D02*
X1473500Y3466240D01*
X1448500Y3465240D02*
X1472500Y3465240D01*
X1449500Y3464240D02*
X1470500Y3464240D01*
X1451500Y3463240D02*
X1469500Y3463240D01*
X1450500Y3446240D02*
X1470500Y3446240D01*
X1448500Y3445240D02*
X1472500Y3445240D01*
X1446500Y3444240D02*
X1473500Y3444240D01*
X1445500Y3443240D02*
X1474500Y3443240D01*
X1444500Y3442240D02*
X1475500Y3442240D01*
X1443500Y3441240D02*
X1476500Y3441240D01*
X1443500Y3440240D02*
X1477500Y3440240D01*
X1442500Y3439240D02*
X1450500Y3439240D01*
X1469500Y3439240D02*
X1477500Y3439240D01*
X1442500Y3438240D02*
X1449500Y3438240D01*
X1471500Y3438240D02*
X1478500Y3438240D01*
X1441500Y3437240D02*
X1448500Y3437240D01*
X1471500Y3437240D02*
X1478500Y3437240D01*
X1441500Y3436240D02*
X1447500Y3436240D01*
X1472500Y3436240D02*
X1478500Y3436240D01*
X1441500Y3435240D02*
X1447500Y3435240D01*
X1473500Y3435240D02*
X1479500Y3435240D01*
X1441500Y3434240D02*
X1447500Y3434240D01*
X1473500Y3434240D02*
X1479500Y3434240D01*
X1441500Y3433240D02*
X1447500Y3433240D01*
X1473500Y3433240D02*
X1479500Y3433240D01*
X1441500Y3432240D02*
X1447500Y3432240D01*
X1473500Y3432240D02*
X1479500Y3432240D01*
X1441500Y3431240D02*
X1447500Y3431240D01*
X1473500Y3431240D02*
X1479500Y3431240D01*
X1441500Y3430240D02*
X1447500Y3430240D01*
X1473500Y3430240D02*
X1479500Y3430240D01*
X1441500Y3429240D02*
X1447500Y3429240D01*
X1473500Y3429240D02*
X1479500Y3429240D01*
X1441500Y3428240D02*
X1447500Y3428240D01*
X1473500Y3428240D02*
X1479500Y3428240D01*
X1441500Y3427240D02*
X1447500Y3427240D01*
X1473500Y3427240D02*
X1479500Y3427240D01*
X1441500Y3426240D02*
X1447500Y3426240D01*
X1473500Y3426240D02*
X1479500Y3426240D01*
X1441500Y3425240D02*
X1447500Y3425240D01*
X1473500Y3425240D02*
X1479500Y3425240D01*
X1441500Y3424240D02*
X1447500Y3424240D01*
X1472500Y3424240D02*
X1479500Y3424240D01*
X1441500Y3423240D02*
X1448500Y3423240D01*
X1472500Y3423240D02*
X1478500Y3423240D01*
X1442500Y3422240D02*
X1448500Y3422240D01*
X1471500Y3422240D02*
X1478500Y3422240D01*
X1442500Y3421240D02*
X1449500Y3421240D01*
X1470500Y3421240D02*
X1478500Y3421240D01*
X1442500Y3420240D02*
X1451500Y3420240D01*
X1469500Y3420240D02*
X1477500Y3420240D01*
X1443500Y3419240D02*
X1476500Y3419240D01*
X1444500Y3418240D02*
X1476500Y3418240D01*
X1445500Y3417240D02*
X1475500Y3417240D01*
X1446500Y3416240D02*
X1474500Y3416240D01*
X1447500Y3415240D02*
X1473500Y3415240D01*
X1448500Y3414240D02*
X1471500Y3414240D01*
X1451500Y3413240D02*
X1469500Y3413240D01*
X1451500Y3397240D02*
X1469500Y3397240D01*
X1449500Y3396240D02*
X1471500Y3396240D01*
X1447500Y3395240D02*
X1473500Y3395240D01*
X1446500Y3394240D02*
X1474500Y3394240D01*
X1445500Y3393240D02*
X1475500Y3393240D01*
X1444500Y3392240D02*
X1476500Y3392240D01*
X1443500Y3391240D02*
X1476500Y3391240D01*
X1442500Y3390240D02*
X1451500Y3390240D01*
X1457500Y3390240D02*
X1463500Y3390240D01*
X1469500Y3390240D02*
X1477500Y3390240D01*
X1442500Y3389240D02*
X1450500Y3389240D01*
X1457500Y3389240D02*
X1463500Y3389240D01*
X1470500Y3389240D02*
X1478500Y3389240D01*
X1442500Y3388240D02*
X1448500Y3388240D01*
X1457500Y3388240D02*
X1463500Y3388240D01*
X1471500Y3388240D02*
X1478500Y3388240D01*
X1441500Y3387240D02*
X1448500Y3387240D01*
X1457500Y3387240D02*
X1463500Y3387240D01*
X1472500Y3387240D02*
X1478500Y3387240D01*
X1441500Y3386240D02*
X1447500Y3386240D01*
X1457500Y3386240D02*
X1463500Y3386240D01*
X1472500Y3386240D02*
X1479500Y3386240D01*
X1441500Y3385240D02*
X1447500Y3385240D01*
X1457500Y3385240D02*
X1463500Y3385240D01*
X1473500Y3385240D02*
X1479500Y3385240D01*
X1441500Y3384240D02*
X1447500Y3384240D01*
X1457500Y3384240D02*
X1463500Y3384240D01*
X1473500Y3384240D02*
X1479500Y3384240D01*
X1441500Y3383240D02*
X1447500Y3383240D01*
X1457500Y3383240D02*
X1463500Y3383240D01*
X1473500Y3383240D02*
X1479500Y3383240D01*
X1441500Y3382240D02*
X1447500Y3382240D01*
X1457500Y3382240D02*
X1463500Y3382240D01*
X1473500Y3382240D02*
X1479500Y3382240D01*
X1441500Y3381240D02*
X1447500Y3381240D01*
X1457500Y3381240D02*
X1463500Y3381240D01*
X1473500Y3381240D02*
X1479500Y3381240D01*
X1441500Y3380240D02*
X1447500Y3380240D01*
X1457500Y3380240D02*
X1463500Y3380240D01*
X1473500Y3380240D02*
X1479500Y3380240D01*
X1441500Y3379240D02*
X1447500Y3379240D01*
X1457500Y3379240D02*
X1463500Y3379240D01*
X1473500Y3379240D02*
X1479500Y3379240D01*
X1441500Y3378240D02*
X1447500Y3378240D01*
X1457500Y3378240D02*
X1463500Y3378240D01*
X1473500Y3378240D02*
X1479500Y3378240D01*
X1441500Y3377240D02*
X1447500Y3377240D01*
X1457500Y3377240D02*
X1463500Y3377240D01*
X1473500Y3377240D02*
X1479500Y3377240D01*
X1441500Y3376240D02*
X1447500Y3376240D01*
X1457500Y3376240D02*
X1463500Y3376240D01*
X1473500Y3376240D02*
X1479500Y3376240D01*
X1441500Y3375240D02*
X1447500Y3375240D01*
X1457500Y3375240D02*
X1463500Y3375240D01*
X1473500Y3375240D02*
X1479500Y3375240D01*
X1441500Y3374240D02*
X1447500Y3374240D01*
X1457500Y3374240D02*
X1463500Y3374240D01*
X1473500Y3374240D02*
X1479500Y3374240D01*
X1441500Y3373240D02*
X1448500Y3373240D01*
X1457500Y3373240D02*
X1463500Y3373240D01*
X1473500Y3373240D02*
X1479500Y3373240D01*
X1442500Y3372240D02*
X1449500Y3372240D01*
X1457500Y3372240D02*
X1463500Y3372240D01*
X1473500Y3372240D02*
X1479500Y3372240D01*
X1442500Y3371240D02*
X1450500Y3371240D01*
X1457500Y3371240D02*
X1463500Y3371240D01*
X1473500Y3371240D02*
X1479500Y3371240D01*
X1443500Y3370240D02*
X1463500Y3370240D01*
X1473500Y3370240D02*
X1479500Y3370240D01*
X1443500Y3369240D02*
X1463500Y3369240D01*
X1473500Y3369240D02*
X1479500Y3369240D01*
X1444500Y3368240D02*
X1463500Y3368240D01*
X1473500Y3368240D02*
X1479500Y3368240D01*
X1445500Y3367240D02*
X1463500Y3367240D01*
X1473500Y3367240D02*
X1479500Y3367240D01*
X1446500Y3366240D02*
X1463500Y3366240D01*
X1473500Y3366240D02*
X1479500Y3366240D01*
X1448500Y3365240D02*
X1462500Y3365240D01*
X1473500Y3365240D02*
X1478500Y3365240D01*
X1450500Y3364240D02*
X1461500Y3364240D01*
X1474500Y3364240D02*
X1477500Y3364240D01*
X1442500Y3347240D02*
X1446500Y3347240D01*
X1441500Y3346240D02*
X1446500Y3346240D01*
X1441500Y3345240D02*
X1447500Y3345240D01*
X1441500Y3344240D02*
X1447500Y3344240D01*
X1441500Y3343240D02*
X1447500Y3343240D01*
X1441500Y3342240D02*
X1447500Y3342240D01*
X1432500Y3341240D02*
X1469500Y3341240D01*
X1430500Y3340240D02*
X1473500Y3340240D01*
X1429500Y3339240D02*
X1475500Y3339240D01*
X1429500Y3338240D02*
X1476500Y3338240D01*
X1429500Y3337240D02*
X1477500Y3337240D01*
X1430500Y3336240D02*
X1477500Y3336240D01*
X1431500Y3335240D02*
X1478500Y3335240D01*
X1441500Y3334240D02*
X1447500Y3334240D01*
X1470500Y3334240D02*
X1478500Y3334240D01*
X1441500Y3333240D02*
X1447500Y3333240D01*
X1472500Y3333240D02*
X1478500Y3333240D01*
X1441500Y3332240D02*
X1447500Y3332240D01*
X1473500Y3332240D02*
X1479500Y3332240D01*
X1441500Y3331240D02*
X1447500Y3331240D01*
X1473500Y3331240D02*
X1479500Y3331240D01*
X1441500Y3330240D02*
X1447500Y3330240D01*
X1473500Y3330240D02*
X1479500Y3330240D01*
X1441500Y3329240D02*
X1447500Y3329240D01*
X1473500Y3329240D02*
X1479500Y3329240D01*
X1441500Y3328240D02*
X1447500Y3328240D01*
X1473500Y3328240D02*
X1479500Y3328240D01*
X1441500Y3327240D02*
X1447500Y3327240D01*
X1473500Y3327240D02*
X1479500Y3327240D01*
X1441500Y3326240D02*
X1447500Y3326240D01*
X1473500Y3326240D02*
X1479500Y3326240D01*
X1441500Y3325240D02*
X1447500Y3325240D01*
X1473500Y3325240D02*
X1479500Y3325240D01*
X1441500Y3324240D02*
X1447500Y3324240D01*
X1473500Y3324240D02*
X1479500Y3324240D01*
X1441500Y3323240D02*
X1447500Y3323240D01*
X1473500Y3323240D02*
X1479500Y3323240D01*
X1441500Y3322240D02*
X1447500Y3322240D01*
X1472500Y3322240D02*
X1478500Y3322240D01*
X1441500Y3321240D02*
X1446500Y3321240D01*
X1471500Y3321240D02*
X1478500Y3321240D01*
X1442500Y3320240D02*
X1445500Y3320240D01*
X1469500Y3320240D02*
X1478500Y3320240D01*
X1468500Y3319240D02*
X1477500Y3319240D01*
X1467500Y3318240D02*
X1477500Y3318240D01*
X1467500Y3317240D02*
X1476500Y3317240D01*
X1467500Y3316240D02*
X1475500Y3316240D01*
X1468500Y3315240D02*
X1473500Y3315240D01*
X1470500Y3314240D02*
X1471500Y3314240D01*
X1463500Y3298240D02*
X1471500Y3298240D01*
X1461500Y3297240D02*
X1473500Y3297240D01*
X1459500Y3296240D02*
X1475500Y3296240D01*
X1458500Y3295240D02*
X1476500Y3295240D01*
X1457500Y3294240D02*
X1477500Y3294240D01*
X1443500Y3293240D02*
X1445500Y3293240D01*
X1457500Y3293240D02*
X1477500Y3293240D01*
X1442500Y3292240D02*
X1446500Y3292240D01*
X1456500Y3292240D02*
X1478500Y3292240D01*
X1441500Y3291240D02*
X1446500Y3291240D01*
X1456500Y3291240D02*
X1462500Y3291240D01*
X1472500Y3291240D02*
X1478500Y3291240D01*
X1441500Y3290240D02*
X1447500Y3290240D01*
X1456500Y3290240D02*
X1461500Y3290240D01*
X1473500Y3290240D02*
X1479500Y3290240D01*
X1441500Y3289240D02*
X1447500Y3289240D01*
X1456500Y3289240D02*
X1461500Y3289240D01*
X1473500Y3289240D02*
X1479500Y3289240D01*
X1441500Y3288240D02*
X1447500Y3288240D01*
X1455500Y3288240D02*
X1461500Y3288240D01*
X1473500Y3288240D02*
X1479500Y3288240D01*
X1441500Y3287240D02*
X1447500Y3287240D01*
X1455500Y3287240D02*
X1461500Y3287240D01*
X1473500Y3287240D02*
X1479500Y3287240D01*
X1441500Y3286240D02*
X1447500Y3286240D01*
X1455500Y3286240D02*
X1461500Y3286240D01*
X1473500Y3286240D02*
X1479500Y3286240D01*
X1441500Y3285240D02*
X1447500Y3285240D01*
X1455500Y3285240D02*
X1461500Y3285240D01*
X1473500Y3285240D02*
X1479500Y3285240D01*
X1441500Y3284240D02*
X1447500Y3284240D01*
X1455500Y3284240D02*
X1461500Y3284240D01*
X1473500Y3284240D02*
X1479500Y3284240D01*
X1441500Y3283240D02*
X1447500Y3283240D01*
X1455500Y3283240D02*
X1461500Y3283240D01*
X1473500Y3283240D02*
X1479500Y3283240D01*
X1441500Y3282240D02*
X1447500Y3282240D01*
X1455500Y3282240D02*
X1461500Y3282240D01*
X1473500Y3282240D02*
X1479500Y3282240D01*
X1441500Y3281240D02*
X1447500Y3281240D01*
X1455500Y3281240D02*
X1461500Y3281240D01*
X1473500Y3281240D02*
X1479500Y3281240D01*
X1441500Y3280240D02*
X1447500Y3280240D01*
X1455500Y3280240D02*
X1461500Y3280240D01*
X1473500Y3280240D02*
X1479500Y3280240D01*
X1441500Y3279240D02*
X1447500Y3279240D01*
X1455500Y3279240D02*
X1461500Y3279240D01*
X1473500Y3279240D02*
X1479500Y3279240D01*
X1441500Y3278240D02*
X1447500Y3278240D01*
X1455500Y3278240D02*
X1461500Y3278240D01*
X1473500Y3278240D02*
X1479500Y3278240D01*
X1441500Y3277240D02*
X1447500Y3277240D01*
X1455500Y3277240D02*
X1461500Y3277240D01*
X1472500Y3277240D02*
X1478500Y3277240D01*
X1441500Y3276240D02*
X1447500Y3276240D01*
X1455500Y3276240D02*
X1461500Y3276240D01*
X1472500Y3276240D02*
X1478500Y3276240D01*
X1441500Y3275240D02*
X1447500Y3275240D01*
X1455500Y3275240D02*
X1461500Y3275240D01*
X1471500Y3275240D02*
X1478500Y3275240D01*
X1441500Y3274240D02*
X1447500Y3274240D01*
X1455500Y3274240D02*
X1461500Y3274240D01*
X1470500Y3274240D02*
X1477500Y3274240D01*
X1441500Y3273240D02*
X1447500Y3273240D01*
X1456500Y3273240D02*
X1461500Y3273240D01*
X1470500Y3273240D02*
X1477500Y3273240D01*
X1441500Y3272240D02*
X1448500Y3272240D01*
X1456500Y3272240D02*
X1462500Y3272240D01*
X1469500Y3272240D02*
X1476500Y3272240D01*
X1442500Y3271240D02*
X1451500Y3271240D01*
X1456500Y3271240D02*
X1464500Y3271240D01*
X1468500Y3271240D02*
X1476500Y3271240D01*
X1442500Y3270240D02*
X1478500Y3270240D01*
X1443500Y3269240D02*
X1478500Y3269240D01*
X1444500Y3268240D02*
X1479500Y3268240D01*
X1444500Y3267240D02*
X1479500Y3267240D01*
X1446500Y3266240D02*
X1478500Y3266240D01*
X1447500Y3265240D02*
X1477500Y3265240D01*
X1471500Y3248240D02*
X1475500Y3248240D01*
X1446500Y3247240D02*
X1452500Y3247240D01*
X1470500Y3247240D02*
X1476500Y3247240D01*
X1444500Y3246240D02*
X1454500Y3246240D01*
X1470500Y3246240D02*
X1476500Y3246240D01*
X1443500Y3245240D02*
X1455500Y3245240D01*
X1470500Y3245240D02*
X1477500Y3245240D01*
X1442500Y3244240D02*
X1456500Y3244240D01*
X1470500Y3244240D02*
X1477500Y3244240D01*
X1442500Y3243240D02*
X1457500Y3243240D01*
X1471500Y3243240D02*
X1478500Y3243240D01*
X1441500Y3242240D02*
X1457500Y3242240D01*
X1472500Y3242240D02*
X1478500Y3242240D01*
X1441500Y3241240D02*
X1448500Y3241240D01*
X1450500Y3241240D02*
X1457500Y3241240D01*
X1472500Y3241240D02*
X1478500Y3241240D01*
X1441500Y3240240D02*
X1447500Y3240240D01*
X1451500Y3240240D02*
X1458500Y3240240D01*
X1473500Y3240240D02*
X1479500Y3240240D01*
X1441500Y3239240D02*
X1447500Y3239240D01*
X1452500Y3239240D02*
X1458500Y3239240D01*
X1473500Y3239240D02*
X1479500Y3239240D01*
X1441500Y3238240D02*
X1447500Y3238240D01*
X1452500Y3238240D02*
X1459500Y3238240D01*
X1473500Y3238240D02*
X1479500Y3238240D01*
X1441500Y3237240D02*
X1447500Y3237240D01*
X1453500Y3237240D02*
X1459500Y3237240D01*
X1473500Y3237240D02*
X1479500Y3237240D01*
X1441500Y3236240D02*
X1447500Y3236240D01*
X1453500Y3236240D02*
X1460500Y3236240D01*
X1473500Y3236240D02*
X1479500Y3236240D01*
X1441500Y3235240D02*
X1447500Y3235240D01*
X1454500Y3235240D02*
X1460500Y3235240D01*
X1473500Y3235240D02*
X1479500Y3235240D01*
X1441500Y3234240D02*
X1447500Y3234240D01*
X1454500Y3234240D02*
X1460500Y3234240D01*
X1473500Y3234240D02*
X1479500Y3234240D01*
X1441500Y3233240D02*
X1447500Y3233240D01*
X1454500Y3233240D02*
X1461500Y3233240D01*
X1473500Y3233240D02*
X1479500Y3233240D01*
X1441500Y3232240D02*
X1447500Y3232240D01*
X1455500Y3232240D02*
X1461500Y3232240D01*
X1473500Y3232240D02*
X1479500Y3232240D01*
X1441500Y3231240D02*
X1447500Y3231240D01*
X1455500Y3231240D02*
X1462500Y3231240D01*
X1473500Y3231240D02*
X1479500Y3231240D01*
X1441500Y3230240D02*
X1447500Y3230240D01*
X1456500Y3230240D02*
X1462500Y3230240D01*
X1473500Y3230240D02*
X1479500Y3230240D01*
X1441500Y3229240D02*
X1447500Y3229240D01*
X1456500Y3229240D02*
X1463500Y3229240D01*
X1473500Y3229240D02*
X1479500Y3229240D01*
X1441500Y3228240D02*
X1447500Y3228240D01*
X1457500Y3228240D02*
X1463500Y3228240D01*
X1473500Y3228240D02*
X1479500Y3228240D01*
X1441500Y3227240D02*
X1447500Y3227240D01*
X1457500Y3227240D02*
X1464500Y3227240D01*
X1473500Y3227240D02*
X1479500Y3227240D01*
X1441500Y3226240D02*
X1447500Y3226240D01*
X1457500Y3226240D02*
X1464500Y3226240D01*
X1473500Y3226240D02*
X1479500Y3226240D01*
X1441500Y3225240D02*
X1447500Y3225240D01*
X1458500Y3225240D02*
X1464500Y3225240D01*
X1473500Y3225240D02*
X1479500Y3225240D01*
X1441500Y3224240D02*
X1447500Y3224240D01*
X1458500Y3224240D02*
X1465500Y3224240D01*
X1473500Y3224240D02*
X1479500Y3224240D01*
X1441500Y3223240D02*
X1447500Y3223240D01*
X1459500Y3223240D02*
X1465500Y3223240D01*
X1472500Y3223240D02*
X1478500Y3223240D01*
X1441500Y3222240D02*
X1448500Y3222240D01*
X1459500Y3222240D02*
X1467500Y3222240D01*
X1470500Y3222240D02*
X1478500Y3222240D01*
X1442500Y3221240D02*
X1449500Y3221240D01*
X1460500Y3221240D02*
X1478500Y3221240D01*
X1442500Y3220240D02*
X1449500Y3220240D01*
X1460500Y3220240D02*
X1477500Y3220240D01*
X1442500Y3219240D02*
X1450500Y3219240D01*
X1461500Y3219240D02*
X1477500Y3219240D01*
X1443500Y3218240D02*
X1450500Y3218240D01*
X1462500Y3218240D02*
X1476500Y3218240D01*
X1444500Y3217240D02*
X1449500Y3217240D01*
X1463500Y3217240D02*
X1475500Y3217240D01*
X1445500Y3216240D02*
X1448500Y3216240D01*
X1465500Y3216240D02*
X1473500Y3216240D01*
X1467500Y3215240D02*
X1470500Y3215240D01*
X1443500Y3199240D02*
X1445500Y3199240D01*
X1442500Y3198240D02*
X1446500Y3198240D01*
X1441500Y3197240D02*
X1447500Y3197240D01*
X1441500Y3196240D02*
X1447500Y3196240D01*
X1441500Y3195240D02*
X1447500Y3195240D01*
X1441500Y3194240D02*
X1447500Y3194240D01*
X1441500Y3193240D02*
X1447500Y3193240D01*
X1431500Y3192240D02*
X1472500Y3192240D01*
X1430500Y3191240D02*
X1474500Y3191240D01*
X1429500Y3190240D02*
X1475500Y3190240D01*
X1429500Y3189240D02*
X1476500Y3189240D01*
X1429500Y3188240D02*
X1477500Y3188240D01*
X1430500Y3187240D02*
X1478500Y3187240D01*
X1431500Y3186240D02*
X1478500Y3186240D01*
X1441500Y3185240D02*
X1447500Y3185240D01*
X1471500Y3185240D02*
X1478500Y3185240D01*
X1441500Y3184240D02*
X1447500Y3184240D01*
X1472500Y3184240D02*
X1479500Y3184240D01*
X1441500Y3183240D02*
X1447500Y3183240D01*
X1473500Y3183240D02*
X1479500Y3183240D01*
X1441500Y3182240D02*
X1447500Y3182240D01*
X1473500Y3182240D02*
X1479500Y3182240D01*
X1441500Y3181240D02*
X1447500Y3181240D01*
X1473500Y3181240D02*
X1479500Y3181240D01*
X1441500Y3180240D02*
X1447500Y3180240D01*
X1473500Y3180240D02*
X1479500Y3180240D01*
X1441500Y3179240D02*
X1447500Y3179240D01*
X1473500Y3179240D02*
X1479500Y3179240D01*
X1441500Y3178240D02*
X1447500Y3178240D01*
X1473500Y3178240D02*
X1479500Y3178240D01*
X1441500Y3177240D02*
X1447500Y3177240D01*
X1473500Y3177240D02*
X1479500Y3177240D01*
X1441500Y3176240D02*
X1447500Y3176240D01*
X1473500Y3176240D02*
X1479500Y3176240D01*
X1441500Y3175240D02*
X1447500Y3175240D01*
X1473500Y3175240D02*
X1479500Y3175240D01*
X1441500Y3174240D02*
X1447500Y3174240D01*
X1472500Y3174240D02*
X1479500Y3174240D01*
X1441500Y3173240D02*
X1447500Y3173240D01*
X1471500Y3173240D02*
X1478500Y3173240D01*
X1442500Y3172240D02*
X1446500Y3172240D01*
X1470500Y3172240D02*
X1478500Y3172240D01*
X1443500Y3171240D02*
X1445500Y3171240D01*
X1468500Y3171240D02*
X1478500Y3171240D01*
X1467500Y3170240D02*
X1477500Y3170240D01*
X1467500Y3169240D02*
X1476500Y3169240D01*
X1467500Y3168240D02*
X1475500Y3168240D01*
X1467500Y3167240D02*
X1474500Y3167240D01*
X1468500Y3166240D02*
X1472500Y3166240D01*
X1450500Y3149240D02*
X1470500Y3149240D01*
X1448500Y3148240D02*
X1472500Y3148240D01*
X1446500Y3147240D02*
X1473500Y3147240D01*
X1445500Y3146240D02*
X1474500Y3146240D01*
X1444500Y3145240D02*
X1475500Y3145240D01*
X1443500Y3144240D02*
X1476500Y3144240D01*
X1443500Y3143240D02*
X1477500Y3143240D01*
X1442500Y3142240D02*
X1450500Y3142240D01*
X1457500Y3142240D02*
X1463500Y3142240D01*
X1469500Y3142240D02*
X1477500Y3142240D01*
X1442500Y3141240D02*
X1449500Y3141240D01*
X1457500Y3141240D02*
X1463500Y3141240D01*
X1471500Y3141240D02*
X1478500Y3141240D01*
X1441500Y3140240D02*
X1448500Y3140240D01*
X1457500Y3140240D02*
X1463500Y3140240D01*
X1471500Y3140240D02*
X1478500Y3140240D01*
X1441500Y3139240D02*
X1447500Y3139240D01*
X1457500Y3139240D02*
X1463500Y3139240D01*
X1472500Y3139240D02*
X1478500Y3139240D01*
X1441500Y3138240D02*
X1447500Y3138240D01*
X1457500Y3138240D02*
X1463500Y3138240D01*
X1473500Y3138240D02*
X1479500Y3138240D01*
X1441500Y3137240D02*
X1447500Y3137240D01*
X1457500Y3137240D02*
X1463500Y3137240D01*
X1473500Y3137240D02*
X1479500Y3137240D01*
X1441500Y3136240D02*
X1447500Y3136240D01*
X1457500Y3136240D02*
X1463500Y3136240D01*
X1473500Y3136240D02*
X1479500Y3136240D01*
X1441500Y3135240D02*
X1447500Y3135240D01*
X1457500Y3135240D02*
X1463500Y3135240D01*
X1473500Y3135240D02*
X1479500Y3135240D01*
X1441500Y3134240D02*
X1447500Y3134240D01*
X1457500Y3134240D02*
X1463500Y3134240D01*
X1473500Y3134240D02*
X1479500Y3134240D01*
X1441500Y3133240D02*
X1447500Y3133240D01*
X1457500Y3133240D02*
X1463500Y3133240D01*
X1473500Y3133240D02*
X1479500Y3133240D01*
X1441500Y3132240D02*
X1447500Y3132240D01*
X1457500Y3132240D02*
X1463500Y3132240D01*
X1473500Y3132240D02*
X1479500Y3132240D01*
X1441500Y3131240D02*
X1447500Y3131240D01*
X1457500Y3131240D02*
X1463500Y3131240D01*
X1473500Y3131240D02*
X1479500Y3131240D01*
X1441500Y3130240D02*
X1447500Y3130240D01*
X1457500Y3130240D02*
X1463500Y3130240D01*
X1473500Y3130240D02*
X1479500Y3130240D01*
X1441500Y3129240D02*
X1447500Y3129240D01*
X1457500Y3129240D02*
X1463500Y3129240D01*
X1473500Y3129240D02*
X1479500Y3129240D01*
X1441500Y3128240D02*
X1447500Y3128240D01*
X1457500Y3128240D02*
X1463500Y3128240D01*
X1473500Y3128240D02*
X1479500Y3128240D01*
X1441500Y3127240D02*
X1447500Y3127240D01*
X1457500Y3127240D02*
X1463500Y3127240D01*
X1473500Y3127240D02*
X1479500Y3127240D01*
X1441500Y3126240D02*
X1448500Y3126240D01*
X1457500Y3126240D02*
X1463500Y3126240D01*
X1473500Y3126240D02*
X1479500Y3126240D01*
X1442500Y3125240D02*
X1448500Y3125240D01*
X1457500Y3125240D02*
X1463500Y3125240D01*
X1473500Y3125240D02*
X1479500Y3125240D01*
X1442500Y3124240D02*
X1449500Y3124240D01*
X1457500Y3124240D02*
X1463500Y3124240D01*
X1473500Y3124240D02*
X1479500Y3124240D01*
X1442500Y3123240D02*
X1451500Y3123240D01*
X1457500Y3123240D02*
X1463500Y3123240D01*
X1473500Y3123240D02*
X1479500Y3123240D01*
X1443500Y3122240D02*
X1463500Y3122240D01*
X1473500Y3122240D02*
X1479500Y3122240D01*
X1444500Y3121240D02*
X1463500Y3121240D01*
X1473500Y3121240D02*
X1479500Y3121240D01*
X1445500Y3120240D02*
X1463500Y3120240D01*
X1473500Y3120240D02*
X1479500Y3120240D01*
X1446500Y3119240D02*
X1463500Y3119240D01*
X1473500Y3119240D02*
X1479500Y3119240D01*
X1447500Y3118240D02*
X1463500Y3118240D01*
X1473500Y3118240D02*
X1478500Y3118240D01*
X1448500Y3117240D02*
X1462500Y3117240D01*
X1474500Y3117240D02*
X1478500Y3117240D01*
X1451500Y3116240D02*
X1461500Y3116240D01*
X1475500Y3116240D02*
X1477500Y3116240D01*
X1443500Y3100240D02*
X1477500Y3100240D01*
X1442500Y3099240D02*
X1478500Y3099240D01*
X1441500Y3098240D02*
X1478500Y3098240D01*
X1441500Y3097240D02*
X1479500Y3097240D01*
X1441500Y3096240D02*
X1479500Y3096240D01*
X1441500Y3095240D02*
X1478500Y3095240D01*
X1443500Y3094240D02*
X1477500Y3094240D01*
X1448500Y3093240D02*
X1456500Y3093240D01*
X1447500Y3092240D02*
X1455500Y3092240D01*
X1446500Y3091240D02*
X1454500Y3091240D01*
X1445500Y3090240D02*
X1454500Y3090240D01*
X1445500Y3089240D02*
X1453500Y3089240D01*
X1444500Y3088240D02*
X1452500Y3088240D01*
X1443500Y3087240D02*
X1451500Y3087240D01*
X1442500Y3086240D02*
X1450500Y3086240D01*
X1441500Y3085240D02*
X1449500Y3085240D01*
X1441500Y3084240D02*
X1448500Y3084240D01*
X1441500Y3083240D02*
X1448500Y3083240D01*
X1441500Y3082240D02*
X1447500Y3082240D01*
X1441500Y3081240D02*
X1447500Y3081240D01*
X1441500Y3080240D02*
X1447500Y3080240D01*
X1441500Y3079240D02*
X1447500Y3079240D01*
X1441500Y3078240D02*
X1447500Y3078240D01*
X1441500Y3077240D02*
X1447500Y3077240D01*
X1441500Y3076240D02*
X1447500Y3076240D01*
X1441500Y3075240D02*
X1447500Y3075240D01*
X1441500Y3074240D02*
X1448500Y3074240D01*
X1441500Y3073240D02*
X1452500Y3073240D01*
X1442500Y3072240D02*
X1454500Y3072240D01*
X1442500Y3071240D02*
X1454500Y3071240D01*
X1443500Y3070240D02*
X1455500Y3070240D01*
X1443500Y3069240D02*
X1455500Y3069240D01*
X1445500Y3068240D02*
X1454500Y3068240D01*
X1446500Y3067240D02*
X1454500Y3067240D01*
X1465500Y2991240D02*
X1471500Y2991240D01*
X1463500Y2990240D02*
X1473500Y2990240D01*
X1462500Y2989240D02*
X1473500Y2989240D01*
X1462500Y2988240D02*
X1474500Y2988240D01*
X1462500Y2987240D02*
X1474500Y2987240D01*
X1462500Y2986240D02*
X1474500Y2986240D01*
X1462500Y2985240D02*
X1474500Y2985240D01*
X1462500Y2984240D02*
X1474500Y2984240D01*
X1462500Y2983240D02*
X1474500Y2983240D01*
X1462500Y2982240D02*
X1474500Y2982240D01*
X1462500Y2981240D02*
X1474500Y2981240D01*
X1462500Y2980240D02*
X1473500Y2980240D01*
X1462500Y2979240D02*
X1473500Y2979240D01*
X1463500Y2978240D02*
X1472500Y2978240D01*
X1450500Y2902240D02*
X1469500Y2902240D01*
X1448500Y2901240D02*
X1471500Y2901240D01*
X1447500Y2900240D02*
X1473500Y2900240D01*
X1446500Y2899240D02*
X1474500Y2899240D01*
X1445500Y2898240D02*
X1475500Y2898240D01*
X1444500Y2897240D02*
X1476500Y2897240D01*
X1443500Y2896240D02*
X1476500Y2896240D01*
X1442500Y2895240D02*
X1451500Y2895240D01*
X1469500Y2895240D02*
X1477500Y2895240D01*
X1442500Y2894240D02*
X1449500Y2894240D01*
X1470500Y2894240D02*
X1478500Y2894240D01*
X1441500Y2893240D02*
X1448500Y2893240D01*
X1471500Y2893240D02*
X1478500Y2893240D01*
X1441500Y2892240D02*
X1448500Y2892240D01*
X1472500Y2892240D02*
X1478500Y2892240D01*
X1441500Y2891240D02*
X1447500Y2891240D01*
X1472500Y2891240D02*
X1479500Y2891240D01*
X1441500Y2890240D02*
X1447500Y2890240D01*
X1473500Y2890240D02*
X1479500Y2890240D01*
X1441500Y2889240D02*
X1447500Y2889240D01*
X1473500Y2889240D02*
X1479500Y2889240D01*
X1441500Y2888240D02*
X1447500Y2888240D01*
X1473500Y2888240D02*
X1479500Y2888240D01*
X1441500Y2887240D02*
X1447500Y2887240D01*
X1473500Y2887240D02*
X1479500Y2887240D01*
X1441500Y2886240D02*
X1447500Y2886240D01*
X1473500Y2886240D02*
X1479500Y2886240D01*
X1441500Y2885240D02*
X1447500Y2885240D01*
X1473500Y2885240D02*
X1479500Y2885240D01*
X1441500Y2884240D02*
X1447500Y2884240D01*
X1473500Y2884240D02*
X1479500Y2884240D01*
X1441500Y2883240D02*
X1447500Y2883240D01*
X1472500Y2883240D02*
X1479500Y2883240D01*
X1441500Y2882240D02*
X1448500Y2882240D01*
X1472500Y2882240D02*
X1478500Y2882240D01*
X1442500Y2881240D02*
X1449500Y2881240D01*
X1471500Y2881240D02*
X1478500Y2881240D01*
X1442500Y2880240D02*
X1450500Y2880240D01*
X1470500Y2880240D02*
X1478500Y2880240D01*
X1443500Y2879240D02*
X1450500Y2879240D01*
X1469500Y2879240D02*
X1477500Y2879240D01*
X1443500Y2878240D02*
X1451500Y2878240D01*
X1468500Y2878240D02*
X1476500Y2878240D01*
X1444500Y2877240D02*
X1452500Y2877240D01*
X1467500Y2877240D02*
X1476500Y2877240D01*
X1445500Y2876240D02*
X1453500Y2876240D01*
X1466500Y2876240D02*
X1475500Y2876240D01*
X1429500Y2875240D02*
X1476500Y2875240D01*
X1427500Y2874240D02*
X1478500Y2874240D01*
X1427500Y2873240D02*
X1478500Y2873240D01*
X1426500Y2872240D02*
X1479500Y2872240D01*
X1426500Y2871240D02*
X1479500Y2871240D01*
X1427500Y2870240D02*
X1478500Y2870240D01*
X1428500Y2869240D02*
X1477500Y2869240D01*
X1450500Y2852240D02*
X1470500Y2852240D01*
X1448500Y2851240D02*
X1472500Y2851240D01*
X1446500Y2850240D02*
X1473500Y2850240D01*
X1445500Y2849240D02*
X1474500Y2849240D01*
X1444500Y2848240D02*
X1475500Y2848240D01*
X1443500Y2847240D02*
X1476500Y2847240D01*
X1443500Y2846240D02*
X1477500Y2846240D01*
X1442500Y2845240D02*
X1450500Y2845240D01*
X1457500Y2845240D02*
X1463500Y2845240D01*
X1469500Y2845240D02*
X1477500Y2845240D01*
X1442500Y2844240D02*
X1449500Y2844240D01*
X1457500Y2844240D02*
X1463500Y2844240D01*
X1471500Y2844240D02*
X1478500Y2844240D01*
X1441500Y2843240D02*
X1448500Y2843240D01*
X1457500Y2843240D02*
X1463500Y2843240D01*
X1471500Y2843240D02*
X1478500Y2843240D01*
X1441500Y2842240D02*
X1447500Y2842240D01*
X1457500Y2842240D02*
X1463500Y2842240D01*
X1472500Y2842240D02*
X1478500Y2842240D01*
X1441500Y2841240D02*
X1447500Y2841240D01*
X1457500Y2841240D02*
X1463500Y2841240D01*
X1473500Y2841240D02*
X1479500Y2841240D01*
X1441500Y2840240D02*
X1447500Y2840240D01*
X1457500Y2840240D02*
X1463500Y2840240D01*
X1473500Y2840240D02*
X1479500Y2840240D01*
X1441500Y2839240D02*
X1447500Y2839240D01*
X1457500Y2839240D02*
X1463500Y2839240D01*
X1473500Y2839240D02*
X1479500Y2839240D01*
X1441500Y2838240D02*
X1447500Y2838240D01*
X1457500Y2838240D02*
X1463500Y2838240D01*
X1473500Y2838240D02*
X1479500Y2838240D01*
X1441500Y2837240D02*
X1447500Y2837240D01*
X1457500Y2837240D02*
X1463500Y2837240D01*
X1473500Y2837240D02*
X1479500Y2837240D01*
X1441500Y2836240D02*
X1447500Y2836240D01*
X1457500Y2836240D02*
X1463500Y2836240D01*
X1473500Y2836240D02*
X1479500Y2836240D01*
X1441500Y2835240D02*
X1447500Y2835240D01*
X1457500Y2835240D02*
X1463500Y2835240D01*
X1473500Y2835240D02*
X1479500Y2835240D01*
X1441500Y2834240D02*
X1447500Y2834240D01*
X1457500Y2834240D02*
X1463500Y2834240D01*
X1473500Y2834240D02*
X1479500Y2834240D01*
X1441500Y2833240D02*
X1447500Y2833240D01*
X1457500Y2833240D02*
X1463500Y2833240D01*
X1473500Y2833240D02*
X1479500Y2833240D01*
X1441500Y2832240D02*
X1447500Y2832240D01*
X1457500Y2832240D02*
X1463500Y2832240D01*
X1473500Y2832240D02*
X1479500Y2832240D01*
X1441500Y2831240D02*
X1447500Y2831240D01*
X1457500Y2831240D02*
X1463500Y2831240D01*
X1473500Y2831240D02*
X1479500Y2831240D01*
X1441500Y2830240D02*
X1447500Y2830240D01*
X1457500Y2830240D02*
X1463500Y2830240D01*
X1473500Y2830240D02*
X1479500Y2830240D01*
X1441500Y2829240D02*
X1448500Y2829240D01*
X1457500Y2829240D02*
X1463500Y2829240D01*
X1473500Y2829240D02*
X1479500Y2829240D01*
X1442500Y2828240D02*
X1448500Y2828240D01*
X1457500Y2828240D02*
X1463500Y2828240D01*
X1473500Y2828240D02*
X1479500Y2828240D01*
X1442500Y2827240D02*
X1449500Y2827240D01*
X1457500Y2827240D02*
X1463500Y2827240D01*
X1473500Y2827240D02*
X1479500Y2827240D01*
X1442500Y2826240D02*
X1451500Y2826240D01*
X1457500Y2826240D02*
X1463500Y2826240D01*
X1473500Y2826240D02*
X1479500Y2826240D01*
X1443500Y2825240D02*
X1463500Y2825240D01*
X1473500Y2825240D02*
X1479500Y2825240D01*
X1444500Y2824240D02*
X1463500Y2824240D01*
X1473500Y2824240D02*
X1479500Y2824240D01*
X1445500Y2823240D02*
X1463500Y2823240D01*
X1473500Y2823240D02*
X1479500Y2823240D01*
X1446500Y2822240D02*
X1463500Y2822240D01*
X1473500Y2822240D02*
X1479500Y2822240D01*
X1447500Y2821240D02*
X1463500Y2821240D01*
X1473500Y2821240D02*
X1478500Y2821240D01*
X1448500Y2820240D02*
X1462500Y2820240D01*
X1474500Y2820240D02*
X1478500Y2820240D01*
X1451500Y2819240D02*
X1461500Y2819240D01*
X1475500Y2819240D02*
X1477500Y2819240D01*
X1428500Y2753240D02*
X1431500Y2753240D01*
X1453500Y2753240D02*
X1479500Y2753240D01*
X1427500Y2752240D02*
X1432500Y2752240D01*
X1452500Y2752240D02*
X1479500Y2752240D01*
X1426500Y2751240D02*
X1432500Y2751240D01*
X1451500Y2751240D02*
X1479500Y2751240D01*
X1426500Y2750240D02*
X1432500Y2750240D01*
X1450500Y2750240D02*
X1479500Y2750240D01*
X1426500Y2749240D02*
X1432500Y2749240D01*
X1450500Y2749240D02*
X1479500Y2749240D01*
X1426500Y2748240D02*
X1432500Y2748240D01*
X1450500Y2748240D02*
X1479500Y2748240D01*
X1426500Y2747240D02*
X1432500Y2747240D01*
X1450500Y2747240D02*
X1479500Y2747240D01*
X1426500Y2746240D02*
X1432500Y2746240D01*
X1450500Y2746240D02*
X1455500Y2746240D01*
X1473500Y2746240D02*
X1479500Y2746240D01*
X1426500Y2745240D02*
X1432500Y2745240D01*
X1450500Y2745240D02*
X1455500Y2745240D01*
X1473500Y2745240D02*
X1479500Y2745240D01*
X1426500Y2744240D02*
X1432500Y2744240D01*
X1450500Y2744240D02*
X1455500Y2744240D01*
X1473500Y2744240D02*
X1479500Y2744240D01*
X1426500Y2743240D02*
X1432500Y2743240D01*
X1450500Y2743240D02*
X1455500Y2743240D01*
X1473500Y2743240D02*
X1479500Y2743240D01*
X1426500Y2742240D02*
X1432500Y2742240D01*
X1450500Y2742240D02*
X1455500Y2742240D01*
X1473500Y2742240D02*
X1479500Y2742240D01*
X1426500Y2741240D02*
X1432500Y2741240D01*
X1450500Y2741240D02*
X1455500Y2741240D01*
X1473500Y2741240D02*
X1479500Y2741240D01*
X1426500Y2740240D02*
X1432500Y2740240D01*
X1450500Y2740240D02*
X1455500Y2740240D01*
X1473500Y2740240D02*
X1479500Y2740240D01*
X1426500Y2739240D02*
X1432500Y2739240D01*
X1450500Y2739240D02*
X1455500Y2739240D01*
X1473500Y2739240D02*
X1479500Y2739240D01*
X1426500Y2738240D02*
X1432500Y2738240D01*
X1450500Y2738240D02*
X1455500Y2738240D01*
X1473500Y2738240D02*
X1479500Y2738240D01*
X1426500Y2737240D02*
X1432500Y2737240D01*
X1450500Y2737240D02*
X1455500Y2737240D01*
X1473500Y2737240D02*
X1479500Y2737240D01*
X1426500Y2736240D02*
X1432500Y2736240D01*
X1450500Y2736240D02*
X1455500Y2736240D01*
X1473500Y2736240D02*
X1479500Y2736240D01*
X1426500Y2735240D02*
X1432500Y2735240D01*
X1450500Y2735240D02*
X1455500Y2735240D01*
X1473500Y2735240D02*
X1479500Y2735240D01*
X1426500Y2734240D02*
X1432500Y2734240D01*
X1450500Y2734240D02*
X1455500Y2734240D01*
X1473500Y2734240D02*
X1479500Y2734240D01*
X1426500Y2733240D02*
X1432500Y2733240D01*
X1450500Y2733240D02*
X1455500Y2733240D01*
X1473500Y2733240D02*
X1479500Y2733240D01*
X1426500Y2732240D02*
X1432500Y2732240D01*
X1450500Y2732240D02*
X1455500Y2732240D01*
X1473500Y2732240D02*
X1479500Y2732240D01*
X1426500Y2731240D02*
X1432500Y2731240D01*
X1450500Y2731240D02*
X1455500Y2731240D01*
X1473500Y2731240D02*
X1479500Y2731240D01*
X1426500Y2730240D02*
X1432500Y2730240D01*
X1450500Y2730240D02*
X1455500Y2730240D01*
X1473500Y2730240D02*
X1479500Y2730240D01*
X1426500Y2729240D02*
X1432500Y2729240D01*
X1450500Y2729240D02*
X1455500Y2729240D01*
X1473500Y2729240D02*
X1479500Y2729240D01*
X1426500Y2728240D02*
X1432500Y2728240D01*
X1450500Y2728240D02*
X1455500Y2728240D01*
X1473500Y2728240D02*
X1479500Y2728240D01*
X1426500Y2727240D02*
X1432500Y2727240D01*
X1450500Y2727240D02*
X1455500Y2727240D01*
X1473500Y2727240D02*
X1479500Y2727240D01*
X1426500Y2726240D02*
X1455500Y2726240D01*
X1473500Y2726240D02*
X1479500Y2726240D01*
X1427500Y2725240D02*
X1455500Y2725240D01*
X1473500Y2725240D02*
X1479500Y2725240D01*
X1427500Y2724240D02*
X1455500Y2724240D01*
X1473500Y2724240D02*
X1479500Y2724240D01*
X1428500Y2723240D02*
X1454500Y2723240D01*
X1473500Y2723240D02*
X1479500Y2723240D01*
X1428500Y2722240D02*
X1454500Y2722240D01*
X1473500Y2722240D02*
X1478500Y2722240D01*
X1429500Y2721240D02*
X1453500Y2721240D01*
X1474500Y2721240D02*
X1478500Y2721240D01*
X1431500Y2720240D02*
X1451500Y2720240D01*
X1475500Y2720240D02*
X1477500Y2720240D01*
X1431500Y2704240D02*
X1474500Y2704240D01*
X1429500Y2703240D02*
X1476500Y2703240D01*
X1428500Y2702240D02*
X1477500Y2702240D01*
X1427500Y2701240D02*
X1478500Y2701240D01*
X1427500Y2700240D02*
X1478500Y2700240D01*
X1427500Y2699240D02*
X1479500Y2699240D01*
X1426500Y2698240D02*
X1479500Y2698240D01*
X1426500Y2697240D02*
X1432500Y2697240D01*
X1473500Y2697240D02*
X1479500Y2697240D01*
X1426500Y2696240D02*
X1432500Y2696240D01*
X1473500Y2696240D02*
X1479500Y2696240D01*
X1426500Y2695240D02*
X1432500Y2695240D01*
X1473500Y2695240D02*
X1479500Y2695240D01*
X1426500Y2694240D02*
X1432500Y2694240D01*
X1473500Y2694240D02*
X1479500Y2694240D01*
X1426500Y2693240D02*
X1432500Y2693240D01*
X1473500Y2693240D02*
X1479500Y2693240D01*
X1426500Y2692240D02*
X1432500Y2692240D01*
X1473500Y2692240D02*
X1479500Y2692240D01*
X1426500Y2691240D02*
X1432500Y2691240D01*
X1473500Y2691240D02*
X1479500Y2691240D01*
X1426500Y2690240D02*
X1432500Y2690240D01*
X1473500Y2690240D02*
X1479500Y2690240D01*
X1426500Y2689240D02*
X1432500Y2689240D01*
X1473500Y2689240D02*
X1479500Y2689240D01*
X1426500Y2688240D02*
X1432500Y2688240D01*
X1473500Y2688240D02*
X1479500Y2688240D01*
X1426500Y2687240D02*
X1432500Y2687240D01*
X1473500Y2687240D02*
X1479500Y2687240D01*
X1426500Y2686240D02*
X1432500Y2686240D01*
X1473500Y2686240D02*
X1479500Y2686240D01*
X1426500Y2685240D02*
X1432500Y2685240D01*
X1473500Y2685240D02*
X1479500Y2685240D01*
X1426500Y2684240D02*
X1432500Y2684240D01*
X1473500Y2684240D02*
X1479500Y2684240D01*
X1426500Y2683240D02*
X1432500Y2683240D01*
X1473500Y2683240D02*
X1479500Y2683240D01*
X1426500Y2682240D02*
X1432500Y2682240D01*
X1473500Y2682240D02*
X1479500Y2682240D01*
X1426500Y2681240D02*
X1432500Y2681240D01*
X1473500Y2681240D02*
X1479500Y2681240D01*
X1426500Y2680240D02*
X1432500Y2680240D01*
X1473500Y2680240D02*
X1479500Y2680240D01*
X1426500Y2679240D02*
X1432500Y2679240D01*
X1473500Y2679240D02*
X1479500Y2679240D01*
X1426500Y2678240D02*
X1432500Y2678240D01*
X1473500Y2678240D02*
X1479500Y2678240D01*
X1426500Y2677240D02*
X1479500Y2677240D01*
X1426500Y2676240D02*
X1479500Y2676240D01*
X1427500Y2675240D02*
X1478500Y2675240D01*
X1427500Y2674240D02*
X1478500Y2674240D01*
X1428500Y2673240D02*
X1477500Y2673240D01*
X1429500Y2672240D02*
X1476500Y2672240D01*
X1430500Y2671240D02*
X1475500Y2671240D01*
X1428500Y2654240D02*
X1431500Y2654240D01*
X1453500Y2654240D02*
X1479500Y2654240D01*
X1427500Y2653240D02*
X1432500Y2653240D01*
X1452500Y2653240D02*
X1479500Y2653240D01*
X1426500Y2652240D02*
X1432500Y2652240D01*
X1451500Y2652240D02*
X1479500Y2652240D01*
X1426500Y2651240D02*
X1432500Y2651240D01*
X1450500Y2651240D02*
X1479500Y2651240D01*
X1426500Y2650240D02*
X1432500Y2650240D01*
X1450500Y2650240D02*
X1479500Y2650240D01*
X1426500Y2649240D02*
X1432500Y2649240D01*
X1450500Y2649240D02*
X1479500Y2649240D01*
X1426500Y2648240D02*
X1432500Y2648240D01*
X1450500Y2648240D02*
X1479500Y2648240D01*
X1426500Y2647240D02*
X1432500Y2647240D01*
X1450500Y2647240D02*
X1455500Y2647240D01*
X1473500Y2647240D02*
X1479500Y2647240D01*
X1426500Y2646240D02*
X1432500Y2646240D01*
X1450500Y2646240D02*
X1455500Y2646240D01*
X1473500Y2646240D02*
X1479500Y2646240D01*
X1426500Y2645240D02*
X1432500Y2645240D01*
X1450500Y2645240D02*
X1455500Y2645240D01*
X1473500Y2645240D02*
X1479500Y2645240D01*
X1426500Y2644240D02*
X1432500Y2644240D01*
X1450500Y2644240D02*
X1455500Y2644240D01*
X1473500Y2644240D02*
X1479500Y2644240D01*
X1426500Y2643240D02*
X1432500Y2643240D01*
X1450500Y2643240D02*
X1455500Y2643240D01*
X1473500Y2643240D02*
X1479500Y2643240D01*
X1426500Y2642240D02*
X1432500Y2642240D01*
X1450500Y2642240D02*
X1455500Y2642240D01*
X1473500Y2642240D02*
X1479500Y2642240D01*
X1426500Y2641240D02*
X1432500Y2641240D01*
X1450500Y2641240D02*
X1455500Y2641240D01*
X1473500Y2641240D02*
X1479500Y2641240D01*
X1426500Y2640240D02*
X1432500Y2640240D01*
X1450500Y2640240D02*
X1455500Y2640240D01*
X1473500Y2640240D02*
X1479500Y2640240D01*
X1426500Y2639240D02*
X1432500Y2639240D01*
X1450500Y2639240D02*
X1455500Y2639240D01*
X1473500Y2639240D02*
X1479500Y2639240D01*
X1426500Y2638240D02*
X1432500Y2638240D01*
X1450500Y2638240D02*
X1455500Y2638240D01*
X1473500Y2638240D02*
X1479500Y2638240D01*
X1426500Y2637240D02*
X1432500Y2637240D01*
X1450500Y2637240D02*
X1455500Y2637240D01*
X1473500Y2637240D02*
X1479500Y2637240D01*
X1426500Y2636240D02*
X1432500Y2636240D01*
X1450500Y2636240D02*
X1455500Y2636240D01*
X1473500Y2636240D02*
X1479500Y2636240D01*
X1426500Y2635240D02*
X1432500Y2635240D01*
X1450500Y2635240D02*
X1455500Y2635240D01*
X1473500Y2635240D02*
X1479500Y2635240D01*
X1426500Y2634240D02*
X1432500Y2634240D01*
X1450500Y2634240D02*
X1455500Y2634240D01*
X1473500Y2634240D02*
X1479500Y2634240D01*
X1426500Y2633240D02*
X1432500Y2633240D01*
X1450500Y2633240D02*
X1455500Y2633240D01*
X1473500Y2633240D02*
X1479500Y2633240D01*
X1426500Y2632240D02*
X1432500Y2632240D01*
X1450500Y2632240D02*
X1455500Y2632240D01*
X1473500Y2632240D02*
X1479500Y2632240D01*
X1426500Y2631240D02*
X1432500Y2631240D01*
X1450500Y2631240D02*
X1455500Y2631240D01*
X1473500Y2631240D02*
X1479500Y2631240D01*
X1426500Y2630240D02*
X1432500Y2630240D01*
X1450500Y2630240D02*
X1455500Y2630240D01*
X1473500Y2630240D02*
X1479500Y2630240D01*
X1426500Y2629240D02*
X1432500Y2629240D01*
X1450500Y2629240D02*
X1455500Y2629240D01*
X1473500Y2629240D02*
X1479500Y2629240D01*
X1426500Y2628240D02*
X1432500Y2628240D01*
X1450500Y2628240D02*
X1455500Y2628240D01*
X1473500Y2628240D02*
X1479500Y2628240D01*
X1426500Y2627240D02*
X1455500Y2627240D01*
X1473500Y2627240D02*
X1479500Y2627240D01*
X1427500Y2626240D02*
X1455500Y2626240D01*
X1473500Y2626240D02*
X1479500Y2626240D01*
X1427500Y2625240D02*
X1455500Y2625240D01*
X1473500Y2625240D02*
X1479500Y2625240D01*
X1428500Y2624240D02*
X1454500Y2624240D01*
X1473500Y2624240D02*
X1479500Y2624240D01*
X1428500Y2623240D02*
X1454500Y2623240D01*
X1473500Y2623240D02*
X1478500Y2623240D01*
X1429500Y2622240D02*
X1453500Y2622240D01*
X1474500Y2622240D02*
X1478500Y2622240D01*
X1431500Y2621240D02*
X1451500Y2621240D01*
X1475500Y2621240D02*
X1477500Y2621240D01*
X1429500Y2605240D02*
X1476500Y2605240D01*
X1427500Y2604240D02*
X1478500Y2604240D01*
X1427500Y2603240D02*
X1478500Y2603240D01*
X1426500Y2602240D02*
X1479500Y2602240D01*
X1426500Y2601240D02*
X1479500Y2601240D01*
X1426500Y2600240D02*
X1479500Y2600240D01*
X1426500Y2599240D02*
X1479500Y2599240D01*
X1426500Y2598240D02*
X1432500Y2598240D01*
X1453500Y2598240D02*
X1459500Y2598240D01*
X1473500Y2598240D02*
X1479500Y2598240D01*
X1426500Y2597240D02*
X1432500Y2597240D01*
X1453500Y2597240D02*
X1459500Y2597240D01*
X1473500Y2597240D02*
X1479500Y2597240D01*
X1426500Y2596240D02*
X1432500Y2596240D01*
X1453500Y2596240D02*
X1459500Y2596240D01*
X1473500Y2596240D02*
X1479500Y2596240D01*
X1426500Y2595240D02*
X1432500Y2595240D01*
X1453500Y2595240D02*
X1459500Y2595240D01*
X1473500Y2595240D02*
X1479500Y2595240D01*
X1426500Y2594240D02*
X1432500Y2594240D01*
X1453500Y2594240D02*
X1459500Y2594240D01*
X1473500Y2594240D02*
X1479500Y2594240D01*
X1426500Y2593240D02*
X1432500Y2593240D01*
X1453500Y2593240D02*
X1459500Y2593240D01*
X1473500Y2593240D02*
X1479500Y2593240D01*
X1426500Y2592240D02*
X1432500Y2592240D01*
X1453500Y2592240D02*
X1459500Y2592240D01*
X1473500Y2592240D02*
X1479500Y2592240D01*
X1426500Y2591240D02*
X1432500Y2591240D01*
X1453500Y2591240D02*
X1459500Y2591240D01*
X1473500Y2591240D02*
X1479500Y2591240D01*
X1426500Y2590240D02*
X1432500Y2590240D01*
X1453500Y2590240D02*
X1459500Y2590240D01*
X1473500Y2590240D02*
X1479500Y2590240D01*
X1426500Y2589240D02*
X1432500Y2589240D01*
X1453500Y2589240D02*
X1459500Y2589240D01*
X1473500Y2589240D02*
X1479500Y2589240D01*
X1426500Y2588240D02*
X1432500Y2588240D01*
X1453500Y2588240D02*
X1459500Y2588240D01*
X1473500Y2588240D02*
X1479500Y2588240D01*
X1426500Y2587240D02*
X1432500Y2587240D01*
X1453500Y2587240D02*
X1459500Y2587240D01*
X1473500Y2587240D02*
X1479500Y2587240D01*
X1426500Y2586240D02*
X1432500Y2586240D01*
X1453500Y2586240D02*
X1459500Y2586240D01*
X1473500Y2586240D02*
X1479500Y2586240D01*
X1426500Y2585240D02*
X1432500Y2585240D01*
X1453500Y2585240D02*
X1459500Y2585240D01*
X1473500Y2585240D02*
X1479500Y2585240D01*
X1426500Y2584240D02*
X1432500Y2584240D01*
X1453500Y2584240D02*
X1459500Y2584240D01*
X1473500Y2584240D02*
X1479500Y2584240D01*
X1426500Y2583240D02*
X1432500Y2583240D01*
X1453500Y2583240D02*
X1459500Y2583240D01*
X1473500Y2583240D02*
X1479500Y2583240D01*
X1426500Y2582240D02*
X1432500Y2582240D01*
X1453500Y2582240D02*
X1459500Y2582240D01*
X1473500Y2582240D02*
X1479500Y2582240D01*
X1426500Y2581240D02*
X1432500Y2581240D01*
X1453500Y2581240D02*
X1459500Y2581240D01*
X1473500Y2581240D02*
X1479500Y2581240D01*
X1427500Y2580240D02*
X1432500Y2580240D01*
X1453500Y2580240D02*
X1459500Y2580240D01*
X1473500Y2580240D02*
X1479500Y2580240D01*
X1427500Y2579240D02*
X1431500Y2579240D01*
X1453500Y2579240D02*
X1459500Y2579240D01*
X1473500Y2579240D02*
X1479500Y2579240D01*
X1453500Y2578240D02*
X1479500Y2578240D01*
X1453500Y2577240D02*
X1479500Y2577240D01*
X1453500Y2576240D02*
X1479500Y2576240D01*
X1453500Y2575240D02*
X1479500Y2575240D01*
X1453500Y2574240D02*
X1479500Y2574240D01*
X1454500Y2573240D02*
X1478500Y2573240D01*
X1455500Y2572240D02*
X1477500Y2572240D01*
X1455500Y2357240D02*
X1457500Y2357240D01*
X1491500Y2357240D02*
X1493500Y2357240D01*
X1453500Y2356240D02*
X1458500Y2356240D01*
X1489500Y2356240D02*
X1494500Y2356240D01*
X1453500Y2355240D02*
X1459500Y2355240D01*
X1489500Y2355240D02*
X1495500Y2355240D01*
X1453500Y2354240D02*
X1459500Y2354240D01*
X1488500Y2354240D02*
X1495500Y2354240D01*
X1452500Y2353240D02*
X1459500Y2353240D01*
X1488500Y2353240D02*
X1495500Y2353240D01*
X1452500Y2352240D02*
X1459500Y2352240D01*
X1488500Y2352240D02*
X1495500Y2352240D01*
X1452500Y2351240D02*
X1459500Y2351240D01*
X1488500Y2351240D02*
X1495500Y2351240D01*
X1452500Y2350240D02*
X1459500Y2350240D01*
X1488500Y2350240D02*
X1495500Y2350240D01*
X1452500Y2349240D02*
X1459500Y2349240D01*
X1488500Y2349240D02*
X1495500Y2349240D01*
X1452500Y2348240D02*
X1459500Y2348240D01*
X1488500Y2348240D02*
X1495500Y2348240D01*
X1452500Y2347240D02*
X1459500Y2347240D01*
X1488500Y2347240D02*
X1495500Y2347240D01*
X1452500Y2346240D02*
X1459500Y2346240D01*
X1488500Y2346240D02*
X1495500Y2346240D01*
X1452500Y2345240D02*
X1459500Y2345240D01*
X1488500Y2345240D02*
X1495500Y2345240D01*
X1452500Y2344240D02*
X1459500Y2344240D01*
X1488500Y2344240D02*
X1495500Y2344240D01*
X1452500Y2343240D02*
X1459500Y2343240D01*
X1488500Y2343240D02*
X1495500Y2343240D01*
X1452500Y2342240D02*
X1459500Y2342240D01*
X1488500Y2342240D02*
X1495500Y2342240D01*
X1452500Y2341240D02*
X1459500Y2341240D01*
X1488500Y2341240D02*
X1495500Y2341240D01*
X1452500Y2340240D02*
X1459500Y2340240D01*
X1488500Y2340240D02*
X1495500Y2340240D01*
X1452500Y2339240D02*
X1459500Y2339240D01*
X1488500Y2339240D02*
X1495500Y2339240D01*
X1452500Y2338240D02*
X1459500Y2338240D01*
X1488500Y2338240D02*
X1495500Y2338240D01*
X1452500Y2337240D02*
X1459500Y2337240D01*
X1488500Y2337240D02*
X1495500Y2337240D01*
X1453500Y2336240D02*
X1459500Y2336240D01*
X1488500Y2336240D02*
X1495500Y2336240D01*
X1453500Y2335240D02*
X1460500Y2335240D01*
X1488500Y2335240D02*
X1495500Y2335240D01*
X1453500Y2334240D02*
X1461500Y2334240D01*
X1487500Y2334240D02*
X1495500Y2334240D01*
X1453500Y2333240D02*
X1462500Y2333240D01*
X1486500Y2333240D02*
X1494500Y2333240D01*
X1454500Y2332240D02*
X1463500Y2332240D01*
X1485500Y2332240D02*
X1494500Y2332240D01*
X1454500Y2331240D02*
X1463500Y2331240D01*
X1484500Y2331240D02*
X1493500Y2331240D01*
X1455500Y2330240D02*
X1464500Y2330240D01*
X1483500Y2330240D02*
X1493500Y2330240D01*
X1456500Y2329240D02*
X1465500Y2329240D01*
X1482500Y2329240D02*
X1492500Y2329240D01*
X1457500Y2328240D02*
X1466500Y2328240D01*
X1481500Y2328240D02*
X1491500Y2328240D01*
X1458500Y2327240D02*
X1468500Y2327240D01*
X1479500Y2327240D02*
X1490500Y2327240D01*
X1458500Y2326240D02*
X1489500Y2326240D01*
X1459500Y2325240D02*
X1489500Y2325240D01*
X1460500Y2324240D02*
X1488500Y2324240D01*
X1461500Y2323240D02*
X1487500Y2323240D01*
X1462500Y2322240D02*
X1485500Y2322240D01*
X1463500Y2321240D02*
X1484500Y2321240D01*
X1465500Y2320240D02*
X1482500Y2320240D01*
X1454500Y2297240D02*
X1458500Y2297240D01*
X1453500Y2296240D02*
X1459500Y2296240D01*
X1453500Y2295240D02*
X1459500Y2295240D01*
X1452500Y2294240D02*
X1459500Y2294240D01*
X1452500Y2293240D02*
X1459500Y2293240D01*
X1452500Y2292240D02*
X1459500Y2292240D01*
X1452500Y2291240D02*
X1459500Y2291240D01*
X1452500Y2290240D02*
X1459500Y2290240D01*
X1452500Y2289240D02*
X1459500Y2289240D01*
X1452500Y2288240D02*
X1459500Y2288240D01*
X1452500Y2287240D02*
X1459500Y2287240D01*
X1452500Y2286240D02*
X1509500Y2286240D01*
X1452500Y2285240D02*
X1511500Y2285240D01*
X1452500Y2284240D02*
X1511500Y2284240D01*
X1452500Y2283240D02*
X1511500Y2283240D01*
X1452500Y2282240D02*
X1511500Y2282240D01*
X1452500Y2281240D02*
X1511500Y2281240D01*
X1452500Y2280240D02*
X1511500Y2280240D01*
X1452500Y2279240D02*
X1511500Y2279240D01*
X1452500Y2278240D02*
X1459500Y2278240D01*
X1505500Y2278240D02*
X1511500Y2278240D01*
X1452500Y2277240D02*
X1459500Y2277240D01*
X1505500Y2277240D02*
X1511500Y2277240D01*
X1452500Y2276240D02*
X1459500Y2276240D01*
X1505500Y2276240D02*
X1511500Y2276240D01*
X1452500Y2275240D02*
X1459500Y2275240D01*
X1505500Y2275240D02*
X1511500Y2275240D01*
X1452500Y2274240D02*
X1459500Y2274240D01*
X1505500Y2274240D02*
X1511500Y2274240D01*
X1452500Y2273240D02*
X1459500Y2273240D01*
X1505500Y2273240D02*
X1511500Y2273240D01*
X1452500Y2272240D02*
X1459500Y2272240D01*
X1505500Y2272240D02*
X1511500Y2272240D01*
X1452500Y2271240D02*
X1459500Y2271240D01*
X1505500Y2271240D02*
X1511500Y2271240D01*
X1453500Y2270240D02*
X1459500Y2270240D01*
X1505500Y2270240D02*
X1511500Y2270240D01*
X1453500Y2269240D02*
X1458500Y2269240D01*
X1505500Y2269240D02*
X1511500Y2269240D01*
X1454500Y2268240D02*
X1457500Y2268240D01*
X1506500Y2268240D02*
X1510500Y2268240D01*
X1445500Y2242240D02*
X1493500Y2242240D01*
X1507500Y2242240D02*
X1512500Y2242240D01*
X1442500Y2241240D02*
X1494500Y2241240D01*
X1506500Y2241240D02*
X1514500Y2241240D01*
X1441500Y2240240D02*
X1495500Y2240240D01*
X1505500Y2240240D02*
X1514500Y2240240D01*
X1440500Y2239240D02*
X1495500Y2239240D01*
X1505500Y2239240D02*
X1515500Y2239240D01*
X1439500Y2238240D02*
X1495500Y2238240D01*
X1505500Y2238240D02*
X1515500Y2238240D01*
X1438500Y2237240D02*
X1495500Y2237240D01*
X1505500Y2237240D02*
X1515500Y2237240D01*
X1437500Y2236240D02*
X1495500Y2236240D01*
X1505500Y2236240D02*
X1515500Y2236240D01*
X1437500Y2235240D02*
X1495500Y2235240D01*
X1505500Y2235240D02*
X1515500Y2235240D01*
X1437500Y2234240D02*
X1445500Y2234240D01*
X1488500Y2234240D02*
X1495500Y2234240D01*
X1505500Y2234240D02*
X1515500Y2234240D01*
X1436500Y2233240D02*
X1444500Y2233240D01*
X1488500Y2233240D02*
X1495500Y2233240D01*
X1505500Y2233240D02*
X1514500Y2233240D01*
X1436500Y2232240D02*
X1443500Y2232240D01*
X1488500Y2232240D02*
X1495500Y2232240D01*
X1506500Y2232240D02*
X1514500Y2232240D01*
X1436500Y2231240D02*
X1443500Y2231240D01*
X1488500Y2231240D02*
X1495500Y2231240D01*
X1507500Y2231240D02*
X1512500Y2231240D01*
X1436500Y2230240D02*
X1443500Y2230240D01*
X1488500Y2230240D02*
X1495500Y2230240D01*
X1436500Y2229240D02*
X1443500Y2229240D01*
X1488500Y2229240D02*
X1495500Y2229240D01*
X1436500Y2228240D02*
X1443500Y2228240D01*
X1488500Y2228240D02*
X1495500Y2228240D01*
X1436500Y2227240D02*
X1443500Y2227240D01*
X1488500Y2227240D02*
X1495500Y2227240D01*
X1436500Y2226240D02*
X1443500Y2226240D01*
X1488500Y2226240D02*
X1495500Y2226240D01*
X1436500Y2225240D02*
X1443500Y2225240D01*
X1488500Y2225240D02*
X1495500Y2225240D01*
X1436500Y2224240D02*
X1443500Y2224240D01*
X1488500Y2224240D02*
X1495500Y2224240D01*
X1436500Y2223240D02*
X1443500Y2223240D01*
X1488500Y2223240D02*
X1495500Y2223240D01*
X1436500Y2222240D02*
X1443500Y2222240D01*
X1489500Y2222240D02*
X1495500Y2222240D01*
X1436500Y2221240D02*
X1444500Y2221240D01*
X1489500Y2221240D02*
X1494500Y2221240D01*
X1437500Y2220240D02*
X1445500Y2220240D01*
X1490500Y2220240D02*
X1493500Y2220240D01*
X1437500Y2219240D02*
X1447500Y2219240D01*
X1437500Y2218240D02*
X1448500Y2218240D01*
X1438500Y2217240D02*
X1449500Y2217240D01*
X1439500Y2216240D02*
X1449500Y2216240D01*
X1440500Y2215240D02*
X1449500Y2215240D01*
X1441500Y2214240D02*
X1449500Y2214240D01*
X1442500Y2213240D02*
X1448500Y2213240D01*
X1444500Y2212240D02*
X1447500Y2212240D01*
X1454500Y2190240D02*
X1457500Y2190240D01*
X1490500Y2190240D02*
X1493500Y2190240D01*
X1453500Y2189240D02*
X1458500Y2189240D01*
X1489500Y2189240D02*
X1494500Y2189240D01*
X1453500Y2188240D02*
X1459500Y2188240D01*
X1489500Y2188240D02*
X1495500Y2188240D01*
X1453500Y2187240D02*
X1459500Y2187240D01*
X1488500Y2187240D02*
X1495500Y2187240D01*
X1452500Y2186240D02*
X1459500Y2186240D01*
X1488500Y2186240D02*
X1495500Y2186240D01*
X1452500Y2185240D02*
X1459500Y2185240D01*
X1488500Y2185240D02*
X1495500Y2185240D01*
X1452500Y2184240D02*
X1459500Y2184240D01*
X1488500Y2184240D02*
X1495500Y2184240D01*
X1452500Y2183240D02*
X1459500Y2183240D01*
X1488500Y2183240D02*
X1495500Y2183240D01*
X1452500Y2182240D02*
X1459500Y2182240D01*
X1488500Y2182240D02*
X1495500Y2182240D01*
X1452500Y2181240D02*
X1459500Y2181240D01*
X1488500Y2181240D02*
X1495500Y2181240D01*
X1452500Y2180240D02*
X1459500Y2180240D01*
X1488500Y2180240D02*
X1495500Y2180240D01*
X1452500Y2179240D02*
X1459500Y2179240D01*
X1488500Y2179240D02*
X1495500Y2179240D01*
X1452500Y2178240D02*
X1459500Y2178240D01*
X1488500Y2178240D02*
X1495500Y2178240D01*
X1452500Y2177240D02*
X1459500Y2177240D01*
X1488500Y2177240D02*
X1495500Y2177240D01*
X1452500Y2176240D02*
X1459500Y2176240D01*
X1488500Y2176240D02*
X1495500Y2176240D01*
X1452500Y2175240D02*
X1459500Y2175240D01*
X1488500Y2175240D02*
X1495500Y2175240D01*
X1452500Y2174240D02*
X1459500Y2174240D01*
X1488500Y2174240D02*
X1495500Y2174240D01*
X1452500Y2173240D02*
X1459500Y2173240D01*
X1488500Y2173240D02*
X1495500Y2173240D01*
X1452500Y2172240D02*
X1459500Y2172240D01*
X1488500Y2172240D02*
X1495500Y2172240D01*
X1452500Y2171240D02*
X1459500Y2171240D01*
X1488500Y2171240D02*
X1495500Y2171240D01*
X1452500Y2170240D02*
X1459500Y2170240D01*
X1488500Y2170240D02*
X1495500Y2170240D01*
X1453500Y2169240D02*
X1460500Y2169240D01*
X1488500Y2169240D02*
X1495500Y2169240D01*
X1453500Y2168240D02*
X1460500Y2168240D01*
X1487500Y2168240D02*
X1495500Y2168240D01*
X1453500Y2167240D02*
X1461500Y2167240D01*
X1487500Y2167240D02*
X1495500Y2167240D01*
X1453500Y2166240D02*
X1462500Y2166240D01*
X1486500Y2166240D02*
X1494500Y2166240D01*
X1454500Y2165240D02*
X1463500Y2165240D01*
X1485500Y2165240D02*
X1494500Y2165240D01*
X1454500Y2164240D02*
X1464500Y2164240D01*
X1484500Y2164240D02*
X1493500Y2164240D01*
X1455500Y2163240D02*
X1464500Y2163240D01*
X1483500Y2163240D02*
X1493500Y2163240D01*
X1456500Y2162240D02*
X1465500Y2162240D01*
X1482500Y2162240D02*
X1492500Y2162240D01*
X1457500Y2161240D02*
X1466500Y2161240D01*
X1481500Y2161240D02*
X1491500Y2161240D01*
X1458500Y2160240D02*
X1490500Y2160240D01*
X1459500Y2159240D02*
X1489500Y2159240D01*
X1459500Y2158240D02*
X1488500Y2158240D01*
X1460500Y2157240D02*
X1487500Y2157240D01*
X1461500Y2156240D02*
X1486500Y2156240D01*
X1462500Y2155240D02*
X1485500Y2155240D01*
X1464500Y2154240D02*
X1484500Y2154240D01*
X1466500Y2153240D02*
X1482500Y2153240D01*
X1456500Y2131240D02*
X1456500Y2131240D01*
X1454500Y2130240D02*
X1458500Y2130240D01*
X1453500Y2129240D02*
X1459500Y2129240D01*
X1453500Y2128240D02*
X1459500Y2128240D01*
X1452500Y2127240D02*
X1459500Y2127240D01*
X1452500Y2126240D02*
X1459500Y2126240D01*
X1452500Y2125240D02*
X1459500Y2125240D01*
X1452500Y2124240D02*
X1459500Y2124240D01*
X1452500Y2123240D02*
X1459500Y2123240D01*
X1452500Y2122240D02*
X1459500Y2122240D01*
X1452500Y2121240D02*
X1459500Y2121240D01*
X1452500Y2120240D02*
X1459500Y2120240D01*
X1452500Y2119240D02*
X1510500Y2119240D01*
X1452500Y2118240D02*
X1511500Y2118240D01*
X1452500Y2117240D02*
X1511500Y2117240D01*
X1452500Y2116240D02*
X1511500Y2116240D01*
X1452500Y2115240D02*
X1511500Y2115240D01*
X1452500Y2114240D02*
X1511500Y2114240D01*
X1452500Y2113240D02*
X1511500Y2113240D01*
X1452500Y2112240D02*
X1511500Y2112240D01*
X1452500Y2111240D02*
X1459500Y2111240D01*
X1505500Y2111240D02*
X1511500Y2111240D01*
X1452500Y2110240D02*
X1459500Y2110240D01*
X1505500Y2110240D02*
X1511500Y2110240D01*
X1452500Y2109240D02*
X1459500Y2109240D01*
X1505500Y2109240D02*
X1511500Y2109240D01*
X1452500Y2108240D02*
X1459500Y2108240D01*
X1505500Y2108240D02*
X1511500Y2108240D01*
X1452500Y2107240D02*
X1459500Y2107240D01*
X1505500Y2107240D02*
X1511500Y2107240D01*
X1452500Y2106240D02*
X1459500Y2106240D01*
X1505500Y2106240D02*
X1511500Y2106240D01*
X1452500Y2105240D02*
X1459500Y2105240D01*
X1505500Y2105240D02*
X1511500Y2105240D01*
X1453500Y2104240D02*
X1459500Y2104240D01*
X1505500Y2104240D02*
X1511500Y2104240D01*
X1453500Y2103240D02*
X1459500Y2103240D01*
X1505500Y2103240D02*
X1511500Y2103240D01*
X1453500Y2102240D02*
X1458500Y2102240D01*
X1506500Y2102240D02*
X1510500Y2102240D01*
X1455500Y2101240D02*
X1457500Y2101240D01*
X1507500Y2101240D02*
X1509500Y2101240D01*
X1444500Y2075240D02*
X1493500Y2075240D01*
X1507500Y2075240D02*
X1513500Y2075240D01*
X1442500Y2074240D02*
X1494500Y2074240D01*
X1506500Y2074240D02*
X1514500Y2074240D01*
X1440500Y2073240D02*
X1495500Y2073240D01*
X1505500Y2073240D02*
X1514500Y2073240D01*
X1439500Y2072240D02*
X1495500Y2072240D01*
X1505500Y2072240D02*
X1515500Y2072240D01*
X1439500Y2071240D02*
X1495500Y2071240D01*
X1505500Y2071240D02*
X1515500Y2071240D01*
X1438500Y2070240D02*
X1495500Y2070240D01*
X1505500Y2070240D02*
X1515500Y2070240D01*
X1437500Y2069240D02*
X1495500Y2069240D01*
X1505500Y2069240D02*
X1515500Y2069240D01*
X1437500Y2068240D02*
X1495500Y2068240D01*
X1505500Y2068240D02*
X1515500Y2068240D01*
X1437500Y2067240D02*
X1444500Y2067240D01*
X1488500Y2067240D02*
X1495500Y2067240D01*
X1505500Y2067240D02*
X1514500Y2067240D01*
X1436500Y2066240D02*
X1444500Y2066240D01*
X1488500Y2066240D02*
X1495500Y2066240D01*
X1505500Y2066240D02*
X1514500Y2066240D01*
X1436500Y2065240D02*
X1443500Y2065240D01*
X1488500Y2065240D02*
X1495500Y2065240D01*
X1506500Y2065240D02*
X1513500Y2065240D01*
X1436500Y2064240D02*
X1443500Y2064240D01*
X1488500Y2064240D02*
X1495500Y2064240D01*
X1508500Y2064240D02*
X1511500Y2064240D01*
X1436500Y2063240D02*
X1443500Y2063240D01*
X1488500Y2063240D02*
X1495500Y2063240D01*
X1436500Y2062240D02*
X1443500Y2062240D01*
X1488500Y2062240D02*
X1495500Y2062240D01*
X1436500Y2061240D02*
X1443500Y2061240D01*
X1488500Y2061240D02*
X1495500Y2061240D01*
X1436500Y2060240D02*
X1443500Y2060240D01*
X1488500Y2060240D02*
X1495500Y2060240D01*
X1436500Y2059240D02*
X1443500Y2059240D01*
X1488500Y2059240D02*
X1495500Y2059240D01*
X1436500Y2058240D02*
X1443500Y2058240D01*
X1488500Y2058240D02*
X1495500Y2058240D01*
X1436500Y2057240D02*
X1443500Y2057240D01*
X1488500Y2057240D02*
X1495500Y2057240D01*
X1436500Y2056240D02*
X1443500Y2056240D01*
X1488500Y2056240D02*
X1495500Y2056240D01*
X1436500Y2055240D02*
X1443500Y2055240D01*
X1489500Y2055240D02*
X1495500Y2055240D01*
X1436500Y2054240D02*
X1444500Y2054240D01*
X1489500Y2054240D02*
X1494500Y2054240D01*
X1437500Y2053240D02*
X1445500Y2053240D01*
X1490500Y2053240D02*
X1493500Y2053240D01*
X1437500Y2052240D02*
X1447500Y2052240D01*
X1438500Y2051240D02*
X1449500Y2051240D01*
X1438500Y2050240D02*
X1449500Y2050240D01*
X1439500Y2049240D02*
X1449500Y2049240D01*
X1440500Y2048240D02*
X1449500Y2048240D01*
X1441500Y2047240D02*
X1449500Y2047240D01*
X1442500Y2046240D02*
X1448500Y2046240D01*
X1445500Y2045240D02*
X1446500Y2045240D01*
X1454500Y2023240D02*
X1458500Y2023240D01*
X1490500Y2023240D02*
X1493500Y2023240D01*
X1453500Y2022240D02*
X1458500Y2022240D01*
X1489500Y2022240D02*
X1494500Y2022240D01*
X1453500Y2021240D02*
X1459500Y2021240D01*
X1489500Y2021240D02*
X1495500Y2021240D01*
X1452500Y2020240D02*
X1459500Y2020240D01*
X1488500Y2020240D02*
X1495500Y2020240D01*
X1452500Y2019240D02*
X1459500Y2019240D01*
X1488500Y2019240D02*
X1495500Y2019240D01*
X1452500Y2018240D02*
X1459500Y2018240D01*
X1488500Y2018240D02*
X1495500Y2018240D01*
X1452500Y2017240D02*
X1459500Y2017240D01*
X1488500Y2017240D02*
X1495500Y2017240D01*
X1452500Y2016240D02*
X1459500Y2016240D01*
X1488500Y2016240D02*
X1495500Y2016240D01*
X1452500Y2015240D02*
X1459500Y2015240D01*
X1488500Y2015240D02*
X1495500Y2015240D01*
X1452500Y2014240D02*
X1459500Y2014240D01*
X1488500Y2014240D02*
X1495500Y2014240D01*
X1452500Y2013240D02*
X1459500Y2013240D01*
X1488500Y2013240D02*
X1495500Y2013240D01*
X1452500Y2012240D02*
X1459500Y2012240D01*
X1488500Y2012240D02*
X1495500Y2012240D01*
X1452500Y2011240D02*
X1459500Y2011240D01*
X1488500Y2011240D02*
X1495500Y2011240D01*
X1452500Y2010240D02*
X1459500Y2010240D01*
X1488500Y2010240D02*
X1495500Y2010240D01*
X1452500Y2009240D02*
X1459500Y2009240D01*
X1488500Y2009240D02*
X1495500Y2009240D01*
X1452500Y2008240D02*
X1459500Y2008240D01*
X1488500Y2008240D02*
X1495500Y2008240D01*
X1452500Y2007240D02*
X1459500Y2007240D01*
X1488500Y2007240D02*
X1495500Y2007240D01*
X1452500Y2006240D02*
X1459500Y2006240D01*
X1488500Y2006240D02*
X1495500Y2006240D01*
X1452500Y2005240D02*
X1459500Y2005240D01*
X1488500Y2005240D02*
X1495500Y2005240D01*
X1452500Y2004240D02*
X1459500Y2004240D01*
X1488500Y2004240D02*
X1495500Y2004240D01*
X1452500Y2003240D02*
X1459500Y2003240D01*
X1488500Y2003240D02*
X1495500Y2003240D01*
X1453500Y2002240D02*
X1460500Y2002240D01*
X1488500Y2002240D02*
X1495500Y2002240D01*
X1453500Y2001240D02*
X1460500Y2001240D01*
X1487500Y2001240D02*
X1495500Y2001240D01*
X1453500Y2000240D02*
X1461500Y2000240D01*
X1486500Y2000240D02*
X1494500Y2000240D01*
X1453500Y1999240D02*
X1462500Y1999240D01*
X1486500Y1999240D02*
X1494500Y1999240D01*
X1454500Y1998240D02*
X1463500Y1998240D01*
X1485500Y1998240D02*
X1494500Y1998240D01*
X1455500Y1997240D02*
X1464500Y1997240D01*
X1484500Y1997240D02*
X1493500Y1997240D01*
X1455500Y1996240D02*
X1465500Y1996240D01*
X1483500Y1996240D02*
X1493500Y1996240D01*
X1456500Y1995240D02*
X1465500Y1995240D01*
X1482500Y1995240D02*
X1492500Y1995240D01*
X1457500Y1994240D02*
X1466500Y1994240D01*
X1481500Y1994240D02*
X1491500Y1994240D01*
X1458500Y1993240D02*
X1490500Y1993240D01*
X1459500Y1992240D02*
X1489500Y1992240D01*
X1460500Y1991240D02*
X1488500Y1991240D01*
X1460500Y1990240D02*
X1487500Y1990240D01*
X1461500Y1989240D02*
X1486500Y1989240D01*
X1462500Y1988240D02*
X1485500Y1988240D01*
X1464500Y1987240D02*
X1484500Y1987240D01*
X1466500Y1986240D02*
X1481500Y1986240D01*
X1455500Y1964240D02*
X1457500Y1964240D01*
X1454500Y1963240D02*
X1458500Y1963240D01*
X1453500Y1962240D02*
X1459500Y1962240D01*
X1453500Y1961240D02*
X1459500Y1961240D01*
X1452500Y1960240D02*
X1459500Y1960240D01*
X1452500Y1959240D02*
X1459500Y1959240D01*
X1452500Y1958240D02*
X1459500Y1958240D01*
X1452500Y1957240D02*
X1459500Y1957240D01*
X1452500Y1956240D02*
X1459500Y1956240D01*
X1452500Y1955240D02*
X1459500Y1955240D01*
X1452500Y1954240D02*
X1459500Y1954240D01*
X1452500Y1953240D02*
X1460500Y1953240D01*
X1452500Y1952240D02*
X1510500Y1952240D01*
X1452500Y1951240D02*
X1511500Y1951240D01*
X1452500Y1950240D02*
X1511500Y1950240D01*
X1452500Y1949240D02*
X1511500Y1949240D01*
X1452500Y1948240D02*
X1511500Y1948240D01*
X1452500Y1947240D02*
X1511500Y1947240D01*
X1452500Y1946240D02*
X1511500Y1946240D01*
X1452500Y1945240D02*
X1460500Y1945240D01*
X1504500Y1945240D02*
X1511500Y1945240D01*
X1452500Y1944240D02*
X1459500Y1944240D01*
X1505500Y1944240D02*
X1511500Y1944240D01*
X1452500Y1943240D02*
X1459500Y1943240D01*
X1505500Y1943240D02*
X1511500Y1943240D01*
X1452500Y1942240D02*
X1459500Y1942240D01*
X1505500Y1942240D02*
X1511500Y1942240D01*
X1452500Y1941240D02*
X1459500Y1941240D01*
X1505500Y1941240D02*
X1511500Y1941240D01*
X1452500Y1940240D02*
X1459500Y1940240D01*
X1505500Y1940240D02*
X1511500Y1940240D01*
X1452500Y1939240D02*
X1459500Y1939240D01*
X1505500Y1939240D02*
X1511500Y1939240D01*
X1452500Y1938240D02*
X1459500Y1938240D01*
X1505500Y1938240D02*
X1511500Y1938240D01*
X1453500Y1937240D02*
X1459500Y1937240D01*
X1505500Y1937240D02*
X1511500Y1937240D01*
X1453500Y1936240D02*
X1459500Y1936240D01*
X1505500Y1936240D02*
X1511500Y1936240D01*
X1454500Y1935240D02*
X1458500Y1935240D01*
X1506500Y1935240D02*
X1510500Y1935240D01*
X1455500Y1934240D02*
X1457500Y1934240D01*
X1507500Y1934240D02*
X1509500Y1934240D01*
X1444500Y1908240D02*
X1493500Y1908240D01*
X1506500Y1908240D02*
X1513500Y1908240D01*
X1442500Y1907240D02*
X1494500Y1907240D01*
X1505500Y1907240D02*
X1514500Y1907240D01*
X1440500Y1906240D02*
X1495500Y1906240D01*
X1505500Y1906240D02*
X1514500Y1906240D01*
X1439500Y1905240D02*
X1495500Y1905240D01*
X1505500Y1905240D02*
X1515500Y1905240D01*
X1438500Y1904240D02*
X1495500Y1904240D01*
X1505500Y1904240D02*
X1515500Y1904240D01*
X1438500Y1903240D02*
X1495500Y1903240D01*
X1505500Y1903240D02*
X1515500Y1903240D01*
X1437500Y1902240D02*
X1495500Y1902240D01*
X1505500Y1902240D02*
X1515500Y1902240D01*
X1437500Y1901240D02*
X1446500Y1901240D01*
X1488500Y1901240D02*
X1495500Y1901240D01*
X1505500Y1901240D02*
X1515500Y1901240D01*
X1437500Y1900240D02*
X1444500Y1900240D01*
X1488500Y1900240D02*
X1495500Y1900240D01*
X1505500Y1900240D02*
X1514500Y1900240D01*
X1436500Y1899240D02*
X1443500Y1899240D01*
X1488500Y1899240D02*
X1495500Y1899240D01*
X1505500Y1899240D02*
X1514500Y1899240D01*
X1436500Y1898240D02*
X1443500Y1898240D01*
X1488500Y1898240D02*
X1495500Y1898240D01*
X1506500Y1898240D02*
X1513500Y1898240D01*
X1436500Y1897240D02*
X1443500Y1897240D01*
X1488500Y1897240D02*
X1495500Y1897240D01*
X1436500Y1896240D02*
X1443500Y1896240D01*
X1488500Y1896240D02*
X1495500Y1896240D01*
X1436500Y1895240D02*
X1443500Y1895240D01*
X1488500Y1895240D02*
X1495500Y1895240D01*
X1436500Y1894240D02*
X1443500Y1894240D01*
X1488500Y1894240D02*
X1495500Y1894240D01*
X1436500Y1893240D02*
X1443500Y1893240D01*
X1488500Y1893240D02*
X1495500Y1893240D01*
X1436500Y1892240D02*
X1443500Y1892240D01*
X1488500Y1892240D02*
X1495500Y1892240D01*
X1436500Y1891240D02*
X1443500Y1891240D01*
X1488500Y1891240D02*
X1495500Y1891240D01*
X1436500Y1890240D02*
X1443500Y1890240D01*
X1488500Y1890240D02*
X1495500Y1890240D01*
X1436500Y1889240D02*
X1443500Y1889240D01*
X1488500Y1889240D02*
X1495500Y1889240D01*
X1436500Y1888240D02*
X1443500Y1888240D01*
X1489500Y1888240D02*
X1495500Y1888240D01*
X1436500Y1887240D02*
X1444500Y1887240D01*
X1489500Y1887240D02*
X1494500Y1887240D01*
X1437500Y1886240D02*
X1445500Y1886240D01*
X1491500Y1886240D02*
X1493500Y1886240D01*
X1437500Y1885240D02*
X1448500Y1885240D01*
X1438500Y1884240D02*
X1449500Y1884240D01*
X1438500Y1883240D02*
X1449500Y1883240D01*
X1439500Y1882240D02*
X1449500Y1882240D01*
X1440500Y1881240D02*
X1449500Y1881240D01*
X1441500Y1880240D02*
X1449500Y1880240D01*
X1443500Y1879240D02*
X1448500Y1879240D01*
X1454500Y1856240D02*
X1458500Y1856240D01*
X1490500Y1856240D02*
X1494500Y1856240D01*
X1453500Y1855240D02*
X1459500Y1855240D01*
X1489500Y1855240D02*
X1495500Y1855240D01*
X1453500Y1854240D02*
X1459500Y1854240D01*
X1489500Y1854240D02*
X1495500Y1854240D01*
X1452500Y1853240D02*
X1459500Y1853240D01*
X1488500Y1853240D02*
X1495500Y1853240D01*
X1452500Y1852240D02*
X1459500Y1852240D01*
X1488500Y1852240D02*
X1495500Y1852240D01*
X1452500Y1851240D02*
X1459500Y1851240D01*
X1488500Y1851240D02*
X1495500Y1851240D01*
X1452500Y1850240D02*
X1459500Y1850240D01*
X1488500Y1850240D02*
X1495500Y1850240D01*
X1452500Y1849240D02*
X1459500Y1849240D01*
X1488500Y1849240D02*
X1495500Y1849240D01*
X1452500Y1848240D02*
X1459500Y1848240D01*
X1488500Y1848240D02*
X1495500Y1848240D01*
X1452500Y1847240D02*
X1459500Y1847240D01*
X1488500Y1847240D02*
X1495500Y1847240D01*
X1452500Y1846240D02*
X1459500Y1846240D01*
X1488500Y1846240D02*
X1495500Y1846240D01*
X1452500Y1845240D02*
X1459500Y1845240D01*
X1488500Y1845240D02*
X1495500Y1845240D01*
X1452500Y1844240D02*
X1459500Y1844240D01*
X1488500Y1844240D02*
X1495500Y1844240D01*
X1452500Y1843240D02*
X1459500Y1843240D01*
X1488500Y1843240D02*
X1495500Y1843240D01*
X1452500Y1842240D02*
X1459500Y1842240D01*
X1488500Y1842240D02*
X1495500Y1842240D01*
X1452500Y1841240D02*
X1459500Y1841240D01*
X1488500Y1841240D02*
X1495500Y1841240D01*
X1452500Y1840240D02*
X1459500Y1840240D01*
X1488500Y1840240D02*
X1495500Y1840240D01*
X1452500Y1839240D02*
X1459500Y1839240D01*
X1488500Y1839240D02*
X1495500Y1839240D01*
X1452500Y1838240D02*
X1459500Y1838240D01*
X1488500Y1838240D02*
X1495500Y1838240D01*
X1452500Y1837240D02*
X1459500Y1837240D01*
X1488500Y1837240D02*
X1495500Y1837240D01*
X1453500Y1836240D02*
X1459500Y1836240D01*
X1488500Y1836240D02*
X1495500Y1836240D01*
X1453500Y1835240D02*
X1460500Y1835240D01*
X1488500Y1835240D02*
X1495500Y1835240D01*
X1453500Y1834240D02*
X1460500Y1834240D01*
X1487500Y1834240D02*
X1495500Y1834240D01*
X1453500Y1833240D02*
X1461500Y1833240D01*
X1486500Y1833240D02*
X1494500Y1833240D01*
X1453500Y1832240D02*
X1462500Y1832240D01*
X1485500Y1832240D02*
X1494500Y1832240D01*
X1454500Y1831240D02*
X1463500Y1831240D01*
X1485500Y1831240D02*
X1494500Y1831240D01*
X1455500Y1830240D02*
X1464500Y1830240D01*
X1484500Y1830240D02*
X1493500Y1830240D01*
X1455500Y1829240D02*
X1465500Y1829240D01*
X1483500Y1829240D02*
X1492500Y1829240D01*
X1456500Y1828240D02*
X1466500Y1828240D01*
X1482500Y1828240D02*
X1492500Y1828240D01*
X1457500Y1827240D02*
X1467500Y1827240D01*
X1481500Y1827240D02*
X1491500Y1827240D01*
X1458500Y1826240D02*
X1490500Y1826240D01*
X1459500Y1825240D02*
X1489500Y1825240D01*
X1460500Y1824240D02*
X1488500Y1824240D01*
X1461500Y1823240D02*
X1487500Y1823240D01*
X1462500Y1822240D02*
X1486500Y1822240D01*
X1463500Y1821240D02*
X1485500Y1821240D01*
X1464500Y1820240D02*
X1483500Y1820240D01*
X1467500Y1819240D02*
X1481500Y1819240D01*
X1455500Y1797240D02*
X1457500Y1797240D01*
X1453500Y1796240D02*
X1458500Y1796240D01*
X1453500Y1795240D02*
X1459500Y1795240D01*
X1453500Y1794240D02*
X1459500Y1794240D01*
X1452500Y1793240D02*
X1459500Y1793240D01*
X1452500Y1792240D02*
X1459500Y1792240D01*
X1452500Y1791240D02*
X1459500Y1791240D01*
X1452500Y1790240D02*
X1459500Y1790240D01*
X1452500Y1789240D02*
X1459500Y1789240D01*
X1452500Y1788240D02*
X1459500Y1788240D01*
X1452500Y1787240D02*
X1459500Y1787240D01*
X1452500Y1786240D02*
X1508500Y1786240D01*
X1452500Y1785240D02*
X1510500Y1785240D01*
X1452500Y1784240D02*
X1511500Y1784240D01*
X1452500Y1783240D02*
X1511500Y1783240D01*
X1452500Y1782240D02*
X1511500Y1782240D01*
X1452500Y1781240D02*
X1511500Y1781240D01*
X1452500Y1780240D02*
X1511500Y1780240D01*
X1452500Y1779240D02*
X1511500Y1779240D01*
X1452500Y1778240D02*
X1459500Y1778240D01*
X1505500Y1778240D02*
X1511500Y1778240D01*
X1452500Y1777240D02*
X1459500Y1777240D01*
X1505500Y1777240D02*
X1511500Y1777240D01*
X1452500Y1776240D02*
X1459500Y1776240D01*
X1505500Y1776240D02*
X1511500Y1776240D01*
X1452500Y1775240D02*
X1459500Y1775240D01*
X1505500Y1775240D02*
X1511500Y1775240D01*
X1452500Y1774240D02*
X1459500Y1774240D01*
X1505500Y1774240D02*
X1511500Y1774240D01*
X1452500Y1773240D02*
X1459500Y1773240D01*
X1505500Y1773240D02*
X1511500Y1773240D01*
X1452500Y1772240D02*
X1459500Y1772240D01*
X1505500Y1772240D02*
X1511500Y1772240D01*
X1452500Y1771240D02*
X1459500Y1771240D01*
X1505500Y1771240D02*
X1511500Y1771240D01*
X1453500Y1770240D02*
X1459500Y1770240D01*
X1505500Y1770240D02*
X1511500Y1770240D01*
X1453500Y1769240D02*
X1459500Y1769240D01*
X1505500Y1769240D02*
X1511500Y1769240D01*
X1454500Y1768240D02*
X1458500Y1768240D01*
X1506500Y1768240D02*
X1510500Y1768240D01*
X1456500Y1767240D02*
X1456500Y1767240D01*
X1508500Y1767240D02*
X1508500Y1767240D01*
X1443500Y1741240D02*
X1494500Y1741240D01*
X1506500Y1741240D02*
X1513500Y1741240D01*
X1441500Y1740240D02*
X1494500Y1740240D01*
X1505500Y1740240D02*
X1514500Y1740240D01*
X1440500Y1739240D02*
X1495500Y1739240D01*
X1505500Y1739240D02*
X1514500Y1739240D01*
X1439500Y1738240D02*
X1495500Y1738240D01*
X1505500Y1738240D02*
X1515500Y1738240D01*
X1438500Y1737240D02*
X1495500Y1737240D01*
X1505500Y1737240D02*
X1515500Y1737240D01*
X1438500Y1736240D02*
X1495500Y1736240D01*
X1505500Y1736240D02*
X1515500Y1736240D01*
X1437500Y1735240D02*
X1495500Y1735240D01*
X1505500Y1735240D02*
X1515500Y1735240D01*
X1437500Y1734240D02*
X1446500Y1734240D01*
X1488500Y1734240D02*
X1495500Y1734240D01*
X1505500Y1734240D02*
X1515500Y1734240D01*
X1436500Y1733240D02*
X1444500Y1733240D01*
X1488500Y1733240D02*
X1495500Y1733240D01*
X1505500Y1733240D02*
X1514500Y1733240D01*
X1436500Y1732240D02*
X1443500Y1732240D01*
X1488500Y1732240D02*
X1495500Y1732240D01*
X1505500Y1732240D02*
X1514500Y1732240D01*
X1436500Y1731240D02*
X1443500Y1731240D01*
X1488500Y1731240D02*
X1495500Y1731240D01*
X1506500Y1731240D02*
X1513500Y1731240D01*
X1436500Y1730240D02*
X1443500Y1730240D01*
X1488500Y1730240D02*
X1495500Y1730240D01*
X1436500Y1729240D02*
X1443500Y1729240D01*
X1488500Y1729240D02*
X1495500Y1729240D01*
X1436500Y1728240D02*
X1443500Y1728240D01*
X1488500Y1728240D02*
X1495500Y1728240D01*
X1436500Y1727240D02*
X1443500Y1727240D01*
X1488500Y1727240D02*
X1495500Y1727240D01*
X1436500Y1726240D02*
X1443500Y1726240D01*
X1488500Y1726240D02*
X1495500Y1726240D01*
X1436500Y1725240D02*
X1443500Y1725240D01*
X1488500Y1725240D02*
X1495500Y1725240D01*
X1436500Y1724240D02*
X1443500Y1724240D01*
X1488500Y1724240D02*
X1495500Y1724240D01*
X1436500Y1723240D02*
X1443500Y1723240D01*
X1488500Y1723240D02*
X1495500Y1723240D01*
X1436500Y1722240D02*
X1443500Y1722240D01*
X1488500Y1722240D02*
X1495500Y1722240D01*
X1436500Y1721240D02*
X1443500Y1721240D01*
X1489500Y1721240D02*
X1495500Y1721240D01*
X1437500Y1720240D02*
X1444500Y1720240D01*
X1490500Y1720240D02*
X1494500Y1720240D01*
X1437500Y1719240D02*
X1446500Y1719240D01*
X1491500Y1719240D02*
X1492500Y1719240D01*
X1437500Y1718240D02*
X1448500Y1718240D01*
X1438500Y1717240D02*
X1449500Y1717240D01*
X1438500Y1716240D02*
X1449500Y1716240D01*
X1439500Y1715240D02*
X1449500Y1715240D01*
X1440500Y1714240D02*
X1449500Y1714240D01*
X1441500Y1713240D02*
X1449500Y1713240D01*
X1443500Y1712240D02*
X1448500Y1712240D01*
D02*
G04 End of Silk0*
M02*