G04 MADE WITH FRITZING*
G04 WWW.FRITZING.ORG*
G04 DOUBLE SIDED*
G04 HOLES PLATED*
G04 CONTOUR ON CENTER OF CONTOUR VECTOR*
%FSLAX26Y26*%
%MOIN*%
%ADD10R,0.001000X0.001000*%
G04 SILK0*
%FSLAX26Y26*%
%MOIN*%
D10*
X1455500Y2357240D02*
X1457500Y2357240D01*
X1491500Y2357240D02*
X1493500Y2357240D01*
X1453500Y2356240D02*
X1458500Y2356240D01*
X1489500Y2356240D02*
X1494500Y2356240D01*
X1453500Y2355240D02*
X1459500Y2355240D01*
X1489500Y2355240D02*
X1495500Y2355240D01*
X1453500Y2354240D02*
X1459500Y2354240D01*
X1488500Y2354240D02*
X1495500Y2354240D01*
X1452500Y2353240D02*
X1459500Y2353240D01*
X1488500Y2353240D02*
X1495500Y2353240D01*
X1452500Y2352240D02*
X1459500Y2352240D01*
X1488500Y2352240D02*
X1495500Y2352240D01*
X1452500Y2351240D02*
X1459500Y2351240D01*
X1488500Y2351240D02*
X1495500Y2351240D01*
X1452500Y2350240D02*
X1459500Y2350240D01*
X1488500Y2350240D02*
X1495500Y2350240D01*
X1452500Y2349240D02*
X1459500Y2349240D01*
X1488500Y2349240D02*
X1495500Y2349240D01*
X1452500Y2348240D02*
X1459500Y2348240D01*
X1488500Y2348240D02*
X1495500Y2348240D01*
X1452500Y2347240D02*
X1459500Y2347240D01*
X1488500Y2347240D02*
X1495500Y2347240D01*
X1452500Y2346240D02*
X1459500Y2346240D01*
X1488500Y2346240D02*
X1495500Y2346240D01*
X1452500Y2345240D02*
X1459500Y2345240D01*
X1488500Y2345240D02*
X1495500Y2345240D01*
X1452500Y2344240D02*
X1459500Y2344240D01*
X1488500Y2344240D02*
X1495500Y2344240D01*
X1452500Y2343240D02*
X1459500Y2343240D01*
X1488500Y2343240D02*
X1495500Y2343240D01*
X1452500Y2342240D02*
X1459500Y2342240D01*
X1488500Y2342240D02*
X1495500Y2342240D01*
X1452500Y2341240D02*
X1459500Y2341240D01*
X1488500Y2341240D02*
X1495500Y2341240D01*
X1452500Y2340240D02*
X1459500Y2340240D01*
X1488500Y2340240D02*
X1495500Y2340240D01*
X1452500Y2339240D02*
X1459500Y2339240D01*
X1488500Y2339240D02*
X1495500Y2339240D01*
X1452500Y2338240D02*
X1459500Y2338240D01*
X1488500Y2338240D02*
X1495500Y2338240D01*
X1452500Y2337240D02*
X1459500Y2337240D01*
X1488500Y2337240D02*
X1495500Y2337240D01*
X1453500Y2336240D02*
X1459500Y2336240D01*
X1488500Y2336240D02*
X1495500Y2336240D01*
X1453500Y2335240D02*
X1460500Y2335240D01*
X1488500Y2335240D02*
X1495500Y2335240D01*
X1453500Y2334240D02*
X1461500Y2334240D01*
X1487500Y2334240D02*
X1495500Y2334240D01*
X1453500Y2333240D02*
X1462500Y2333240D01*
X1486500Y2333240D02*
X1494500Y2333240D01*
X1454500Y2332240D02*
X1463500Y2332240D01*
X1485500Y2332240D02*
X1494500Y2332240D01*
X1454500Y2331240D02*
X1463500Y2331240D01*
X1484500Y2331240D02*
X1493500Y2331240D01*
X1455500Y2330240D02*
X1464500Y2330240D01*
X1483500Y2330240D02*
X1493500Y2330240D01*
X1456500Y2329240D02*
X1465500Y2329240D01*
X1482500Y2329240D02*
X1492500Y2329240D01*
X1457500Y2328240D02*
X1466500Y2328240D01*
X1481500Y2328240D02*
X1491500Y2328240D01*
X1458500Y2327240D02*
X1468500Y2327240D01*
X1479500Y2327240D02*
X1490500Y2327240D01*
X1458500Y2326240D02*
X1489500Y2326240D01*
X1459500Y2325240D02*
X1489500Y2325240D01*
X1460500Y2324240D02*
X1488500Y2324240D01*
X1461500Y2323240D02*
X1487500Y2323240D01*
X1462500Y2322240D02*
X1485500Y2322240D01*
X1463500Y2321240D02*
X1484500Y2321240D01*
X1465500Y2320240D02*
X1482500Y2320240D01*
X1454500Y2297240D02*
X1458500Y2297240D01*
X1453500Y2296240D02*
X1459500Y2296240D01*
X1453500Y2295240D02*
X1459500Y2295240D01*
X1452500Y2294240D02*
X1459500Y2294240D01*
X1452500Y2293240D02*
X1459500Y2293240D01*
X1452500Y2292240D02*
X1459500Y2292240D01*
X1452500Y2291240D02*
X1459500Y2291240D01*
X1452500Y2290240D02*
X1459500Y2290240D01*
X1452500Y2289240D02*
X1459500Y2289240D01*
X1452500Y2288240D02*
X1459500Y2288240D01*
X1452500Y2287240D02*
X1459500Y2287240D01*
X1452500Y2286240D02*
X1509500Y2286240D01*
X1452500Y2285240D02*
X1510500Y2285240D01*
X1452500Y2284240D02*
X1511500Y2284240D01*
X1452500Y2283240D02*
X1511500Y2283240D01*
X1452500Y2282240D02*
X1511500Y2282240D01*
X1452500Y2281240D02*
X1511500Y2281240D01*
X1452500Y2280240D02*
X1511500Y2280240D01*
X1452500Y2279240D02*
X1511500Y2279240D01*
X1452500Y2278240D02*
X1459500Y2278240D01*
X1505500Y2278240D02*
X1511500Y2278240D01*
X1452500Y2277240D02*
X1459500Y2277240D01*
X1505500Y2277240D02*
X1511500Y2277240D01*
X1452500Y2276240D02*
X1459500Y2276240D01*
X1505500Y2276240D02*
X1511500Y2276240D01*
X1452500Y2275240D02*
X1459500Y2275240D01*
X1505500Y2275240D02*
X1511500Y2275240D01*
X1452500Y2274240D02*
X1459500Y2274240D01*
X1505500Y2274240D02*
X1511500Y2274240D01*
X1452500Y2273240D02*
X1459500Y2273240D01*
X1505500Y2273240D02*
X1511500Y2273240D01*
X1452500Y2272240D02*
X1459500Y2272240D01*
X1505500Y2272240D02*
X1511500Y2272240D01*
X1452500Y2271240D02*
X1459500Y2271240D01*
X1505500Y2271240D02*
X1511500Y2271240D01*
X1453500Y2270240D02*
X1459500Y2270240D01*
X1505500Y2270240D02*
X1511500Y2270240D01*
X1453500Y2269240D02*
X1458500Y2269240D01*
X1505500Y2269240D02*
X1511500Y2269240D01*
X1454500Y2268240D02*
X1457500Y2268240D01*
X1506500Y2268240D02*
X1510500Y2268240D01*
X1445500Y2242240D02*
X1493500Y2242240D01*
X1507500Y2242240D02*
X1512500Y2242240D01*
X1442500Y2241240D02*
X1494500Y2241240D01*
X1506500Y2241240D02*
X1514500Y2241240D01*
X1441500Y2240240D02*
X1495500Y2240240D01*
X1505500Y2240240D02*
X1514500Y2240240D01*
X1440500Y2239240D02*
X1495500Y2239240D01*
X1505500Y2239240D02*
X1515500Y2239240D01*
X1439500Y2238240D02*
X1495500Y2238240D01*
X1505500Y2238240D02*
X1515500Y2238240D01*
X1438500Y2237240D02*
X1495500Y2237240D01*
X1505500Y2237240D02*
X1515500Y2237240D01*
X1437500Y2236240D02*
X1495500Y2236240D01*
X1505500Y2236240D02*
X1515500Y2236240D01*
X1437500Y2235240D02*
X1495500Y2235240D01*
X1505500Y2235240D02*
X1515500Y2235240D01*
X1437500Y2234240D02*
X1445500Y2234240D01*
X1488500Y2234240D02*
X1495500Y2234240D01*
X1505500Y2234240D02*
X1515500Y2234240D01*
X1436500Y2233240D02*
X1444500Y2233240D01*
X1488500Y2233240D02*
X1495500Y2233240D01*
X1505500Y2233240D02*
X1514500Y2233240D01*
X1436500Y2232240D02*
X1443500Y2232240D01*
X1488500Y2232240D02*
X1495500Y2232240D01*
X1506500Y2232240D02*
X1514500Y2232240D01*
X1436500Y2231240D02*
X1443500Y2231240D01*
X1488500Y2231240D02*
X1495500Y2231240D01*
X1507500Y2231240D02*
X1512500Y2231240D01*
X1436500Y2230240D02*
X1443500Y2230240D01*
X1488500Y2230240D02*
X1495500Y2230240D01*
X1436500Y2229240D02*
X1443500Y2229240D01*
X1488500Y2229240D02*
X1495500Y2229240D01*
X1436500Y2228240D02*
X1443500Y2228240D01*
X1488500Y2228240D02*
X1495500Y2228240D01*
X1436500Y2227240D02*
X1443500Y2227240D01*
X1488500Y2227240D02*
X1495500Y2227240D01*
X1436500Y2226240D02*
X1443500Y2226240D01*
X1488500Y2226240D02*
X1495500Y2226240D01*
X1436500Y2225240D02*
X1443500Y2225240D01*
X1488500Y2225240D02*
X1495500Y2225240D01*
X1436500Y2224240D02*
X1443500Y2224240D01*
X1488500Y2224240D02*
X1495500Y2224240D01*
X1436500Y2223240D02*
X1443500Y2223240D01*
X1488500Y2223240D02*
X1495500Y2223240D01*
X1436500Y2222240D02*
X1443500Y2222240D01*
X1489500Y2222240D02*
X1495500Y2222240D01*
X1436500Y2221240D02*
X1444500Y2221240D01*
X1489500Y2221240D02*
X1494500Y2221240D01*
X1437500Y2220240D02*
X1445500Y2220240D01*
X1490500Y2220240D02*
X1493500Y2220240D01*
X1437500Y2219240D02*
X1447500Y2219240D01*
X1437500Y2218240D02*
X1448500Y2218240D01*
X1438500Y2217240D02*
X1449500Y2217240D01*
X1439500Y2216240D02*
X1449500Y2216240D01*
X1440500Y2215240D02*
X1449500Y2215240D01*
X1441500Y2214240D02*
X1449500Y2214240D01*
X1442500Y2213240D02*
X1448500Y2213240D01*
X1444500Y2212240D02*
X1447500Y2212240D01*
X1454500Y2190240D02*
X1457500Y2190240D01*
X1490500Y2190240D02*
X1493500Y2190240D01*
X1453500Y2189240D02*
X1458500Y2189240D01*
X1489500Y2189240D02*
X1494500Y2189240D01*
X1453500Y2188240D02*
X1459500Y2188240D01*
X1489500Y2188240D02*
X1495500Y2188240D01*
X1452500Y2187240D02*
X1459500Y2187240D01*
X1488500Y2187240D02*
X1495500Y2187240D01*
X1452500Y2186240D02*
X1459500Y2186240D01*
X1488500Y2186240D02*
X1495500Y2186240D01*
X1452500Y2185240D02*
X1459500Y2185240D01*
X1488500Y2185240D02*
X1495500Y2185240D01*
X1452500Y2184240D02*
X1459500Y2184240D01*
X1488500Y2184240D02*
X1495500Y2184240D01*
X1452500Y2183240D02*
X1459500Y2183240D01*
X1488500Y2183240D02*
X1495500Y2183240D01*
X1452500Y2182240D02*
X1459500Y2182240D01*
X1488500Y2182240D02*
X1495500Y2182240D01*
X1452500Y2181240D02*
X1459500Y2181240D01*
X1488500Y2181240D02*
X1495500Y2181240D01*
X1452500Y2180240D02*
X1459500Y2180240D01*
X1488500Y2180240D02*
X1495500Y2180240D01*
X1452500Y2179240D02*
X1459500Y2179240D01*
X1488500Y2179240D02*
X1495500Y2179240D01*
X1452500Y2178240D02*
X1459500Y2178240D01*
X1488500Y2178240D02*
X1495500Y2178240D01*
X1452500Y2177240D02*
X1459500Y2177240D01*
X1488500Y2177240D02*
X1495500Y2177240D01*
X1452500Y2176240D02*
X1459500Y2176240D01*
X1488500Y2176240D02*
X1495500Y2176240D01*
X1452500Y2175240D02*
X1459500Y2175240D01*
X1488500Y2175240D02*
X1495500Y2175240D01*
X1452500Y2174240D02*
X1459500Y2174240D01*
X1488500Y2174240D02*
X1495500Y2174240D01*
X1452500Y2173240D02*
X1459500Y2173240D01*
X1488500Y2173240D02*
X1495500Y2173240D01*
X1452500Y2172240D02*
X1459500Y2172240D01*
X1488500Y2172240D02*
X1495500Y2172240D01*
X1452500Y2171240D02*
X1459500Y2171240D01*
X1488500Y2171240D02*
X1495500Y2171240D01*
X1452500Y2170240D02*
X1459500Y2170240D01*
X1488500Y2170240D02*
X1495500Y2170240D01*
X1453500Y2169240D02*
X1460500Y2169240D01*
X1488500Y2169240D02*
X1495500Y2169240D01*
X1453500Y2168240D02*
X1460500Y2168240D01*
X1487500Y2168240D02*
X1495500Y2168240D01*
X1453500Y2167240D02*
X1461500Y2167240D01*
X1487500Y2167240D02*
X1495500Y2167240D01*
X1453500Y2166240D02*
X1462500Y2166240D01*
X1486500Y2166240D02*
X1494500Y2166240D01*
X1454500Y2165240D02*
X1463500Y2165240D01*
X1485500Y2165240D02*
X1494500Y2165240D01*
X1454500Y2164240D02*
X1464500Y2164240D01*
X1484500Y2164240D02*
X1493500Y2164240D01*
X1455500Y2163240D02*
X1464500Y2163240D01*
X1483500Y2163240D02*
X1493500Y2163240D01*
X1456500Y2162240D02*
X1465500Y2162240D01*
X1482500Y2162240D02*
X1492500Y2162240D01*
X1457500Y2161240D02*
X1466500Y2161240D01*
X1481500Y2161240D02*
X1491500Y2161240D01*
X1458500Y2160240D02*
X1490500Y2160240D01*
X1459500Y2159240D02*
X1489500Y2159240D01*
X1459500Y2158240D02*
X1488500Y2158240D01*
X1460500Y2157240D02*
X1487500Y2157240D01*
X1461500Y2156240D02*
X1486500Y2156240D01*
X1462500Y2155240D02*
X1485500Y2155240D01*
X1464500Y2154240D02*
X1484500Y2154240D01*
X1466500Y2153240D02*
X1482500Y2153240D01*
X1456500Y2131240D02*
X1456500Y2131240D01*
X1454500Y2130240D02*
X1458500Y2130240D01*
X1453500Y2129240D02*
X1459500Y2129240D01*
X1453500Y2128240D02*
X1459500Y2128240D01*
X1452500Y2127240D02*
X1459500Y2127240D01*
X1452500Y2126240D02*
X1459500Y2126240D01*
X1452500Y2125240D02*
X1459500Y2125240D01*
X1452500Y2124240D02*
X1459500Y2124240D01*
X1452500Y2123240D02*
X1459500Y2123240D01*
X1452500Y2122240D02*
X1459500Y2122240D01*
X1452500Y2121240D02*
X1459500Y2121240D01*
X1452500Y2120240D02*
X1459500Y2120240D01*
X1452500Y2119240D02*
X1510500Y2119240D01*
X1452500Y2118240D02*
X1511500Y2118240D01*
X1452500Y2117240D02*
X1511500Y2117240D01*
X1452500Y2116240D02*
X1511500Y2116240D01*
X1452500Y2115240D02*
X1511500Y2115240D01*
X1452500Y2114240D02*
X1511500Y2114240D01*
X1452500Y2113240D02*
X1511500Y2113240D01*
X1452500Y2112240D02*
X1511500Y2112240D01*
X1452500Y2111240D02*
X1459500Y2111240D01*
X1505500Y2111240D02*
X1511500Y2111240D01*
X1452500Y2110240D02*
X1459500Y2110240D01*
X1505500Y2110240D02*
X1511500Y2110240D01*
X1452500Y2109240D02*
X1459500Y2109240D01*
X1505500Y2109240D02*
X1511500Y2109240D01*
X1452500Y2108240D02*
X1459500Y2108240D01*
X1505500Y2108240D02*
X1511500Y2108240D01*
X1452500Y2107240D02*
X1459500Y2107240D01*
X1505500Y2107240D02*
X1511500Y2107240D01*
X1452500Y2106240D02*
X1459500Y2106240D01*
X1505500Y2106240D02*
X1511500Y2106240D01*
X1452500Y2105240D02*
X1459500Y2105240D01*
X1505500Y2105240D02*
X1511500Y2105240D01*
X1453500Y2104240D02*
X1459500Y2104240D01*
X1505500Y2104240D02*
X1511500Y2104240D01*
X1453500Y2103240D02*
X1459500Y2103240D01*
X1505500Y2103240D02*
X1511500Y2103240D01*
X1453500Y2102240D02*
X1458500Y2102240D01*
X1506500Y2102240D02*
X1510500Y2102240D01*
X1455500Y2101240D02*
X1457500Y2101240D01*
X1507500Y2101240D02*
X1509500Y2101240D01*
X1444500Y2075240D02*
X1493500Y2075240D01*
X1507500Y2075240D02*
X1513500Y2075240D01*
X1442500Y2074240D02*
X1494500Y2074240D01*
X1506500Y2074240D02*
X1514500Y2074240D01*
X1440500Y2073240D02*
X1495500Y2073240D01*
X1505500Y2073240D02*
X1514500Y2073240D01*
X1439500Y2072240D02*
X1495500Y2072240D01*
X1505500Y2072240D02*
X1515500Y2072240D01*
X1439500Y2071240D02*
X1495500Y2071240D01*
X1505500Y2071240D02*
X1515500Y2071240D01*
X1438500Y2070240D02*
X1495500Y2070240D01*
X1505500Y2070240D02*
X1515500Y2070240D01*
X1437500Y2069240D02*
X1495500Y2069240D01*
X1505500Y2069240D02*
X1515500Y2069240D01*
X1437500Y2068240D02*
X1495500Y2068240D01*
X1505500Y2068240D02*
X1515500Y2068240D01*
X1437500Y2067240D02*
X1444500Y2067240D01*
X1488500Y2067240D02*
X1495500Y2067240D01*
X1505500Y2067240D02*
X1514500Y2067240D01*
X1436500Y2066240D02*
X1444500Y2066240D01*
X1488500Y2066240D02*
X1495500Y2066240D01*
X1505500Y2066240D02*
X1514500Y2066240D01*
X1436500Y2065240D02*
X1443500Y2065240D01*
X1488500Y2065240D02*
X1495500Y2065240D01*
X1506500Y2065240D02*
X1513500Y2065240D01*
X1436500Y2064240D02*
X1443500Y2064240D01*
X1488500Y2064240D02*
X1495500Y2064240D01*
X1508500Y2064240D02*
X1511500Y2064240D01*
X1436500Y2063240D02*
X1443500Y2063240D01*
X1488500Y2063240D02*
X1495500Y2063240D01*
X1436500Y2062240D02*
X1443500Y2062240D01*
X1488500Y2062240D02*
X1495500Y2062240D01*
X1436500Y2061240D02*
X1443500Y2061240D01*
X1488500Y2061240D02*
X1495500Y2061240D01*
X1436500Y2060240D02*
X1443500Y2060240D01*
X1488500Y2060240D02*
X1495500Y2060240D01*
X1436500Y2059240D02*
X1443500Y2059240D01*
X1488500Y2059240D02*
X1495500Y2059240D01*
X1436500Y2058240D02*
X1443500Y2058240D01*
X1488500Y2058240D02*
X1495500Y2058240D01*
X1436500Y2057240D02*
X1443500Y2057240D01*
X1488500Y2057240D02*
X1495500Y2057240D01*
X1436500Y2056240D02*
X1443500Y2056240D01*
X1488500Y2056240D02*
X1495500Y2056240D01*
X1436500Y2055240D02*
X1443500Y2055240D01*
X1489500Y2055240D02*
X1495500Y2055240D01*
X1436500Y2054240D02*
X1444500Y2054240D01*
X1489500Y2054240D02*
X1494500Y2054240D01*
X1437500Y2053240D02*
X1445500Y2053240D01*
X1490500Y2053240D02*
X1493500Y2053240D01*
X1437500Y2052240D02*
X1447500Y2052240D01*
X1438500Y2051240D02*
X1449500Y2051240D01*
X1438500Y2050240D02*
X1449500Y2050240D01*
X1439500Y2049240D02*
X1449500Y2049240D01*
X1440500Y2048240D02*
X1449500Y2048240D01*
X1441500Y2047240D02*
X1449500Y2047240D01*
X1442500Y2046240D02*
X1448500Y2046240D01*
X1445500Y2045240D02*
X1446500Y2045240D01*
X1454500Y2023240D02*
X1458500Y2023240D01*
X1490500Y2023240D02*
X1493500Y2023240D01*
X1453500Y2022240D02*
X1458500Y2022240D01*
X1489500Y2022240D02*
X1494500Y2022240D01*
X1453500Y2021240D02*
X1459500Y2021240D01*
X1489500Y2021240D02*
X1495500Y2021240D01*
X1452500Y2020240D02*
X1459500Y2020240D01*
X1488500Y2020240D02*
X1495500Y2020240D01*
X1452500Y2019240D02*
X1459500Y2019240D01*
X1488500Y2019240D02*
X1495500Y2019240D01*
X1452500Y2018240D02*
X1459500Y2018240D01*
X1488500Y2018240D02*
X1495500Y2018240D01*
X1452500Y2017240D02*
X1459500Y2017240D01*
X1488500Y2017240D02*
X1495500Y2017240D01*
X1452500Y2016240D02*
X1459500Y2016240D01*
X1488500Y2016240D02*
X1495500Y2016240D01*
X1452500Y2015240D02*
X1459500Y2015240D01*
X1488500Y2015240D02*
X1495500Y2015240D01*
X1452500Y2014240D02*
X1459500Y2014240D01*
X1488500Y2014240D02*
X1495500Y2014240D01*
X1452500Y2013240D02*
X1459500Y2013240D01*
X1488500Y2013240D02*
X1495500Y2013240D01*
X1452500Y2012240D02*
X1459500Y2012240D01*
X1488500Y2012240D02*
X1495500Y2012240D01*
X1452500Y2011240D02*
X1459500Y2011240D01*
X1488500Y2011240D02*
X1495500Y2011240D01*
X1452500Y2010240D02*
X1459500Y2010240D01*
X1488500Y2010240D02*
X1495500Y2010240D01*
X1452500Y2009240D02*
X1459500Y2009240D01*
X1488500Y2009240D02*
X1495500Y2009240D01*
X1452500Y2008240D02*
X1459500Y2008240D01*
X1488500Y2008240D02*
X1495500Y2008240D01*
X1452500Y2007240D02*
X1459500Y2007240D01*
X1488500Y2007240D02*
X1495500Y2007240D01*
X1452500Y2006240D02*
X1459500Y2006240D01*
X1488500Y2006240D02*
X1495500Y2006240D01*
X1452500Y2005240D02*
X1459500Y2005240D01*
X1488500Y2005240D02*
X1495500Y2005240D01*
X1452500Y2004240D02*
X1459500Y2004240D01*
X1488500Y2004240D02*
X1495500Y2004240D01*
X1452500Y2003240D02*
X1459500Y2003240D01*
X1488500Y2003240D02*
X1495500Y2003240D01*
X1453500Y2002240D02*
X1460500Y2002240D01*
X1488500Y2002240D02*
X1495500Y2002240D01*
X1453500Y2001240D02*
X1460500Y2001240D01*
X1487500Y2001240D02*
X1495500Y2001240D01*
X1453500Y2000240D02*
X1461500Y2000240D01*
X1486500Y2000240D02*
X1494500Y2000240D01*
X1453500Y1999240D02*
X1462500Y1999240D01*
X1486500Y1999240D02*
X1494500Y1999240D01*
X1454500Y1998240D02*
X1463500Y1998240D01*
X1485500Y1998240D02*
X1494500Y1998240D01*
X1455500Y1997240D02*
X1464500Y1997240D01*
X1484500Y1997240D02*
X1493500Y1997240D01*
X1455500Y1996240D02*
X1465500Y1996240D01*
X1483500Y1996240D02*
X1493500Y1996240D01*
X1456500Y1995240D02*
X1465500Y1995240D01*
X1482500Y1995240D02*
X1492500Y1995240D01*
X1457500Y1994240D02*
X1466500Y1994240D01*
X1481500Y1994240D02*
X1491500Y1994240D01*
X1458500Y1993240D02*
X1490500Y1993240D01*
X1459500Y1992240D02*
X1489500Y1992240D01*
X1460500Y1991240D02*
X1488500Y1991240D01*
X1460500Y1990240D02*
X1487500Y1990240D01*
X1461500Y1989240D02*
X1486500Y1989240D01*
X1462500Y1988240D02*
X1485500Y1988240D01*
X1464500Y1987240D02*
X1484500Y1987240D01*
X1466500Y1986240D02*
X1481500Y1986240D01*
X1455500Y1964240D02*
X1457500Y1964240D01*
X1453500Y1963240D02*
X1458500Y1963240D01*
X1453500Y1962240D02*
X1459500Y1962240D01*
X1453500Y1961240D02*
X1459500Y1961240D01*
X1452500Y1960240D02*
X1459500Y1960240D01*
X1452500Y1959240D02*
X1459500Y1959240D01*
X1452500Y1958240D02*
X1459500Y1958240D01*
X1452500Y1957240D02*
X1459500Y1957240D01*
X1452500Y1956240D02*
X1459500Y1956240D01*
X1452500Y1955240D02*
X1459500Y1955240D01*
X1452500Y1954240D02*
X1459500Y1954240D01*
X1452500Y1953240D02*
X1460500Y1953240D01*
X1452500Y1952240D02*
X1510500Y1952240D01*
X1452500Y1951240D02*
X1511500Y1951240D01*
X1452500Y1950240D02*
X1511500Y1950240D01*
X1452500Y1949240D02*
X1511500Y1949240D01*
X1452500Y1948240D02*
X1511500Y1948240D01*
X1452500Y1947240D02*
X1511500Y1947240D01*
X1452500Y1946240D02*
X1511500Y1946240D01*
X1452500Y1945240D02*
X1459500Y1945240D01*
X1504500Y1945240D02*
X1511500Y1945240D01*
X1452500Y1944240D02*
X1459500Y1944240D01*
X1505500Y1944240D02*
X1511500Y1944240D01*
X1452500Y1943240D02*
X1459500Y1943240D01*
X1505500Y1943240D02*
X1511500Y1943240D01*
X1452500Y1942240D02*
X1459500Y1942240D01*
X1505500Y1942240D02*
X1511500Y1942240D01*
X1452500Y1941240D02*
X1459500Y1941240D01*
X1505500Y1941240D02*
X1511500Y1941240D01*
X1452500Y1940240D02*
X1459500Y1940240D01*
X1505500Y1940240D02*
X1511500Y1940240D01*
X1452500Y1939240D02*
X1459500Y1939240D01*
X1505500Y1939240D02*
X1511500Y1939240D01*
X1452500Y1938240D02*
X1459500Y1938240D01*
X1505500Y1938240D02*
X1511500Y1938240D01*
X1453500Y1937240D02*
X1459500Y1937240D01*
X1505500Y1937240D02*
X1511500Y1937240D01*
X1453500Y1936240D02*
X1459500Y1936240D01*
X1505500Y1936240D02*
X1511500Y1936240D01*
X1453500Y1935240D02*
X1458500Y1935240D01*
X1506500Y1935240D02*
X1510500Y1935240D01*
X1455500Y1934240D02*
X1457500Y1934240D01*
X1507500Y1934240D02*
X1509500Y1934240D01*
X1444500Y1908240D02*
X1493500Y1908240D01*
X1506500Y1908240D02*
X1513500Y1908240D01*
X1442500Y1907240D02*
X1494500Y1907240D01*
X1505500Y1907240D02*
X1514500Y1907240D01*
X1440500Y1906240D02*
X1495500Y1906240D01*
X1505500Y1906240D02*
X1514500Y1906240D01*
X1439500Y1905240D02*
X1495500Y1905240D01*
X1505500Y1905240D02*
X1515500Y1905240D01*
X1438500Y1904240D02*
X1495500Y1904240D01*
X1505500Y1904240D02*
X1515500Y1904240D01*
X1438500Y1903240D02*
X1495500Y1903240D01*
X1505500Y1903240D02*
X1515500Y1903240D01*
X1437500Y1902240D02*
X1495500Y1902240D01*
X1505500Y1902240D02*
X1515500Y1902240D01*
X1437500Y1901240D02*
X1446500Y1901240D01*
X1488500Y1901240D02*
X1495500Y1901240D01*
X1505500Y1901240D02*
X1515500Y1901240D01*
X1437500Y1900240D02*
X1444500Y1900240D01*
X1488500Y1900240D02*
X1495500Y1900240D01*
X1505500Y1900240D02*
X1514500Y1900240D01*
X1436500Y1899240D02*
X1443500Y1899240D01*
X1488500Y1899240D02*
X1495500Y1899240D01*
X1505500Y1899240D02*
X1514500Y1899240D01*
X1436500Y1898240D02*
X1443500Y1898240D01*
X1488500Y1898240D02*
X1495500Y1898240D01*
X1506500Y1898240D02*
X1513500Y1898240D01*
X1436500Y1897240D02*
X1443500Y1897240D01*
X1488500Y1897240D02*
X1495500Y1897240D01*
X1436500Y1896240D02*
X1443500Y1896240D01*
X1488500Y1896240D02*
X1495500Y1896240D01*
X1436500Y1895240D02*
X1443500Y1895240D01*
X1488500Y1895240D02*
X1495500Y1895240D01*
X1436500Y1894240D02*
X1443500Y1894240D01*
X1488500Y1894240D02*
X1495500Y1894240D01*
X1436500Y1893240D02*
X1443500Y1893240D01*
X1488500Y1893240D02*
X1495500Y1893240D01*
X1436500Y1892240D02*
X1443500Y1892240D01*
X1488500Y1892240D02*
X1495500Y1892240D01*
X1436500Y1891240D02*
X1443500Y1891240D01*
X1488500Y1891240D02*
X1495500Y1891240D01*
X1436500Y1890240D02*
X1443500Y1890240D01*
X1488500Y1890240D02*
X1495500Y1890240D01*
X1436500Y1889240D02*
X1443500Y1889240D01*
X1488500Y1889240D02*
X1495500Y1889240D01*
X1436500Y1888240D02*
X1443500Y1888240D01*
X1489500Y1888240D02*
X1495500Y1888240D01*
X1436500Y1887240D02*
X1444500Y1887240D01*
X1489500Y1887240D02*
X1494500Y1887240D01*
X1437500Y1886240D02*
X1445500Y1886240D01*
X1491500Y1886240D02*
X1493500Y1886240D01*
X1437500Y1885240D02*
X1448500Y1885240D01*
X1438500Y1884240D02*
X1449500Y1884240D01*
X1438500Y1883240D02*
X1449500Y1883240D01*
X1439500Y1882240D02*
X1449500Y1882240D01*
X1440500Y1881240D02*
X1449500Y1881240D01*
X1441500Y1880240D02*
X1449500Y1880240D01*
X1443500Y1879240D02*
X1448500Y1879240D01*
X1454500Y1856240D02*
X1458500Y1856240D01*
X1490500Y1856240D02*
X1494500Y1856240D01*
X1453500Y1855240D02*
X1459500Y1855240D01*
X1489500Y1855240D02*
X1495500Y1855240D01*
X1453500Y1854240D02*
X1459500Y1854240D01*
X1489500Y1854240D02*
X1495500Y1854240D01*
X1452500Y1853240D02*
X1459500Y1853240D01*
X1488500Y1853240D02*
X1495500Y1853240D01*
X1452500Y1852240D02*
X1459500Y1852240D01*
X1488500Y1852240D02*
X1495500Y1852240D01*
X1452500Y1851240D02*
X1459500Y1851240D01*
X1488500Y1851240D02*
X1495500Y1851240D01*
X1452500Y1850240D02*
X1459500Y1850240D01*
X1488500Y1850240D02*
X1495500Y1850240D01*
X1452500Y1849240D02*
X1459500Y1849240D01*
X1488500Y1849240D02*
X1495500Y1849240D01*
X1452500Y1848240D02*
X1459500Y1848240D01*
X1488500Y1848240D02*
X1495500Y1848240D01*
X1452500Y1847240D02*
X1459500Y1847240D01*
X1488500Y1847240D02*
X1495500Y1847240D01*
X1452500Y1846240D02*
X1459500Y1846240D01*
X1488500Y1846240D02*
X1495500Y1846240D01*
X1452500Y1845240D02*
X1459500Y1845240D01*
X1488500Y1845240D02*
X1495500Y1845240D01*
X1452500Y1844240D02*
X1459500Y1844240D01*
X1488500Y1844240D02*
X1495500Y1844240D01*
X1452500Y1843240D02*
X1459500Y1843240D01*
X1488500Y1843240D02*
X1495500Y1843240D01*
X1452500Y1842240D02*
X1459500Y1842240D01*
X1488500Y1842240D02*
X1495500Y1842240D01*
X1452500Y1841240D02*
X1459500Y1841240D01*
X1488500Y1841240D02*
X1495500Y1841240D01*
X1452500Y1840240D02*
X1459500Y1840240D01*
X1488500Y1840240D02*
X1495500Y1840240D01*
X1452500Y1839240D02*
X1459500Y1839240D01*
X1488500Y1839240D02*
X1495500Y1839240D01*
X1452500Y1838240D02*
X1459500Y1838240D01*
X1488500Y1838240D02*
X1495500Y1838240D01*
X1452500Y1837240D02*
X1459500Y1837240D01*
X1488500Y1837240D02*
X1495500Y1837240D01*
X1453500Y1836240D02*
X1459500Y1836240D01*
X1488500Y1836240D02*
X1495500Y1836240D01*
X1453500Y1835240D02*
X1460500Y1835240D01*
X1488500Y1835240D02*
X1495500Y1835240D01*
X1453500Y1834240D02*
X1460500Y1834240D01*
X1487500Y1834240D02*
X1495500Y1834240D01*
X1453500Y1833240D02*
X1461500Y1833240D01*
X1486500Y1833240D02*
X1494500Y1833240D01*
X1453500Y1832240D02*
X1462500Y1832240D01*
X1485500Y1832240D02*
X1494500Y1832240D01*
X1454500Y1831240D02*
X1463500Y1831240D01*
X1485500Y1831240D02*
X1494500Y1831240D01*
X1455500Y1830240D02*
X1464500Y1830240D01*
X1484500Y1830240D02*
X1493500Y1830240D01*
X1455500Y1829240D02*
X1465500Y1829240D01*
X1483500Y1829240D02*
X1492500Y1829240D01*
X1456500Y1828240D02*
X1466500Y1828240D01*
X1482500Y1828240D02*
X1492500Y1828240D01*
X1457500Y1827240D02*
X1467500Y1827240D01*
X1481500Y1827240D02*
X1491500Y1827240D01*
X1458500Y1826240D02*
X1490500Y1826240D01*
X1459500Y1825240D02*
X1489500Y1825240D01*
X1460500Y1824240D02*
X1488500Y1824240D01*
X1461500Y1823240D02*
X1487500Y1823240D01*
X1462500Y1822240D02*
X1486500Y1822240D01*
X1463500Y1821240D02*
X1485500Y1821240D01*
X1464500Y1820240D02*
X1483500Y1820240D01*
X1467500Y1819240D02*
X1481500Y1819240D01*
X1455500Y1797240D02*
X1457500Y1797240D01*
X1453500Y1796240D02*
X1458500Y1796240D01*
X1453500Y1795240D02*
X1459500Y1795240D01*
X1453500Y1794240D02*
X1459500Y1794240D01*
X1452500Y1793240D02*
X1459500Y1793240D01*
X1452500Y1792240D02*
X1459500Y1792240D01*
X1452500Y1791240D02*
X1459500Y1791240D01*
X1452500Y1790240D02*
X1459500Y1790240D01*
X1452500Y1789240D02*
X1459500Y1789240D01*
X1452500Y1788240D02*
X1459500Y1788240D01*
X1452500Y1787240D02*
X1459500Y1787240D01*
X1452500Y1786240D02*
X1508500Y1786240D01*
X1452500Y1785240D02*
X1510500Y1785240D01*
X1452500Y1784240D02*
X1511500Y1784240D01*
X1452500Y1783240D02*
X1511500Y1783240D01*
X1452500Y1782240D02*
X1511500Y1782240D01*
X1452500Y1781240D02*
X1511500Y1781240D01*
X1452500Y1780240D02*
X1511500Y1780240D01*
X1452500Y1779240D02*
X1511500Y1779240D01*
X1452500Y1778240D02*
X1459500Y1778240D01*
X1505500Y1778240D02*
X1511500Y1778240D01*
X1452500Y1777240D02*
X1459500Y1777240D01*
X1505500Y1777240D02*
X1511500Y1777240D01*
X1452500Y1776240D02*
X1459500Y1776240D01*
X1505500Y1776240D02*
X1511500Y1776240D01*
X1452500Y1775240D02*
X1459500Y1775240D01*
X1505500Y1775240D02*
X1511500Y1775240D01*
X1452500Y1774240D02*
X1459500Y1774240D01*
X1505500Y1774240D02*
X1511500Y1774240D01*
X1452500Y1773240D02*
X1459500Y1773240D01*
X1505500Y1773240D02*
X1511500Y1773240D01*
X1452500Y1772240D02*
X1459500Y1772240D01*
X1505500Y1772240D02*
X1511500Y1772240D01*
X1452500Y1771240D02*
X1459500Y1771240D01*
X1505500Y1771240D02*
X1511500Y1771240D01*
X1453500Y1770240D02*
X1459500Y1770240D01*
X1505500Y1770240D02*
X1511500Y1770240D01*
X1453500Y1769240D02*
X1459500Y1769240D01*
X1505500Y1769240D02*
X1511500Y1769240D01*
X1454500Y1768240D02*
X1458500Y1768240D01*
X1506500Y1768240D02*
X1510500Y1768240D01*
X1456500Y1767240D02*
X1456500Y1767240D01*
X1508500Y1767240D02*
X1508500Y1767240D01*
X1443500Y1741240D02*
X1494500Y1741240D01*
X1506500Y1741240D02*
X1513500Y1741240D01*
X1441500Y1740240D02*
X1494500Y1740240D01*
X1505500Y1740240D02*
X1514500Y1740240D01*
X1440500Y1739240D02*
X1495500Y1739240D01*
X1505500Y1739240D02*
X1514500Y1739240D01*
X1439500Y1738240D02*
X1495500Y1738240D01*
X1505500Y1738240D02*
X1515500Y1738240D01*
X1438500Y1737240D02*
X1495500Y1737240D01*
X1505500Y1737240D02*
X1515500Y1737240D01*
X1438500Y1736240D02*
X1495500Y1736240D01*
X1505500Y1736240D02*
X1515500Y1736240D01*
X1437500Y1735240D02*
X1495500Y1735240D01*
X1505500Y1735240D02*
X1515500Y1735240D01*
X1437500Y1734240D02*
X1446500Y1734240D01*
X1488500Y1734240D02*
X1495500Y1734240D01*
X1505500Y1734240D02*
X1515500Y1734240D01*
X1436500Y1733240D02*
X1444500Y1733240D01*
X1488500Y1733240D02*
X1495500Y1733240D01*
X1505500Y1733240D02*
X1514500Y1733240D01*
X1436500Y1732240D02*
X1443500Y1732240D01*
X1488500Y1732240D02*
X1495500Y1732240D01*
X1505500Y1732240D02*
X1514500Y1732240D01*
X1436500Y1731240D02*
X1443500Y1731240D01*
X1488500Y1731240D02*
X1495500Y1731240D01*
X1506500Y1731240D02*
X1513500Y1731240D01*
X1436500Y1730240D02*
X1443500Y1730240D01*
X1488500Y1730240D02*
X1495500Y1730240D01*
X1436500Y1729240D02*
X1443500Y1729240D01*
X1488500Y1729240D02*
X1495500Y1729240D01*
X1436500Y1728240D02*
X1443500Y1728240D01*
X1488500Y1728240D02*
X1495500Y1728240D01*
X1436500Y1727240D02*
X1443500Y1727240D01*
X1488500Y1727240D02*
X1495500Y1727240D01*
X1436500Y1726240D02*
X1443500Y1726240D01*
X1488500Y1726240D02*
X1495500Y1726240D01*
X1436500Y1725240D02*
X1443500Y1725240D01*
X1488500Y1725240D02*
X1495500Y1725240D01*
X1436500Y1724240D02*
X1443500Y1724240D01*
X1488500Y1724240D02*
X1495500Y1724240D01*
X1436500Y1723240D02*
X1443500Y1723240D01*
X1488500Y1723240D02*
X1495500Y1723240D01*
X1436500Y1722240D02*
X1443500Y1722240D01*
X1488500Y1722240D02*
X1495500Y1722240D01*
X1436500Y1721240D02*
X1443500Y1721240D01*
X1489500Y1721240D02*
X1495500Y1721240D01*
X1437500Y1720240D02*
X1444500Y1720240D01*
X1490500Y1720240D02*
X1494500Y1720240D01*
X1437500Y1719240D02*
X1446500Y1719240D01*
X1491500Y1719240D02*
X1492500Y1719240D01*
X1437500Y1718240D02*
X1448500Y1718240D01*
X1438500Y1717240D02*
X1449500Y1717240D01*
X1438500Y1716240D02*
X1449500Y1716240D01*
X1439500Y1715240D02*
X1449500Y1715240D01*
X1440500Y1714240D02*
X1449500Y1714240D01*
X1441500Y1713240D02*
X1449500Y1713240D01*
X1443500Y1712240D02*
X1448500Y1712240D01*
D02*
G04 End of Silk0*
M02*