G04 MADE WITH FRITZING*
G04 WWW.FRITZING.ORG*
G04 DOUBLE SIDED*
G04 HOLES PLATED*
G04 CONTOUR ON CENTER OF CONTOUR VECTOR*
%FSLAX26Y26*%
%MOIN*%
%ADD10R,0.001000X0.001000*%
G04 SILK0*
%FSLAX26Y26*%
%MOIN*%
D10*
X1415500Y441430D02*
X1420500Y441430D01*
X1664500Y441430D02*
X1668500Y441430D01*
X1912500Y441430D02*
X1917500Y441430D01*
X2160500Y441430D02*
X2165500Y441430D01*
X1412500Y440430D02*
X1423500Y440430D01*
X1660500Y440430D02*
X1671500Y440430D01*
X1909500Y440430D02*
X1920500Y440430D01*
X2157500Y440430D02*
X2168500Y440430D01*
X1411500Y439430D02*
X1424500Y439430D01*
X1659500Y439430D02*
X1673500Y439430D01*
X1908500Y439430D02*
X1921500Y439430D01*
X2156500Y439430D02*
X2169500Y439430D01*
X1410500Y438430D02*
X1425500Y438430D01*
X1659500Y438430D02*
X1673500Y438430D01*
X1907500Y438430D02*
X1922500Y438430D01*
X2155500Y438430D02*
X2170500Y438430D01*
X1410500Y437430D02*
X1425500Y437430D01*
X1658500Y437430D02*
X1674500Y437430D01*
X1906500Y437430D02*
X1922500Y437430D01*
X2155500Y437430D02*
X2170500Y437430D01*
X1348500Y436430D02*
X1367500Y436430D01*
X1409500Y436430D02*
X1426500Y436430D01*
X1596500Y436430D02*
X1615500Y436430D01*
X1658500Y436430D02*
X1674500Y436430D01*
X1845500Y436430D02*
X1864500Y436430D01*
X1906500Y436430D02*
X1922500Y436430D01*
X2093500Y436430D02*
X2112500Y436430D01*
X2154500Y436430D02*
X2171500Y436430D01*
X1346500Y435430D02*
X1369500Y435430D01*
X1409500Y435430D02*
X1426500Y435430D01*
X1595500Y435430D02*
X1617500Y435430D01*
X1658500Y435430D02*
X1674500Y435430D01*
X1843500Y435430D02*
X1865500Y435430D01*
X1906500Y435430D02*
X1922500Y435430D01*
X2091500Y435430D02*
X2114500Y435430D01*
X2154500Y435430D02*
X2171500Y435430D01*
X1345500Y434430D02*
X1370500Y434430D01*
X1409500Y434430D02*
X1426500Y434430D01*
X1593500Y434430D02*
X1618500Y434430D01*
X1658500Y434430D02*
X1674500Y434430D01*
X1842500Y434430D02*
X1867500Y434430D01*
X1906500Y434430D02*
X1922500Y434430D01*
X2090500Y434430D02*
X2115500Y434430D01*
X2154500Y434430D02*
X2171500Y434430D01*
X1344500Y433430D02*
X1371500Y433430D01*
X1409500Y433430D02*
X1426500Y433430D01*
X1593500Y433430D02*
X1619500Y433430D01*
X1658500Y433430D02*
X1674500Y433430D01*
X1841500Y433430D02*
X1867500Y433430D01*
X1906500Y433430D02*
X1922500Y433430D01*
X2089500Y433430D02*
X2116500Y433430D01*
X2154500Y433430D02*
X2171500Y433430D01*
X1344500Y432430D02*
X1371500Y432430D01*
X1409500Y432430D02*
X1426500Y432430D01*
X1592500Y432430D02*
X1619500Y432430D01*
X1658500Y432430D02*
X1674500Y432430D01*
X1841500Y432430D02*
X1868500Y432430D01*
X1906500Y432430D02*
X1922500Y432430D01*
X2089500Y432430D02*
X2116500Y432430D01*
X2154500Y432430D02*
X2171500Y432430D01*
X1344500Y431430D02*
X1371500Y431430D01*
X1409500Y431430D02*
X1426500Y431430D01*
X1592500Y431430D02*
X1620500Y431430D01*
X1658500Y431430D02*
X1674500Y431430D01*
X1840500Y431430D02*
X1868500Y431430D01*
X1906500Y431430D02*
X1922500Y431430D01*
X2089500Y431430D02*
X2116500Y431430D01*
X2154500Y431430D02*
X2171500Y431430D01*
X1344500Y430430D02*
X1371500Y430430D01*
X1409500Y430430D02*
X1426500Y430430D01*
X1592500Y430430D02*
X1620500Y430430D01*
X1658500Y430430D02*
X1674500Y430430D01*
X1840500Y430430D02*
X1868500Y430430D01*
X1906500Y430430D02*
X1922500Y430430D01*
X2089500Y430430D02*
X2116500Y430430D01*
X2154500Y430430D02*
X2171500Y430430D01*
X1344500Y429430D02*
X1371500Y429430D01*
X1410500Y429430D02*
X1426500Y429430D01*
X1592500Y429430D02*
X1619500Y429430D01*
X1658500Y429430D02*
X1674500Y429430D01*
X1840500Y429430D02*
X1868500Y429430D01*
X1906500Y429430D02*
X1922500Y429430D01*
X2089500Y429430D02*
X2116500Y429430D01*
X2155500Y429430D02*
X2171500Y429430D01*
X1344500Y428430D02*
X1371500Y428430D01*
X1410500Y428430D02*
X1425500Y428430D01*
X1592500Y428430D02*
X1619500Y428430D01*
X1658500Y428430D02*
X1673500Y428430D01*
X1840500Y428430D02*
X1867500Y428430D01*
X1907500Y428430D02*
X1922500Y428430D01*
X2089500Y428430D02*
X2116500Y428430D01*
X2155500Y428430D02*
X2170500Y428430D01*
X1344500Y427430D02*
X1370500Y427430D01*
X1411500Y427430D02*
X1424500Y427430D01*
X1592500Y427430D02*
X1618500Y427430D01*
X1659500Y427430D02*
X1673500Y427430D01*
X1840500Y427430D02*
X1867500Y427430D01*
X1907500Y427430D02*
X1921500Y427430D01*
X2089500Y427430D02*
X2115500Y427430D01*
X2156500Y427430D02*
X2169500Y427430D01*
X1344500Y426430D02*
X1369500Y426430D01*
X1412500Y426430D02*
X1423500Y426430D01*
X1592500Y426430D02*
X1617500Y426430D01*
X1660500Y426430D02*
X1672500Y426430D01*
X1840500Y426430D02*
X1866500Y426430D01*
X1908500Y426430D02*
X1920500Y426430D01*
X2089500Y426430D02*
X2114500Y426430D01*
X2157500Y426430D02*
X2168500Y426430D01*
X1344500Y425430D02*
X1367500Y425430D01*
X1413500Y425430D02*
X1422500Y425430D01*
X1592500Y425430D02*
X1616500Y425430D01*
X1662500Y425430D02*
X1670500Y425430D01*
X1840500Y425430D02*
X1864500Y425430D01*
X1910500Y425430D02*
X1918500Y425430D01*
X2089500Y425430D02*
X2112500Y425430D01*
X2158500Y425430D02*
X2167500Y425430D01*
X1344500Y424430D02*
X1354500Y424430D01*
X1592500Y424430D02*
X1603500Y424430D01*
X1840500Y424430D02*
X1851500Y424430D01*
X2089500Y424430D02*
X2099500Y424430D01*
X1344500Y423430D02*
X1354500Y423430D01*
X1592500Y423430D02*
X1603500Y423430D01*
X1840500Y423430D02*
X1851500Y423430D01*
X2089500Y423430D02*
X2099500Y423430D01*
X1344500Y422430D02*
X1354500Y422430D01*
X1592500Y422430D02*
X1603500Y422430D01*
X1840500Y422430D02*
X1851500Y422430D01*
X2089500Y422430D02*
X2099500Y422430D01*
X1344500Y421430D02*
X1354500Y421430D01*
X1592500Y421430D02*
X1603500Y421430D01*
X1840500Y421430D02*
X1851500Y421430D01*
X2089500Y421430D02*
X2099500Y421430D01*
X1344500Y420430D02*
X1354500Y420430D01*
X1592500Y420430D02*
X1603500Y420430D01*
X1840500Y420430D02*
X1851500Y420430D01*
X2089500Y420430D02*
X2099500Y420430D01*
X1344500Y419430D02*
X1354500Y419430D01*
X1592500Y419430D02*
X1603500Y419430D01*
X1840500Y419430D02*
X1851500Y419430D01*
X2089500Y419430D02*
X2099500Y419430D01*
X1344500Y418430D02*
X1354500Y418430D01*
X1592500Y418430D02*
X1603500Y418430D01*
X1840500Y418430D02*
X1851500Y418430D01*
X2089500Y418430D02*
X2099500Y418430D01*
X1344500Y417430D02*
X1354500Y417430D01*
X1592500Y417430D02*
X1603500Y417430D01*
X1840500Y417430D02*
X1851500Y417430D01*
X2089500Y417430D02*
X2099500Y417430D01*
X1344500Y416430D02*
X1354500Y416430D01*
X1592500Y416430D02*
X1603500Y416430D01*
X1840500Y416430D02*
X1851500Y416430D01*
X2089500Y416430D02*
X2099500Y416430D01*
X1344500Y415430D02*
X1354500Y415430D01*
X1592500Y415430D02*
X1603500Y415430D01*
X1840500Y415430D02*
X1851500Y415430D01*
X2089500Y415430D02*
X2099500Y415430D01*
X1344500Y414430D02*
X1354500Y414430D01*
X1592500Y414430D02*
X1603500Y414430D01*
X1840500Y414430D02*
X1851500Y414430D01*
X2089500Y414430D02*
X2099500Y414430D01*
X1344500Y413430D02*
X1354500Y413430D01*
X1592500Y413430D02*
X1603500Y413430D01*
X1840500Y413430D02*
X1851500Y413430D01*
X2089500Y413430D02*
X2099500Y413430D01*
X1344500Y412430D02*
X1354500Y412430D01*
X1592500Y412430D02*
X1603500Y412430D01*
X1840500Y412430D02*
X1851500Y412430D01*
X2089500Y412430D02*
X2099500Y412430D01*
X1241500Y411430D02*
X1273500Y411430D01*
X1344500Y411430D02*
X1354500Y411430D01*
X1412500Y411430D02*
X1440500Y411430D01*
X1489500Y411430D02*
X1521500Y411430D01*
X1592500Y411430D02*
X1603500Y411430D01*
X1661500Y411430D02*
X1688500Y411430D01*
X1738500Y411430D02*
X1769500Y411430D01*
X1840500Y411430D02*
X1851500Y411430D01*
X1909500Y411430D02*
X1937500Y411430D01*
X1986500Y411430D02*
X2018500Y411430D01*
X2089500Y411430D02*
X2099500Y411430D01*
X2157500Y411430D02*
X2185500Y411430D01*
X1240500Y410430D02*
X1276500Y410430D01*
X1344500Y410430D02*
X1354500Y410430D01*
X1411500Y410430D02*
X1441500Y410430D01*
X1488500Y410430D02*
X1524500Y410430D01*
X1592500Y410430D02*
X1603500Y410430D01*
X1659500Y410430D02*
X1690500Y410430D01*
X1736500Y410430D02*
X1772500Y410430D01*
X1840500Y410430D02*
X1851500Y410430D01*
X1908500Y410430D02*
X1938500Y410430D01*
X1985500Y410430D02*
X2021500Y410430D01*
X2089500Y410430D02*
X2099500Y410430D01*
X2156500Y410430D02*
X2186500Y410430D01*
X1239500Y409430D02*
X1277500Y409430D01*
X1344500Y409430D02*
X1354500Y409430D01*
X1410500Y409430D02*
X1442500Y409430D01*
X1487500Y409430D02*
X1526500Y409430D01*
X1592500Y409430D02*
X1603500Y409430D01*
X1659500Y409430D02*
X1690500Y409430D01*
X1736500Y409430D02*
X1774500Y409430D01*
X1840500Y409430D02*
X1851500Y409430D01*
X1907500Y409430D02*
X1939500Y409430D01*
X1984500Y409430D02*
X2022500Y409430D01*
X2089500Y409430D02*
X2099500Y409430D01*
X2155500Y409430D02*
X2187500Y409430D01*
X1238500Y408430D02*
X1279500Y408430D01*
X1344500Y408430D02*
X1354500Y408430D01*
X1410500Y408430D02*
X1442500Y408430D01*
X1487500Y408430D02*
X1527500Y408430D01*
X1592500Y408430D02*
X1603500Y408430D01*
X1658500Y408430D02*
X1691500Y408430D01*
X1735500Y408430D02*
X1775500Y408430D01*
X1840500Y408430D02*
X1851500Y408430D01*
X1906500Y408430D02*
X1939500Y408430D01*
X1983500Y408430D02*
X2024500Y408430D01*
X2089500Y408430D02*
X2099500Y408430D01*
X2155500Y408430D02*
X2187500Y408430D01*
X1238500Y407430D02*
X1280500Y407430D01*
X1344500Y407430D02*
X1354500Y407430D01*
X1410500Y407430D02*
X1443500Y407430D01*
X1487500Y407430D02*
X1528500Y407430D01*
X1592500Y407430D02*
X1603500Y407430D01*
X1658500Y407430D02*
X1691500Y407430D01*
X1735500Y407430D02*
X1777500Y407430D01*
X1840500Y407430D02*
X1851500Y407430D01*
X1906500Y407430D02*
X1939500Y407430D01*
X1983500Y407430D02*
X2025500Y407430D01*
X2089500Y407430D02*
X2099500Y407430D01*
X2155500Y407430D02*
X2188500Y407430D01*
X1238500Y406430D02*
X1281500Y406430D01*
X1344500Y406430D02*
X1354500Y406430D01*
X1409500Y406430D02*
X1443500Y406430D01*
X1487500Y406430D02*
X1530500Y406430D01*
X1592500Y406430D02*
X1603500Y406430D01*
X1658500Y406430D02*
X1691500Y406430D01*
X1735500Y406430D02*
X1778500Y406430D01*
X1840500Y406430D02*
X1851500Y406430D01*
X1906500Y406430D02*
X1939500Y406430D01*
X1983500Y406430D02*
X2026500Y406430D01*
X2089500Y406430D02*
X2099500Y406430D01*
X2154500Y406430D02*
X2188500Y406430D01*
X1238500Y405430D02*
X1282500Y405430D01*
X1344500Y405430D02*
X1354500Y405430D01*
X1409500Y405430D02*
X1443500Y405430D01*
X1487500Y405430D02*
X1531500Y405430D01*
X1592500Y405430D02*
X1603500Y405430D01*
X1658500Y405430D02*
X1691500Y405430D01*
X1735500Y405430D02*
X1779500Y405430D01*
X1840500Y405430D02*
X1851500Y405430D01*
X1906500Y405430D02*
X1939500Y405430D01*
X1983500Y405430D02*
X2027500Y405430D01*
X2089500Y405430D02*
X2099500Y405430D01*
X2154500Y405430D02*
X2188500Y405430D01*
X1239500Y404430D02*
X1283500Y404430D01*
X1344500Y404430D02*
X1354500Y404430D01*
X1409500Y404430D02*
X1442500Y404430D01*
X1487500Y404430D02*
X1532500Y404430D01*
X1592500Y404430D02*
X1603500Y404430D01*
X1658500Y404430D02*
X1691500Y404430D01*
X1735500Y404430D02*
X1780500Y404430D01*
X1840500Y404430D02*
X1851500Y404430D01*
X1906500Y404430D02*
X1939500Y404430D01*
X1984500Y404430D02*
X2028500Y404430D01*
X2089500Y404430D02*
X2099500Y404430D01*
X2154500Y404430D02*
X2187500Y404430D01*
X1239500Y403430D02*
X1285500Y403430D01*
X1344500Y403430D02*
X1354500Y403430D01*
X1409500Y403430D02*
X1442500Y403430D01*
X1488500Y403430D02*
X1533500Y403430D01*
X1592500Y403430D02*
X1603500Y403430D01*
X1658500Y403430D02*
X1690500Y403430D01*
X1736500Y403430D02*
X1781500Y403430D01*
X1840500Y403430D02*
X1851500Y403430D01*
X1906500Y403430D02*
X1938500Y403430D01*
X1984500Y403430D02*
X2030500Y403430D01*
X2089500Y403430D02*
X2099500Y403430D01*
X2154500Y403430D02*
X2187500Y403430D01*
X1240500Y402430D02*
X1286500Y402430D01*
X1344500Y402430D02*
X1354500Y402430D01*
X1409500Y402430D02*
X1441500Y402430D01*
X1488500Y402430D02*
X1534500Y402430D01*
X1592500Y402430D02*
X1603500Y402430D01*
X1658500Y402430D02*
X1689500Y402430D01*
X1737500Y402430D02*
X1782500Y402430D01*
X1840500Y402430D02*
X1851500Y402430D01*
X1906500Y402430D02*
X1938500Y402430D01*
X1985500Y402430D02*
X2031500Y402430D01*
X2089500Y402430D02*
X2099500Y402430D01*
X2154500Y402430D02*
X2186500Y402430D01*
X1241500Y401430D02*
X1287500Y401430D01*
X1344500Y401430D02*
X1354500Y401430D01*
X1409500Y401430D02*
X1439500Y401430D01*
X1490500Y401430D02*
X1535500Y401430D01*
X1592500Y401430D02*
X1603500Y401430D01*
X1658500Y401430D02*
X1688500Y401430D01*
X1738500Y401430D02*
X1783500Y401430D01*
X1840500Y401430D02*
X1851500Y401430D01*
X1906500Y401430D02*
X1936500Y401430D01*
X1986500Y401430D02*
X2032500Y401430D01*
X2089500Y401430D02*
X2099500Y401430D01*
X2154500Y401430D02*
X2184500Y401430D01*
X1270500Y400430D02*
X1288500Y400430D01*
X1344500Y400430D02*
X1354500Y400430D01*
X1409500Y400430D02*
X1420500Y400430D01*
X1518500Y400430D02*
X1536500Y400430D01*
X1592500Y400430D02*
X1603500Y400430D01*
X1658500Y400430D02*
X1668500Y400430D01*
X1767500Y400430D02*
X1784500Y400430D01*
X1840500Y400430D02*
X1851500Y400430D01*
X1906500Y400430D02*
X1917500Y400430D01*
X2015500Y400430D02*
X2033500Y400430D01*
X2089500Y400430D02*
X2099500Y400430D01*
X2154500Y400430D02*
X2165500Y400430D01*
X1272500Y399430D02*
X1289500Y399430D01*
X1344500Y399430D02*
X1354500Y399430D01*
X1409500Y399430D02*
X1420500Y399430D01*
X1520500Y399430D02*
X1537500Y399430D01*
X1592500Y399430D02*
X1603500Y399430D01*
X1658500Y399430D02*
X1668500Y399430D01*
X1768500Y399430D02*
X1785500Y399430D01*
X1840500Y399430D02*
X1851500Y399430D01*
X1906500Y399430D02*
X1917500Y399430D01*
X2017500Y399430D02*
X2034500Y399430D01*
X2089500Y399430D02*
X2099500Y399430D01*
X2154500Y399430D02*
X2165500Y399430D01*
X1273500Y398430D02*
X1289500Y398430D01*
X1344500Y398430D02*
X1354500Y398430D01*
X1409500Y398430D02*
X1420500Y398430D01*
X1521500Y398430D02*
X1538500Y398430D01*
X1592500Y398430D02*
X1603500Y398430D01*
X1658500Y398430D02*
X1668500Y398430D01*
X1770500Y398430D02*
X1786500Y398430D01*
X1840500Y398430D02*
X1851500Y398430D01*
X1906500Y398430D02*
X1917500Y398430D01*
X2018500Y398430D02*
X2034500Y398430D01*
X2089500Y398430D02*
X2099500Y398430D01*
X2154500Y398430D02*
X2165500Y398430D01*
X1274500Y397430D02*
X1290500Y397430D01*
X1344500Y397430D02*
X1354500Y397430D01*
X1409500Y397430D02*
X1420500Y397430D01*
X1522500Y397430D02*
X1539500Y397430D01*
X1592500Y397430D02*
X1603500Y397430D01*
X1658500Y397430D02*
X1668500Y397430D01*
X1771500Y397430D02*
X1787500Y397430D01*
X1840500Y397430D02*
X1851500Y397430D01*
X1906500Y397430D02*
X1917500Y397430D01*
X2019500Y397430D02*
X2035500Y397430D01*
X2089500Y397430D02*
X2099500Y397430D01*
X2154500Y397430D02*
X2165500Y397430D01*
X1275500Y396430D02*
X1291500Y396430D01*
X1344500Y396430D02*
X1354500Y396430D01*
X1409500Y396430D02*
X1420500Y396430D01*
X1524500Y396430D02*
X1539500Y396430D01*
X1592500Y396430D02*
X1603500Y396430D01*
X1658500Y396430D02*
X1668500Y396430D01*
X1772500Y396430D02*
X1788500Y396430D01*
X1840500Y396430D02*
X1851500Y396430D01*
X1906500Y396430D02*
X1917500Y396430D01*
X2020500Y396430D02*
X2036500Y396430D01*
X2089500Y396430D02*
X2099500Y396430D01*
X2154500Y396430D02*
X2165500Y396430D01*
X1276500Y395430D02*
X1292500Y395430D01*
X1344500Y395430D02*
X1354500Y395430D01*
X1409500Y395430D02*
X1420500Y395430D01*
X1525500Y395430D02*
X1540500Y395430D01*
X1592500Y395430D02*
X1603500Y395430D01*
X1658500Y395430D02*
X1668500Y395430D01*
X1773500Y395430D02*
X1788500Y395430D01*
X1840500Y395430D02*
X1851500Y395430D01*
X1906500Y395430D02*
X1917500Y395430D01*
X2021500Y395430D02*
X2037500Y395430D01*
X2089500Y395430D02*
X2099500Y395430D01*
X2154500Y395430D02*
X2165500Y395430D01*
X1278500Y394430D02*
X1292500Y394430D01*
X1344500Y394430D02*
X1354500Y394430D01*
X1409500Y394430D02*
X1420500Y394430D01*
X1526500Y394430D02*
X1541500Y394430D01*
X1592500Y394430D02*
X1603500Y394430D01*
X1658500Y394430D02*
X1668500Y394430D01*
X1774500Y394430D02*
X1789500Y394430D01*
X1840500Y394430D02*
X1851500Y394430D01*
X1906500Y394430D02*
X1917500Y394430D01*
X2023500Y394430D02*
X2037500Y394430D01*
X2089500Y394430D02*
X2099500Y394430D01*
X2154500Y394430D02*
X2165500Y394430D01*
X1279500Y393430D02*
X1293500Y393430D01*
X1344500Y393430D02*
X1354500Y393430D01*
X1409500Y393430D02*
X1420500Y393430D01*
X1527500Y393430D02*
X1541500Y393430D01*
X1592500Y393430D02*
X1603500Y393430D01*
X1658500Y393430D02*
X1668500Y393430D01*
X1775500Y393430D02*
X1790500Y393430D01*
X1840500Y393430D02*
X1851500Y393430D01*
X1906500Y393430D02*
X1917500Y393430D01*
X2024500Y393430D02*
X2038500Y393430D01*
X2089500Y393430D02*
X2099500Y393430D01*
X2154500Y393430D02*
X2165500Y393430D01*
X1280500Y392430D02*
X1293500Y392430D01*
X1344500Y392430D02*
X1354500Y392430D01*
X1409500Y392430D02*
X1420500Y392430D01*
X1528500Y392430D02*
X1542500Y392430D01*
X1592500Y392430D02*
X1603500Y392430D01*
X1658500Y392430D02*
X1668500Y392430D01*
X1777500Y392430D02*
X1790500Y392430D01*
X1840500Y392430D02*
X1851500Y392430D01*
X1906500Y392430D02*
X1917500Y392430D01*
X2025500Y392430D02*
X2038500Y392430D01*
X2089500Y392430D02*
X2099500Y392430D01*
X2154500Y392430D02*
X2165500Y392430D01*
X1281500Y391430D02*
X1293500Y391430D01*
X1344500Y391430D02*
X1354500Y391430D01*
X1409500Y391430D02*
X1420500Y391430D01*
X1529500Y391430D02*
X1542500Y391430D01*
X1592500Y391430D02*
X1603500Y391430D01*
X1658500Y391430D02*
X1668500Y391430D01*
X1778500Y391430D02*
X1790500Y391430D01*
X1840500Y391430D02*
X1851500Y391430D01*
X1906500Y391430D02*
X1917500Y391430D01*
X2026500Y391430D02*
X2038500Y391430D01*
X2089500Y391430D02*
X2099500Y391430D01*
X2154500Y391430D02*
X2165500Y391430D01*
X1282500Y390430D02*
X1294500Y390430D01*
X1344500Y390430D02*
X1354500Y390430D01*
X1409500Y390430D02*
X1420500Y390430D01*
X1531500Y390430D02*
X1542500Y390430D01*
X1592500Y390430D02*
X1603500Y390430D01*
X1658500Y390430D02*
X1668500Y390430D01*
X1779500Y390430D02*
X1790500Y390430D01*
X1840500Y390430D02*
X1851500Y390430D01*
X1906500Y390430D02*
X1917500Y390430D01*
X2027500Y390430D02*
X2039500Y390430D01*
X2089500Y390430D02*
X2099500Y390430D01*
X2154500Y390430D02*
X2165500Y390430D01*
X1283500Y389430D02*
X1294500Y389430D01*
X1344500Y389430D02*
X1354500Y389430D01*
X1409500Y389430D02*
X1420500Y389430D01*
X1531500Y389430D02*
X1542500Y389430D01*
X1592500Y389430D02*
X1603500Y389430D01*
X1658500Y389430D02*
X1668500Y389430D01*
X1780500Y389430D02*
X1791500Y389430D01*
X1840500Y389430D02*
X1851500Y389430D01*
X1906500Y389430D02*
X1917500Y389430D01*
X2028500Y389430D02*
X2039500Y389430D01*
X2089500Y389430D02*
X2099500Y389430D01*
X2154500Y389430D02*
X2165500Y389430D01*
X1283500Y388430D02*
X1294500Y388430D01*
X1344500Y388430D02*
X1354500Y388430D01*
X1409500Y388430D02*
X1420500Y388430D01*
X1532500Y388430D02*
X1542500Y388430D01*
X1592500Y388430D02*
X1603500Y388430D01*
X1658500Y388430D02*
X1668500Y388430D01*
X1780500Y388430D02*
X1791500Y388430D01*
X1840500Y388430D02*
X1851500Y388430D01*
X1906500Y388430D02*
X1917500Y388430D01*
X2028500Y388430D02*
X2039500Y388430D01*
X2089500Y388430D02*
X2099500Y388430D01*
X2154500Y388430D02*
X2165500Y388430D01*
X1284500Y387430D02*
X1294500Y387430D01*
X1344500Y387430D02*
X1354500Y387430D01*
X1409500Y387430D02*
X1420500Y387430D01*
X1532500Y387430D02*
X1542500Y387430D01*
X1592500Y387430D02*
X1603500Y387430D01*
X1658500Y387430D02*
X1668500Y387430D01*
X1780500Y387430D02*
X1791500Y387430D01*
X1840500Y387430D02*
X1851500Y387430D01*
X1906500Y387430D02*
X1917500Y387430D01*
X2029500Y387430D02*
X2039500Y387430D01*
X2089500Y387430D02*
X2099500Y387430D01*
X2154500Y387430D02*
X2165500Y387430D01*
X1284500Y386430D02*
X1294500Y386430D01*
X1344500Y386430D02*
X1354500Y386430D01*
X1409500Y386430D02*
X1420500Y386430D01*
X1532500Y386430D02*
X1543500Y386430D01*
X1592500Y386430D02*
X1603500Y386430D01*
X1658500Y386430D02*
X1668500Y386430D01*
X1780500Y386430D02*
X1791500Y386430D01*
X1840500Y386430D02*
X1851500Y386430D01*
X1906500Y386430D02*
X1917500Y386430D01*
X2029500Y386430D02*
X2039500Y386430D01*
X2089500Y386430D02*
X2099500Y386430D01*
X2154500Y386430D02*
X2165500Y386430D01*
X1284500Y385430D02*
X1294500Y385430D01*
X1344500Y385430D02*
X1354500Y385430D01*
X1409500Y385430D02*
X1420500Y385430D01*
X1532500Y385430D02*
X1543500Y385430D01*
X1592500Y385430D02*
X1603500Y385430D01*
X1658500Y385430D02*
X1668500Y385430D01*
X1780500Y385430D02*
X1791500Y385430D01*
X1840500Y385430D02*
X1851500Y385430D01*
X1906500Y385430D02*
X1917500Y385430D01*
X2029500Y385430D02*
X2039500Y385430D01*
X2089500Y385430D02*
X2099500Y385430D01*
X2154500Y385430D02*
X2165500Y385430D01*
X1284500Y384430D02*
X1294500Y384430D01*
X1344500Y384430D02*
X1354500Y384430D01*
X1409500Y384430D02*
X1420500Y384430D01*
X1532500Y384430D02*
X1543500Y384430D01*
X1592500Y384430D02*
X1603500Y384430D01*
X1658500Y384430D02*
X1668500Y384430D01*
X1780500Y384430D02*
X1791500Y384430D01*
X1840500Y384430D02*
X1851500Y384430D01*
X1906500Y384430D02*
X1917500Y384430D01*
X2029500Y384430D02*
X2039500Y384430D01*
X2089500Y384430D02*
X2099500Y384430D01*
X2154500Y384430D02*
X2165500Y384430D01*
X1284500Y383430D02*
X1294500Y383430D01*
X1344500Y383430D02*
X1354500Y383430D01*
X1409500Y383430D02*
X1420500Y383430D01*
X1532500Y383430D02*
X1543500Y383430D01*
X1592500Y383430D02*
X1603500Y383430D01*
X1658500Y383430D02*
X1668500Y383430D01*
X1780500Y383430D02*
X1791500Y383430D01*
X1840500Y383430D02*
X1851500Y383430D01*
X1906500Y383430D02*
X1917500Y383430D01*
X2029500Y383430D02*
X2039500Y383430D01*
X2089500Y383430D02*
X2099500Y383430D01*
X2154500Y383430D02*
X2165500Y383430D01*
X1284500Y382430D02*
X1294500Y382430D01*
X1344500Y382430D02*
X1354500Y382430D01*
X1409500Y382430D02*
X1420500Y382430D01*
X1532500Y382430D02*
X1543500Y382430D01*
X1592500Y382430D02*
X1603500Y382430D01*
X1658500Y382430D02*
X1668500Y382430D01*
X1780500Y382430D02*
X1791500Y382430D01*
X1840500Y382430D02*
X1851500Y382430D01*
X1906500Y382430D02*
X1917500Y382430D01*
X2029500Y382430D02*
X2039500Y382430D01*
X2089500Y382430D02*
X2099500Y382430D01*
X2154500Y382430D02*
X2165500Y382430D01*
X1284500Y381430D02*
X1294500Y381430D01*
X1344500Y381430D02*
X1354500Y381430D01*
X1409500Y381430D02*
X1420500Y381430D01*
X1532500Y381430D02*
X1543500Y381430D01*
X1592500Y381430D02*
X1603500Y381430D01*
X1658500Y381430D02*
X1668500Y381430D01*
X1780500Y381430D02*
X1791500Y381430D01*
X1840500Y381430D02*
X1851500Y381430D01*
X1906500Y381430D02*
X1917500Y381430D01*
X2029500Y381430D02*
X2039500Y381430D01*
X2089500Y381430D02*
X2099500Y381430D01*
X2154500Y381430D02*
X2165500Y381430D01*
X1284500Y380430D02*
X1294500Y380430D01*
X1344500Y380430D02*
X1354500Y380430D01*
X1409500Y380430D02*
X1420500Y380430D01*
X1532500Y380430D02*
X1543500Y380430D01*
X1592500Y380430D02*
X1603500Y380430D01*
X1658500Y380430D02*
X1668500Y380430D01*
X1780500Y380430D02*
X1791500Y380430D01*
X1840500Y380430D02*
X1851500Y380430D01*
X1906500Y380430D02*
X1917500Y380430D01*
X2029500Y380430D02*
X2039500Y380430D01*
X2089500Y380430D02*
X2099500Y380430D01*
X2154500Y380430D02*
X2165500Y380430D01*
X1284500Y379430D02*
X1294500Y379430D01*
X1344500Y379430D02*
X1354500Y379430D01*
X1409500Y379430D02*
X1420500Y379430D01*
X1532500Y379430D02*
X1543500Y379430D01*
X1592500Y379430D02*
X1603500Y379430D01*
X1658500Y379430D02*
X1668500Y379430D01*
X1780500Y379430D02*
X1791500Y379430D01*
X1840500Y379430D02*
X1851500Y379430D01*
X1906500Y379430D02*
X1917500Y379430D01*
X2029500Y379430D02*
X2039500Y379430D01*
X2089500Y379430D02*
X2099500Y379430D01*
X2154500Y379430D02*
X2165500Y379430D01*
X1284500Y378430D02*
X1294500Y378430D01*
X1344500Y378430D02*
X1354500Y378430D01*
X1409500Y378430D02*
X1420500Y378430D01*
X1532500Y378430D02*
X1543500Y378430D01*
X1592500Y378430D02*
X1603500Y378430D01*
X1658500Y378430D02*
X1668500Y378430D01*
X1780500Y378430D02*
X1791500Y378430D01*
X1840500Y378430D02*
X1851500Y378430D01*
X1906500Y378430D02*
X1917500Y378430D01*
X2029500Y378430D02*
X2039500Y378430D01*
X2089500Y378430D02*
X2099500Y378430D01*
X2154500Y378430D02*
X2165500Y378430D01*
X1284500Y377430D02*
X1294500Y377430D01*
X1344500Y377430D02*
X1354500Y377430D01*
X1409500Y377430D02*
X1420500Y377430D01*
X1532500Y377430D02*
X1543500Y377430D01*
X1592500Y377430D02*
X1603500Y377430D01*
X1658500Y377430D02*
X1668500Y377430D01*
X1780500Y377430D02*
X1791500Y377430D01*
X1840500Y377430D02*
X1851500Y377430D01*
X1906500Y377430D02*
X1917500Y377430D01*
X2029500Y377430D02*
X2039500Y377430D01*
X2089500Y377430D02*
X2099500Y377430D01*
X2154500Y377430D02*
X2165500Y377430D01*
X1284500Y376430D02*
X1294500Y376430D01*
X1344500Y376430D02*
X1354500Y376430D01*
X1409500Y376430D02*
X1420500Y376430D01*
X1532500Y376430D02*
X1543500Y376430D01*
X1592500Y376430D02*
X1603500Y376430D01*
X1658500Y376430D02*
X1668500Y376430D01*
X1780500Y376430D02*
X1791500Y376430D01*
X1840500Y376430D02*
X1851500Y376430D01*
X1906500Y376430D02*
X1917500Y376430D01*
X2029500Y376430D02*
X2039500Y376430D01*
X2089500Y376430D02*
X2099500Y376430D01*
X2154500Y376430D02*
X2165500Y376430D01*
X1284500Y375430D02*
X1294500Y375430D01*
X1344500Y375430D02*
X1354500Y375430D01*
X1409500Y375430D02*
X1420500Y375430D01*
X1532500Y375430D02*
X1543500Y375430D01*
X1592500Y375430D02*
X1603500Y375430D01*
X1658500Y375430D02*
X1668500Y375430D01*
X1780500Y375430D02*
X1791500Y375430D01*
X1840500Y375430D02*
X1851500Y375430D01*
X1906500Y375430D02*
X1917500Y375430D01*
X2029500Y375430D02*
X2039500Y375430D01*
X2089500Y375430D02*
X2099500Y375430D01*
X2154500Y375430D02*
X2165500Y375430D01*
X1284500Y374430D02*
X1294500Y374430D01*
X1344500Y374430D02*
X1354500Y374430D01*
X1409500Y374430D02*
X1420500Y374430D01*
X1532500Y374430D02*
X1543500Y374430D01*
X1592500Y374430D02*
X1603500Y374430D01*
X1658500Y374430D02*
X1668500Y374430D01*
X1780500Y374430D02*
X1791500Y374430D01*
X1840500Y374430D02*
X1851500Y374430D01*
X1906500Y374430D02*
X1917500Y374430D01*
X2029500Y374430D02*
X2039500Y374430D01*
X2089500Y374430D02*
X2099500Y374430D01*
X2154500Y374430D02*
X2165500Y374430D01*
X1284500Y373430D02*
X1294500Y373430D01*
X1344500Y373430D02*
X1354500Y373430D01*
X1409500Y373430D02*
X1420500Y373430D01*
X1532500Y373430D02*
X1543500Y373430D01*
X1592500Y373430D02*
X1603500Y373430D01*
X1658500Y373430D02*
X1668500Y373430D01*
X1780500Y373430D02*
X1791500Y373430D01*
X1840500Y373430D02*
X1851500Y373430D01*
X1906500Y373430D02*
X1917500Y373430D01*
X2029500Y373430D02*
X2039500Y373430D01*
X2089500Y373430D02*
X2099500Y373430D01*
X2154500Y373430D02*
X2165500Y373430D01*
X1284500Y372430D02*
X1294500Y372430D01*
X1344500Y372430D02*
X1354500Y372430D01*
X1409500Y372430D02*
X1420500Y372430D01*
X1532500Y372430D02*
X1542500Y372430D01*
X1592500Y372430D02*
X1603500Y372430D01*
X1658500Y372430D02*
X1668500Y372430D01*
X1780500Y372430D02*
X1791500Y372430D01*
X1840500Y372430D02*
X1851500Y372430D01*
X1906500Y372430D02*
X1917500Y372430D01*
X2029500Y372430D02*
X2039500Y372430D01*
X2089500Y372430D02*
X2099500Y372430D01*
X2154500Y372430D02*
X2165500Y372430D01*
X1283500Y371430D02*
X1294500Y371430D01*
X1344500Y371430D02*
X1354500Y371430D01*
X1409500Y371430D02*
X1420500Y371430D01*
X1532500Y371430D02*
X1542500Y371430D01*
X1592500Y371430D02*
X1603500Y371430D01*
X1658500Y371430D02*
X1668500Y371430D01*
X1780500Y371430D02*
X1791500Y371430D01*
X1840500Y371430D02*
X1851500Y371430D01*
X1906500Y371430D02*
X1917500Y371430D01*
X2028500Y371430D02*
X2039500Y371430D01*
X2089500Y371430D02*
X2099500Y371430D01*
X2154500Y371430D02*
X2165500Y371430D01*
X1283500Y370430D02*
X1294500Y370430D01*
X1344500Y370430D02*
X1354500Y370430D01*
X1409500Y370430D02*
X1420500Y370430D01*
X1531500Y370430D02*
X1542500Y370430D01*
X1592500Y370430D02*
X1603500Y370430D01*
X1658500Y370430D02*
X1668500Y370430D01*
X1780500Y370430D02*
X1791500Y370430D01*
X1840500Y370430D02*
X1851500Y370430D01*
X1906500Y370430D02*
X1917500Y370430D01*
X2028500Y370430D02*
X2039500Y370430D01*
X2089500Y370430D02*
X2099500Y370430D01*
X2154500Y370430D02*
X2165500Y370430D01*
X1282500Y369430D02*
X1294500Y369430D01*
X1344500Y369430D02*
X1354500Y369430D01*
X1409500Y369430D02*
X1420500Y369430D01*
X1531500Y369430D02*
X1542500Y369430D01*
X1592500Y369430D02*
X1603500Y369430D01*
X1658500Y369430D02*
X1668500Y369430D01*
X1779500Y369430D02*
X1790500Y369430D01*
X1840500Y369430D02*
X1851500Y369430D01*
X1906500Y369430D02*
X1917500Y369430D01*
X2027500Y369430D02*
X2039500Y369430D01*
X2089500Y369430D02*
X2099500Y369430D01*
X2154500Y369430D02*
X2165500Y369430D01*
X1281500Y368430D02*
X1294500Y368430D01*
X1344500Y368430D02*
X1354500Y368430D01*
X1409500Y368430D02*
X1420500Y368430D01*
X1530500Y368430D02*
X1542500Y368430D01*
X1592500Y368430D02*
X1603500Y368430D01*
X1658500Y368430D02*
X1668500Y368430D01*
X1778500Y368430D02*
X1790500Y368430D01*
X1840500Y368430D02*
X1851500Y368430D01*
X1906500Y368430D02*
X1917500Y368430D01*
X2026500Y368430D02*
X2039500Y368430D01*
X2089500Y368430D02*
X2099500Y368430D01*
X2154500Y368430D02*
X2165500Y368430D01*
X1280500Y367430D02*
X1293500Y367430D01*
X1344500Y367430D02*
X1354500Y367430D01*
X1409500Y367430D02*
X1420500Y367430D01*
X1529500Y367430D02*
X1542500Y367430D01*
X1592500Y367430D02*
X1603500Y367430D01*
X1658500Y367430D02*
X1668500Y367430D01*
X1777500Y367430D02*
X1790500Y367430D01*
X1840500Y367430D02*
X1851500Y367430D01*
X1906500Y367430D02*
X1917500Y367430D01*
X2025500Y367430D02*
X2038500Y367430D01*
X2089500Y367430D02*
X2099500Y367430D01*
X2154500Y367430D02*
X2165500Y367430D01*
X1279500Y366430D02*
X1293500Y366430D01*
X1344500Y366430D02*
X1354500Y366430D01*
X1409500Y366430D02*
X1420500Y366430D01*
X1527500Y366430D02*
X1541500Y366430D01*
X1592500Y366430D02*
X1603500Y366430D01*
X1658500Y366430D02*
X1668500Y366430D01*
X1776500Y366430D02*
X1790500Y366430D01*
X1840500Y366430D02*
X1851500Y366430D01*
X1906500Y366430D02*
X1917500Y366430D01*
X2024500Y366430D02*
X2038500Y366430D01*
X2089500Y366430D02*
X2099500Y366430D01*
X2154500Y366430D02*
X2165500Y366430D01*
X1278500Y365430D02*
X1292500Y365430D01*
X1344500Y365430D02*
X1354500Y365430D01*
X1409500Y365430D02*
X1420500Y365430D01*
X1526500Y365430D02*
X1541500Y365430D01*
X1592500Y365430D02*
X1603500Y365430D01*
X1658500Y365430D02*
X1668500Y365430D01*
X1775500Y365430D02*
X1789500Y365430D01*
X1840500Y365430D02*
X1851500Y365430D01*
X1906500Y365430D02*
X1917500Y365430D01*
X2023500Y365430D02*
X2037500Y365430D01*
X2089500Y365430D02*
X2099500Y365430D01*
X2154500Y365430D02*
X2165500Y365430D01*
X1277500Y364430D02*
X1292500Y364430D01*
X1344500Y364430D02*
X1354500Y364430D01*
X1409500Y364430D02*
X1420500Y364430D01*
X1525500Y364430D02*
X1540500Y364430D01*
X1592500Y364430D02*
X1603500Y364430D01*
X1658500Y364430D02*
X1668500Y364430D01*
X1773500Y364430D02*
X1789500Y364430D01*
X1840500Y364430D02*
X1851500Y364430D01*
X1906500Y364430D02*
X1917500Y364430D01*
X2022500Y364430D02*
X2037500Y364430D01*
X2089500Y364430D02*
X2099500Y364430D01*
X2154500Y364430D02*
X2165500Y364430D01*
X1276500Y363430D02*
X1291500Y363430D01*
X1344500Y363430D02*
X1354500Y363430D01*
X1409500Y363430D02*
X1420500Y363430D01*
X1524500Y363430D02*
X1540500Y363430D01*
X1592500Y363430D02*
X1603500Y363430D01*
X1658500Y363430D02*
X1668500Y363430D01*
X1772500Y363430D02*
X1788500Y363430D01*
X1840500Y363430D02*
X1851500Y363430D01*
X1906500Y363430D02*
X1917500Y363430D01*
X2021500Y363430D02*
X2036500Y363430D01*
X2089500Y363430D02*
X2099500Y363430D01*
X2154500Y363430D02*
X2165500Y363430D01*
X1274500Y362430D02*
X1291500Y362430D01*
X1344500Y362430D02*
X1354500Y362430D01*
X1409500Y362430D02*
X1420500Y362430D01*
X1523500Y362430D02*
X1539500Y362430D01*
X1592500Y362430D02*
X1603500Y362430D01*
X1658500Y362430D02*
X1668500Y362430D01*
X1771500Y362430D02*
X1787500Y362430D01*
X1840500Y362430D02*
X1851500Y362430D01*
X1906500Y362430D02*
X1917500Y362430D01*
X2019500Y362430D02*
X2036500Y362430D01*
X2089500Y362430D02*
X2099500Y362430D01*
X2154500Y362430D02*
X2165500Y362430D01*
X1273500Y361430D02*
X1290500Y361430D01*
X1344500Y361430D02*
X1354500Y361430D01*
X1409500Y361430D02*
X1420500Y361430D01*
X1522500Y361430D02*
X1538500Y361430D01*
X1592500Y361430D02*
X1603500Y361430D01*
X1658500Y361430D02*
X1668500Y361430D01*
X1770500Y361430D02*
X1786500Y361430D01*
X1840500Y361430D02*
X1851500Y361430D01*
X1906500Y361430D02*
X1917500Y361430D01*
X2018500Y361430D02*
X2035500Y361430D01*
X2089500Y361430D02*
X2099500Y361430D01*
X2154500Y361430D02*
X2165500Y361430D01*
X1272500Y360430D02*
X1289500Y360430D01*
X1344500Y360430D02*
X1354500Y360430D01*
X1409500Y360430D02*
X1420500Y360430D01*
X1520500Y360430D02*
X1537500Y360430D01*
X1592500Y360430D02*
X1603500Y360430D01*
X1658500Y360430D02*
X1668500Y360430D01*
X1769500Y360430D02*
X1785500Y360430D01*
X1840500Y360430D02*
X1851500Y360430D01*
X1906500Y360430D02*
X1917500Y360430D01*
X2017500Y360430D02*
X2034500Y360430D01*
X2089500Y360430D02*
X2099500Y360430D01*
X2154500Y360430D02*
X2165500Y360430D01*
X1270500Y359430D02*
X1288500Y359430D01*
X1344500Y359430D02*
X1354500Y359430D01*
X1409500Y359430D02*
X1420500Y359430D01*
X1519500Y359430D02*
X1536500Y359430D01*
X1592500Y359430D02*
X1603500Y359430D01*
X1658500Y359430D02*
X1668500Y359430D01*
X1767500Y359430D02*
X1784500Y359430D01*
X1840500Y359430D02*
X1851500Y359430D01*
X1906500Y359430D02*
X1917500Y359430D01*
X2015500Y359430D02*
X2033500Y359430D01*
X2089500Y359430D02*
X2099500Y359430D01*
X2154500Y359430D02*
X2165500Y359430D01*
X1242500Y358430D02*
X1286500Y358430D01*
X1330500Y358430D02*
X1368500Y358430D01*
X1409500Y358430D02*
X1420500Y358430D01*
X1490500Y358430D02*
X1535500Y358430D01*
X1579500Y358430D02*
X1616500Y358430D01*
X1658500Y358430D02*
X1668500Y358430D01*
X1738500Y358430D02*
X1783500Y358430D01*
X1827500Y358430D02*
X1864500Y358430D01*
X1906500Y358430D02*
X1917500Y358430D01*
X1987500Y358430D02*
X2031500Y358430D01*
X2075500Y358430D02*
X2113500Y358430D01*
X2154500Y358430D02*
X2165500Y358430D01*
X1240500Y357430D02*
X1285500Y357430D01*
X1329500Y357430D02*
X1369500Y357430D01*
X1409500Y357430D02*
X1420500Y357430D01*
X1489500Y357430D02*
X1534500Y357430D01*
X1577500Y357430D02*
X1618500Y357430D01*
X1658500Y357430D02*
X1668500Y357430D01*
X1737500Y357430D02*
X1782500Y357430D01*
X1825500Y357430D02*
X1866500Y357430D01*
X1906500Y357430D02*
X1917500Y357430D01*
X1985500Y357430D02*
X2030500Y357430D01*
X2074500Y357430D02*
X2114500Y357430D01*
X2154500Y357430D02*
X2165500Y357430D01*
X1239500Y356430D02*
X1284500Y356430D01*
X1328500Y356430D02*
X1370500Y356430D01*
X1409500Y356430D02*
X1420500Y356430D01*
X1488500Y356430D02*
X1532500Y356430D01*
X1576500Y356430D02*
X1618500Y356430D01*
X1658500Y356430D02*
X1668500Y356430D01*
X1736500Y356430D02*
X1781500Y356430D01*
X1825500Y356430D02*
X1867500Y356430D01*
X1906500Y356430D02*
X1917500Y356430D01*
X1984500Y356430D02*
X2029500Y356430D01*
X2073500Y356430D02*
X2115500Y356430D01*
X2154500Y356430D02*
X2165500Y356430D01*
X1239500Y355430D02*
X1283500Y355430D01*
X1327500Y355430D02*
X1371500Y355430D01*
X1409500Y355430D02*
X1420500Y355430D01*
X1487500Y355430D02*
X1531500Y355430D01*
X1576500Y355430D02*
X1619500Y355430D01*
X1658500Y355430D02*
X1668500Y355430D01*
X1735500Y355430D02*
X1780500Y355430D01*
X1824500Y355430D02*
X1867500Y355430D01*
X1906500Y355430D02*
X1917500Y355430D01*
X1984500Y355430D02*
X2028500Y355430D01*
X2072500Y355430D02*
X2116500Y355430D01*
X2154500Y355430D02*
X2165500Y355430D01*
X1238500Y354430D02*
X1282500Y354430D01*
X1327500Y354430D02*
X1371500Y354430D01*
X1409500Y354430D02*
X1420500Y354430D01*
X1487500Y354430D02*
X1530500Y354430D01*
X1575500Y354430D02*
X1620500Y354430D01*
X1658500Y354430D02*
X1668500Y354430D01*
X1735500Y354430D02*
X1778500Y354430D01*
X1823500Y354430D02*
X1868500Y354430D01*
X1906500Y354430D02*
X1917500Y354430D01*
X1983500Y354430D02*
X2027500Y354430D01*
X2072500Y354430D02*
X2116500Y354430D01*
X2154500Y354430D02*
X2165500Y354430D01*
X1238500Y353430D02*
X1281500Y353430D01*
X1327500Y353430D02*
X1371500Y353430D01*
X1409500Y353430D02*
X1420500Y353430D01*
X1487500Y353430D02*
X1529500Y353430D01*
X1575500Y353430D02*
X1620500Y353430D01*
X1658500Y353430D02*
X1668500Y353430D01*
X1735500Y353430D02*
X1777500Y353430D01*
X1823500Y353430D02*
X1868500Y353430D01*
X1906500Y353430D02*
X1917500Y353430D01*
X1983500Y353430D02*
X2026500Y353430D01*
X2072500Y353430D02*
X2116500Y353430D01*
X2154500Y353430D02*
X2165500Y353430D01*
X1238500Y352430D02*
X1280500Y352430D01*
X1327500Y352430D02*
X1371500Y352430D01*
X1409500Y352430D02*
X1420500Y352430D01*
X1487500Y352430D02*
X1528500Y352430D01*
X1575500Y352430D02*
X1620500Y352430D01*
X1658500Y352430D02*
X1668500Y352430D01*
X1735500Y352430D02*
X1776500Y352430D01*
X1823500Y352430D02*
X1868500Y352430D01*
X1906500Y352430D02*
X1917500Y352430D01*
X1983500Y352430D02*
X2024500Y352430D01*
X2072500Y352430D02*
X2116500Y352430D01*
X2154500Y352430D02*
X2165500Y352430D01*
X1238500Y351430D02*
X1278500Y351430D01*
X1327500Y351430D02*
X1371500Y351430D01*
X1409500Y351430D02*
X1420500Y351430D01*
X1487500Y351430D02*
X1527500Y351430D01*
X1575500Y351430D02*
X1619500Y351430D01*
X1658500Y351430D02*
X1668500Y351430D01*
X1735500Y351430D02*
X1775500Y351430D01*
X1824500Y351430D02*
X1868500Y351430D01*
X1906500Y351430D02*
X1917500Y351430D01*
X1983500Y351430D02*
X2023500Y351430D01*
X2072500Y351430D02*
X2116500Y351430D01*
X2154500Y351430D02*
X2165500Y351430D01*
X1239500Y350430D02*
X1277500Y350430D01*
X1327500Y350430D02*
X1371500Y350430D01*
X1409500Y350430D02*
X1420500Y350430D01*
X1487500Y350430D02*
X1525500Y350430D01*
X1576500Y350430D02*
X1619500Y350430D01*
X1658500Y350430D02*
X1668500Y350430D01*
X1736500Y350430D02*
X1774500Y350430D01*
X1824500Y350430D02*
X1867500Y350430D01*
X1906500Y350430D02*
X1917500Y350430D01*
X1984500Y350430D02*
X2022500Y350430D01*
X2072500Y350430D02*
X2116500Y350430D01*
X2154500Y350430D02*
X2165500Y350430D01*
X1240500Y349430D02*
X1275500Y349430D01*
X1328500Y349430D02*
X1370500Y349430D01*
X1409500Y349430D02*
X1420500Y349430D01*
X1488500Y349430D02*
X1524500Y349430D01*
X1576500Y349430D02*
X1618500Y349430D01*
X1658500Y349430D02*
X1668500Y349430D01*
X1736500Y349430D02*
X1772500Y349430D01*
X1825500Y349430D02*
X1867500Y349430D01*
X1906500Y349430D02*
X1917500Y349430D01*
X1985500Y349430D02*
X2020500Y349430D01*
X2073500Y349430D02*
X2115500Y349430D01*
X2154500Y349430D02*
X2165500Y349430D01*
X1241500Y348430D02*
X1273500Y348430D01*
X1329500Y348430D02*
X1369500Y348430D01*
X1409500Y348430D02*
X1420500Y348430D01*
X1489500Y348430D02*
X1522500Y348430D01*
X1578500Y348430D02*
X1617500Y348430D01*
X1658500Y348430D02*
X1668500Y348430D01*
X1737500Y348430D02*
X1770500Y348430D01*
X1826500Y348430D02*
X1865500Y348430D01*
X1906500Y348430D02*
X1917500Y348430D01*
X1986500Y348430D02*
X2018500Y348430D01*
X2074500Y348430D02*
X2114500Y348430D01*
X2154500Y348430D02*
X2165500Y348430D01*
X1243500Y347430D02*
X1268500Y347430D01*
X1332500Y347430D02*
X1366500Y347430D01*
X1409500Y347430D02*
X1420500Y347430D01*
X1492500Y347430D02*
X1516500Y347430D01*
X1580500Y347430D02*
X1615500Y347430D01*
X1658500Y347430D02*
X1668500Y347430D01*
X1740500Y347430D02*
X1765500Y347430D01*
X1828500Y347430D02*
X1863500Y347430D01*
X1906500Y347430D02*
X1917500Y347430D01*
X1988500Y347430D02*
X2013500Y347430D01*
X2077500Y347430D02*
X2111500Y347430D01*
X2154500Y347430D02*
X2165500Y347430D01*
X1409500Y346430D02*
X1420500Y346430D01*
X1658500Y346430D02*
X1668500Y346430D01*
X1906500Y346430D02*
X1917500Y346430D01*
X2154500Y346430D02*
X2165500Y346430D01*
X1409500Y345430D02*
X1420500Y345430D01*
X1658500Y345430D02*
X1668500Y345430D01*
X1906500Y345430D02*
X1917500Y345430D01*
X2154500Y345430D02*
X2165500Y345430D01*
X1409500Y344430D02*
X1420500Y344430D01*
X1658500Y344430D02*
X1668500Y344430D01*
X1906500Y344430D02*
X1917500Y344430D01*
X2154500Y344430D02*
X2165500Y344430D01*
X1409500Y343430D02*
X1420500Y343430D01*
X1446500Y343430D02*
X1451500Y343430D01*
X1658500Y343430D02*
X1668500Y343430D01*
X1695500Y343430D02*
X1700500Y343430D01*
X1906500Y343430D02*
X1917500Y343430D01*
X1943500Y343430D02*
X1948500Y343430D01*
X2154500Y343430D02*
X2165500Y343430D01*
X2191500Y343430D02*
X2196500Y343430D01*
X1409500Y342430D02*
X1420500Y342430D01*
X1445500Y342430D02*
X1453500Y342430D01*
X1658500Y342430D02*
X1668500Y342430D01*
X1694500Y342430D02*
X1701500Y342430D01*
X1906500Y342430D02*
X1917500Y342430D01*
X1942500Y342430D02*
X1949500Y342430D01*
X2154500Y342430D02*
X2165500Y342430D01*
X2190500Y342430D02*
X2198500Y342430D01*
X1409500Y341430D02*
X1420500Y341430D01*
X1445500Y341430D02*
X1453500Y341430D01*
X1658500Y341430D02*
X1668500Y341430D01*
X1693500Y341430D02*
X1702500Y341430D01*
X1906500Y341430D02*
X1917500Y341430D01*
X1941500Y341430D02*
X1950500Y341430D01*
X2154500Y341430D02*
X2165500Y341430D01*
X2190500Y341430D02*
X2198500Y341430D01*
X1409500Y340430D02*
X1420500Y340430D01*
X1444500Y340430D02*
X1454500Y340430D01*
X1658500Y340430D02*
X1668500Y340430D01*
X1692500Y340430D02*
X1702500Y340430D01*
X1906500Y340430D02*
X1917500Y340430D01*
X1941500Y340430D02*
X1950500Y340430D01*
X2154500Y340430D02*
X2165500Y340430D01*
X2189500Y340430D02*
X2199500Y340430D01*
X1410500Y339430D02*
X1420500Y339430D01*
X1444500Y339430D02*
X1454500Y339430D01*
X1658500Y339430D02*
X1668500Y339430D01*
X1692500Y339430D02*
X1702500Y339430D01*
X1906500Y339430D02*
X1917500Y339430D01*
X1940500Y339430D02*
X1951500Y339430D01*
X2154500Y339430D02*
X2165500Y339430D01*
X2189500Y339430D02*
X2199500Y339430D01*
X1410500Y338430D02*
X1420500Y338430D01*
X1443500Y338430D02*
X1454500Y338430D01*
X1658500Y338430D02*
X1669500Y338430D01*
X1692500Y338430D02*
X1702500Y338430D01*
X1906500Y338430D02*
X1917500Y338430D01*
X1940500Y338430D02*
X1951500Y338430D01*
X2155500Y338430D02*
X2165500Y338430D01*
X2188500Y338430D02*
X2199500Y338430D01*
X1410500Y337430D02*
X1421500Y337430D01*
X1443500Y337430D02*
X1454500Y337430D01*
X1658500Y337430D02*
X1669500Y337430D01*
X1691500Y337430D02*
X1702500Y337430D01*
X1906500Y337430D02*
X1917500Y337430D01*
X1939500Y337430D02*
X1951500Y337430D01*
X2155500Y337430D02*
X2166500Y337430D01*
X2188500Y337430D02*
X2199500Y337430D01*
X1410500Y336430D02*
X1422500Y336430D01*
X1442500Y336430D02*
X1454500Y336430D01*
X1658500Y336430D02*
X1670500Y336430D01*
X1690500Y336430D02*
X1702500Y336430D01*
X1907500Y336430D02*
X1918500Y336430D01*
X1939500Y336430D02*
X1951500Y336430D01*
X2155500Y336430D02*
X2167500Y336430D01*
X2187500Y336430D02*
X2199500Y336430D01*
X1410500Y335430D02*
X1423500Y335430D01*
X1441500Y335430D02*
X1454500Y335430D01*
X1658500Y335430D02*
X1671500Y335430D01*
X1689500Y335430D02*
X1702500Y335430D01*
X1907500Y335430D02*
X1920500Y335430D01*
X1937500Y335430D02*
X1950500Y335430D01*
X2155500Y335430D02*
X2168500Y335430D01*
X2186500Y335430D02*
X2199500Y335430D01*
X1410500Y334430D02*
X1453500Y334430D01*
X1659500Y334430D02*
X1702500Y334430D01*
X1907500Y334430D02*
X1950500Y334430D01*
X2155500Y334430D02*
X2198500Y334430D01*
X1411500Y333430D02*
X1453500Y333430D01*
X1659500Y333430D02*
X1701500Y333430D01*
X1907500Y333430D02*
X1950500Y333430D01*
X2156500Y333430D02*
X2198500Y333430D01*
X1411500Y332430D02*
X1453500Y332430D01*
X1660500Y332430D02*
X1701500Y332430D01*
X1908500Y332430D02*
X1949500Y332430D01*
X2156500Y332430D02*
X2198500Y332430D01*
X1412500Y331430D02*
X1452500Y331430D01*
X1660500Y331430D02*
X1700500Y331430D01*
X1909500Y331430D02*
X1949500Y331430D01*
X2157500Y331430D02*
X2197500Y331430D01*
X1412500Y330430D02*
X1451500Y330430D01*
X1661500Y330430D02*
X1700500Y330430D01*
X1909500Y330430D02*
X1948500Y330430D01*
X2157500Y330430D02*
X2196500Y330430D01*
X1413500Y329430D02*
X1450500Y329430D01*
X1662500Y329430D02*
X1699500Y329430D01*
X1910500Y329430D02*
X1947500Y329430D01*
X2158500Y329430D02*
X2195500Y329430D01*
X1414500Y328430D02*
X1449500Y328430D01*
X1662500Y328430D02*
X1698500Y328430D01*
X1911500Y328430D02*
X1946500Y328430D01*
X2159500Y328430D02*
X2194500Y328430D01*
X1415500Y327430D02*
X1448500Y327430D01*
X1664500Y327430D02*
X1697500Y327430D01*
X1912500Y327430D02*
X1945500Y327430D01*
X2160500Y327430D02*
X2193500Y327430D01*
X1416500Y326430D02*
X1447500Y326430D01*
X1665500Y326430D02*
X1695500Y326430D01*
X1913500Y326430D02*
X1944500Y326430D01*
X2161500Y326430D02*
X2192500Y326430D01*
X1418500Y325430D02*
X1445500Y325430D01*
X1666500Y325430D02*
X1694500Y325430D01*
X1915500Y325430D02*
X1942500Y325430D01*
X2163500Y325430D02*
X2190500Y325430D01*
X1420500Y324430D02*
X1443500Y324430D01*
X1668500Y324430D02*
X1692500Y324430D01*
X1917500Y324430D02*
X1940500Y324430D01*
X2165500Y324430D02*
X2188500Y324430D01*
X1423500Y323430D02*
X1440500Y323430D01*
X1671500Y323430D02*
X1689500Y323430D01*
X1920500Y323430D02*
X1937500Y323430D01*
X2168500Y323430D02*
X2185500Y323430D01*
D02*
G04 End of Silk0*
M02*