; NON-PLATED HOLES START AT T1
; THROUGH (PLATED) HOLES START AT T100
M48
INCH
T100C0.042000
T101C0.043307
T102C0.035433
T103C0.038000
T104C0.082677
T105C0.030000
T106C0.045000
T107C0.031496
T108C0.039370
T109C0.040000
T110C0.035000
%
T100
X014868Y000730
X011888Y000730
T101
X008907Y035419
X001587Y033446
X001576Y029320
X007285Y028340
X001576Y027352
X007285Y027356
X008907Y033451
X007296Y035419
X007296Y033450
X014674Y029346
X008965Y027373
X007285Y029325
X008907Y034435
X014616Y033455
X014616Y035423
X008965Y029341
X014674Y027377
X008965Y028357
X001587Y035415
X007296Y034435
T102
X007216Y014655
X002901Y039291
X002901Y025291
X007216Y017655
X003968Y040291
X007216Y016655
X002901Y026291
X007216Y011655
X002901Y038291
X002901Y033291
X002901Y027291
X002901Y031291
X002901Y034291
X007216Y012655
X007216Y013655
X002901Y042291
X007216Y018655
X010213Y022111
X002901Y041291
X007213Y022111
X009213Y022111
X007216Y015655
X002901Y032291
X002901Y028291
X002901Y030291
X002901Y037291
X002901Y023291
X002901Y024291
X011213Y022111
X002901Y035291
X002901Y029291
X002901Y036291
X007216Y019655
X003968Y041291
X002901Y040291
X012213Y022111
X003968Y042291
X008213Y022111
T103
X014959Y038480
X014959Y040480
X014959Y039480
X014959Y041480
T104
X004343Y032250
X011918Y030542
X004332Y030525
X011860Y032250
X004332Y026155
X011860Y036620
X011918Y026172
X004343Y036620
T105
X011802Y002996
X010248Y023647
X012248Y023647
X011802Y001994
T106
X000542Y019150
X013975Y005309
X005040Y005310
X005002Y014235
X010727Y005309
X000597Y008902
X010727Y019148
X015215Y005309
X001792Y005311
X013975Y008900
X015215Y019148
X001754Y014235
X013975Y014233
X000552Y005311
X010727Y008900
X010727Y014233
X001782Y019150
X013975Y019148
X015215Y008900
X005030Y019150
X015215Y014233
X000514Y014235
X005085Y008902
X001838Y008902
T107
X013346Y042291
X013346Y034291
X013346Y036291
X013346Y035291
X013346Y029291
X013346Y038291
X013346Y027291
X013346Y031291
X013346Y033291
X013346Y024291
X013346Y026291
X013346Y028291
X013346Y030291
X013346Y023291
X013346Y037291
X013346Y039291
X013346Y025291
X013346Y032291
X013346Y041291
X013346Y040291
T108
X008883Y004532
X006883Y004532
X007883Y004532
T109
X003163Y002330
X009163Y001330
X006163Y001330
X008163Y001330
X004163Y001330
X005163Y001330
X002163Y002330
X007163Y001330
X003163Y001330
X009163Y002330
X006163Y002330
X004163Y002330
X008163Y002330
X005163Y002330
X007163Y002330
X002163Y001330
T110
X007604Y025214
X014424Y001871
X004279Y016705
X010604Y025214
X000603Y011858
X009517Y020959
X006073Y018569
X006073Y015569
X002212Y010992
X007079Y007649
X006187Y012285
X012214Y021215
X006187Y009285
X013610Y011070
X012265Y011880
X000623Y024492
X007079Y010649
X013291Y016356
X015214Y021215
X000566Y020216
X015043Y017056
X003603Y011858
X009566Y011707
X015265Y011880
X014424Y002870
X010291Y016356
X009566Y014707
X005212Y010992
X010610Y011070
X000623Y027492
X009517Y017959
X012043Y017056
X001279Y016705
X004297Y021493
X006439Y021200
X000566Y023216
X001297Y021493
X006439Y024200
T00
M30
